<svg width="190" height="188" viewBox="0 0 190 188" fill="none" xmlns="http://www.w3.org/2000/svg">
<path d="M80.3113 57.3136C80.2705 57.3136 80.2297 57.3034 80.1889 57.283C80.0767 57.2116 80.0462 57.079 80.1175 56.9669L93.4348 35.3085C93.4755 35.2371 93.5469 35.1963 93.6285 35.1963C93.7101 35.1963 93.7815 35.2371 93.8222 35.3085L106.558 56.3856C106.619 56.4978 106.589 56.6304 106.477 56.7017C106.365 56.7629 106.232 56.7323 106.161 56.6202L93.6183 35.8693L80.505 57.2014C80.4642 57.2728 80.3826 57.3136 80.3113 57.3136Z" fill="#000139"/>
<path d="M94.0874 69.3562H93.2818C87.1432 69.3562 80.3113 64.4922 80.3113 58.3536H106.946C106.946 64.4922 100.226 69.3562 94.0874 69.3562Z" fill="white"/>
<path d="M94.0874 69.5805H93.2716C87.1636 69.5805 80.0768 64.6758 80.0768 58.3536C80.0768 58.2313 80.1787 58.1293 80.3011 58.1293H106.936C107.058 58.1293 107.16 58.2313 107.16 58.3536C107.16 61.3006 105.661 64.1353 102.949 66.3379C100.42 68.3977 97.1771 69.5805 94.0874 69.5805ZM80.5458 58.5882C80.7192 64.5432 87.4695 69.1318 93.2818 69.1318H94.0976C97.0445 69.1318 100.257 67.9592 102.683 65.981C105.222 63.9314 106.64 61.3108 106.721 58.5882H80.5458Z" fill="#000139"/>
<path d="M107.629 59.047H79.159C78.7104 59.047 78.3433 58.6799 78.3433 58.2313V56.9669C78.3433 56.5182 78.7104 56.1511 79.159 56.1511H107.639C108.088 56.1511 108.455 56.5182 108.455 56.9669V58.2313C108.445 58.6799 108.078 59.047 107.629 59.047Z" fill="white"/>
<path d="M107.629 59.2816H79.159C78.5778 59.2816 78.1189 58.8125 78.1189 58.2415V56.9771C78.1189 56.3958 78.588 55.937 79.159 55.937H107.639C108.22 55.937 108.679 56.406 108.679 56.9771V58.2415C108.679 58.8125 108.21 59.2816 107.629 59.2816ZM79.159 56.3856C78.8327 56.3856 78.5676 56.6508 78.5676 56.9771V58.2415C78.5676 58.5678 78.8327 58.8329 79.159 58.8329H107.639C107.965 58.8329 108.231 58.5678 108.231 58.2415V56.9771C108.231 56.6508 107.965 56.3856 107.639 56.3856H79.159Z" fill="#000139"/>
<path d="M124.505 130.742H120.12L121.436 30.312C122.323 30.312 123.057 30.9544 123.067 31.76L124.505 130.742Z" fill="white"/>
<path d="M124.505 130.966H120.12C120.059 130.966 119.998 130.946 119.957 130.895C119.916 130.854 119.886 130.793 119.896 130.732L121.211 30.3018C121.211 30.1794 121.313 30.0775 121.436 30.0775C122.445 30.0775 123.281 30.832 123.291 31.7498L124.729 130.732C124.729 130.793 124.709 130.854 124.668 130.895C124.627 130.946 124.566 130.966 124.505 130.966ZM120.355 130.507H124.281L122.843 31.76C122.833 31.1482 122.323 30.6485 121.67 30.5465L120.355 130.507Z" fill="#000139"/>
<path d="M148.137 47.1396L148.488 45.3068L92.061 34.512L91.7104 36.3448L148.137 47.1396Z" fill="white"/>
<path d="M148.131 47.3715C148.121 47.3715 148.101 47.3715 148.09 47.3715L91.6707 36.5729C91.5483 36.5525 91.4667 36.4302 91.4871 36.3078L91.8338 34.4826C91.844 34.4214 91.8848 34.3704 91.9256 34.3398C91.9766 34.3092 92.0378 34.2888 92.0989 34.3092L148.529 45.1078C148.59 45.118 148.641 45.1588 148.672 45.1996C148.702 45.2506 148.723 45.3117 148.702 45.3729L148.356 47.1982C148.335 47.2899 148.243 47.3715 148.131 47.3715ZM91.9766 36.1651L147.948 46.8719L148.213 45.4953L92.2417 34.7885L91.9766 36.1651Z" fill="#000139"/>
<path d="M93.3736 37.766C94.4661 37.766 95.3518 36.8803 95.3518 35.7878C95.3518 34.6952 94.4661 33.8096 93.3736 33.8096C92.2811 33.8096 91.3954 34.6952 91.3954 35.7878C91.3954 36.8803 92.2811 37.766 93.3736 37.766Z" fill="white"/>
<path d="M93.3736 38.0005C92.1602 38.0005 91.1711 37.0114 91.1711 35.798C91.1711 34.5845 92.1602 33.5954 93.3736 33.5954C94.587 33.5954 95.5761 34.5845 95.5761 35.798C95.5761 37.0114 94.587 38.0005 93.3736 38.0005ZM93.3736 34.0441C92.4151 34.0441 91.6299 34.8293 91.6299 35.7878C91.6299 36.7463 92.4151 37.5314 93.3736 37.5314C94.3321 37.5314 95.1173 36.7463 95.1173 35.7878C95.1173 34.8293 94.3321 34.0441 93.3736 34.0441Z" fill="#000139"/>
<path d="M126.151 42.8251C126.669 40.6678 125.341 38.4985 123.183 37.9799C121.026 37.4614 118.856 38.7899 118.338 40.9473C117.819 43.1047 119.148 45.274 121.305 45.7926C123.463 46.3111 125.632 44.9825 126.151 42.8251Z" fill="white"/>
<path d="M122.241 46.1377C119.896 46.1377 117.989 44.2309 117.989 41.8856C117.989 39.5403 119.896 37.6334 122.241 37.6334C124.586 37.6334 126.493 39.5403 126.493 41.8856C126.493 44.2309 124.586 46.1377 122.241 46.1377ZM122.241 38.0923C120.151 38.0923 118.448 39.7952 118.448 41.8856C118.448 43.9759 120.151 45.6788 122.241 45.6788C124.332 45.6788 126.034 43.9759 126.034 41.8856C126.034 39.7952 124.332 38.0923 122.241 38.0923Z" fill="#000139"/>
<path d="M133.754 67.9898C133.713 67.9898 133.672 67.9796 133.631 67.9592C133.519 67.8878 133.488 67.7552 133.56 67.6431L146.877 45.9847C146.918 45.9134 146.989 45.8726 147.071 45.8726C147.152 45.8726 147.224 45.9134 147.265 45.9847L160.001 67.0618C160.062 67.174 160.031 67.3066 159.919 67.378C159.807 67.4391 159.674 67.4085 159.603 67.2964L147.061 46.5456L133.937 67.8776C133.907 67.949 133.825 67.9898 133.754 67.9898Z" fill="#000139"/>
<path d="M147.53 80.0324H146.724C140.586 80.0324 133.754 75.1684 133.754 69.0299H160.388C160.388 75.1684 153.668 80.0324 147.53 80.0324Z" fill="white"/>
<path d="M147.53 80.2567H146.714C140.606 80.2567 133.519 75.352 133.519 69.0299C133.519 68.9075 133.621 68.8055 133.743 68.8055H160.378C160.5 68.8055 160.602 68.9075 160.602 69.0299C160.602 71.9768 159.103 74.8115 156.391 77.0141C153.862 79.0739 150.63 80.2567 147.53 80.2567ZM133.988 69.2542C134.161 75.2092 140.912 79.7979 146.724 79.7979H147.54C150.487 79.7979 153.699 78.6252 156.126 76.647C158.665 74.5974 160.082 71.9768 160.164 69.2542H133.988Z" fill="#000139"/>
<path d="M161.071 69.7233H132.591C132.142 69.7233 131.775 69.3562 131.775 68.9075V67.6431C131.775 67.1944 132.142 66.8273 132.591 66.8273H161.071C161.52 66.8273 161.887 67.1944 161.887 67.6431V68.9075C161.897 69.3562 161.53 69.7233 161.071 69.7233Z" fill="white"/>
<path d="M161.071 69.9578H132.591C132.01 69.9578 131.551 69.4887 131.551 68.9177V67.6533C131.551 67.072 132.02 66.6132 132.591 66.6132H161.071C161.652 66.6132 162.111 67.0822 162.111 67.6533V68.9177C162.122 69.4887 161.652 69.9578 161.071 69.9578ZM132.601 67.0618C132.275 67.0618 132.01 67.327 132.01 67.6533V68.9177C132.01 69.244 132.275 69.5091 132.601 69.5091H161.081C161.408 69.5091 161.673 69.244 161.673 68.9177V67.6533C161.673 67.327 161.408 67.0618 161.081 67.0618H132.601Z" fill="#000139"/>
<path d="M147.611 48.1669C148.704 48.1669 149.589 47.2812 149.589 46.1887C149.589 45.0961 148.704 44.2105 147.611 44.2105C146.519 44.2105 145.633 45.0961 145.633 46.1887C145.633 47.2812 146.519 48.1669 147.611 48.1669Z" fill="white"/>
<path d="M147.611 48.3912C146.398 48.3912 145.409 47.4021 145.409 46.1887C145.409 44.9752 146.398 43.9861 147.611 43.9861C148.825 43.9861 149.814 44.9752 149.814 46.1887C149.814 47.4021 148.825 48.3912 147.611 48.3912ZM147.611 44.445C146.653 44.445 145.868 45.2302 145.868 46.1887C145.868 47.1472 146.653 47.9324 147.611 47.9324C148.57 47.9324 149.355 47.1472 149.355 46.1887C149.355 45.2302 148.58 44.445 147.611 44.445Z" fill="#000139"/>
<path d="M149.518 104.077V114.131C149.518 123.961 141.758 131.935 132.183 131.935C122.608 131.935 114.848 139.909 114.848 149.739C114.848 150.616 115.562 151.33 116.429 151.33H162.325C176.683 151.33 188.317 139.379 188.317 124.644V103.19C188.317 97.3264 183.688 92.5746 177.978 92.5746H160.725C154.535 92.5644 149.518 97.7241 149.518 104.077Z" fill="white"/>
<path d="M162.325 151.544H116.429C115.43 151.544 114.614 150.728 114.614 149.729C114.614 139.787 122.496 131.7 132.183 131.7C141.615 131.7 149.294 123.818 149.294 114.131V104.077C149.294 97.6017 154.423 92.3401 160.735 92.3401H177.988C183.81 92.3401 188.552 97.2041 188.552 103.179V124.634C188.552 139.47 176.785 151.544 162.325 151.544ZM160.735 92.799C154.678 92.799 149.753 97.8567 149.753 104.077V114.131C149.753 124.073 141.87 132.159 132.183 132.159C122.751 132.159 115.073 140.042 115.073 149.729C115.073 150.473 115.685 151.085 116.429 151.085H162.325C176.53 151.085 188.093 139.216 188.093 124.624V103.169C188.093 97.4386 183.556 92.7888 177.988 92.7888H160.735V92.799Z" fill="#000139"/>
<path d="M154.821 133.199H150.66V181.625H154.821V133.199Z" fill="white"/>
<path d="M154.81 181.859H150.65C150.528 181.859 150.426 181.757 150.426 181.635V133.21C150.426 133.087 150.528 132.985 150.65 132.985H154.81C154.933 132.985 155.035 133.087 155.035 133.21V181.635C155.045 181.757 154.943 181.859 154.81 181.859ZM150.884 181.4H154.586V133.434H150.884V181.4Z" fill="#000139"/>
<path d="M133.244 183.205L151.649 181.584H153.332L172.125 183.205V184.48H133.244V183.205Z" fill="white"/>
<path d="M172.125 184.714H133.234C133.111 184.714 133.009 184.612 133.009 184.49V183.205C133.009 183.083 133.101 182.991 133.213 182.981L151.629 181.36H153.332L172.145 182.981C172.267 182.991 172.359 183.093 172.359 183.205V184.49C172.359 184.612 172.257 184.714 172.125 184.714ZM133.468 184.256H171.9V183.409L153.322 181.808H151.649L133.468 183.409V184.256Z" fill="#000139"/>
<path d="M140.198 174.752C139.77 174.324 137.302 166.645 137.302 166.645L132.428 170.123L137.771 177.301L140.198 174.752Z" fill="white"/>
<path d="M137.771 177.536H137.761C137.69 177.536 137.628 177.495 137.588 177.444L132.244 170.265C132.204 170.214 132.193 170.153 132.204 170.092C132.214 170.031 132.244 169.98 132.295 169.939L137.17 166.462C137.231 166.421 137.302 166.411 137.373 166.431C137.445 166.452 137.496 166.513 137.516 166.574C138.454 169.48 140.055 174.232 140.351 174.589C140.433 174.681 140.433 174.823 140.351 174.905L137.924 177.454C137.894 177.505 137.843 177.536 137.771 177.536ZM132.754 170.174L137.792 176.944L139.913 174.711C139.331 173.61 137.71 168.644 137.18 167.002L132.754 170.174Z" fill="#000139"/>
<path d="M131.418 184.449L134.661 184.429C136.802 184.419 138.801 183.328 139.974 181.533L143.176 176.455C144.063 175.048 143.563 173.192 142.105 172.417C140.769 171.703 139.362 171.01 139.036 171.04C138.373 171.101 138.097 174.263 138.097 174.263L135.212 174.375C135.212 174.375 133.784 180.309 132.53 180.982C131.612 181.472 130.98 182.196 130.552 182.848C130.093 183.542 130.593 184.459 131.418 184.449Z" fill="#000139"/>
<path d="M131.745 183.419C131.633 183.419 131.531 183.338 131.52 183.226C131.5 183.103 131.592 182.981 131.714 182.961L136.15 182.298C137.078 182.155 137.894 181.615 138.373 180.809L142.288 174.263C142.35 174.15 142.492 174.12 142.605 174.181C142.717 174.242 142.747 174.385 142.686 174.497L138.77 181.043C138.22 181.971 137.292 182.593 136.221 182.757L131.786 183.419C131.765 183.409 131.755 183.419 131.745 183.419Z" fill="white"/>
<path d="M137.21 178.494C137.19 178.494 137.17 178.494 137.149 178.484L134.681 177.811C134.559 177.78 134.488 177.648 134.518 177.526C134.549 177.403 134.681 177.332 134.804 177.362L137.272 178.035C137.394 178.066 137.465 178.199 137.435 178.321C137.404 178.423 137.312 178.494 137.21 178.494Z" fill="white"/>
<path d="M135.926 179.759C135.905 179.759 135.885 179.759 135.875 179.748L134.223 179.341C134.1 179.31 134.029 179.188 134.059 179.065C134.09 178.943 134.212 178.872 134.335 178.902L135.987 179.31C136.109 179.341 136.18 179.463 136.15 179.585C136.129 179.687 136.027 179.759 135.926 179.759Z" fill="white"/>
<path d="M123.567 173.284L117.907 178.974L114.91 177.872L120.13 170.592L123.567 173.284Z" fill="white"/>
<path d="M117.907 179.198C117.877 179.198 117.857 179.198 117.826 179.188L114.828 178.086C114.757 178.066 114.706 178.005 114.685 177.944C114.665 177.872 114.675 177.801 114.716 177.74L119.937 170.469C119.977 170.418 120.028 170.388 120.09 170.377C120.151 170.367 120.212 170.388 120.263 170.428L123.71 173.12C123.761 173.161 123.791 173.222 123.801 173.284C123.801 173.345 123.781 173.416 123.74 173.457L118.081 179.147C118.03 179.177 117.969 179.198 117.907 179.198ZM115.277 177.76L117.857 178.708L123.23 173.314L120.181 170.928L115.277 177.76Z" fill="#000139"/>
<path d="M119.702 178.086C119.702 178.086 119.977 180.503 119.508 182.644C119.264 183.786 118.234 184.582 117.071 184.582H103.183C102.194 184.582 101.745 183.338 102.5 182.706C104.968 180.636 109.515 177.475 115.093 176.547L116.653 178.729L119.702 178.086Z" fill="#000139"/>
<path d="M118.234 182.899H103.846C103.724 182.899 103.622 182.797 103.622 182.675C103.622 182.553 103.724 182.451 103.846 182.451H118.234C118.356 182.451 118.458 182.553 118.458 182.675C118.458 182.797 118.356 182.899 118.234 182.899Z" fill="white"/>
<path d="M111.871 180.34C111.779 180.34 111.698 180.289 111.657 180.197L110.892 178.351C110.841 178.239 110.902 178.097 111.014 178.056C111.127 178.005 111.269 178.066 111.31 178.178L112.075 180.024C112.126 180.136 112.065 180.279 111.952 180.32C111.932 180.34 111.901 180.34 111.871 180.34Z" fill="white"/>
<path d="M109.373 180.829C109.281 180.829 109.189 180.768 109.158 180.676L108.608 179.014C108.567 178.892 108.638 178.77 108.751 178.729C108.873 178.688 108.995 178.759 109.036 178.872L109.587 180.534C109.628 180.656 109.566 180.778 109.444 180.819C109.413 180.819 109.393 180.829 109.373 180.829Z" fill="white"/>
<path d="M153.515 133.505C153.515 133.505 127.656 130.497 119.967 137.156C112.279 143.814 132.102 172.437 132.102 172.437L138.373 167.787L132.428 147.557L156.33 140.765L153.515 133.505Z" fill="#000139"/>
<path d="M167.75 146.68C163.998 147.873 157.268 149.413 147.876 149.28C145.205 149.239 142.747 150.718 141.534 153.094C138.75 158.549 132.734 168.379 122.914 174.742L118.234 172.213L130.195 145.293C131.286 142.835 133.325 140.929 135.854 140.001L159.552 131.313C159.552 131.313 166.904 129.263 170.503 135.82C171.146 136.993 172.339 134.902 172.624 135.84C173.603 139.093 170.983 145.65 167.75 146.68Z" fill="#000139"/>
<path d="M124.79 157.703C124.76 157.703 124.729 157.692 124.699 157.682C124.586 157.631 124.536 157.499 124.586 157.376L129.991 145.211C131.102 142.713 133.213 140.735 135.783 139.797L147.132 135.636C147.254 135.596 147.387 135.657 147.428 135.769C147.468 135.891 147.407 136.024 147.295 136.065L135.946 140.225C133.488 141.122 131.48 143.009 130.419 145.395L125.015 157.56C124.964 157.652 124.872 157.703 124.79 157.703Z" fill="white"/>
<path d="M131.102 168.155C131.041 168.155 130.99 168.134 130.939 168.093C130.847 168.002 130.847 167.859 130.929 167.767C132.01 166.645 133.07 165.442 134.08 164.188C134.161 164.086 134.304 164.076 134.406 164.157C134.508 164.239 134.518 164.382 134.437 164.484C133.417 165.748 132.346 166.961 131.255 168.093C131.215 168.134 131.153 168.155 131.102 168.155Z" fill="white"/>
<path d="M134.263 164.565C134.212 164.565 134.161 164.545 134.121 164.514C134.019 164.433 134.008 164.29 134.09 164.188C134.59 163.576 135.089 162.934 135.569 162.281C135.64 162.179 135.783 162.159 135.885 162.23C135.987 162.301 136.007 162.444 135.936 162.546C135.446 163.199 134.947 163.841 134.447 164.463C134.396 164.535 134.335 164.565 134.263 164.565Z" fill="white"/>
<path d="M169.382 99.4882C166.414 98.7948 165.181 98.7846 154.413 99.1721C151.782 99.2639 148.651 102.568 148.335 105.188C149.171 107.697 153.036 120.086 146.296 129.763C145.337 131.14 144.042 132.639 142.258 134.086C143.257 134.902 144.817 135.953 146.908 136.575C150.385 137.604 152.129 136.493 154.933 136.575C162.336 136.799 165.058 145.048 169.841 144.008C171.115 143.733 172.808 142.734 174.399 139.389C175.296 136.615 176.102 133.362 176.54 129.681C177.753 119.709 175.775 111.408 174.001 106.198C173.481 104.566 172.879 100.314 169.382 99.4882Z" fill="white"/>
<path d="M169.004 144.334C167.026 144.334 165.385 142.876 163.529 141.214C161.275 139.205 158.726 136.921 154.933 136.809C153.944 136.778 153.067 136.901 152.22 137.023C150.691 137.248 149.12 137.472 146.846 136.799C145.164 136.299 143.573 135.453 142.115 134.27C142.064 134.229 142.034 134.158 142.034 134.097C142.034 134.025 142.064 133.964 142.115 133.923C143.665 132.669 145.011 131.231 146.112 129.651C152.302 120.759 149.579 109.644 148.121 105.28C148.111 105.249 148.111 105.219 148.111 105.178C148.417 102.547 151.527 99.0701 154.402 98.9579C165.354 98.5603 166.476 98.5807 169.433 99.2842C172.573 100.018 173.461 103.353 174.001 105.351C174.083 105.668 174.154 105.933 174.225 106.157C176.866 113.947 177.723 121.881 176.775 129.732C176.377 133.026 175.653 136.299 174.623 139.481C174.623 139.491 174.613 139.501 174.613 139.511C173.308 142.264 171.717 143.855 169.892 144.253C169.586 144.304 169.29 144.334 169.004 144.334ZM154.627 136.34C154.729 136.34 154.831 136.34 154.933 136.34C158.889 136.462 161.51 138.797 163.824 140.857C165.864 142.672 167.618 144.253 169.79 143.774C171.462 143.407 172.94 141.908 174.185 139.297C175.204 136.156 175.918 132.904 176.316 129.651C177.264 121.86 176.407 113.998 173.787 106.269C173.715 106.035 173.634 105.759 173.552 105.433C173.042 103.536 172.196 100.375 169.321 99.6921C166.425 99.0089 165.313 98.9885 154.413 99.3862C152.006 99.478 148.906 102.527 148.57 105.147C150.048 109.614 152.771 120.851 146.479 129.875C145.409 131.415 144.103 132.832 142.615 134.066C143.961 135.116 145.429 135.881 146.969 136.34C149.141 136.982 150.599 136.778 152.149 136.554C152.924 136.462 153.729 136.34 154.627 136.34Z" fill="#000139"/>
<path d="M145.949 112.459C146.561 108.421 148.192 100.773 151.874 99.8961C150.11 105.321 150.069 111.103 150.303 117.353C150.579 124.583 143.553 133.944 143.339 133.801C140.229 133.811 138.006 133.434 137.394 132.353L144.369 117.608C145.144 115.987 145.674 114.243 145.949 112.459Z" fill="#000139"/>
<path d="M111.585 113.58H129.807C130.572 113.58 131.286 113.968 131.694 114.59L138.526 134.719H154.657V135.025C154.657 135.973 153.882 136.748 152.934 136.748H118.703C117.755 136.748 116.98 135.973 116.98 135.025V134.759L110.8 115.946C110.708 115.661 110.586 115.385 110.484 115.1C110.219 114.376 110.759 113.58 111.585 113.58Z" fill="white"/>
<path d="M152.944 136.962H118.713C117.642 136.962 116.765 136.085 116.765 135.014V134.79L110.596 116.007C110.535 115.803 110.454 115.61 110.372 115.416L110.28 115.171C110.127 114.763 110.188 114.304 110.433 113.947C110.698 113.57 111.116 113.356 111.585 113.356H129.807C130.654 113.356 131.439 113.774 131.888 114.478C131.898 114.498 131.908 114.508 131.908 114.529L138.689 134.494H154.657C154.78 134.494 154.882 134.596 154.882 134.719V135.025C154.892 136.095 154.015 136.962 152.944 136.962ZM117.204 134.668C117.214 134.698 117.224 134.729 117.224 134.759V135.025C117.224 135.851 117.897 136.513 118.713 136.513H152.944C153.77 136.513 154.433 135.84 154.433 135.025V134.953H138.536C138.434 134.953 138.352 134.892 138.322 134.8L131.49 114.702C131.123 114.151 130.491 113.815 129.807 113.815H111.585C111.269 113.815 110.984 113.958 110.81 114.213C110.647 114.447 110.606 114.753 110.708 115.018L110.8 115.253C110.882 115.457 110.963 115.661 111.025 115.875L117.204 134.668Z" fill="#000139"/>
<path d="M123.75 126.123C123.465 126.123 123.169 126.041 122.904 125.868C122.517 125.623 122.221 125.236 122.088 124.766C121.793 123.798 122.262 122.788 123.118 122.533C123.536 122.401 123.995 122.472 124.393 122.727C124.78 122.972 125.076 123.359 125.209 123.828C125.504 124.797 125.035 125.807 124.179 126.061C124.036 126.102 123.893 126.123 123.75 126.123ZM123.536 122.931C123.434 122.931 123.342 122.941 123.24 122.972C122.618 123.155 122.292 123.9 122.517 124.634C122.629 124.991 122.843 125.297 123.139 125.48C123.424 125.664 123.74 125.705 124.036 125.623C124.658 125.439 124.984 124.695 124.76 123.961C124.648 123.604 124.434 123.298 124.138 123.115C123.954 122.992 123.74 122.931 123.536 122.931Z" fill="#000139"/>
<path d="M134.794 134.984H122.914C122.792 134.984 122.69 134.882 122.69 134.759C122.69 134.637 122.792 134.535 122.914 134.535H134.794C134.916 134.535 135.018 134.637 135.018 134.759C135.018 134.882 134.916 134.984 134.794 134.984Z" fill="#000139"/>
<path d="M160.419 92.2483L160.052 97.3672C159.97 98.03 159.491 98.5807 158.838 98.754L157.033 99.2231L158.206 100.11C160.796 102.078 164.375 102.486 166.975 100.518L168.821 99.1211L166.588 98.6214C165.945 98.4787 165.456 97.561 165.334 96.9186L164.344 90.1376L160.419 92.2483Z" fill="white"/>
<path d="M163.029 102.048C161.336 102.048 159.593 101.456 158.063 100.294L156.901 99.4066C156.829 99.3556 156.799 99.2639 156.819 99.1823C156.84 99.1007 156.901 99.0293 156.982 99.0089L158.787 98.5399C159.348 98.3971 159.756 97.9281 159.827 97.3468L160.194 92.2381C160.205 92.1566 160.245 92.0852 160.317 92.0546L164.243 89.9438C164.304 89.9132 164.385 89.903 164.457 89.9438C164.528 89.9744 164.569 90.0458 164.579 90.1172L165.568 96.8982C165.68 97.5202 166.149 98.3053 166.649 98.4175L168.882 98.9172C168.974 98.9376 169.035 99.0089 169.055 99.0905C169.076 99.1823 169.045 99.2639 168.974 99.325L167.128 100.722C165.925 101.599 164.497 102.048 163.029 102.048ZM157.553 99.325L158.349 99.9267C161.041 101.976 164.457 102.139 166.843 100.335L168.301 99.2333L166.547 98.8458C165.762 98.6724 165.242 97.6323 165.119 96.9593L164.181 90.4945L160.653 92.3911L160.296 97.3876C160.205 98.1626 159.664 98.7846 158.92 98.9783L157.553 99.325Z" fill="#000139"/>
<path d="M154.596 85.1105C155.83 84.4579 154.841 86.4871 158.889 82.9793C160.5 81.5823 160.561 84.1927 160.979 83.8257C162.529 82.4899 162.478 82.5408 163.447 82.3675C164.09 82.2553 164.956 83.1527 165.221 83.9888C165.558 85.1003 164.824 85.7733 165.068 88.3429C165.242 90.1478 165.813 91.0349 165.293 91.5448C164.763 92.0648 163.916 91.4326 163.294 91.9526C162.499 92.6256 163.406 94.1348 162.815 95.2055C162.448 95.8785 161.224 96.6738 158.655 96.6126C158.236 96.6025 157.89 96.2965 157.818 95.8887C157.727 95.3584 157.625 94.6956 157.574 94.043C157.339 90.9635 158.002 89.9438 157.349 89.4136C156.35 88.608 154.647 90.107 153.923 89.4034C153.189 88.6692 152.903 86.0078 154.596 85.1105Z" fill="#000139"/>
<path d="M160.725 86.844L160.674 87.6903C160.653 88.088 160.653 88.4857 160.684 88.8833C160.745 89.6277 160.826 90.9023 160.826 91.6263C160.816 92.6868 157.553 92.8908 157.553 92.8908L157.135 92.4319L156.748 92.4523C156.676 92.4523 156.595 92.4421 156.534 92.4115C156.37 92.3299 156.289 92.1464 156.319 91.973C156.472 91.0349 156.748 88.9751 156.442 87.3742C156.442 87.3538 158.257 85.8854 160.725 86.844Z" fill="white"/>
<path d="M157.553 93.1049C157.492 93.1049 157.431 93.0743 157.38 93.0335L157.033 92.6562L156.758 92.6664C156.636 92.6766 156.523 92.646 156.432 92.595C156.187 92.4625 156.044 92.1974 156.095 91.922C156.228 91.0961 156.523 88.9955 156.217 87.4048C156.197 87.3232 156.238 87.2416 156.299 87.1805C156.381 87.1193 158.247 85.6305 160.806 86.6298C160.898 86.6706 160.959 86.7624 160.949 86.8542L160.898 87.7005C160.877 88.088 160.877 88.4755 160.908 88.863C160.959 89.5767 161.051 90.8922 161.051 91.6263C161.041 92.8398 158.145 93.0845 157.563 93.1151C157.553 93.1049 157.553 93.1049 157.553 93.1049ZM157.135 92.1872C157.196 92.1872 157.258 92.2178 157.309 92.2585L157.645 92.6358C158.869 92.5441 160.592 92.1668 160.592 91.6059C160.592 90.8922 160.5 89.5971 160.449 88.8833C160.419 88.4755 160.419 88.0676 160.439 87.6597L160.48 86.9867C158.553 86.3137 157.084 87.1703 156.687 87.4456C156.952 89.0261 156.707 90.9533 156.534 91.9832C156.523 92.0648 156.564 92.1362 156.636 92.177C156.656 92.1872 156.697 92.1974 156.738 92.1974L157.135 92.1872C157.125 92.1872 157.135 92.1872 157.135 92.1872Z" fill="#000139"/>
<path d="M161.296 89.434C161.296 89.434 161.418 87.415 162.325 87.6699C163.233 87.9248 163.039 90.1478 161.296 89.434Z" fill="white"/>
<path d="M160.745 105.158L156.809 114.967L159.715 121.493L163.488 115.793L162.183 105.341L164.161 102.608L162.672 100.467L161.428 100.304L159.715 102.231L160.745 105.158Z" fill="white"/>
<path d="M159.715 121.728C159.705 121.728 159.705 121.728 159.695 121.728C159.613 121.718 159.542 121.667 159.501 121.595L156.595 115.059C156.574 114.998 156.564 114.937 156.595 114.886L160.5 105.158L159.501 102.313C159.47 102.231 159.491 102.15 159.542 102.088L161.255 100.161C161.306 100.1 161.377 100.08 161.459 100.09L162.703 100.253C162.764 100.263 162.825 100.294 162.866 100.345L164.365 102.496C164.416 102.578 164.416 102.68 164.365 102.761L162.438 105.423L163.722 115.783C163.733 115.834 163.712 115.895 163.682 115.936L159.909 121.636C159.858 121.687 159.786 121.728 159.715 121.728ZM157.054 114.957L159.756 121.024L163.253 115.742L161.969 105.372C161.958 105.311 161.979 105.26 162.009 105.209L163.896 102.608L162.55 100.681L161.53 100.549L159.98 102.282L160.959 105.086C160.979 105.137 160.979 105.198 160.959 105.249L157.054 114.957Z" fill="#000139"/>
<path d="M166.537 105.066C167.72 102.965 168.699 100.253 167.383 98.5399L165.588 96.6024C165.588 96.6024 165.446 100.039 162.621 100.314L166.537 105.066Z" fill="white"/>
<path d="M166.537 105.3C166.465 105.3 166.404 105.27 166.363 105.219L162.438 100.467C162.387 100.406 162.366 100.314 162.407 100.233C162.438 100.151 162.509 100.1 162.601 100.09C165.191 99.8349 165.364 96.7248 165.364 96.5923C165.364 96.5005 165.425 96.4189 165.517 96.3883C165.609 96.3577 165.701 96.3781 165.762 96.4495L167.556 98.3869C169.004 100.263 167.913 103.118 166.741 105.178C166.7 105.239 166.639 105.29 166.557 105.29C166.557 105.3 166.547 105.3 166.537 105.3ZM163.049 100.477L166.506 104.668C167.383 103.027 168.474 100.335 167.21 98.6928L165.762 97.1327C165.588 98.0708 165.017 100.049 163.049 100.477Z" fill="#000139"/>
<path d="M162.132 100.314C160.123 100.161 159.888 96.8166 159.888 96.8166C159.888 96.8166 157.818 98.2136 157.41 100.273C156.809 103.302 158.033 105.341 158.033 105.341L162.132 100.314Z" fill="white"/>
<path d="M158.033 105.566C158.022 105.566 158.022 105.566 158.012 105.566C157.941 105.555 157.869 105.515 157.829 105.453C157.778 105.372 156.564 103.302 157.176 100.222C157.604 98.0912 159.664 96.684 159.746 96.6228C159.817 96.5719 159.899 96.5719 159.97 96.6024C160.041 96.6432 160.092 96.7146 160.103 96.7962C160.103 96.8268 160.337 99.9471 162.132 100.08C162.213 100.09 162.295 100.141 162.325 100.222C162.356 100.304 162.346 100.396 162.295 100.457L158.196 105.484C158.175 105.535 158.104 105.566 158.033 105.566ZM159.715 97.2449C159.144 97.7139 157.941 98.8458 157.645 100.324C157.196 102.578 157.788 104.271 158.094 104.923L161.724 100.477C160.276 100.059 159.837 98.1116 159.715 97.2449Z" fill="#000139"/>
<path d="M159.256 97.2347C158.165 97.2754 156.024 98.2136 154.637 98.2645C152.006 98.3563 148.876 101.66 148.56 104.281C149.396 106.789 153.26 119.179 146.52 128.855C145.562 130.232 144.267 131.731 142.482 133.179C143.481 133.995 145.042 135.045 147.132 135.667C148.682 136.126 149.885 136.156 150.986 136.065L159.256 97.2347Z" fill="#000139"/>
<path d="M174.236 105.3C173.715 103.659 172.675 99.376 169.463 97.7751C168.24 97.1633 166.669 96.1844 165.497 96.1028L157.349 135.953C160.092 138.237 167.036 144.793 169.841 144.181C171.115 143.906 173.032 141.836 174.613 138.492C175.51 135.718 176.316 132.465 176.754 128.784C177.978 118.811 176 110.501 174.236 105.3Z" fill="#000139"/>
<path d="M142.023 135.912C141.972 135.912 141.932 135.912 141.932 135.912C141.809 135.902 141.717 135.789 141.728 135.657C141.738 135.534 141.85 135.443 141.972 135.453C141.993 135.453 143.512 135.545 145.878 133.403C145.97 133.322 146.112 133.322 146.204 133.424C146.286 133.515 146.286 133.658 146.184 133.75C143.951 135.759 142.411 135.912 142.023 135.912Z" fill="#000139"/>
<path d="M143.543 136.697C143.441 136.697 143.379 136.687 143.369 136.687C143.247 136.666 143.155 136.554 143.176 136.422C143.196 136.299 143.308 136.207 143.43 136.228C143.451 136.228 144.776 136.391 146.867 134.576C146.959 134.494 147.112 134.505 147.193 134.596C147.275 134.688 147.265 134.841 147.173 134.923C145.327 136.534 144.012 136.697 143.543 136.697Z" fill="#000139"/>
<path d="M144.063 132.944C145.103 131.313 147.02 130.487 148.07 130.548C152.863 130.823 162.091 125.97 168.953 123.635C170.147 121.901 169.28 118.118 169.82 113.58L178.579 114.335C179.456 118.658 179.12 126.01 178.365 126.989C177.866 128.182 175.143 131.639 169.606 134.341C160.959 138.563 149.375 135.8 149.375 135.8C149.375 135.8 143.512 138.899 140.973 135.534C140.983 135.524 143.023 134.586 144.063 132.944Z" fill="white"/>
<path d="M144.501 137.339C143.125 137.339 141.748 136.931 140.8 135.667C140.759 135.616 140.749 135.545 140.759 135.473C140.769 135.402 140.82 135.351 140.881 135.32C140.902 135.31 142.87 134.382 143.869 132.822C144.919 131.191 146.877 130.252 148.09 130.314C151.313 130.497 156.656 128.295 161.836 126.163C164.202 125.185 166.649 124.185 168.821 123.441C169.443 122.472 169.423 120.79 169.412 118.689C169.402 117.16 169.382 115.426 169.606 113.55C169.616 113.427 169.728 113.336 169.851 113.346L178.61 114.1C178.712 114.111 178.794 114.182 178.814 114.284C179.67 118.536 179.395 125.929 178.569 127.091C178.11 128.152 175.551 131.69 169.708 134.535C161.469 138.553 150.477 136.269 149.406 136.034C148.957 136.269 146.724 137.339 144.501 137.339ZM141.34 135.606C143.818 138.43 149.222 135.626 149.284 135.596C149.335 135.565 149.385 135.565 149.447 135.575C149.559 135.606 161.051 138.267 169.524 134.127C174.858 131.527 177.651 128.131 178.172 126.887C178.182 126.867 178.192 126.847 178.202 126.836C178.885 125.96 179.232 118.832 178.406 114.539L170.045 113.815C169.851 115.579 169.861 117.221 169.881 118.669C169.902 120.902 169.912 122.666 169.168 123.747C169.137 123.788 169.096 123.818 169.055 123.839C166.883 124.583 164.416 125.592 162.03 126.582C156.809 128.733 151.404 130.956 148.08 130.772C147.132 130.721 145.286 131.486 144.277 133.067C143.4 134.413 141.932 135.29 141.34 135.606Z" fill="#000139"/>
<path d="M178.916 126.755C179.079 126.52 179.171 126.255 179.191 125.98C179.344 124.175 179.783 117.435 179.783 117.384C179.721 116.395 179.252 108.982 178.579 105.994C177.07 99.2537 167.944 97.1633 167.944 97.1633C169.657 102.945 170.034 110.562 169.494 115.875C169.463 116.13 169.076 120.932 169.066 122.982C169.066 123.553 168.699 124.063 168.158 124.246L150.273 130.375L151.109 137.156C164.059 137.513 173.654 134.392 178.916 126.755Z" fill="#000139"/>
<path d="M161.428 127.03C161.336 127.03 161.245 126.969 161.214 126.877C161.173 126.755 161.234 126.622 161.357 126.582C163.151 125.939 166.782 123.696 167.189 123.217C167.169 122.329 166.945 113.958 167.342 109.247C167.353 109.124 167.465 109.033 167.587 109.033C167.709 109.043 167.811 109.155 167.791 109.277C167.373 114.202 167.638 123.176 167.638 123.268C167.638 123.308 167.628 123.339 167.618 123.38C167.332 123.951 163.213 126.398 161.5 127.01C161.479 127.03 161.449 127.03 161.428 127.03Z" fill="white"/>
<path d="M148.009 125.185C147.999 125.185 147.989 125.185 147.978 125.185C147.856 125.174 147.764 125.052 147.774 124.93C148.468 118.903 149.569 108.513 149.579 108.411C149.589 108.288 149.712 108.196 149.834 108.207C149.957 108.217 150.048 108.329 150.038 108.462C150.028 108.563 148.937 118.954 148.233 124.981C148.223 125.093 148.121 125.185 148.009 125.185Z" fill="white"/>
<path d="M152.129 185.867L162.254 143.845L172.38 185.867H174.807L163.682 139.348H160.827L149.702 185.867H152.129Z" fill="white"/>
<path d="M174.807 186.091H172.38C172.278 186.091 172.186 186.02 172.155 185.918L162.254 144.814L152.353 185.918C152.332 186.02 152.241 186.091 152.129 186.091H149.702C149.63 186.091 149.569 186.06 149.518 185.999C149.477 185.948 149.457 185.877 149.477 185.805L160.602 139.287C160.623 139.185 160.714 139.114 160.827 139.114H163.682C163.784 139.114 163.875 139.185 163.906 139.287L175.031 185.795C175.051 185.867 175.031 185.938 174.99 185.989C174.939 186.06 174.878 186.091 174.807 186.091ZM172.563 185.632H174.521L163.508 139.572H161.02L150.008 185.632H151.965L162.05 143.784C162.071 143.682 162.162 143.61 162.274 143.61C162.376 143.61 162.468 143.682 162.499 143.784L172.563 185.632Z" fill="#000139"/>
<path d="M94.6074 185.724L104.733 143.702L114.859 185.724H117.285L106.161 139.205H103.305L92.1805 185.724H94.6074Z" fill="white"/>
<path d="M117.285 185.948H114.859C114.757 185.948 114.665 185.877 114.634 185.775L104.733 144.671L94.8318 185.775C94.8114 185.877 94.7196 185.948 94.6074 185.948H92.1805C92.1092 185.948 92.048 185.918 91.997 185.856C91.9562 185.805 91.9358 185.734 91.9562 185.663L103.081 139.144C103.101 139.042 103.193 138.971 103.305 138.971H106.161C106.263 138.971 106.354 139.042 106.385 139.144L117.51 185.653C117.53 185.724 117.51 185.795 117.469 185.846C117.428 185.918 117.357 185.948 117.285 185.948ZM115.042 185.489H117L105.987 139.43H103.499L92.4865 185.489H94.4239L104.509 143.641C104.529 143.539 104.621 143.468 104.733 143.468C104.835 143.468 104.927 143.539 104.957 143.641L115.042 185.489Z" fill="#000139"/>
<path d="M173.134 136.36H93.2614V140.164H173.134V136.36Z" fill="white"/>
<path d="M173.124 140.388H93.2614C93.139 140.388 93.0371 140.286 93.0371 140.164V136.36C93.0371 136.238 93.139 136.136 93.2614 136.136H173.134C173.257 136.136 173.359 136.238 173.359 136.36V140.164C173.359 140.286 173.257 140.388 173.124 140.388ZM93.4857 139.929H172.9V136.585H93.4857V139.929Z" fill="#000139"/>
<path d="M148.947 139.501C148.825 139.501 148.723 139.399 148.723 139.277V137.166C148.723 137.044 148.825 136.942 148.947 136.942C149.069 136.942 149.171 137.044 149.171 137.166V139.277C149.171 139.389 149.069 139.501 148.947 139.501Z" fill="#000139"/>
<path d="M178.845 177.138C178.845 177.138 172.563 163.372 176.163 145.517C176.163 145.517 185.901 153.675 182.393 177.138H178.845Z" fill="white"/>
<path d="M182.393 177.362H178.845C178.753 177.362 178.671 177.311 178.641 177.23C178.579 177.087 172.369 163.189 175.949 145.476C175.969 145.395 176.02 145.334 176.102 145.303C176.173 145.273 176.265 145.293 176.326 145.344C176.428 145.426 178.824 147.475 180.823 152.441C182.658 156.999 184.453 164.993 182.638 177.169C182.597 177.281 182.505 177.362 182.393 177.362ZM178.998 176.914H182.199C183.953 164.983 182.189 157.142 180.405 152.655C178.855 148.78 177.019 146.68 176.316 145.976C173.124 162.424 178.375 175.456 178.998 176.914Z" fill="#000139"/>
<path d="M180.384 175.935H180.374C180.252 175.925 180.15 175.823 180.16 175.69C180.639 166.89 176.673 148.107 176.632 147.924C176.601 147.801 176.683 147.679 176.805 147.648C176.928 147.618 177.05 147.699 177.08 147.822C177.121 148.016 181.098 166.849 180.619 175.71C180.598 175.833 180.507 175.935 180.384 175.935Z" fill="#000139"/>
<path d="M185.167 154.756C185.167 154.756 177.07 169.378 181.944 175.7H184.545C184.545 175.7 189.745 164.269 185.167 154.756Z" fill="white"/>
<path d="M184.545 175.935H181.944C181.873 175.935 181.802 175.904 181.761 175.843C176.856 169.47 184.636 155.245 184.963 154.644C185.004 154.572 185.085 154.521 185.167 154.521C185.248 154.521 185.33 154.572 185.371 154.654C189.949 164.157 184.8 175.68 184.749 175.792C184.718 175.884 184.636 175.935 184.545 175.935ZM182.057 175.476H184.392C184.942 174.191 189.042 163.943 185.146 155.266C183.912 157.641 177.906 169.878 182.057 175.476Z" fill="#000139"/>
<path d="M183.158 176.322C183.036 176.322 182.934 176.231 182.934 176.098C182.77 171.836 183.821 163.087 184.453 158.253C184.473 158.131 184.585 158.039 184.708 158.06C184.83 158.08 184.922 158.192 184.902 158.314C184.259 163.138 183.219 171.846 183.382 176.078C183.392 176.21 183.29 176.312 183.158 176.322Z" fill="#000139"/>
<path d="M169.708 160.201C169.708 160.201 176.601 162.556 179.099 176.475H176.387C176.387 176.485 170.728 168.838 169.708 160.201Z" fill="white"/>
<path d="M179.099 176.71H176.387C176.316 176.71 176.244 176.679 176.204 176.618C176.142 176.536 170.493 168.817 169.484 160.232C169.474 160.15 169.504 160.079 169.565 160.028C169.627 159.977 169.708 159.966 169.779 159.987C170.065 160.089 176.826 162.546 179.324 176.445C179.334 176.516 179.314 176.577 179.273 176.628C179.232 176.679 179.171 176.71 179.099 176.71ZM176.509 176.251H178.834C176.683 164.667 171.411 161.292 169.994 160.578C171.044 168.389 175.877 175.374 176.509 176.251Z" fill="#000139"/>
<path d="M177.621 176.322C177.509 176.322 177.417 176.241 177.397 176.129C176.377 169.939 171.941 163.698 171.89 163.637C171.819 163.535 171.839 163.393 171.941 163.321C172.043 163.25 172.186 163.27 172.257 163.372C172.298 163.433 176.795 169.755 177.845 176.057C177.866 176.18 177.784 176.302 177.662 176.322C177.641 176.322 177.631 176.322 177.621 176.322Z" fill="#000139"/>
<path d="M172.369 175.374H189.378L189.755 183.419C189.847 185.387 188.277 187.039 186.299 187.039H176.581C174.246 187.039 172.349 185.143 172.349 182.808L172.369 175.374Z" fill="white"/>
<path d="M186.309 187.274H176.591C175.398 187.274 174.276 186.805 173.44 185.969C172.594 185.122 172.135 184.011 172.135 182.818L172.145 175.384C172.145 175.262 172.247 175.16 172.369 175.16H189.378C189.5 175.16 189.602 175.252 189.602 175.374L189.98 183.419C190.031 184.439 189.664 185.398 188.96 186.142C188.256 186.886 187.328 187.274 186.309 187.274ZM172.604 175.609L172.594 182.818C172.594 183.888 173.012 184.888 173.766 185.653C174.521 186.407 175.531 186.825 176.591 186.825H186.309C187.196 186.825 188.032 186.468 188.644 185.826C189.256 185.183 189.572 184.337 189.531 183.44L189.164 175.609H172.604Z" fill="#000139"/>
<path d="M154.3 34.3908L154.861 36.7973L157.563 36.7769C157.798 37.3071 158.063 37.817 158.379 38.2962L156.87 40.5294L158.563 42.3342L160.888 40.9576C161.347 41.3043 161.836 41.6 162.356 41.8652L162.162 44.5572L164.528 45.2709L165.854 42.9256C166.414 42.9868 166.996 43.0072 167.577 42.9766L168.76 45.4035L171.166 44.8427L171.146 42.1405C171.676 41.9059 172.186 41.6408 172.665 41.3247L174.898 42.8339L176.703 41.1412L175.327 38.8163C175.673 38.3574 175.969 37.868 176.234 37.3479L178.926 37.5416L179.64 35.176L177.295 33.8503C177.356 33.2895 177.376 32.7083 177.346 32.1271L179.772 30.9442L179.212 28.5377L176.509 28.5581C176.275 28.0279 176.01 27.518 175.694 27.0388L177.203 24.8056L175.51 23.0008L173.185 24.3774C172.726 24.0307 172.237 23.735 171.717 23.4698L171.911 20.7778L169.545 20.0641L168.219 22.4094C167.658 22.3482 167.077 22.3278 166.496 22.3584L165.313 19.9315L162.907 20.4923L162.927 23.1945C162.397 23.4291 161.887 23.6942 161.408 24.0103L159.175 22.5011L157.37 24.1938L158.746 26.5187C158.4 26.9776 158.104 27.467 157.839 27.9871L155.147 27.7934L154.433 30.159L156.778 31.4847C156.717 32.0455 156.697 32.6267 156.727 33.2079L154.3 34.3908ZM165.588 26.4677C169.015 25.6622 172.441 27.7832 173.246 31.2093C174.052 34.6355 171.931 38.0617 168.505 38.8673C165.079 39.6728 161.652 37.5518 160.847 34.1257C160.041 30.6995 162.162 27.2631 165.588 26.4677Z" fill="white"/>
<path d="M168.77 45.638C168.688 45.638 168.607 45.5871 168.566 45.5055L167.455 43.2112C166.965 43.2316 166.476 43.2112 165.996 43.1704L164.742 45.3933C164.691 45.4851 164.579 45.5259 164.477 45.4953L162.111 44.7815C162.009 44.7509 161.938 44.6489 161.948 44.547L162.132 41.9977C161.703 41.7734 161.285 41.5185 160.898 41.2329L158.695 42.528C158.604 42.5789 158.481 42.5688 158.41 42.4872L156.717 40.6823C156.646 40.6007 156.636 40.4886 156.697 40.3968L158.124 38.286C157.869 37.8781 157.635 37.4499 157.441 37.0012L154.892 37.0216C154.79 37.0216 154.698 36.9502 154.668 36.8483L154.107 34.4418C154.086 34.3398 154.137 34.2276 154.229 34.1868L156.523 33.0754C156.503 32.5859 156.513 32.0965 156.564 31.6172L154.341 30.363C154.249 30.312 154.209 30.1998 154.239 30.0979L154.953 27.7322C154.984 27.6302 155.086 27.5588 155.188 27.569L157.737 27.7526C157.961 27.3243 158.216 26.9062 158.502 26.5187L157.207 24.3162C157.156 24.2244 157.166 24.1021 157.247 24.0307L159.052 22.338C159.134 22.2666 159.246 22.2564 159.338 22.3176L161.449 23.7452C161.856 23.4902 162.285 23.2557 162.733 23.062L162.713 20.5127C162.713 20.4108 162.784 20.3088 162.886 20.2884L165.293 19.7276C165.395 19.7072 165.507 19.7581 165.548 19.8499L166.659 22.1442C167.149 22.1238 167.638 22.134 168.117 22.185L169.372 19.9621C169.423 19.8703 169.535 19.8295 169.637 19.8601L172.002 20.5739C172.104 20.6045 172.176 20.7065 172.166 20.8084L171.982 23.3577C172.41 23.582 172.828 23.8369 173.216 24.1224L175.418 22.8274C175.51 22.7764 175.632 22.7866 175.704 22.8682L177.397 24.6731C177.468 24.7547 177.478 24.8668 177.417 24.9586L175.989 27.0694C176.244 27.4772 176.479 27.9055 176.673 28.3542L179.222 28.3338C179.324 28.3338 179.416 28.4052 179.446 28.5071L180.007 30.9136C180.027 31.0156 179.976 31.1278 179.885 31.1685L177.59 32.28C177.611 32.7695 177.6 33.2589 177.55 33.7382L179.772 34.9924C179.864 35.0434 179.905 35.1556 179.874 35.2575L179.161 37.6232C179.13 37.7252 179.028 37.7864 178.926 37.7864L176.377 37.6028C176.153 38.0311 175.898 38.4492 175.612 38.8367L176.907 41.0392C176.958 41.131 176.948 41.2533 176.866 41.3247L175.061 43.0174C174.98 43.0888 174.868 43.099 174.776 43.0378L172.665 41.6102C172.257 41.8652 171.829 42.0997 171.38 42.2934L171.401 44.8427C171.401 44.9446 171.329 45.0466 171.227 45.067L168.821 45.6278C168.801 45.638 168.79 45.638 168.77 45.638ZM167.587 42.7523C167.679 42.7523 167.75 42.8033 167.791 42.8849L168.892 45.1486L170.942 44.6693L170.921 42.1507C170.921 42.0589 170.972 41.9773 171.064 41.9365C171.584 41.7122 172.084 41.4471 172.553 41.1412C172.635 41.0902 172.726 41.0902 172.808 41.1412L174.888 42.5484L176.428 41.1004L175.153 38.9284C175.102 38.8469 175.112 38.7449 175.163 38.6735C175.5 38.2248 175.796 37.7456 176.051 37.2459C176.091 37.1644 176.183 37.1134 176.275 37.1236L178.794 37.3071L179.405 35.2881L177.213 34.0543C177.131 34.0135 177.091 33.9217 177.101 33.83C177.162 33.2793 177.182 32.7185 177.152 32.1475C177.152 32.0557 177.193 31.9741 177.284 31.9333L179.548 30.832L179.069 28.7825L176.55 28.8029C176.458 28.8029 176.377 28.7519 176.336 28.6601C176.112 28.14 175.847 27.6404 175.541 27.1713C175.49 27.0898 175.49 26.998 175.541 26.9164L176.948 24.8362L175.5 23.2965L173.328 24.5711C173.246 24.6221 173.144 24.6119 173.073 24.5609C172.624 24.2244 172.145 23.9287 171.645 23.6738C171.564 23.633 171.513 23.5412 171.523 23.4494L171.707 20.9308L169.688 20.319L168.454 22.5113C168.413 22.5929 168.321 22.6337 168.229 22.6235C167.679 22.5623 167.118 22.5419 166.547 22.5725C166.445 22.5725 166.374 22.5317 166.333 22.4399L165.232 20.1762L163.182 20.6555L163.202 23.1741C163.202 23.2659 163.151 23.3475 163.06 23.3883C162.54 23.6126 162.04 23.8777 161.571 24.1836C161.489 24.2346 161.398 24.2346 161.316 24.1836L159.236 22.7764L157.696 24.2244L158.971 26.3964C159.022 26.4779 159.011 26.5799 158.96 26.6513C158.624 27.1 158.328 27.5792 158.073 28.0789C158.033 28.1604 157.951 28.2114 157.849 28.2012L155.33 28.0177L154.719 30.0367L156.911 31.2705C156.992 31.3113 157.033 31.4031 157.023 31.4948C156.962 32.0455 156.941 32.6063 156.972 33.1773C156.972 33.2691 156.931 33.3507 156.839 33.3915L154.576 34.4928L155.055 36.5423L157.574 36.522C157.665 36.522 157.747 36.5729 157.788 36.6647C158.012 37.1848 158.277 37.6844 158.583 38.1535C158.634 38.235 158.634 38.3268 158.583 38.4084L157.176 40.4886L158.624 42.0283L160.796 40.7537C160.877 40.7027 160.969 40.7129 161.051 40.7639C161.499 41.1004 161.979 41.3961 162.478 41.651C162.56 41.6918 162.611 41.7836 162.601 41.8754L162.417 44.394L164.436 45.0058L165.67 42.8135C165.711 42.7319 165.803 42.6911 165.894 42.7013C166.445 42.7625 167.006 42.7829 167.577 42.7523H167.587ZM167.047 39.2649C164.049 39.2649 161.336 37.2153 160.623 34.1767C160.215 32.4636 160.51 30.6893 161.438 29.1903C162.366 27.6914 163.824 26.6411 165.537 26.2434C169.076 25.4073 172.635 27.62 173.471 31.1583C173.879 32.8714 173.583 34.6457 172.655 36.1447C171.727 37.6436 170.269 38.6939 168.556 39.0916C168.046 39.2038 167.546 39.2649 167.047 39.2649ZM167.057 26.5187C166.588 26.5187 166.109 26.5697 165.639 26.6819C164.039 27.0592 162.693 28.0279 161.826 29.4249C160.959 30.8218 160.694 32.4636 161.071 34.0645C161.449 35.6654 162.417 37.0114 163.814 37.8781C165.211 38.7449 166.853 39.01 168.454 38.6327C170.055 38.2554 171.401 37.2867 172.267 35.8897C173.134 34.4928 173.399 32.851 173.022 31.2501C172.645 29.6492 171.676 28.3032 170.279 27.4365C169.3 26.8348 168.189 26.5187 167.057 26.5187Z" fill="#000139"/>
<path d="M171.085 50.0023L171.146 51.6644L172.93 51.9907C173.012 52.368 173.124 52.7453 173.267 53.092L171.982 54.3666L172.869 55.7738L174.582 55.1722C174.847 55.4577 175.123 55.7228 175.429 55.9574L174.96 57.7112L176.428 58.4862L177.601 57.1096C177.968 57.2218 178.345 57.3136 178.732 57.3645L179.201 59.1184L180.864 59.0572L181.19 57.2728C181.567 57.1912 181.944 57.079 182.291 56.9363L183.566 58.2211L184.973 57.334L184.371 55.6209C184.657 55.3557 184.922 55.0804 185.156 54.7745L186.91 55.2436L187.685 53.7752L186.309 52.6026C186.421 52.2355 186.513 51.8582 186.564 51.4707L188.318 51.0016L188.256 49.3395L186.472 49.0132C186.39 48.6359 186.278 48.2587 186.135 47.912L187.42 46.6373L186.533 45.2302L184.82 45.8318C184.555 45.5463 184.28 45.2811 183.974 45.0466L184.443 43.2927L182.974 42.5178L181.802 43.8944C181.435 43.7822 181.057 43.6904 180.67 43.6394L180.201 41.8856L178.539 41.9467L178.212 43.7312C177.835 43.8128 177.458 43.9249 177.111 44.0677L175.836 42.7829L174.429 43.67L175.031 45.3831C174.745 45.6482 174.48 45.9235 174.246 46.2295L172.492 45.7604L171.717 47.2288L173.093 48.4014C172.981 48.7685 172.89 49.1458 172.839 49.5333L171.085 50.0023ZM179.528 46.2193C181.883 46.1275 183.872 47.9629 183.963 50.3184C184.055 52.6739 182.22 54.6623 179.864 54.7541C177.509 54.8459 175.52 53.0104 175.429 50.6549C175.337 48.2994 177.172 46.311 179.528 46.2193Z" fill="white"/>
<path d="M179.201 59.3326C179.099 59.3326 179.008 59.2612 178.977 59.1592L178.549 57.5481C178.253 57.4971 177.957 57.4359 177.682 57.3543L176.601 58.6188C176.53 58.7003 176.418 58.7207 176.316 58.6698L174.847 57.8948C174.756 57.8438 174.705 57.7316 174.735 57.6297L175.163 56.0185C174.939 55.835 174.715 55.6311 174.511 55.4169L172.94 55.9778C172.839 56.0185 172.726 55.9778 172.675 55.886L171.788 54.4788C171.727 54.387 171.747 54.2749 171.819 54.1933L172.991 53.0206C172.889 52.7453 172.798 52.4598 172.726 52.1743L171.095 51.8684C170.993 51.848 170.911 51.7562 170.911 51.6542L170.85 49.9921C170.85 49.8902 170.911 49.7882 171.023 49.7576L172.635 49.3293C172.686 49.0336 172.747 48.7379 172.828 48.4626L171.564 47.3817C171.482 47.3103 171.462 47.1982 171.513 47.0962L172.288 45.6278C172.339 45.5361 172.441 45.4851 172.553 45.5157L174.164 45.9439C174.348 45.7094 174.552 45.4953 174.766 45.2913L174.205 43.721C174.164 43.619 174.205 43.5069 174.297 43.4559L175.704 42.5687C175.796 42.5076 175.908 42.528 175.989 42.5993L177.162 43.772C177.437 43.67 177.723 43.5782 178.008 43.5069L178.314 41.8754C178.335 41.7734 178.426 41.6918 178.528 41.6918L180.191 41.6306C180.303 41.6306 180.394 41.702 180.425 41.804L180.853 43.4151C181.149 43.4661 181.445 43.5273 181.72 43.6088L182.801 42.3444C182.872 42.2628 182.984 42.2424 183.086 42.2934L184.555 43.0684C184.647 43.1194 184.698 43.2315 184.667 43.3335L184.239 44.9446C184.463 45.1282 184.687 45.3321 184.891 45.5463L186.462 44.9854C186.564 44.9446 186.676 44.9854 186.727 45.0772L187.614 46.4844C187.675 46.5762 187.655 46.6883 187.583 46.7699L186.411 47.9425C186.513 48.2179 186.604 48.5034 186.676 48.7889L188.307 49.0948C188.409 49.1152 188.491 49.207 188.491 49.3089L188.552 50.971C188.552 51.073 188.491 51.175 188.379 51.2056L186.768 51.6338C186.717 51.9296 186.655 52.2253 186.574 52.5006L187.838 53.5815C187.92 53.6528 187.94 53.765 187.889 53.867L187.114 55.3353C187.063 55.4271 186.961 55.4781 186.849 55.4475L185.238 55.0192C185.054 55.2436 184.851 55.4679 184.636 55.6718L185.197 57.2422C185.238 57.3441 185.197 57.4563 185.105 57.5073L183.698 58.3944C183.606 58.4556 183.494 58.4352 183.413 58.3638L182.24 57.1912C181.965 57.2932 181.679 57.3849 181.394 57.4563L181.088 59.0878C181.067 59.1898 180.976 59.2714 180.874 59.2714L179.201 59.3326C179.212 59.3326 179.201 59.3326 179.201 59.3326ZM177.611 56.8649C177.631 56.8649 177.662 56.8649 177.682 56.8751C178.029 56.9873 178.396 57.0688 178.773 57.1198C178.865 57.13 178.936 57.2014 178.967 57.283L179.385 58.8533L180.68 58.8023L180.976 57.2014C180.996 57.1096 181.057 57.0382 181.149 57.0178C181.516 56.9363 181.873 56.8241 182.22 56.6915C182.301 56.661 182.403 56.6813 182.464 56.7425L183.617 57.8948L184.708 57.2014L184.167 55.6616C184.137 55.5801 184.157 55.4781 184.229 55.4169C184.504 55.162 184.759 54.8867 184.983 54.6012C185.044 54.5298 185.136 54.4992 185.228 54.5196L186.798 54.9377L187.4 53.7956L186.166 52.7351C186.095 52.6739 186.064 52.5822 186.095 52.4904C186.207 52.1437 186.288 51.7766 186.339 51.3993C186.349 51.3075 186.421 51.2362 186.502 51.2056L188.073 50.7875L188.022 49.4925L186.421 49.1968C186.329 49.1764 186.258 49.1152 186.237 49.0234C186.156 48.6563 186.044 48.2994 185.911 47.9527C185.88 47.8712 185.901 47.7692 185.962 47.708L187.114 46.5558L186.421 45.4647L184.881 46.0051C184.8 46.0357 184.698 46.0153 184.636 45.9439C184.381 45.6686 184.106 45.4137 183.821 45.1894C183.749 45.1282 183.719 45.0364 183.739 44.9446L184.167 43.3743L183.025 42.7727L181.965 44.0065C181.904 44.0779 181.812 44.1085 181.72 44.0779C181.373 43.9657 181.006 43.8842 180.629 43.8332C180.537 43.823 180.466 43.7516 180.435 43.67L180.017 42.0997L178.722 42.1507L178.426 43.7516C178.406 43.8434 178.345 43.9147 178.253 43.9351C177.886 44.0167 177.529 44.1289 177.182 44.2614C177.101 44.292 176.999 44.2716 176.938 44.2105L175.785 43.0582L174.694 43.7516L175.235 45.2913C175.265 45.3729 175.245 45.4749 175.174 45.5361C174.898 45.791 174.643 46.0663 174.419 46.3518C174.358 46.4232 174.266 46.4538 174.174 46.4334L172.604 46.0153L172.002 47.1574L173.236 48.2179C173.308 48.279 173.338 48.3708 173.308 48.4626C173.195 48.8093 173.114 49.1764 173.063 49.5537C173.053 49.6454 172.981 49.7168 172.9 49.7474L171.329 50.1655L171.38 51.4605L172.981 51.7562C173.073 51.7766 173.144 51.8378 173.165 51.9296C173.246 52.2967 173.359 52.6535 173.491 53.0002C173.522 53.0818 173.501 53.1838 173.44 53.245L172.288 54.3972L172.981 55.4883L174.521 54.9479C174.603 54.9173 174.705 54.9377 174.766 55.009C175.021 55.2844 175.296 55.5393 175.581 55.7636C175.653 55.8248 175.683 55.9166 175.663 56.0083L175.235 57.5787L176.377 58.1803L177.437 56.9465C177.478 56.8955 177.539 56.8649 177.611 56.8649ZM179.691 54.9886C177.284 54.9886 175.286 53.0818 175.194 50.6651C175.092 48.1873 177.04 46.0867 179.518 45.9949C180.721 45.9439 181.863 46.3722 182.75 47.188C183.637 48.0037 184.147 49.1152 184.188 50.3184C184.239 51.5217 183.81 52.6637 182.995 53.5509C182.179 54.438 181.067 54.9479 179.864 54.9886C179.813 54.9886 179.752 54.9886 179.691 54.9886ZM179.701 46.4436C179.65 46.4436 179.599 46.4436 179.538 46.4436C177.315 46.5354 175.571 48.4116 175.653 50.6447C175.745 52.8677 177.631 54.6114 179.854 54.5298C180.935 54.489 181.934 54.0301 182.668 53.2348C183.403 52.4394 183.78 51.4095 183.739 50.3286C183.647 48.1567 181.853 46.4436 179.701 46.4436Z" fill="#000139"/>
<path d="M82.8299 2.82099C82.8095 2.82099 82.7891 2.82099 82.7586 2.8108C82.6362 2.77001 82.575 2.64764 82.6056 2.52528L83.1358 0.832585C83.1766 0.710221 83.299 0.64904 83.4214 0.679631C83.5437 0.720418 83.6049 0.842782 83.5743 0.965145L83.0441 2.65784C83.0135 2.75981 82.9217 2.82099 82.8299 2.82099Z" fill="#000139"/>
<path d="M81.5859 6.75702C81.5655 6.75702 81.5451 6.75702 81.5145 6.74682C81.3921 6.70603 81.331 6.58367 81.3616 6.46131L81.8918 4.76861C81.9326 4.64625 82.0549 4.58507 82.1773 4.61566C82.2997 4.65645 82.3609 4.77881 82.3303 4.90117L81.8 6.59387C81.7796 6.69584 81.6879 6.75702 81.5859 6.75702Z" fill="#000139"/>
<path d="M81.3514 3.58576C81.331 3.58576 81.3106 3.58576 81.28 3.57557L79.5873 3.04532C79.4649 3.00454 79.4037 2.88217 79.4343 2.75981C79.4751 2.63745 79.5975 2.57626 79.7199 2.60686L81.4126 3.1371C81.5349 3.17789 81.5961 3.30025 81.5655 3.42261C81.5349 3.52458 81.4431 3.58576 81.3514 3.58576Z" fill="#000139"/>
<path d="M85.2874 4.82979C85.267 4.82979 85.2466 4.82979 85.216 4.8196L83.5233 4.28935C83.401 4.24857 83.3398 4.1262 83.3704 4.00384C83.4112 3.88148 83.5335 3.82029 83.6559 3.85089L85.3486 4.38113C85.471 4.42192 85.5321 4.54428 85.5015 4.66664C85.4811 4.76861 85.3894 4.82979 85.2874 4.82979Z" fill="#000139"/>
<path d="M171.696 76.0556C171.38 76.0556 171.054 75.9944 170.748 75.872C170.075 75.6171 169.555 75.0971 169.27 74.4343C168.678 73.0679 169.29 71.4771 170.626 70.8755C171.268 70.59 171.982 70.5696 172.645 70.8245C173.318 71.0795 173.838 71.5995 174.123 72.2623C174.715 73.6287 174.103 75.2194 172.767 75.821C172.431 75.974 172.064 76.0556 171.696 76.0556ZM171.696 71.0999C171.401 71.0999 171.095 71.161 170.82 71.2936C169.708 71.7932 169.208 73.1188 169.698 74.2507C169.932 74.8013 170.371 75.2296 170.922 75.4438C171.462 75.6579 172.053 75.6375 172.584 75.403C173.695 74.9033 174.195 73.5777 173.705 72.4459C173.471 71.8952 173.032 71.4669 172.482 71.2528C172.227 71.1508 171.962 71.0999 171.696 71.0999Z" fill="#000139"/>
<path d="M72.0721 13.5482C71.756 13.5482 71.4399 13.487 71.1442 13.3748C70.4916 13.1199 69.9716 12.6203 69.686 11.9677C69.1048 10.6319 69.7064 9.06153 71.0218 8.47011C71.6541 8.18459 72.3577 8.1642 73.0001 8.41912C73.6527 8.67405 74.1727 9.1737 74.4582 9.82631C75.0395 11.1621 74.4378 12.7324 73.1224 13.3239C72.7859 13.4768 72.429 13.5482 72.0721 13.5482ZM71.2054 8.88818C70.1245 9.37764 69.6249 10.6727 70.1041 11.7841C70.3387 12.3246 70.7669 12.7426 71.3074 12.9466C71.8376 13.1505 72.4188 13.1403 72.9287 12.9058C74.0096 12.4163 74.5092 11.1213 74.03 10.0099C73.7954 9.46941 73.3672 9.05134 72.8267 8.8474C72.3067 8.64346 71.7254 8.65365 71.2054 8.88818Z" fill="#000139"/>
<path d="M172.39 83.8664C172.176 83.8664 171.962 83.8257 171.747 83.7441C171.299 83.5707 170.942 83.224 170.748 82.7754C170.35 81.8576 170.758 80.7768 171.666 80.3689C172.104 80.1751 172.584 80.1649 173.032 80.3383C173.481 80.5116 173.838 80.8583 174.032 81.307C174.429 82.2247 174.021 83.3056 173.114 83.7135C172.879 83.8053 172.635 83.8664 172.39 83.8664ZM171.849 80.787C171.176 81.0929 170.871 81.8984 171.166 82.5918C171.309 82.9283 171.574 83.1832 171.911 83.3158C172.237 83.4484 172.594 83.4382 172.92 83.2852C173.593 82.9793 173.899 82.1738 173.603 81.4804C173.461 81.1439 173.195 80.8889 172.859 80.7564C172.533 80.634 172.176 80.6442 171.849 80.787Z" fill="#000139"/>
<path d="M136.395 10.2852C136.18 10.2852 135.966 10.2444 135.752 10.1628C135.303 9.98946 134.947 9.64276 134.753 9.19409C134.355 8.27637 134.763 7.19549 135.671 6.78761C136.109 6.59387 136.588 6.58367 137.037 6.75702C137.486 6.93037 137.843 7.27706 138.036 7.72573C138.434 8.64346 138.026 9.72434 137.119 10.1322C136.884 10.2342 136.639 10.2852 136.395 10.2852ZM136.395 7.09352C136.211 7.09352 136.027 7.13431 135.854 7.20569C135.181 7.51159 134.875 8.31716 135.171 9.01055C135.314 9.34705 135.579 9.60197 135.915 9.73453C136.242 9.86709 136.599 9.8569 136.925 9.70394C137.598 9.39803 137.904 8.59247 137.608 7.89908C137.465 7.56258 137.2 7.30766 136.864 7.1751C136.711 7.12411 136.558 7.09352 136.395 7.09352Z" fill="#000139"/>
<path d="M55.9303 28.0381C55.8794 28.0381 55.8284 28.0177 55.7876 27.9871C55.6856 27.9055 55.6754 27.7628 55.757 27.6608C55.9813 27.3855 56.2057 27.1203 56.4198 26.8552C56.5014 26.7533 56.6441 26.7431 56.7461 26.8246C56.8481 26.9062 56.8583 27.049 56.7767 27.1509C56.5524 27.4161 56.328 27.6914 56.1139 27.9565C56.0629 28.0177 56.0017 28.0381 55.9303 28.0381ZM58.3776 25.1421C58.3266 25.1421 58.2654 25.1217 58.2247 25.081C58.1329 24.9994 58.1227 24.8566 58.2043 24.7547C58.7957 24.0817 59.4075 23.3883 60.0397 22.7051C60.1213 22.6133 60.2742 22.6031 60.366 22.6949C60.4578 22.7764 60.468 22.9294 60.3762 23.0212C59.7542 23.7044 59.1424 24.3978 58.551 25.0708C58.5102 25.1217 58.449 25.1421 58.3776 25.1421ZM62.0791 21.0837C62.0179 21.0837 61.9669 21.0634 61.9262 21.0226C61.8344 20.9308 61.8344 20.788 61.916 20.6963C62.5278 20.0437 63.1702 19.3809 63.8228 18.7181C63.9146 18.6263 64.0573 18.6263 64.1491 18.7181C64.2409 18.8098 64.2409 18.9526 64.1491 19.0444C63.4965 19.7072 62.8541 20.37 62.2423 21.0124C62.2015 21.0634 62.1403 21.0837 62.0791 21.0837ZM65.9336 17.1681C65.8724 17.1681 65.8112 17.1477 65.7704 17.0967C65.6786 17.005 65.6786 16.8622 65.7704 16.7704C66.4026 16.1484 67.0654 15.506 67.7384 14.8534C67.8302 14.7616 67.973 14.7718 68.0647 14.8636C68.1565 14.9554 68.1463 15.0981 68.0545 15.1899C67.3815 15.8323 66.7187 16.4747 66.0865 17.0967C66.0457 17.1477 65.9947 17.1681 65.9336 17.1681Z" fill="#000139"/>
<path d="M128.4 5.84949C128.38 5.84949 128.349 5.84949 128.329 5.83929C127.462 5.55378 126.585 5.26826 125.718 5.01334C125.596 4.97255 125.525 4.85019 125.565 4.72782C125.606 4.60546 125.729 4.53408 125.851 4.57487C126.728 4.82979 127.605 5.11531 128.482 5.40082C128.604 5.44161 128.665 5.57417 128.624 5.68634C128.584 5.78831 128.502 5.84949 128.4 5.84949ZM123.139 4.27916C123.118 4.27916 123.098 4.27916 123.077 4.26896C122.2 4.04463 121.303 3.83049 120.416 3.62655C120.294 3.59596 120.212 3.4736 120.243 3.35123C120.273 3.22887 120.385 3.1473 120.518 3.17789C121.405 3.37163 122.313 3.58576 123.2 3.82029C123.322 3.85089 123.393 3.97325 123.363 4.09561C123.332 4.21798 123.24 4.27916 123.139 4.27916ZM117.775 3.09631C117.765 3.09631 117.744 3.09631 117.734 3.09631C116.837 2.93316 115.929 2.7802 115.032 2.64764C114.91 2.62725 114.818 2.51508 114.838 2.39272C114.859 2.27036 114.971 2.17858 115.093 2.19898C116.001 2.33154 116.908 2.48449 117.816 2.64764C117.938 2.66804 118.02 2.7904 117.999 2.91277C117.979 3.02493 117.877 3.09631 117.775 3.09631ZM93.1799 2.91277C93.0677 2.91277 92.9759 2.83119 92.9555 2.72922C92.9351 2.60686 93.0167 2.48449 93.1391 2.4641C94.0364 2.30095 94.9541 2.15819 95.8616 2.03583C95.984 2.01543 96.1064 2.10721 96.1166 2.22957C96.137 2.35193 96.0452 2.4743 95.9228 2.48449C95.0153 2.60686 94.1078 2.74961 93.2206 2.91277C93.2104 2.91277 93.19 2.91277 93.1799 2.91277ZM112.34 2.31114C112.33 2.31114 112.32 2.31114 112.32 2.31114C111.412 2.20917 110.494 2.1276 109.587 2.06642C109.464 2.05622 109.362 1.94405 109.373 1.82169C109.383 1.69933 109.495 1.59736 109.617 1.60755C110.525 1.66874 111.453 1.75031 112.36 1.85228C112.483 1.86248 112.574 1.97464 112.564 2.10721C112.554 2.21937 112.452 2.31114 112.34 2.31114ZM98.625 2.16839C98.5129 2.16839 98.4109 2.07661 98.4007 1.96445C98.3905 1.84208 98.4823 1.72992 98.6046 1.71972C99.5122 1.63814 100.44 1.56677 101.358 1.52598C101.48 1.51578 101.592 1.61775 101.603 1.74011C101.613 1.86248 101.511 1.97464 101.388 1.98484C100.471 2.02563 99.553 2.09701 98.6556 2.17858C98.6352 2.16839 98.625 2.16839 98.625 2.16839ZM106.854 1.92366C105.936 1.89307 105.019 1.88287 104.111 1.89307C103.989 1.89307 103.876 1.7911 103.876 1.66874C103.876 1.54637 103.978 1.43421 104.101 1.43421C105.019 1.42401 105.936 1.43421 106.854 1.4648C106.976 1.4648 107.078 1.57696 107.078 1.69933C107.078 1.83189 106.976 1.92366 106.854 1.92366Z" fill="#000139"/>
<path d="M155.086 21.4304C155.035 21.4304 154.973 21.4101 154.933 21.3693C154.27 20.7574 153.587 20.1456 152.883 19.5542C152.791 19.4726 152.771 19.3299 152.852 19.2279C152.934 19.1361 153.077 19.1157 153.179 19.1973C153.882 19.7887 154.576 20.4108 155.239 21.0328C155.33 21.1143 155.341 21.2673 155.249 21.3591C155.208 21.4101 155.147 21.4304 155.086 21.4304ZM150.905 17.8717C150.854 17.8717 150.803 17.8513 150.762 17.8207C150.048 17.2599 149.314 16.7093 148.58 16.1688C148.478 16.0974 148.458 15.9547 148.529 15.8527C148.6 15.7507 148.743 15.7303 148.845 15.8017C149.589 16.3422 150.334 16.903 151.048 17.4638C151.15 17.5454 151.16 17.6882 151.088 17.7901C151.037 17.8411 150.966 17.8717 150.905 17.8717ZM146.449 14.6495C146.408 14.6495 146.357 14.6393 146.326 14.6087C145.572 14.109 144.797 13.6094 144.022 13.1301C143.91 13.0689 143.879 12.9262 143.951 12.814C144.012 12.7018 144.154 12.6713 144.267 12.7426C145.052 13.2219 145.827 13.7215 146.592 14.2314C146.693 14.3028 146.724 14.4455 146.653 14.5475C146.602 14.6189 146.53 14.6495 146.449 14.6495Z" fill="#000139"/>
<path d="M64.9547 72.3949C64.9445 72.3949 64.9343 72.3949 64.9139 72.3949C64.7915 72.3745 64.7099 72.2521 64.7303 72.1297L68.0851 52.1641C68.1055 52.0417 68.2177 51.9602 68.3502 51.9805C68.4726 52.0009 68.5542 52.1233 68.5338 52.2457L65.179 72.2113C65.1688 72.3235 65.0668 72.3949 64.9547 72.3949Z" fill="#000139"/>
<path d="M61.2226 72.8537C61.1104 72.8537 61.0084 72.7722 60.9982 72.66L59.5707 62.3203C59.5503 62.1979 59.642 62.0755 59.7644 62.0653C59.8868 62.0449 60.0091 62.1367 60.0193 62.2591L61.4469 72.5988C61.4673 72.7212 61.3755 72.8435 61.2532 72.8537C61.243 72.8537 61.2328 72.8537 61.2226 72.8537Z" fill="#000139"/>
<path d="M67.9016 73.8938C67.8608 73.8938 67.82 73.8836 67.7894 73.8632C67.6772 73.802 67.6466 73.6593 67.7078 73.5471L73.0306 64.5636C73.0918 64.4514 73.2346 64.4208 73.3467 64.482C73.4589 64.5432 73.4895 64.686 73.4283 64.7981L68.1055 73.7816C68.0647 73.853 67.9831 73.8938 67.9016 73.8938Z" fill="#000139"/>
<path d="M48.456 117.149C48.456 117.149 47.4261 120.667 62.7317 121.524C78.0271 122.38 75.4677 118.036 75.4677 118.036L59.4075 113.346L48.456 117.149Z" fill="white"/>
<path d="M66.372 121.86C65.2504 121.86 64.0267 121.82 62.7113 121.748C52.6775 121.187 49.4655 119.495 48.5273 118.179C48.0991 117.578 48.2112 117.139 48.2316 117.088C48.252 117.017 48.303 116.956 48.3744 116.935L59.3259 113.132C59.3667 113.111 59.4177 113.111 59.4687 113.132L75.5289 117.812C75.5901 117.833 75.6309 117.863 75.6615 117.914C75.6819 117.945 76.1305 118.73 75.5901 119.607C74.6927 121.096 71.5317 121.86 66.372 121.86ZM48.6701 117.312C48.6803 117.435 48.7211 117.659 48.9352 117.945C49.6796 118.944 52.4634 120.708 62.7419 121.289C72.2251 121.82 74.6214 120.321 75.2026 119.372C75.5187 118.862 75.3861 118.393 75.3046 118.22L59.4075 113.591L48.6701 117.312Z" fill="#000139"/>
<path d="M63.7514 172.264L63.5577 179.483L61.0084 179.759L59.744 171.989L63.7514 172.264Z" fill="white"/>
<path d="M61.0084 179.983C60.8963 179.983 60.8045 179.901 60.7841 179.789L59.5197 172.019C59.5095 171.948 59.5299 171.876 59.5808 171.825C59.6318 171.774 59.693 171.744 59.7644 171.754L63.7718 172.029C63.8942 172.04 63.9859 172.142 63.9859 172.264L63.7922 179.483C63.7922 179.596 63.7004 179.697 63.5883 179.708L61.039 179.983C61.0288 179.983 61.0186 179.983 61.0084 179.983ZM60.0193 172.233L61.2022 179.504L63.3333 179.269L63.5169 172.468L60.0193 172.233Z" fill="#000139"/>
<path d="M78.2209 174.63L78.6288 180.381L75.2638 180.656L74.0605 174.63H78.2209Z" fill="white"/>
<path d="M75.2638 180.891C75.1516 180.891 75.0598 180.819 75.0394 180.707L73.8362 174.681C73.826 174.609 73.8362 174.548 73.8872 174.487C73.928 174.436 73.9993 174.405 74.0605 174.405H78.2311C78.3535 174.405 78.4554 174.497 78.4554 174.619L78.8633 180.37C78.8735 180.493 78.7817 180.605 78.6492 180.615L75.2842 180.891C75.274 180.891 75.2638 180.891 75.2638 180.891ZM74.3358 174.864L75.4473 180.411L78.384 180.167L78.0068 174.854H74.3358V174.864Z" fill="#000139"/>
<path d="M74.3563 183.134C74.1217 182.981 73.979 182.716 73.9688 182.44C73.9484 181.594 73.9484 179.799 74.2849 179.126C74.7335 178.229 76.5996 179.483 76.5996 179.483C76.5996 179.483 77.6907 177.974 78.3331 177.658C78.6594 177.495 80.5968 178.78 82.5444 180.534C84.6756 182.461 85.6443 183.073 86.1032 184.725C86.3173 185.5 85.7463 186.285 84.9407 186.346C82.9829 186.478 79.0265 186.244 74.3563 183.134Z" fill="white"/>
<path d="M84.0842 186.591C81.9224 186.591 78.3433 186.06 74.2339 183.328C73.9382 183.134 73.7546 182.797 73.7444 182.44C73.7139 181.462 73.724 179.718 74.0809 179.014C74.1829 178.8 74.3665 178.657 74.601 178.596C75.2332 178.433 76.1509 178.923 76.5486 179.157C76.8647 178.729 77.6703 177.709 78.2311 177.434C78.8837 177.107 81.6777 179.422 82.6974 180.35C83.0339 180.656 83.3398 180.921 83.6253 181.166C85.1548 182.512 85.9196 183.185 86.3275 184.653C86.4499 185.081 86.3683 185.54 86.1032 185.918C85.838 186.295 85.42 186.529 84.9611 186.56C84.7062 186.58 84.4105 186.591 84.0842 186.591ZM74.8865 179.024C74.8253 179.024 74.7641 179.035 74.7132 179.045C74.6112 179.075 74.5398 179.126 74.4888 179.228C74.2645 179.667 74.1523 180.87 74.1931 182.44C74.2033 182.644 74.3053 182.838 74.4786 182.95C79.0978 186.02 83.0033 186.254 84.9203 186.111C85.2466 186.091 85.5321 185.928 85.7259 185.653C85.9094 185.398 85.9604 185.071 85.8788 184.776C85.5117 183.44 84.8183 182.838 83.3092 181.513C83.0237 181.268 82.7178 180.993 82.3813 180.687C80.3113 178.821 78.7104 177.862 78.4045 177.852C77.915 178.107 77.0687 179.198 76.7729 179.596C76.7016 179.697 76.5588 179.718 76.4568 179.657C76.1917 179.473 75.4065 179.024 74.8865 179.024Z" fill="#000139"/>
<path d="M83.1664 185.041C81.1169 185.041 77.7723 184.561 74.5398 181.971C74.4378 181.89 74.4276 181.747 74.499 181.645C74.5806 181.543 74.7234 181.533 74.8253 181.604C79.7912 185.571 85.0121 184.419 85.0631 184.409C85.1854 184.378 85.3078 184.459 85.3384 184.582C85.369 184.704 85.2874 184.827 85.165 184.857C85.1447 184.867 84.3799 185.041 83.1664 185.041Z" fill="#000139"/>
<path d="M64.7609 181.237L64.7201 177.281C64.7201 177.281 63.9248 176.078 62.8439 177.056C62.8439 177.056 61.8344 175.649 59.9786 177.403C59.9786 177.403 57.3579 182.298 56.1955 185.204C55.8896 185.979 56.4402 186.835 57.2764 186.856C58.4796 186.886 60.0397 186.815 60.7127 186.356C61.7732 185.642 63.5883 183.379 64.3836 182.359C64.6284 182.043 64.7609 181.645 64.7609 181.237Z" fill="white"/>
<path d="M57.7556 187.09C57.6027 187.09 57.4395 187.09 57.2662 187.08C56.7971 187.07 56.3688 186.835 56.1139 186.438C55.859 186.04 55.808 185.551 55.9813 185.112C57.1336 182.226 59.7542 177.342 59.7746 177.291C59.7848 177.271 59.8052 177.25 59.8154 177.23C60.5394 176.547 61.243 176.231 61.8956 176.292C62.3646 176.333 62.6807 176.567 62.8643 176.73C63.1804 176.496 63.5169 176.404 63.8534 176.445C64.506 176.526 64.9037 177.118 64.9139 177.148C64.9343 177.189 64.9547 177.23 64.9547 177.271L64.9955 181.227C64.9955 181.686 64.8425 182.135 64.5672 182.502C63.6291 183.705 61.9058 185.826 60.8453 186.55C60.3151 186.917 59.275 187.09 57.7556 187.09ZM60.1621 177.546C59.9276 177.984 57.5007 182.553 56.4096 185.285C56.2873 185.591 56.3178 185.918 56.5014 186.193C56.6747 186.458 56.9602 186.621 57.2866 186.631C58.9283 186.672 60.1009 186.509 60.5904 186.173C61.6305 185.469 63.4659 183.175 64.2001 182.226C64.4142 181.941 64.5366 181.594 64.5366 181.237L64.4958 177.362C64.404 177.25 64.1389 176.955 63.7922 176.914C63.5373 176.883 63.2722 176.985 62.9968 177.23C62.9459 177.271 62.8847 177.291 62.8235 177.291C62.7623 177.281 62.7011 177.25 62.6604 177.199C62.6502 177.189 62.3748 176.812 61.8446 176.761C61.3449 176.71 60.7739 176.975 60.1621 177.546Z" fill="#000139"/>
<path d="M62.8439 179.422C62.7215 179.422 62.6196 179.32 62.6196 179.198V177.067C62.6196 176.944 62.7215 176.842 62.8439 176.842C62.9663 176.842 63.0682 176.944 63.0682 177.067V179.198C63.0784 179.32 62.9765 179.422 62.8439 179.422Z" fill="#000139"/>
<path d="M79.2406 174.956C79.2406 174.956 80.1991 160.446 78.6288 147.383C77.0483 134.331 71.185 115.681 71.185 115.681C71.185 115.681 64.8731 115.395 60.2743 116.007C55.6754 116.629 53.8604 115.987 53.8604 115.987C53.8604 115.987 50.4342 119.913 50.7095 127.295C50.9848 134.678 58.9996 165.83 58.6937 173.141C58.6937 173.141 61.3857 174.497 64.8731 173.824L63.4251 131.864C63.4251 131.864 66.4128 140.511 67.82 146.425C68.9621 151.248 70.9505 154.378 70.9505 154.378C70.9505 154.378 70.8689 165.595 73.4385 174.915C73.4385 174.905 76.4874 175.863 79.2406 174.956Z" fill="#000139"/>
<path d="M74.1931 159.416C74.1217 159.416 74.0504 159.385 73.9994 159.314L71.7968 156.102C71.7255 156 71.7561 155.857 71.858 155.786C71.96 155.714 72.1027 155.745 72.1741 155.847L74.3767 159.059C74.448 159.161 74.4175 159.304 74.3155 159.375C74.2849 159.406 74.2441 159.416 74.1931 159.416Z" fill="white"/>
<path d="M59.3667 151.615C58.5918 151.615 57.6129 151.462 56.7971 150.86C56.6951 150.789 56.6747 150.646 56.7461 150.544C56.8175 150.442 56.9602 150.422 57.0622 150.493C58.4694 151.544 60.5394 151.034 60.5598 151.034C60.6821 151.003 60.8045 151.075 60.8351 151.197C60.8657 151.319 60.7943 151.442 60.6719 151.472C60.6414 151.483 60.1009 151.615 59.3667 151.615Z" fill="white"/>
<path d="M69.8594 103.761C69.8594 103.761 73.3977 111.725 79.1692 113.356C84.9407 114.988 88.9685 110.062 88.9379 104.995L86.9801 104.342C86.9801 104.342 84.9611 109.542 80.4744 108.186C75.9776 106.83 73.8974 96.2558 73.8974 96.2558L69.8594 103.761Z" fill="white"/>
<path d="M81.3922 113.896C80.6988 113.896 79.934 113.795 79.108 113.57C73.2958 111.928 69.788 104.179 69.6453 103.852C69.6147 103.791 69.6147 103.71 69.6554 103.649L73.6934 96.1436C73.7342 96.062 73.8362 96.011 73.928 96.0212C74.0197 96.0314 74.1013 96.113 74.1217 96.2048C74.1421 96.3067 76.2325 106.667 80.5356 107.962C84.7673 109.236 86.6844 104.454 86.766 104.25C86.8067 104.138 86.9393 104.077 87.0515 104.118L89.0093 104.77C89.1011 104.801 89.1622 104.893 89.1622 104.984C89.1724 107.941 87.8468 110.797 85.6953 112.428C84.747 113.162 83.299 113.896 81.3922 113.896ZM70.1143 103.761C70.5528 104.689 73.979 111.643 79.2304 113.122C82.1263 113.937 84.1963 112.999 85.4301 112.061C87.4287 110.542 88.683 107.901 88.7136 105.148L87.1024 104.617C86.715 105.453 85.0529 108.635 81.9122 108.635C81.4431 108.635 80.9333 108.563 80.403 108.4C76.416 107.197 74.3257 99.2129 73.7954 96.9084L70.1143 103.761Z" fill="#000139"/>
<path d="M48.456 96.0722C48.456 96.0722 52.0045 91.4428 62.0383 92.2993C74.0096 93.3394 74.9273 95.7051 74.9273 95.7051L71.7968 102.037L75.4677 118.026C75.4677 118.026 72.9593 120.106 67.0858 118.934C61.2124 117.771 51.1174 116.334 48.456 117.139L52.1779 101.884L48.456 96.0722Z" fill="white"/>
<path d="M70.4916 119.525C69.5025 119.525 68.3502 119.423 67.045 119.158C61.09 117.975 51.0868 116.588 48.5274 117.363C48.4458 117.384 48.3642 117.363 48.303 117.312C48.2418 117.251 48.2214 117.17 48.2418 117.088L51.9433 101.925L48.2724 96.1844C48.2214 96.1028 48.2214 96.0008 48.2826 95.9192C48.4356 95.7255 52.0249 91.1981 62.0689 92.0648C74.0504 93.0947 75.1108 95.5114 75.1516 95.6133C75.172 95.6745 75.172 95.7357 75.1414 95.7969L72.0517 102.058L75.7023 117.965C75.7227 118.047 75.6921 118.138 75.6207 118.189C75.5289 118.271 73.9688 119.525 70.4916 119.525ZM50.9032 116.69C55.0228 116.69 62.2423 117.751 67.1266 118.72C72.1537 119.719 74.6724 118.302 75.2026 117.934L71.5725 102.088C71.5623 102.037 71.5623 101.986 71.5929 101.935L74.6622 95.7153C74.3563 95.3278 72.3577 93.421 62.0179 92.5339C53.1364 91.7691 49.3839 95.3788 48.7415 96.0926L52.3716 101.772C52.4022 101.823 52.4124 101.884 52.4022 101.946L48.7721 116.843C49.3125 116.731 50.0365 116.69 50.9032 116.69Z" fill="#000139"/>
<path d="M86.9699 111.052H71.5419L81.6675 92.7276H97.0955L86.9699 111.052Z" fill="white"/>
<path d="M86.9699 111.286H71.5419C71.4603 111.286 71.3889 111.245 71.3482 111.174C71.3074 111.103 71.3074 111.021 71.3482 110.95L81.4737 92.6256C81.5145 92.5543 81.5859 92.5033 81.6777 92.5033H97.1057C97.1873 92.5033 97.2586 92.5441 97.2994 92.6154C97.3402 92.6868 97.3402 92.7684 97.2994 92.8398L87.1738 111.164C87.1331 111.235 87.0617 111.286 86.9699 111.286ZM71.9294 110.827H86.8373L96.708 92.9621H81.8L71.9294 110.827Z" fill="#000139"/>
<path d="M87.3268 110.47C87.3268 110.47 87.0413 108.951 87.3268 107.941C87.6123 106.932 89.4172 103.914 89.927 103.281C90.4471 102.649 90.8856 109.389 87.3268 110.47Z" fill="white"/>
<path d="M87.3268 110.705C87.286 110.705 87.2452 110.695 87.2044 110.674C87.1535 110.644 87.1127 110.582 87.1025 110.521C87.0923 110.46 86.8068 108.941 87.1025 107.88C87.3982 106.861 89.203 103.812 89.7435 103.139C89.8556 103.006 89.9882 102.996 90.0902 103.027C90.4981 103.179 90.5083 104.444 90.4879 104.984C90.4165 107.299 89.5701 110.022 87.388 110.684C87.3778 110.705 87.3472 110.705 87.3268 110.705ZM89.9576 103.628C89.3152 104.536 87.7959 107.126 87.5511 108.003C87.3472 108.706 87.4492 109.695 87.5104 110.164C88.683 109.685 89.2948 108.502 89.6007 107.554C90.131 105.953 90.1004 104.23 89.9576 103.628Z" fill="#000139"/>
<path d="M55.033 106.534L66.9125 100.804L73.0816 101.895C73.0816 101.895 72.6534 102.537 71.7764 102.384C70.8995 102.231 69.737 102.486 68.9927 103.292C68.2585 104.097 67.0144 103.587 67.0144 103.587C67.0144 103.587 60.2946 112.224 54.258 113.336C49.3533 114.243 48.8129 96.6432 48.8129 96.6432L54.7169 101.874L55.033 106.534Z" fill="white"/>
<path d="M53.9113 113.611C53.4117 113.611 52.9324 113.427 52.494 113.081C49.0474 110.307 48.6089 97.2245 48.5987 96.6636C48.5987 96.5719 48.6497 96.4903 48.7313 96.4495C48.8129 96.4087 48.9148 96.4291 48.976 96.4903L54.8801 101.721C54.9208 101.762 54.9514 101.813 54.9616 101.874L55.2471 106.188L66.8207 100.61C66.8615 100.589 66.9125 100.579 66.9635 100.589L73.1326 101.681C73.204 101.691 73.2754 101.742 73.306 101.813C73.3366 101.884 73.3264 101.966 73.2856 102.027C73.2652 102.058 72.7655 102.792 71.7458 102.619C70.9709 102.486 69.8696 102.69 69.1762 103.455C68.5032 104.189 67.5039 103.985 67.1164 103.863C66.2191 104.984 60.0397 112.51 54.3192 113.57C54.1765 113.601 54.0439 113.611 53.9113 113.611ZM49.078 97.1837C49.2003 99.7125 49.8835 110.379 52.7795 112.724C53.2383 113.091 53.7074 113.224 54.2274 113.122C60.1111 112.041 66.7799 103.547 66.8411 103.455C66.9023 103.373 67.0144 103.343 67.1062 103.383C67.1164 103.383 68.2075 103.822 68.8193 103.149C69.6249 102.262 70.8995 102.017 71.807 102.17C72.1435 102.231 72.3984 102.15 72.5718 102.048L66.9329 101.048L55.1146 106.738C55.0432 106.769 54.9616 106.769 54.9004 106.728C54.8393 106.687 54.7883 106.626 54.7883 106.544L54.4926 101.986L49.078 97.1837Z" fill="#000139"/>
<path d="M60.8555 88.2919C60.0703 88.7814 59.2342 88.7304 58.8263 88.6998C57.9799 88.6488 54.4314 88.0778 52.6469 84.9167C50.9032 81.8271 51.5762 77.5647 53.0854 76.9937C54.1663 76.5858 55.3899 78.1765 57.0316 77.5341C57.7556 77.2486 57.6842 76.8713 58.449 76.5654C59.744 76.0556 61.141 76.6674 62.2015 77.1466C64.1389 78.0236 63.9452 78.5742 65.6378 79.4104C68.0443 80.6034 69.6657 80.1038 69.992 81.0317C70.2469 81.7761 69.4821 82.8569 68.646 83.3974C66.9125 84.519 65.4135 82.9283 64.0369 84.0092C63.1804 84.6822 63.0274 85.8243 61.5795 87.6393C61.4469 87.7821 61.2226 88.0574 60.8555 88.2919Z" fill="#000139"/>
<path d="M62.589 90.7392C62.5686 90.4639 62.5482 90.158 62.538 89.8317C63.058 90.1886 63.6597 90.3619 64.0573 90.2395C64.5468 90.0968 64.7303 89.6379 65.0362 89.1077C65.1586 88.8833 65.2912 88.6284 65.5869 88.4347C65.75 88.3327 65.9132 88.2817 66.0661 88.2613C66.2599 88.2307 66.3924 88.0574 66.3822 87.8637L66.3618 87.7413C66.1885 86.8134 66.1987 85.8549 66.3822 84.9371L66.7595 83.1119C65.852 82.5001 65.4747 82.4899 65.3014 82.6122C65.2402 82.6632 65.1586 82.6836 65.0974 82.9589C64.8221 84.3151 63.6291 83.9174 62.6705 83.4382C61.7018 82.9691 61.6509 84.9371 61.6509 84.9371C61.6509 84.9371 61.192 83.9786 60.3354 84.5394C59.7236 84.9371 60.519 85.9874 61.0186 86.5482L59.7644 90.3721C59.4381 91.3816 58.5612 92.1056 57.5109 92.2585L55.9304 92.4727C55.9304 92.4727 61.763 94.2062 66.4536 92.9723L63.8534 92.2789C63.1498 92.0954 62.64 91.4734 62.589 90.7392Z" fill="white"/>
<path d="M62.6297 93.6555C59.1424 93.6555 56.0527 92.7582 55.8794 92.697C55.7774 92.6664 55.706 92.5645 55.7162 92.4625C55.7264 92.3503 55.808 92.2687 55.9099 92.2483L57.4905 92.0342C58.449 91.9017 59.2546 91.2287 59.5605 90.3109L60.7739 86.6094C60.1417 85.8752 59.846 85.294 59.897 84.8555C59.9276 84.6516 60.0397 84.4783 60.2131 84.3559C60.519 84.1622 60.8249 84.101 61.1104 84.1826C61.2532 84.2233 61.3755 84.2947 61.4775 84.3763C61.5489 83.9684 61.7018 83.4484 62.0485 83.2444C62.1913 83.1527 62.436 83.0813 62.7725 83.2444C63.2925 83.4994 64.0267 83.8053 64.4652 83.5911C64.6691 83.4892 64.8119 83.2648 64.8833 82.9181C64.9445 82.6326 65.026 82.5306 65.1586 82.4389C65.4951 82.1839 66.0253 82.3369 66.8921 82.9181C66.9737 82.9691 67.0042 83.0609 66.9839 83.1527L66.6066 84.9779C66.423 85.8752 66.4128 86.793 66.5862 87.7005L66.6066 87.8229C66.6066 87.8331 66.6066 87.8433 66.6066 87.8535C66.6168 88.1594 66.4026 88.4347 66.0967 88.4857C65.954 88.5061 65.8112 88.557 65.699 88.6284C65.4747 88.7712 65.3727 88.9547 65.2606 89.1587L65.23 89.2199C65.1892 89.2912 65.1484 89.3626 65.1076 89.434C64.8629 89.8827 64.6284 90.3109 64.1185 90.4537C63.7514 90.5658 63.262 90.4741 62.7827 90.2293C62.7929 90.3823 62.8031 90.5455 62.8133 90.7086C62.8541 91.351 63.3027 91.8915 63.9248 92.0546L66.525 92.748C66.627 92.7786 66.6983 92.8704 66.6983 92.9723C66.6983 93.0743 66.627 93.1661 66.525 93.1967C65.2504 93.5332 63.9146 93.6555 62.6297 93.6555ZM57.1438 92.5543C58.8875 92.9417 62.3544 93.5332 65.4951 92.9621L63.8126 92.5135C63.007 92.2993 62.4258 91.5957 62.3646 90.7596C62.3442 90.4435 62.3238 90.1376 62.3136 89.8419C62.3136 89.7603 62.3544 89.6787 62.436 89.6379C62.5074 89.5971 62.6094 89.5971 62.6807 89.6481C63.1498 89.9744 63.68 90.1274 64.0063 90.0254C64.3428 89.9234 64.4958 89.6277 64.7201 89.2199C64.7609 89.1485 64.8017 89.0771 64.8425 88.9955L64.8731 88.9343C64.9954 88.7202 65.1484 88.4449 65.4747 88.2409C65.6378 88.139 65.8316 88.0676 66.0355 88.0268C66.1069 88.0166 66.1579 87.9554 66.1579 87.884L66.1375 87.7821C65.954 86.8236 65.9642 85.8447 66.1579 84.8861L66.5046 83.2138C65.648 82.6632 65.4543 82.7856 65.4441 82.7958L65.4135 82.8162C65.3931 82.8366 65.3625 82.8467 65.3319 83.0099C65.23 83.4994 65.0056 83.8359 64.6691 83.999C64.0573 84.2947 63.2314 83.9684 62.5788 83.6523C62.4054 83.5707 62.3238 83.6115 62.2932 83.6319C62.0383 83.7849 61.9058 84.4987 61.8854 84.9473C61.8854 85.0493 61.8038 85.1411 61.7018 85.1615C61.5999 85.1819 61.4979 85.1309 61.4469 85.0391C61.4469 85.0391 61.2735 84.6924 60.988 84.6108C60.8351 84.57 60.6617 84.6108 60.468 84.7332C60.3966 84.774 60.366 84.8352 60.3558 84.9065C60.315 85.2022 60.6311 85.7529 61.2022 86.3851C61.2532 86.4463 61.2736 86.5279 61.2532 86.6094L59.9989 90.4333C59.642 91.5142 58.6835 92.3197 57.5619 92.4727L57.1438 92.5543Z" fill="#000139"/>
<path d="M62.538 90.0662C62.4972 90.0662 62.4564 90.056 62.4156 90.0356C61.3143 89.3626 61.1818 87.6393 61.1716 87.5679C61.1614 87.4456 61.2532 87.3334 61.3857 87.3232C61.5081 87.313 61.6202 87.4048 61.6304 87.5374C61.6304 87.5577 61.7528 89.0975 62.6501 89.6481C62.7623 89.7093 62.7929 89.8521 62.7215 89.9642C62.6909 90.0254 62.6195 90.0662 62.538 90.0662Z" fill="#000139"/>
<path d="M8.26974 173.345L8.7694 178.097L11.9814 178.474V172.835L8.26974 173.345Z" fill="white"/>
<path d="M11.9814 178.698C11.9712 178.698 11.9611 178.698 11.9509 178.698L8.73881 178.321C8.63684 178.311 8.54507 178.219 8.53487 178.117L8.03522 173.365C8.02502 173.243 8.1066 173.131 8.22896 173.11L11.9407 172.6C12.0018 172.59 12.0732 172.611 12.1242 172.651C12.1752 172.692 12.2058 172.753 12.2058 172.825V178.453C12.2058 178.515 12.1752 178.586 12.1242 178.627C12.0936 178.678 12.0324 178.698 11.9814 178.698ZM8.98354 177.882L11.7571 178.209V173.1L8.52468 173.539L8.98354 177.882Z" fill="#000139"/>
<path d="M12.4913 186.733C11.1555 186.917 8.96317 187.09 6.38334 186.733C5.53699 186.621 4.97615 185.795 5.18009 184.969C5.75112 182.665 6.71984 178.29 8.40233 176.261L8.82041 177.362L9.39144 176.332C9.47301 176.19 9.61577 176.098 9.76873 176.078L11.0331 175.914C11.2983 175.884 11.543 176.057 11.594 176.312L11.7979 177.271L12.2364 176.016L13.7048 185.132C13.8067 185.907 13.2663 186.621 12.4913 186.733Z" fill="white"/>
<path d="M9.45261 187.172C8.51449 187.172 7.4642 187.111 6.35273 186.958C5.88367 186.897 5.4656 186.631 5.20048 186.244C4.93536 185.856 4.85378 185.367 4.96595 184.918L5.08831 184.419C5.66954 182.033 6.63825 178.056 8.22897 176.118C8.27996 176.057 8.36153 176.027 8.44311 176.037C8.52469 176.047 8.58587 176.108 8.61646 176.18L8.86119 176.822L9.19769 176.22C9.30985 176.016 9.51379 175.874 9.74832 175.843L11.0127 175.68C11.39 175.629 11.7469 175.884 11.8285 176.261L11.8591 176.414L12.0222 175.935C12.0528 175.833 12.1548 175.772 12.2568 175.782C12.3587 175.792 12.4505 175.874 12.4607 175.976L13.9291 185.092C14.0514 185.999 13.4192 186.835 12.5219 186.958C11.7265 187.07 10.6762 187.172 9.45261 187.172ZM8.33094 176.73C6.94416 178.678 6.05702 182.308 5.52678 184.521L5.40442 185.02C5.32284 185.357 5.38402 185.693 5.57776 185.979C5.77151 186.264 6.07742 186.448 6.41391 186.499C8.94276 186.846 11.0943 186.693 12.4607 186.499C13.1133 186.407 13.5722 185.805 13.4804 185.153L12.1548 176.934L12.012 177.332C11.9815 177.434 11.8897 177.495 11.7775 177.485C11.6755 177.475 11.594 177.403 11.5634 177.301L11.3594 176.343C11.3289 176.2 11.1963 176.108 11.0535 176.118L9.78911 176.281C9.69734 176.292 9.62596 176.343 9.57497 176.424L9.00394 177.454C8.96316 177.536 8.88158 177.577 8.78981 177.566C8.69803 177.556 8.62666 177.505 8.59607 177.424L8.33094 176.73Z" fill="#000139"/>
<path d="M8.76942 185.642C7.91287 185.642 6.98495 185.571 6.05703 185.357C5.93466 185.326 5.85309 185.204 5.88368 185.081C5.91427 184.959 6.03663 184.878 6.159 184.908C9.28946 185.622 12.5729 184.704 12.6137 184.694C12.736 184.663 12.8584 184.725 12.8992 184.847C12.9298 184.969 12.8584 185.092 12.7462 185.132C12.6341 185.163 10.921 185.642 8.76942 185.642Z" fill="#000139"/>
<path d="M8.00464 182.114C7.88227 182.114 7.7803 182.012 7.7803 181.89C7.7803 181.767 7.87208 181.655 8.00464 181.655L11.0127 181.553C11.1351 181.553 11.2473 181.645 11.2473 181.778C11.2473 181.9 11.1555 182.012 11.0229 182.012L8.00464 182.114Z" fill="#000139"/>
<path d="M23.3103 170.816L23.7895 177.75H27.6542L27.8377 170.816H23.3103Z" fill="white"/>
<path d="M27.6542 177.974H23.7895C23.6672 177.974 23.5652 177.882 23.5652 177.76L23.0859 170.826C23.0859 170.765 23.1063 170.704 23.1471 170.653C23.1879 170.602 23.2491 170.581 23.3103 170.581H27.8377C27.8989 170.581 27.9601 170.602 28.0009 170.653C28.0417 170.694 28.0723 170.755 28.0621 170.816L27.8785 177.75C27.8785 177.872 27.7765 177.974 27.6542 177.974ZM24.0037 177.515H27.4298L27.593 171.04H23.555L24.0037 177.515Z" fill="#000139"/>
<path d="M22.78 181.655C22.7699 182.308 23.2185 182.889 23.8609 183.032C26.0839 183.552 31.0804 184.704 32.5079 184.908C34.3638 185.183 36.6377 184.612 37.6166 183.532C38.5955 182.451 35.4243 179.861 33.9253 178.923C31.6922 177.526 29.5406 174.762 28.6433 174.64C27.746 174.517 26.0635 177.128 26.0635 177.128L23.3205 175.976C23.3103 175.976 22.831 178.331 22.78 181.655Z" fill="white"/>
<path d="M33.4767 185.214C33.1402 185.214 32.8037 185.194 32.4774 185.143C31.0294 184.929 25.9309 183.756 23.8099 183.256C23.0758 183.083 22.5455 182.41 22.5557 181.655C22.6067 178.351 23.086 175.955 23.086 175.935C23.0962 175.863 23.1471 175.812 23.1981 175.782C23.2593 175.751 23.3307 175.751 23.3919 175.772L25.9615 176.853C26.4102 176.169 27.7562 174.293 28.6637 174.426C29.1837 174.497 29.9179 175.19 30.9376 176.159C31.8757 177.046 32.9362 178.056 34.0375 178.749C35.2509 179.504 37.8206 181.523 38.0143 182.899C38.0551 183.215 37.9837 183.491 37.7798 183.715C36.9538 184.623 35.1898 185.214 33.4767 185.214ZM23.0146 181.665C23.0044 182.206 23.3817 182.695 23.9119 182.818C26.0329 183.307 31.111 184.48 32.5487 184.694C34.3638 184.959 36.5561 184.378 37.4535 183.389C37.5554 183.277 37.5962 183.134 37.5758 182.95C37.4331 181.9 35.2917 180.054 33.8132 179.126C32.6813 178.413 31.6004 177.393 30.6419 176.485C29.7956 175.68 29.0002 174.925 28.6229 174.874C28.1029 174.803 26.9302 176.231 26.2674 177.26C26.2062 177.352 26.0839 177.393 25.9819 177.352L23.4938 176.312C23.3613 177.016 23.0452 179.045 23.0146 181.665Z" fill="#000139"/>
<path d="M33.4359 183.939C29.4081 183.939 24.0037 181.757 23.6978 181.635C23.5856 181.584 23.5244 181.451 23.5754 181.339C23.6264 181.227 23.7589 181.166 23.8711 181.217C23.9731 181.258 33.7214 185.204 36.5867 182.614C36.6785 182.532 36.8213 182.532 36.913 182.634C36.9946 182.726 36.9946 182.869 36.8926 182.961C36.0973 183.674 34.8532 183.939 33.4359 183.939Z" fill="#000139"/>
<path d="M29.1532 179.748C29.092 179.748 29.0308 179.728 28.9798 179.677C28.8982 179.585 28.8982 179.443 29.0002 179.351L30.9682 177.577C31.06 177.495 31.2027 177.495 31.2945 177.597C31.3761 177.689 31.3761 177.831 31.2741 177.923L29.3061 179.697C29.2653 179.728 29.2143 179.748 29.1532 179.748Z" fill="#000139"/>
<path d="M7.1787 125.643C7.1787 125.643 5.98566 147.302 5.35344 154.776C4.73143 162.25 6.82181 174.273 6.82181 174.273L12.787 173.957C12.787 173.957 13.1949 159.344 13.6436 155.286C13.6436 155.286 16.1622 149.78 16.9066 144.875C17.651 139.97 20.2002 132.22 20.2002 132.22C20.2002 132.22 22.2702 170.908 22.4639 173.946C22.4639 173.946 27.1444 174.15 28.8167 173.1C28.8167 173.1 31.784 158.998 31.3557 151.319C30.9274 143.641 31.3965 124.583 31.3965 124.583L7.1787 125.643Z" fill="#000139"/>
<path d="M12.5321 155.52H10.7068C10.5845 155.52 10.4825 155.419 10.4825 155.296C10.4825 155.174 10.5845 155.072 10.7068 155.072H12.5321C12.6545 155.072 12.7564 155.174 12.7564 155.296C12.7564 155.419 12.6647 155.52 12.5321 155.52Z" fill="white"/>
<path d="M25.523 166.778C25.5128 166.778 25.5128 166.778 25.523 166.778C25.3904 166.778 25.2885 166.676 25.2987 166.543C25.3599 162.954 29.2959 156.53 29.459 156.265C29.5304 156.153 29.663 156.122 29.7751 156.193C29.8873 156.265 29.9179 156.397 29.8465 156.51C29.8057 156.571 25.8187 163.097 25.7473 166.564C25.7473 166.676 25.6454 166.778 25.523 166.778Z" fill="white"/>
<path d="M33.8131 91.6671C34.0987 91.3408 36.5255 93.8595 41.1753 89.0873C45.8252 84.3049 45.2643 74.057 45.2643 74.057C45.2643 74.057 44.2038 69.6723 44.4792 67.4391C44.7545 65.2162 44.8157 64.8899 44.8157 64.8899C44.8157 64.8899 45.713 65.0327 45.9271 66.032C46.1311 67.0313 46.1719 69.2338 46.1719 69.2338C46.1719 69.2338 48.0073 68.724 48.7925 70.6206C49.7 72.7925 47.834 74.3629 47.834 74.3629C47.834 74.3629 56.8889 99.5596 33.6704 101.823L33.8131 91.6671Z" fill="white"/>
<path d="M33.6704 102.058C33.6092 102.058 33.5582 102.037 33.5174 101.997C33.4664 101.956 33.446 101.895 33.446 101.823L33.5888 91.6671C33.5888 91.6161 33.6092 91.5652 33.65 91.5142C33.8131 91.3306 34.0477 91.4122 34.3434 91.5244C35.2611 91.8507 37.4229 92.6154 41.0224 88.9241C45.4479 84.3661 45.0706 74.5974 45.0502 74.0876C44.9584 73.7205 43.9999 69.6009 44.265 67.4085C44.5403 65.1958 44.6015 64.8593 44.6117 64.8389C44.6321 64.7165 44.7545 64.6452 44.8666 64.6554C44.9074 64.6656 45.9271 64.8389 46.1617 65.9708C46.3248 66.7763 46.386 68.3263 46.4064 68.9483C46.9978 68.8871 48.354 68.9279 49.0168 70.5084C49.8428 72.4764 48.5274 73.9958 48.1093 74.4037C48.5783 75.8006 52.1269 87.1601 47.2527 94.869C44.6423 98.9987 40.0843 101.405 33.701 102.027C33.6908 102.058 33.6806 102.058 33.6704 102.058ZM34.0375 91.9017L33.9049 101.568C40.0027 100.926 44.3568 98.5909 46.8551 94.6446C51.9127 86.6502 47.6606 74.5566 47.6198 74.4343C47.5892 74.3425 47.6096 74.2405 47.6912 74.1793C47.7626 74.1182 49.4145 72.6804 48.5885 70.692C47.8849 69.0197 46.3044 69.4275 46.233 69.4377C46.1617 69.4581 46.0903 69.4377 46.0393 69.397C45.9781 69.3562 45.9475 69.2848 45.9475 69.2134C45.9475 69.193 45.9067 67.0211 45.713 66.0524C45.6008 65.5119 45.2439 65.2672 45.0094 65.1652C44.9686 65.4711 44.8768 66.1135 44.7137 67.4493C44.4486 69.6111 45.4785 73.9346 45.4887 73.9856C45.4887 73.9958 45.4989 74.0162 45.4989 74.0264C45.5192 74.4445 46.0087 84.4273 41.3487 89.2199C37.5452 93.1253 35.1081 92.2585 34.1904 91.9322C34.1394 91.9424 34.0885 91.922 34.0375 91.9017Z" fill="#000139"/>
<path d="M0.224335 101.008C0.224335 101.008 2.22294 88.088 9.29963 84.9167C16.3661 81.7353 25.9309 82.1839 28.5719 83.7645C31.2027 85.3552 37.5248 90.7086 37.5248 90.7086L31.9981 101.008C31.9981 101.008 33.3849 123.839 32.2938 129.865C32.2938 129.865 25.5332 130.65 22.6678 129.528C19.8025 128.397 10.3805 126.816 5.87345 128.886L6.68921 99.9878L0.224335 101.008Z" fill="white"/>
<path d="M27.5318 130.365C25.7269 130.365 23.8201 130.222 22.5863 129.732C19.7719 128.621 10.4621 127.02 5.97543 129.09C5.90405 129.121 5.82248 129.121 5.7511 129.07C5.68992 129.029 5.64913 128.947 5.64913 128.876L6.46489 100.253L0.265133 101.242C0.193754 101.252 0.122376 101.232 0.0713909 101.181C0.0204061 101.13 1.21901e-05 101.059 0.0102092 100.987C0.0917849 100.457 2.11078 87.9146 9.21807 84.723C16.203 81.5823 25.8493 81.8678 28.7045 83.5911C31.3251 85.1717 37.4331 90.3415 37.6982 90.5557C37.7798 90.627 37.8002 90.7392 37.7492 90.8412L32.253 101.079C32.3448 102.68 33.6092 124.042 32.5385 129.926C32.5181 130.028 32.4366 130.099 32.3448 130.11C32.1612 130.11 29.9383 130.365 27.5318 130.365ZM12.0018 127.642C16.2846 127.642 20.9038 128.58 22.7596 129.304C25.2885 130.303 31.0396 129.763 32.1 129.651C33.1299 123.471 31.7941 101.242 31.7737 101.018C31.7737 100.977 31.7839 100.936 31.8043 100.895L37.2393 90.7596C36.291 89.9642 30.8254 85.3858 28.4495 83.9582C25.9717 82.4695 16.4477 81.9494 9.39142 85.1207C3.12028 87.9452 0.876951 98.754 0.50986 100.732L6.65863 99.7533C6.73001 99.7431 6.79119 99.7635 6.84217 99.8043C6.89316 99.8451 6.92375 99.9165 6.92375 99.9878L6.11819 128.529C7.71911 127.887 9.80949 127.642 12.0018 127.642Z" fill="#000139"/>
<path d="M12.0936 123.155C11.9814 123.155 11.8897 123.074 11.8693 122.962C11.8489 122.839 11.9305 122.717 12.0528 122.696C22.7698 120.8 25.9003 113.387 25.9309 113.315C25.9819 113.193 26.1144 113.142 26.2266 113.193C26.3388 113.244 26.3999 113.376 26.349 113.489C26.3184 113.57 23.1063 121.208 12.1242 123.155C12.114 123.155 12.1038 123.155 12.0936 123.155Z" fill="#000139"/>
<path d="M31.4984 110.042H17.7427L22.0459 94.6752H35.8016L31.4984 110.042Z" fill="white"/>
<path d="M31.4984 110.266H17.7427C17.6714 110.266 17.6 110.236 17.5592 110.175C17.5184 110.113 17.498 110.042 17.5184 109.971L21.8317 94.6038C21.8623 94.5019 21.9541 94.4407 22.0561 94.4407H35.8118C35.8831 94.4407 35.9545 94.4713 35.9953 94.5325C36.0361 94.5936 36.0565 94.665 36.0361 94.7364L31.7126 110.103C31.6922 110.195 31.6004 110.266 31.4984 110.266ZM18.0385 109.808H31.3149L35.4957 94.8996H22.2192L18.0385 109.808Z" fill="#000139"/>
<path d="M1.43777 101.059L8.4023 97.9485C8.4023 97.9485 7.42339 109.746 21.5054 104.301C21.5054 104.301 20.9853 102.782 21.0567 101.018C21.1281 99.2435 22.1886 100.957 22.3415 102.405C22.4945 103.842 25.7983 103.261 27.7867 102.69C29.7751 102.119 32.3856 102.496 27.7867 105.025C23.1879 107.564 22.1886 106.432 22.1886 106.432C22.1886 106.432 16.3151 114.641 9.01411 112.897C0.0305915 110.746 1.43777 101.059 1.43777 101.059Z" fill="white"/>
<path d="M11.0535 113.366C10.3703 113.366 9.67693 113.285 8.96314 113.122C-0.122353 110.95 1.20325 101.13 1.22365 101.038C1.23384 100.957 1.28483 100.895 1.35621 100.865L8.32073 97.7547C8.39211 97.7241 8.48388 97.7343 8.54507 97.7751C8.60625 97.8261 8.64703 97.8975 8.63684 97.979C8.63684 98.0198 8.32073 102.282 11.1045 104.362C13.2561 105.973 16.6618 105.902 21.2301 104.169C21.0873 103.689 20.7814 102.435 20.8324 101.008C20.8426 100.773 20.8732 100.049 21.3321 100.039C21.9235 100.018 22.4639 101.436 22.5659 102.384C22.5863 102.568 22.6679 102.7 22.831 102.812C23.6468 103.363 25.9717 102.976 27.7154 102.476C28.6943 102.201 30.2442 102.027 30.5297 102.721C30.6827 103.098 30.5807 103.761 27.8887 105.239C24.2178 107.268 22.7392 107.014 22.2294 106.759C21.4034 107.809 16.8454 113.366 11.0535 113.366ZM1.65192 101.211C1.59074 101.732 1.42759 103.842 2.08019 106.116C3.07949 109.593 5.42479 111.796 9.06511 112.663C9.73811 112.826 10.4009 112.897 11.0535 112.897C17.1921 112.897 21.9439 106.361 21.9949 106.279C22.0356 106.218 22.0968 106.188 22.1682 106.188C22.2396 106.188 22.3008 106.208 22.3518 106.259C22.3518 106.259 23.3816 107.177 27.6746 104.811C30.285 103.373 30.1116 102.874 30.1116 102.863C30.0199 102.639 29.0308 102.547 27.8479 102.884C26.9098 103.149 23.7589 103.965 22.5761 103.159C22.3008 102.976 22.1478 102.721 22.1172 102.394C22.0254 101.477 21.5768 100.64 21.3728 100.488C21.3423 100.549 21.3015 100.691 21.2913 100.997C21.2199 102.71 21.7195 104.189 21.7297 104.199C21.7705 104.311 21.7093 104.444 21.5972 104.485C16.7638 106.351 13.1439 106.422 10.8292 104.689C8.32073 102.812 8.14738 99.4168 8.16778 98.285L1.65192 101.211Z" fill="#000139"/>
<path d="M20.0268 79.0331C19.4252 79.5837 18.2526 80.2567 17.3246 79.7877C16.6415 79.441 16.254 78.5538 16.2846 77.5239C15.9685 77.5545 15.5504 77.5239 15.2547 77.269C14.7958 76.8611 14.8876 76.127 14.8978 75.6375C14.9793 73.384 13.6741 73.0373 13.9902 71.5077C14.2452 70.3045 15.1833 69.5907 15.3668 69.4581C16.254 68.7851 16.8658 68.9993 18.3647 68.6118C20.8834 67.949 20.965 66.8681 22.6271 66.8579C22.7188 66.8579 24.9826 66.8783 25.7473 68.4486C26.3694 69.7233 25.6454 71.263 24.8908 72.0788C23.9119 73.129 23.2185 72.609 22.2396 73.4961C20.5163 75.0257 21.8113 77.3914 20.0268 79.0331Z" fill="#000139"/>
<path d="M25.054 75.0053L24.952 74.9237C24.4523 74.4954 23.9323 73.9958 23.7997 73.3534C23.2389 70.6104 20.7203 69.6111 20.6081 72.1297C20.5775 72.7619 18.2526 72.7314 18.5279 73.4044C19.2417 75.148 19.2621 74.679 18.2526 75.3214C18.1404 75.3214 18.0283 75.352 17.9161 75.403C17.396 75.6477 17.2125 76.3513 17.5082 76.9835C17.6816 77.3608 17.9977 77.6259 18.3342 77.7177V80.4709C18.3342 81.5007 17.7122 82.4287 16.7536 82.8162L15.8257 83.1934C15.8257 83.1934 20.1492 86.018 24.5441 82.9181L23.9629 82.653C22.933 82.1941 22.2498 81.1744 22.2192 80.0528V79.5123C22.5149 79.5429 22.8004 79.5225 23.0656 79.441C24.2892 79.0841 24.6971 77.6667 24.4931 75.9128L24.9928 75.6477C25.2273 75.5049 25.2579 75.1786 25.054 75.0053Z" fill="white"/>
<path d="M20.1186 84.5802C17.6 84.5802 15.7441 83.3974 15.7135 83.377C15.6422 83.326 15.6014 83.2444 15.6116 83.1629C15.6218 83.0813 15.6727 82.9997 15.7543 82.9691L16.6822 82.5918C17.549 82.2349 18.12 81.3988 18.12 80.4607V77.8706C17.7733 77.7279 17.4878 77.4424 17.3145 77.0651C16.9678 76.3207 17.2023 75.4845 17.8345 75.1888C17.9467 75.1378 18.069 75.1073 18.1914 75.0869C18.3545 74.9849 18.4871 74.9135 18.5993 74.8523C18.7012 74.8013 18.8134 74.7402 18.8338 74.7096C18.8338 74.6586 18.7318 74.4037 18.5993 74.1181C18.5279 73.9448 18.4361 73.7409 18.3342 73.4859C18.2832 73.3534 18.2832 73.2208 18.3444 73.0985C18.4973 72.7925 18.9562 72.66 19.4864 72.5172C19.7617 72.4458 20.3939 72.2623 20.4041 72.1195C20.4653 70.692 21.2301 70.4778 21.5462 70.4574C22.4537 70.3861 23.6672 71.4567 24.0445 73.3024C24.1668 73.8836 24.6665 74.3527 25.1253 74.7504L25.2273 74.8319C25.3803 74.9645 25.4516 75.1582 25.4312 75.3622C25.4108 75.5559 25.2885 75.7395 25.1151 75.8312L24.748 76.025C24.9418 77.9726 24.3606 79.2982 23.1369 79.6449C22.9228 79.7061 22.6985 79.7367 22.4537 79.7367V80.0324C22.4843 81.0623 23.1165 82.0106 24.0648 82.4287L24.6461 82.6938C24.7175 82.7244 24.7684 82.7958 24.7786 82.8773C24.7888 82.9589 24.748 83.0405 24.6869 83.0813C23.0961 84.2131 21.5054 84.5802 20.1186 84.5802ZM16.3661 83.2138C17.4776 83.7747 20.7508 85.0697 24.0852 82.9487L23.8711 82.8569C22.7698 82.3573 22.0255 81.256 21.9949 80.0528L21.9847 79.5123C21.9847 79.4512 22.0153 79.39 22.056 79.339C22.107 79.2982 22.1682 79.2778 22.2294 79.2778C22.5047 79.2982 22.7596 79.2778 22.9942 79.2166C24.4421 78.7986 24.3606 76.7796 24.2586 75.9332C24.2484 75.8414 24.2994 75.7497 24.381 75.7089L24.8806 75.4438C24.9418 75.4132 24.952 75.352 24.9622 75.3316C24.9622 75.3112 24.9622 75.25 24.9112 75.199L24.8092 75.1175C24.2892 74.6688 23.7283 74.1385 23.5856 73.4146C23.2389 71.7219 22.1886 70.8755 21.5666 70.9265C21.1383 70.9571 20.8834 71.4058 20.8426 72.1501C20.8222 72.6192 20.2002 72.7925 19.5986 72.9659C19.3131 73.0475 18.793 73.1902 18.7522 73.3126C18.8644 73.5777 18.946 73.7817 19.0275 73.955C19.3742 74.7504 19.4558 74.9441 18.8236 75.2806C18.7114 75.3418 18.5687 75.4132 18.3953 75.5253C18.3647 75.5457 18.324 75.5559 18.2832 75.5559C18.1914 75.5559 18.1098 75.5763 18.0384 75.6171C17.6306 75.8108 17.498 76.3717 17.7427 76.8917C17.8855 77.1976 18.1404 77.422 18.4259 77.5035C18.5279 77.5341 18.5891 77.6259 18.5891 77.7279V80.4811C18.5891 81.6129 17.9161 82.6122 16.8658 83.0405L16.3661 83.2138Z" fill="#000139"/>
<path d="M22.2192 79.7265C22.209 79.7265 22.1988 79.7265 22.1886 79.7265C20.3939 79.4512 19.5884 78.0848 19.5578 78.0236C19.4966 77.9114 19.5374 77.7789 19.6394 77.7075C19.7515 77.6463 19.8841 77.6871 19.9555 77.7891C19.9657 77.7993 20.6897 79.0331 22.26 79.2676C22.3824 79.288 22.4741 79.4002 22.4537 79.5327C22.4231 79.6449 22.3314 79.7265 22.2192 79.7265Z" fill="#000139"/>
<path d="M47.4057 55.1314C55.0478 55.1314 61.2429 48.9362 61.2429 41.2941C61.2429 33.652 55.0478 27.4569 47.4057 27.4569C39.7635 27.4569 33.5684 33.652 33.5684 41.2941C33.5684 48.9362 39.7635 55.1314 47.4057 55.1314Z" fill="white"/>
<path d="M47.4057 55.3659C39.6458 55.3659 33.3339 49.054 33.3339 41.2941C33.3339 33.5342 39.6458 27.2223 47.4057 27.2223C55.1656 27.2223 61.4775 33.5342 61.4775 41.2941C61.4775 49.054 55.1656 55.3659 47.4057 55.3659ZM47.4057 27.6812C39.9007 27.6812 33.7927 33.7892 33.7927 41.2941C33.7927 48.7991 39.9007 54.9071 47.4057 54.9071C54.9106 54.9071 61.0186 48.7991 61.0186 41.2941C61.0186 33.7892 54.9106 27.6812 47.4057 27.6812Z" fill="#000139"/>
<path d="M47.6504 42.1099C47.6504 42.1099 46.9468 36.7055 46.906 36.6545C46.3248 35.8388 45.1623 34.7375 43.1943 34.7375C40.0435 34.7375 38.1468 37.7354 38.1468 40.2132C38.1468 43.5884 44.2956 48.4116 46.5695 50.0839C46.5899 50.1043 46.6409 50.1349 46.6409 50.1349L44.9992 43.8944L47.6504 42.1099Z" fill="#000139"/>
<path d="M56.6543 40.2132C56.6339 37.7354 54.7577 34.7375 51.6068 34.7375C50.2812 34.7375 49.3227 35.2269 48.6701 35.8082L48.6599 35.8184L49.5776 42.7625L46.9264 44.7203L48.2214 50.0941C48.2214 50.0941 48.2418 50.0839 48.2418 50.0737C49.7102 48.9928 56.6951 43.67 56.6543 40.2132Z" fill="#000139"/>
</svg>
