<svg width="190" height="186" viewBox="0 0 190 186" fill="none" xmlns="http://www.w3.org/2000/svg">
<path d="M158.041 67.6814C175.692 67.6814 190 53.3729 190 35.7225C190 18.0721 175.692 3.76355 158.041 3.76355C140.391 3.76355 126.082 18.0721 126.082 35.7225C126.082 53.3729 140.391 67.6814 158.041 67.6814Z" fill="#000139"/>
<path d="M137.168 20.9373C139.728 18.1657 143.246 16.6439 147.066 16.6539C149.918 16.664 152.528 17.5711 154.826 19.355C155.985 20.252 157.033 21.3606 157.96 22.6406C158.888 21.3606 159.946 20.2621 161.105 19.3651C163.413 17.5913 166.023 16.6943 168.875 16.6943C172.695 16.7043 176.203 18.2363 178.752 21.028C181.272 23.7795 182.663 27.5287 182.653 31.6004C182.643 35.783 181.081 39.6128 177.724 43.6442C174.721 47.2523 170.417 50.9108 165.429 55.1438C163.725 56.5951 161.79 58.2278 159.785 59.9814C159.25 60.4451 158.575 60.697 157.87 60.697C157.164 60.697 156.489 60.435 155.965 59.9714C153.969 58.2177 152.044 56.5648 150.341 55.1135C145.372 50.8604 141.079 47.1817 138.096 43.5535C134.76 39.5019 133.208 35.6721 133.218 31.4895C133.228 27.4178 134.629 23.6686 137.168 20.9373Z" fill="white"/>
<path d="M157.89 60.9188C157.124 60.9188 156.388 60.6366 155.824 60.1427C153.838 58.3991 151.923 56.7563 150.23 55.3151L150.2 55.2849C145.221 51.0217 140.918 47.3329 137.924 43.7047C134.548 39.6128 132.986 35.7326 132.996 31.4895C133.006 27.3674 134.427 23.5678 136.997 20.7861C139.597 17.9742 143.165 16.4221 147.035 16.4221C147.045 16.4221 147.055 16.4221 147.066 16.4221C149.968 16.4322 152.629 17.3494 154.967 19.1736C156.066 20.0303 157.074 21.0583 157.96 22.2576C158.857 21.0683 159.865 20.0403 160.964 19.1837C163.302 17.3796 165.953 16.4725 168.845 16.4725C168.855 16.4725 168.865 16.4725 168.875 16.4725C172.756 16.4826 176.323 18.0448 178.924 20.8768C181.484 23.6686 182.895 27.4783 182.885 31.6004C182.875 35.8434 181.292 39.7136 177.906 43.7853C174.892 47.4136 170.579 51.0721 165.58 55.3151C163.877 56.7563 161.952 58.3991 159.946 60.1427C159.382 60.6466 158.646 60.9188 157.89 60.9188ZM137.34 21.0885C134.84 23.7895 133.47 27.4783 133.46 31.4895C133.45 35.6217 134.981 39.4011 138.287 43.4124C141.26 47.0205 145.544 50.6891 150.512 54.9422L150.543 54.9724C152.236 56.4237 154.151 58.0665 156.136 59.8101C156.62 60.2334 157.245 60.4753 157.89 60.4753C157.89 60.4753 157.89 60.4753 157.9 60.4753C158.545 60.4753 159.17 60.2435 159.654 59.8202C161.669 58.0665 163.594 56.4338 165.298 54.9825C170.276 50.7495 174.58 47.1011 177.563 43.5132C180.879 39.5221 182.431 35.7426 182.441 31.6205C182.451 27.6093 181.081 23.9105 178.601 21.2094C176.092 18.4782 172.645 16.9664 168.886 16.9563C168.875 16.9563 168.865 16.9563 168.855 16.9563C166.064 16.9563 163.504 17.8331 161.256 19.5767C160.117 20.4536 159.069 21.542 158.152 22.8018C158.112 22.8623 158.041 22.8926 157.971 22.8926C157.9 22.8926 157.829 22.8522 157.789 22.8018C156.882 21.532 155.844 20.4435 154.705 19.5566C152.448 17.8029 149.888 16.9059 147.086 16.9059C147.076 16.9059 147.066 16.9059 147.056 16.9059C143.296 16.8757 139.849 18.3673 137.34 21.0885Z" fill="#000139"/>
<path d="M164.33 55.94C164.501 55.9198 164.663 55.8997 164.834 55.8694L173.381 48.0888C173.411 47.0709 173.29 45.932 172.988 44.642L168.714 30.6127C168.482 29.8669 167.696 29.4436 166.94 29.6653H166.93C166.185 29.8971 165.761 30.6832 165.983 31.4391L167.837 37.5265C167.978 37.9801 167.716 38.4538 167.273 38.5848C166.819 38.7259 166.346 38.4638 166.215 38.0204L163.121 27.8613C162.889 27.1154 162.103 26.6921 161.347 26.9139C160.601 27.1457 160.178 27.9318 160.399 28.6877L163.161 37.7684C163.302 38.222 163.04 38.6956 162.597 38.8267C162.143 38.9678 161.669 38.7057 161.538 38.2623L158.031 26.7425C157.759 25.8456 156.801 25.3315 155.904 25.6137C155.007 25.8859 154.493 26.8433 154.776 27.7403L158.283 39.26C158.424 39.7136 158.162 40.1873 157.719 40.3183C157.265 40.4594 156.791 40.1973 156.66 39.7539L154.312 32.0338C154.04 31.1368 153.082 30.6228 152.185 30.905C151.288 31.1872 150.774 32.1345 151.057 33.0315L154.01 42.727L154.504 44.3497C154.816 45.4785 155.038 45.7103 154.483 45.8615C153.899 46.0227 153.284 45.8312 152.851 45.418C151.5 44.1481 150.19 43.5333 149.232 43.2411C148.376 42.979 147.287 42.9185 146.431 43.1705C145.443 43.4628 146.017 44.7428 146.108 44.8335C146.471 45.1862 146.844 45.5188 147.318 45.7103C148.194 46.0731 149.021 46.7685 149.626 47.3833C150.14 47.9074 155.773 52.6846 156.711 53.5111C158.616 55.3151 161.407 56.2524 164.33 55.94Z" fill="white"/>
<path d="M163.242 56.2222C160.702 56.2222 158.263 55.305 156.56 53.6622C156.247 53.3901 155.39 52.6544 154.393 51.7977C152.357 50.0541 149.817 47.8772 149.474 47.5244C148.94 46.9802 148.114 46.2646 147.237 45.9018C146.703 45.68 146.3 45.3071 145.957 44.9746C145.836 44.8536 145.534 44.1783 145.675 43.6341C145.765 43.2814 146.007 43.0395 146.37 42.9286C147.217 42.6766 148.335 42.6968 149.303 42.9992C150.21 43.2814 151.591 43.8962 153.012 45.2265C153.405 45.5994 153.949 45.7506 154.433 45.6196C154.574 45.5793 154.594 45.549 154.594 45.549C154.614 45.4886 154.534 45.2265 154.463 44.9846C154.413 44.8234 154.352 44.6218 154.292 44.39L150.845 33.0718C150.694 32.578 150.744 32.0539 150.986 31.6004C151.228 31.1468 151.631 30.8142 152.125 30.6631C152.619 30.5119 153.143 30.5623 153.596 30.8042C154.05 31.0461 154.383 31.4492 154.534 31.943L156.882 39.6632C156.932 39.8244 157.033 39.9555 157.184 40.0361C157.336 40.1167 157.497 40.1268 157.658 40.0865C157.819 40.0361 157.95 39.9353 158.031 39.7841C158.112 39.6329 158.122 39.4717 158.081 39.3104L154.574 27.7907C154.423 27.2968 154.473 26.7728 154.715 26.3192C154.957 25.8657 155.36 25.5331 155.854 25.3819C156.348 25.2308 156.872 25.2811 157.326 25.523C157.779 25.7649 158.112 26.1681 158.263 26.6619L161.77 38.1816C161.871 38.5142 162.214 38.6956 162.546 38.5949C162.879 38.4941 163.06 38.1413 162.959 37.8188L160.198 28.7381C159.936 27.8713 160.43 26.9441 161.296 26.6821C162.163 26.42 163.09 26.9139 163.352 27.7806L166.447 37.9398C166.547 38.2723 166.9 38.4538 167.223 38.353C167.555 38.2522 167.737 37.9095 167.636 37.5769L165.781 31.4895C165.65 31.0662 165.701 30.6228 165.902 30.2297C166.114 29.8366 166.457 29.5544 166.88 29.4335C167.757 29.1715 168.674 29.6552 168.936 30.532L173.209 44.5613C173.512 45.8514 173.643 47.0306 173.612 48.0888C173.612 48.1493 173.582 48.2098 173.542 48.2501L164.995 56.0307C164.965 56.0609 164.925 56.0811 164.874 56.0911C164.703 56.1214 164.532 56.1415 164.36 56.1617C163.987 56.202 163.614 56.2222 163.242 56.2222ZM147.67 43.2209C147.257 43.2209 146.854 43.2713 146.511 43.3721C146.32 43.4325 146.199 43.5333 146.138 43.6946C146.017 44.0574 146.239 44.5815 146.3 44.6621C146.673 45.0249 147.005 45.3071 147.418 45.4785C148.174 45.7909 148.981 46.3654 149.807 47.2019C150.14 47.5446 152.78 49.8022 154.705 51.445C155.703 52.3016 156.56 53.0374 156.882 53.3196C158.747 55.1135 161.518 56.0004 164.32 55.6981C164.461 55.6779 164.602 55.6678 164.743 55.6477L173.169 47.9779C173.189 46.9902 173.058 45.8816 172.786 44.6823L168.513 30.6732C168.321 30.0483 167.656 29.6855 167.031 29.8769C166.719 29.9677 166.477 30.1793 166.326 30.4615C166.174 30.7437 166.144 31.0662 166.235 31.3686L168.089 37.456C168.261 38.0305 167.938 38.6251 167.374 38.8065C166.809 38.9778 166.205 38.6553 166.023 38.0909L162.929 27.9318C162.738 27.3069 162.072 26.9542 161.448 27.1356C160.823 27.3271 160.46 27.9923 160.651 28.6171L163.413 37.6979C163.584 38.2723 163.262 38.867 162.697 39.0484C162.123 39.2197 161.518 38.8972 161.347 38.3328L157.84 26.8131C157.729 26.4402 157.467 26.1277 157.124 25.9463C156.781 25.7649 156.378 25.7246 156.005 25.8355C155.632 25.9463 155.32 26.2084 155.138 26.551C154.957 26.8937 154.917 27.2968 155.028 27.6698L158.535 39.1895C158.616 39.4616 158.595 39.7539 158.454 40.0159C158.323 40.2679 158.091 40.4594 157.819 40.54C157.547 40.6206 157.255 40.5904 156.993 40.4594C156.741 40.3284 156.549 40.0966 156.469 39.8244L154.121 32.1043C154.01 31.7314 153.748 31.419 153.405 31.2375C153.062 31.0561 152.659 31.0158 152.286 31.1267C151.913 31.2375 151.601 31.4996 151.42 31.8423C151.238 32.1849 151.198 32.5881 151.309 32.961L154.755 44.2791C154.816 44.5109 154.876 44.7024 154.927 44.8637C155.068 45.3172 155.138 45.5591 155.018 45.7808C154.927 45.9522 154.745 46.0227 154.574 46.0731C153.939 46.2545 153.234 46.063 152.72 45.5793C151.369 44.2993 150.049 43.7147 149.192 43.4527C148.688 43.3015 148.164 43.2209 147.67 43.2209Z" fill="#000139"/>
<path d="M103.728 76.5001L90.9988 76.6412C89.4669 76.6614 88.2272 77.9111 88.2373 79.4531C88.2373 81.0153 89.5072 82.2852 91.0593 82.265L103.728 82.1239V76.5001Z" fill="white"/>
<path d="M91.0291 82.4968C90.2329 82.4968 89.477 82.1844 88.9126 81.62C88.328 81.0455 88.0055 80.2695 88.0055 79.4531C88.0055 77.7902 89.346 76.4296 90.9988 76.4094L103.728 76.2683C103.788 76.2683 103.849 76.2885 103.889 76.3389C103.93 76.3792 103.96 76.4397 103.96 76.5001V82.1239C103.96 82.2449 103.859 82.3557 103.738 82.3557L91.0694 82.4968C91.0492 82.4968 91.0392 82.4968 91.0291 82.4968ZM103.506 76.7319L91.0089 76.8629C89.608 76.8831 88.4691 78.0421 88.4691 79.443C88.4691 80.1385 88.7413 80.7936 89.2351 81.2874C89.7289 81.7712 90.374 82.0433 91.0593 82.0231L103.506 81.9022V76.7319Z" fill="#000139"/>
<path d="M159.049 184.874C153.697 184.874 149.515 179.603 149.515 172.881C149.515 166.159 153.707 160.887 159.049 160.887C164.401 160.887 168.583 166.159 168.583 172.881C168.593 179.613 164.401 184.874 159.049 184.874ZM159.049 164.506C156.056 164.506 153.526 168.335 153.526 172.881C153.526 177.416 156.056 181.256 159.049 181.256C162.042 181.256 164.572 177.426 164.572 172.881C164.572 168.346 162.042 164.506 159.049 164.506Z" fill="white"/>
<path d="M168.333 172.881V172.881C168.343 179.531 164.212 184.624 159.048 184.624C153.885 184.624 149.764 179.522 149.764 172.881C149.764 166.24 153.895 161.137 159.048 161.137C164.211 161.137 168.333 166.24 168.333 172.881ZM159.048 164.256C157.438 164.256 155.989 165.284 154.956 166.851C153.919 168.422 153.275 170.564 153.275 172.881C153.275 175.192 153.92 177.335 154.956 178.907C155.989 180.475 157.438 181.506 159.048 181.506C160.659 181.506 162.107 180.478 163.141 178.911C164.177 177.34 164.821 175.197 164.821 172.881C164.821 170.569 164.177 168.427 163.141 166.855C162.108 165.287 160.659 164.256 159.048 164.256Z" fill="white" stroke="black" stroke-width="0.5"/>
<path d="M114.482 184.874C106.993 184.874 100.009 181.004 94.8186 173.989C89.7894 167.197 87.0279 158.186 87.0279 148.642C87.0279 139.098 89.7995 130.088 94.8186 123.295C100.009 116.27 106.993 112.41 114.482 112.41C121.97 112.41 128.954 116.28 134.145 123.295C139.174 130.088 141.936 139.098 141.936 148.642C141.936 158.186 139.164 167.197 134.145 173.989C128.954 181.014 121.97 184.874 114.482 184.874ZM114.482 116.028C108.374 116.028 102.579 119.324 98.1546 125.3C93.5689 131.509 91.0392 139.793 91.0392 148.642C91.0392 157.481 93.5689 165.776 98.1546 171.984C102.579 177.971 108.374 181.256 114.482 181.256C120.589 181.256 126.384 177.96 130.809 171.984C135.395 165.776 137.924 157.491 137.924 148.642C137.924 139.803 135.395 131.509 130.809 125.3C126.384 119.314 120.589 116.028 114.482 116.028Z" fill="white"/>
<path d="M114.482 185.106C106.913 185.106 99.8679 181.206 94.6271 174.121C89.5778 167.287 86.786 158.237 86.786 148.632C86.786 139.037 89.5677 129.987 94.6271 123.143C99.8578 116.058 106.913 112.158 114.482 112.158C122.051 112.158 129.096 116.058 134.336 123.143C139.386 129.977 142.177 139.027 142.177 148.632C142.177 158.227 139.396 167.277 134.336 174.121C129.096 181.206 122.051 185.106 114.482 185.106ZM114.482 112.632C107.064 112.632 100.14 116.461 95 123.426C90.0011 130.178 87.2496 139.138 87.2496 148.642C87.2496 158.146 90.0011 167.096 95 173.858C100.15 180.823 107.064 184.653 114.482 184.653C121.9 184.653 128.813 180.823 133.964 173.858C138.962 167.106 141.714 158.146 141.714 148.642C141.714 139.138 138.962 130.188 133.964 123.426C128.813 116.461 121.9 112.632 114.482 112.632ZM114.482 181.488C108.304 181.488 102.438 178.162 97.9732 172.115C93.3572 165.866 90.8073 157.531 90.8073 148.642C90.8073 139.753 93.3471 131.418 97.9732 125.169C102.438 119.122 108.304 115.796 114.482 115.796C120.66 115.796 126.526 119.122 130.99 125.169C135.606 131.418 138.156 139.753 138.156 148.642C138.156 157.531 135.616 165.866 130.99 172.115C126.526 178.162 120.66 181.488 114.482 181.488ZM114.482 116.25C108.455 116.25 102.72 119.515 98.336 125.431C93.7704 131.599 91.2609 139.844 91.2609 148.632C91.2609 157.42 93.7704 165.665 98.336 171.833C102.71 177.759 108.445 181.014 114.482 181.014C120.509 181.014 126.243 177.749 130.628 171.833C135.193 165.665 137.703 157.42 137.703 148.632C137.703 139.844 135.193 131.599 130.628 125.431C126.243 119.515 120.509 116.25 114.482 116.25Z" fill="#000139"/>
<path d="M104.615 88.4835C110.38 84.7645 117.858 86.115 122.303 91.3558C122.343 91.4062 122.383 91.4466 122.424 91.4869C125.84 95.0446 132.079 100.225 143.246 101.817C145.554 102.15 147.217 104.216 147.035 106.554L146.995 107.058C146.894 108.268 145.967 109.235 144.768 109.356C136.977 110.172 109.563 111.352 104.413 88.6246L104.615 88.4835Z" fill="white"/>
<path d="M138.065 109.92C126.737 109.92 108.344 106.988 104.192 88.6649C104.171 88.5742 104.212 88.4734 104.292 88.423L104.504 88.292C110.309 84.5428 117.878 85.7623 122.494 91.2047C122.534 91.245 122.565 91.2853 122.605 91.3256C128.078 97.02 134.85 100.386 143.296 101.586C145.725 101.928 147.479 104.115 147.277 106.564L147.237 107.068C147.126 108.389 146.108 109.437 144.808 109.578C143.175 109.739 140.827 109.92 138.065 109.92ZM104.665 88.7153C109.836 110.979 136.634 109.961 144.737 109.114C145.826 109.003 146.673 108.126 146.763 107.028L146.804 106.524C146.985 104.317 145.403 102.351 143.216 102.039C134.659 100.82 127.806 97.413 122.262 91.638C122.222 91.5977 122.182 91.5473 122.141 91.4969C117.677 86.236 110.37 85.0366 104.756 88.6649L104.665 88.7153Z" fill="#000139"/>
<path d="M159.402 155.334L160.48 163.951C160.51 164.193 160.712 164.375 160.924 164.344L165.146 163.669C165.328 163.639 165.449 163.457 165.429 163.246L164.34 153.278L159.402 155.334Z" fill="white"/>
<path d="M160.873 164.576C160.752 164.576 160.621 164.536 160.52 164.455C160.369 164.344 160.278 164.173 160.258 163.982L159.18 155.364C159.17 155.264 159.22 155.163 159.321 155.123L164.27 153.077C164.34 153.046 164.411 153.056 164.471 153.087C164.532 153.127 164.572 153.187 164.582 153.258L165.671 163.226C165.701 163.558 165.499 163.851 165.197 163.891L160.974 164.566C160.924 164.576 160.893 164.576 160.873 164.576ZM159.644 155.475L160.702 163.921C160.712 163.992 160.742 164.052 160.793 164.082C160.813 164.092 160.843 164.113 160.883 164.113L165.106 163.437C165.167 163.427 165.207 163.357 165.197 163.266L164.139 153.601L159.644 155.475Z" fill="#000139"/>
<path d="M159.916 161.18C159.633 162.198 159.039 165.08 158.787 166.814C158.626 167.902 159.311 168.93 160.359 169.212C163.312 170.019 170.377 169.978 176.253 170.24C176.656 170.26 177.402 170.059 177.724 169.081C178.843 165.755 172.665 164.717 166.557 161.341C166.436 161.27 166.295 161.281 166.185 161.361C166.114 161.412 166.023 161.472 165.922 161.543C164.864 162.218 163.09 162.228 162.012 161.573L160.793 160.837C160.45 160.625 160.016 160.807 159.916 161.18Z" fill="white"/>
<path d="M176.303 170.472C176.283 170.472 176.263 170.472 176.243 170.472C174.741 170.402 173.139 170.361 171.587 170.311C166.93 170.17 162.526 170.039 160.299 169.434C159.14 169.122 158.394 167.973 158.565 166.783C158.817 165.06 159.412 162.177 159.704 161.119C159.775 160.867 159.956 160.666 160.188 160.575C160.43 160.484 160.692 160.504 160.913 160.635L162.133 161.371C163.141 161.986 164.824 161.966 165.802 161.341C165.902 161.281 165.993 161.22 166.053 161.17C166.235 161.039 166.477 161.029 166.678 161.139C168.523 162.157 170.387 162.974 172.03 163.689C175.961 165.403 178.803 166.642 177.956 169.152C177.614 170.14 176.868 170.472 176.303 170.472ZM160.48 160.978C160.44 160.978 160.389 160.988 160.349 161.008C160.238 161.049 160.168 161.139 160.137 161.25C159.845 162.288 159.25 165.191 159.009 166.854C158.868 167.821 159.472 168.749 160.41 169.001C162.576 169.595 166.961 169.726 171.587 169.857C173.139 169.908 174.741 169.948 176.253 170.019C176.404 170.029 177.17 170.009 177.503 169.011C178.218 166.894 175.537 165.725 171.828 164.113C170.176 163.387 168.301 162.571 166.436 161.543C166.396 161.522 166.346 161.522 166.305 161.553C166.235 161.603 166.144 161.674 166.033 161.734C164.905 162.45 163.05 162.47 161.881 161.764L160.661 161.029C160.611 160.988 160.551 160.978 160.48 160.978Z" fill="#000139"/>
<path d="M158.605 167.6C158.595 167.63 158.595 167.65 158.595 167.66C158.434 168.749 159.462 169.414 160.45 169.878C163.363 171.248 175.114 170.462 175.568 170.432C175.578 170.432 175.588 170.432 175.588 170.432C175.739 170.432 177.231 170.432 177.654 169.505C177.704 169.384 177.745 169.222 177.765 169.071C177.795 168.819 177.785 168.567 177.724 168.325C177.684 168.124 177.483 168.003 177.291 168.053C175.114 168.618 170.014 168.799 164.925 168.235C161.538 167.862 160.067 167.116 159.281 166.642C159.069 166.511 158.797 166.642 158.747 166.884C158.706 167.096 158.656 167.348 158.605 167.6Z" fill="white"/>
<path d="M168.19 170.916C165.015 170.916 161.73 170.734 160.349 170.089C159.412 169.646 158.182 168.91 158.374 167.63C158.374 167.62 158.384 167.59 158.384 167.559L158.525 166.844C158.565 166.652 158.686 166.491 158.868 166.41C159.039 166.33 159.24 166.35 159.402 166.441C160.228 166.935 161.7 167.64 164.945 168.003C170.206 168.587 175.205 168.346 177.231 167.821C177.382 167.781 177.543 167.801 177.674 167.892C177.815 167.973 177.906 168.114 177.946 168.275C178.007 168.557 178.027 168.839 177.986 169.101C177.956 169.313 177.916 169.474 177.866 169.595C177.382 170.654 175.769 170.664 175.588 170.664C175.316 170.684 171.828 170.916 168.19 170.916ZM158.827 167.64L158.817 167.69C158.706 168.446 159.24 169.051 160.541 169.666C163.393 171.016 175.054 170.23 175.547 170.2C175.568 170.2 175.578 170.2 175.598 170.2C175.658 170.2 177.079 170.21 177.452 169.404C177.472 169.353 177.513 169.243 177.543 169.041C177.573 168.829 177.563 168.608 177.503 168.376C177.493 168.335 177.472 168.305 177.442 168.285C177.422 168.275 177.392 168.255 177.351 168.275C175.285 168.809 170.216 169.051 164.905 168.467C161.569 168.094 160.037 167.368 159.17 166.844C159.119 166.814 159.079 166.824 159.049 166.834C159.029 166.844 158.988 166.864 158.968 166.935L158.827 167.64Z" fill="#000139"/>
<path d="M166.971 164.264C166.9 164.264 166.83 164.234 166.789 164.173C166.709 164.072 166.729 163.931 166.83 163.851L168.613 162.48C168.714 162.399 168.855 162.419 168.936 162.52C169.017 162.621 168.996 162.762 168.896 162.843L167.112 164.213C167.071 164.244 167.021 164.264 166.971 164.264Z" fill="#000139"/>
<path d="M169.349 165.241C169.279 165.241 169.208 165.211 169.168 165.151C169.087 165.05 169.107 164.909 169.208 164.828L170.77 163.649C170.871 163.568 171.012 163.588 171.093 163.689C171.173 163.79 171.153 163.931 171.052 164.012L169.49 165.191C169.44 165.221 169.389 165.241 169.349 165.241Z" fill="#000139"/>
<path d="M153.727 156.211L156.892 164.294C156.973 164.526 157.225 164.647 157.416 164.566L161.347 162.863C161.518 162.792 161.589 162.581 161.518 162.389L158.696 155.012L153.727 156.211Z" fill="white"/>
<path d="M157.295 164.818C157.215 164.818 157.134 164.798 157.053 164.768C156.882 164.697 156.751 164.546 156.68 164.375L153.516 156.292C153.496 156.231 153.496 156.161 153.526 156.1C153.556 156.04 153.607 155.999 153.677 155.979L158.646 154.78C158.757 154.75 158.868 154.81 158.918 154.921L161.74 162.298C161.851 162.621 161.73 162.943 161.448 163.064L157.517 164.768C157.446 164.798 157.366 164.818 157.295 164.818ZM154.04 156.372L157.114 164.213C157.134 164.274 157.184 164.324 157.235 164.354C157.255 164.365 157.295 164.375 157.336 164.354L161.266 162.651C161.327 162.631 161.347 162.54 161.317 162.46L158.565 155.284L154.04 156.372Z" fill="#000139"/>
<path d="M155.169 161.18C154.886 162.198 154.292 165.08 154.04 166.814C153.879 167.902 154.564 168.93 155.612 169.212C158.565 170.019 165.63 169.978 171.506 170.24C171.909 170.26 172.655 170.059 172.977 169.081C174.096 165.755 167.918 164.717 161.81 161.341C161.689 161.27 161.548 161.281 161.438 161.361C161.367 161.412 161.276 161.472 161.175 161.543C160.117 162.218 158.343 162.228 157.265 161.573L156.046 160.837C155.713 160.625 155.28 160.807 155.169 161.18Z" fill="white"/>
<path d="M171.556 170.472C171.536 170.472 171.516 170.472 171.496 170.472C169.994 170.402 168.392 170.361 166.84 170.311C162.183 170.17 157.779 170.039 155.552 169.434C154.393 169.122 153.647 167.973 153.818 166.783C154.07 165.06 154.665 162.177 154.957 161.119C155.028 160.867 155.209 160.666 155.441 160.575C155.683 160.484 155.945 160.504 156.166 160.635L157.386 161.371C158.394 161.986 160.077 161.966 161.055 161.341C161.155 161.281 161.246 161.22 161.307 161.17C161.488 161.039 161.73 161.029 161.931 161.139C163.776 162.157 165.64 162.974 167.283 163.689C171.214 165.403 174.056 166.642 173.209 169.152C172.867 170.14 172.121 170.472 171.556 170.472ZM155.39 161.24C155.098 162.278 154.504 165.181 154.262 166.844C154.121 167.811 154.725 168.739 155.663 168.991C157.829 169.585 162.214 169.716 166.84 169.847C168.392 169.898 169.994 169.938 171.506 170.008C171.657 170.019 172.423 169.998 172.756 169.001C173.471 166.884 170.79 165.715 167.082 164.102C165.429 163.377 163.554 162.56 161.69 161.532C161.649 161.512 161.599 161.512 161.558 161.543C161.488 161.593 161.397 161.663 161.286 161.724C160.158 162.44 158.303 162.46 157.134 161.754L155.915 161.018C155.814 160.958 155.703 160.948 155.602 160.988C155.501 161.039 155.421 161.129 155.39 161.24Z" fill="#000139"/>
<path d="M153.858 167.6C153.848 167.63 153.848 167.65 153.848 167.66C153.687 168.749 154.715 169.414 155.703 169.878C158.616 171.248 170.367 170.462 170.821 170.432C170.831 170.432 170.841 170.432 170.841 170.432C170.992 170.432 172.484 170.432 172.907 169.505C172.957 169.384 172.998 169.222 173.018 169.071C173.048 168.819 173.038 168.567 172.977 168.325C172.937 168.124 172.736 168.003 172.544 168.053C170.367 168.618 165.267 168.799 160.178 168.235C156.791 167.862 155.32 167.116 154.534 166.642C154.322 166.511 154.05 166.642 154 166.884C153.959 167.096 153.909 167.348 153.858 167.6Z" fill="white"/>
<path d="M163.443 170.916C160.268 170.916 156.983 170.734 155.602 170.089C154.665 169.646 153.435 168.91 153.627 167.63C153.627 167.62 153.637 167.59 153.637 167.559L153.778 166.844C153.818 166.652 153.939 166.491 154.121 166.41C154.292 166.33 154.493 166.35 154.655 166.441C155.481 166.935 156.953 167.64 160.198 168.003C165.459 168.587 170.458 168.346 172.484 167.821C172.635 167.781 172.796 167.801 172.927 167.892C173.068 167.973 173.159 168.114 173.199 168.275C173.26 168.557 173.28 168.839 173.239 169.101C173.209 169.313 173.169 169.474 173.119 169.595C172.635 170.654 171.022 170.664 170.841 170.664C170.569 170.684 167.081 170.916 163.443 170.916ZM154.09 167.64L154.08 167.69C153.969 168.446 154.504 169.051 155.804 169.666C158.656 171.016 170.317 170.23 170.811 170.2C170.831 170.2 170.841 170.2 170.861 170.2C170.921 170.2 172.342 170.21 172.715 169.404C172.736 169.353 172.776 169.243 172.806 169.041C172.836 168.829 172.826 168.608 172.766 168.376C172.756 168.335 172.736 168.305 172.705 168.285C172.685 168.275 172.655 168.255 172.615 168.275C170.548 168.809 165.479 169.051 160.168 168.467C156.832 168.094 155.3 167.368 154.433 166.844C154.383 166.814 154.342 166.824 154.312 166.834C154.292 166.844 154.252 166.864 154.231 166.935L154.09 167.64Z" fill="#000139"/>
<path d="M162.234 164.264C162.163 164.264 162.093 164.234 162.052 164.173C161.972 164.072 161.992 163.931 162.093 163.851L163.877 162.48C163.977 162.399 164.118 162.419 164.199 162.52C164.28 162.621 164.26 162.762 164.159 162.843L162.375 164.213C162.324 164.244 162.274 164.264 162.234 164.264Z" fill="#000139"/>
<path d="M164.602 165.241C164.532 165.241 164.461 165.211 164.421 165.151C164.34 165.05 164.36 164.909 164.461 164.828L166.023 163.649C166.124 163.568 166.265 163.588 166.346 163.689C166.426 163.79 166.406 163.931 166.305 164.012L164.743 165.191C164.693 165.221 164.642 165.241 164.602 165.241Z" fill="#000139"/>
<path d="M164.884 154.478C164.884 154.478 165.953 140.257 161.307 119.556C157.819 104.004 124.903 108.308 124.903 108.308L113.595 125.996L145.876 126.338L157.527 155.062C158.384 155.092 162.486 155.324 163.292 155.032L164.884 154.478Z" fill="#000139"/>
<path d="M104.03 101.606C104.03 101.606 99.1725 128.878 114.623 128.949C123.865 128.989 130.728 129.14 134.145 128.999C136.604 128.898 139.275 129.503 140.061 131.841L151.903 156.977C152.407 158.045 153.496 158.741 154.675 158.69C155.753 158.65 157.225 158.358 159.049 157.441C160.057 156.937 160.601 155.818 160.389 154.709C159.22 148.592 155.169 128.142 151.48 117.419C147.741 106.564 116.467 108.368 116.467 108.368L104.03 101.606Z" fill="#000139"/>
<path d="M161.367 156.675C161.256 156.675 161.155 156.594 161.145 156.483C160.248 151.041 156.046 128.636 151.762 118.437C149.646 113.398 137.753 112.208 128.995 111.755C128.864 111.745 128.773 111.644 128.783 111.513C128.793 111.382 128.894 111.291 129.025 111.301C137.904 111.755 149.978 112.984 152.185 118.255C156.479 128.495 160.702 150.96 161.599 156.413C161.619 156.534 161.538 156.654 161.407 156.675C161.387 156.675 161.377 156.675 161.367 156.675Z" fill="white"/>
<path d="M103.315 106.081C103.315 106.081 102.095 111.241 109.967 110.727C117.848 110.203 131.645 107.633 131.645 107.633C130.315 99.5699 129.801 86.3267 129.922 83.9582C130.769 67.9637 113.343 71.2795 113.343 71.2795C109.009 71.5012 98.0538 73.9906 98.588 81.872C99.2027 90.8721 102.317 95.3873 103.315 106.081Z" fill="white"/>
<path d="M108.898 110.989C106.53 110.989 104.847 110.414 103.879 109.275C102.76 107.955 103.022 106.343 103.083 106.07C102.579 100.709 101.551 96.9393 100.553 93.2909C99.5857 89.7332 98.6585 86.367 98.3562 81.8921C98.2151 79.7757 98.8702 77.8809 100.301 76.2683C103.637 72.509 110.259 71.219 113.313 71.0577C113.736 70.9872 121.839 69.6064 126.626 73.789C129.196 76.0365 130.386 79.4632 130.144 83.9683C130.013 86.3771 130.547 99.6102 131.867 107.592C131.887 107.713 131.807 107.834 131.686 107.854C131.545 107.885 117.788 110.445 109.987 110.959C109.604 110.969 109.241 110.989 108.898 110.989ZM116.911 71.2291C114.875 71.2291 113.413 71.5012 113.383 71.5012C113.373 71.5012 113.363 71.5012 113.353 71.5012C110.38 71.6524 103.889 72.9021 100.644 76.5606C99.2935 78.0825 98.6787 79.8664 98.8097 81.8518C99.112 86.2864 100.029 89.6224 100.997 93.1599C102.005 96.8285 103.033 100.628 103.537 106.05C103.537 106.07 103.537 106.101 103.537 106.121C103.537 106.141 103.174 107.733 104.232 108.973C105.24 110.162 107.165 110.666 109.957 110.485C117.193 110.011 129.579 107.764 131.383 107.431C130.093 99.3985 129.569 86.3368 129.69 83.9381C129.922 79.5741 128.793 76.2683 126.324 74.1216C123.583 71.733 119.702 71.2291 116.911 71.2291Z" fill="#000139"/>
<path d="M146.562 109.225C147.59 110.475 150.16 110.586 150.603 110.535C151.994 110.384 154.443 112.047 154.443 112.047C154.443 112.047 155.31 112.783 155.794 112.742L155.914 112.732C156.408 112.682 156.67 112.087 156.388 111.654L153.627 107.451C153.274 106.907 152.659 105.919 151.722 105.839L148.325 105.637C145.665 105.556 145.302 104.256 143.629 104.942C141.381 105.859 142.571 107.885 144.375 108.62C145.332 109.003 146.562 109.225 146.562 109.225Z" fill="white"/>
<path d="M155.753 112.974C155.219 112.974 154.483 112.38 154.302 112.228C154.131 112.118 151.873 110.626 150.623 110.757C150.26 110.797 147.61 110.747 146.441 109.427C146.148 109.366 145.13 109.155 144.294 108.812C143.044 108.308 142.177 107.29 142.177 106.363C142.177 105.869 142.419 105.184 143.548 104.72C144.536 104.317 145.11 104.549 145.846 104.841C146.431 105.073 147.146 105.365 148.335 105.395L151.732 105.597C152.77 105.688 153.405 106.675 153.788 107.27L153.818 107.32L156.58 111.523C156.761 111.805 156.781 112.158 156.64 112.46C156.509 112.742 156.247 112.934 155.945 112.964L155.824 112.974C155.794 112.974 155.773 112.974 155.753 112.974ZM150.774 110.293C152.246 110.293 154.463 111.785 154.564 111.856C154.574 111.856 154.574 111.866 154.584 111.866C154.917 112.148 155.501 112.531 155.763 112.511L155.884 112.501C156.025 112.49 156.146 112.4 156.217 112.259C156.297 112.097 156.277 111.916 156.187 111.775L153.395 107.522C153.062 106.998 152.498 106.131 151.692 106.06L148.305 105.859C147.045 105.819 146.279 105.516 145.665 105.264C144.979 104.992 144.526 104.811 143.709 105.143C143.216 105.345 142.621 105.728 142.621 106.363C142.621 107.098 143.407 107.965 144.455 108.399C145.382 108.782 146.582 109.003 146.592 109.003C146.642 109.013 146.693 109.044 146.723 109.084C147.64 110.203 150.029 110.374 150.563 110.314C150.643 110.303 150.704 110.293 150.774 110.293Z" fill="#000139"/>
<path d="M131.867 108.772C131.766 108.772 131.676 108.701 131.645 108.6C131.494 107.995 131.333 107.481 131.192 106.988C130.819 105.738 130.497 104.649 130.315 102.694C130.305 102.573 130.396 102.452 130.517 102.442C130.648 102.432 130.759 102.523 130.769 102.644C130.95 104.549 131.262 105.617 131.625 106.847C131.776 107.34 131.928 107.864 132.089 108.479C132.119 108.6 132.049 108.721 131.928 108.761C131.897 108.761 131.887 108.772 131.867 108.772Z" fill="#000139"/>
<path d="M117.929 99.0861C116.256 99.0861 114.935 98.7535 114.099 98.0883C110.853 95.5283 108.939 84.6939 108.858 84.2303C108.838 84.1094 108.918 83.9885 109.039 83.9683C109.16 83.9481 109.281 84.0288 109.301 84.1497C109.322 84.2606 111.267 95.2663 114.371 97.7255C116.094 99.0861 120.116 98.9046 125.125 97.2215C125.246 97.1812 125.377 97.2417 125.417 97.3626C125.457 97.4836 125.397 97.6146 125.276 97.6549C122.464 98.6023 119.934 99.0861 117.929 99.0861Z" fill="#000139"/>
<path d="M110.662 108.288C102.912 108.288 100.755 97.1409 100.725 97.02C100.704 96.899 100.785 96.7781 100.906 96.7579C101.027 96.7378 101.148 96.8184 101.168 96.9394C101.188 97.0603 103.416 108.57 111.428 107.794C120.851 106.877 128.642 101.354 128.713 101.303C128.813 101.233 128.955 101.253 129.035 101.354C129.116 101.455 129.086 101.596 128.985 101.676C128.904 101.737 121.023 107.32 111.478 108.258C111.206 108.278 110.924 108.288 110.662 108.288Z" fill="#000139"/>
<path d="M137.975 89.3301C137.38 89.4611 136.906 90.0154 136.534 90.3782C136.161 90.7511 134.76 92.7064 134.76 92.7064C134.76 92.7064 133.782 92.7165 132.593 92.9583C132.966 91.7993 132.069 90.1968 132.069 90.1968L129.045 94.6616C127.453 96.5564 129.378 98.6426 129.378 98.6426L136.866 94.5911L139.255 89.5216C139.265 89.5216 138.569 89.2091 137.975 89.3301Z" fill="white"/>
<path d="M129.378 98.8643C129.317 98.8643 129.257 98.8341 129.206 98.7938C129.186 98.7736 127.161 96.5463 128.854 94.5205L131.867 90.0658C131.908 89.9952 131.988 89.9549 132.069 89.965C132.149 89.965 132.22 90.0154 132.26 90.086C132.29 90.1464 133.036 91.4969 132.885 92.6761C133.712 92.535 134.377 92.4947 134.639 92.4846C134.921 92.0916 136.03 90.5596 136.372 90.227C136.423 90.1767 136.473 90.1263 136.534 90.0658C136.896 89.6929 137.35 89.2394 137.924 89.1184C138.579 88.9773 139.315 89.3099 139.345 89.32C139.406 89.3502 139.446 89.3905 139.466 89.451C139.487 89.5115 139.487 89.5719 139.456 89.6223L137.068 94.6918C137.048 94.7321 137.017 94.7725 136.967 94.7926L129.479 98.8442C129.448 98.8542 129.418 98.8643 129.378 98.8643ZM132.028 90.6503L129.227 94.7926C129.227 94.8027 129.217 94.8027 129.217 94.8128C127.967 96.2943 129.055 97.8867 129.428 98.3503L136.695 94.4197L138.942 89.6425C138.71 89.5719 138.348 89.4812 138.025 89.5518C137.582 89.6526 137.189 90.0557 136.866 90.3782C136.806 90.4387 136.755 90.4891 136.705 90.5496C136.413 90.8418 135.344 92.3032 134.951 92.8475C134.911 92.9079 134.84 92.9382 134.77 92.9382C134.76 92.9382 133.792 92.9583 132.643 93.1801C132.563 93.2002 132.482 93.17 132.432 93.1095C132.381 93.049 132.361 92.9684 132.381 92.8878C132.613 92.142 132.26 91.1643 132.028 90.6503Z" fill="#000139"/>
<path d="M121.577 72.1664C121.577 72.1664 120.055 71.4508 120.418 68.9715C120.418 68.9614 120.418 68.9513 120.408 68.9412L121.386 63.2469L115.338 61.6847L114.179 67.9435C113.877 69.546 112.809 70.9267 111.297 71.5113C110.904 71.6624 110.46 71.8035 109.977 71.9043C109.463 72.0152 109.201 72.509 109.805 72.9626C113.01 75.4016 118.543 74.4542 121.386 73.5774C122.212 73.3355 122.333 72.5695 121.577 72.1664Z" fill="white"/>
<path d="M115.389 74.7565C113.383 74.7565 111.277 74.3736 109.664 73.1541C109.211 72.8013 109.201 72.4586 109.241 72.2873C109.301 71.995 109.563 71.7733 109.926 71.6927C110.39 71.5919 110.823 71.4609 111.206 71.3097C112.617 70.7655 113.665 69.4553 113.948 67.9132L115.107 61.6545C115.117 61.594 115.157 61.5335 115.207 61.5033C115.258 61.4731 115.328 61.463 115.389 61.4731L121.436 63.0352C121.547 63.0655 121.627 63.1764 121.607 63.2973L120.64 68.9312C120.65 68.9614 120.65 68.9816 120.64 69.0118C120.307 71.2795 121.617 71.9346 121.678 71.9648C121.678 71.9648 121.688 71.9648 121.688 71.9749C122.111 72.2067 122.343 72.5695 122.303 72.9424C122.262 73.3355 121.95 73.658 121.456 73.8192C120.7 74.0309 118.15 74.7565 115.389 74.7565ZM115.52 61.9669L114.401 67.9838C114.089 69.6871 112.92 71.1182 111.368 71.7229C110.954 71.8842 110.501 72.0253 110.017 72.1261C109.836 72.1664 109.705 72.2672 109.684 72.378C109.654 72.4889 109.755 72.6401 109.936 72.7812C113.575 75.5427 120.055 73.7487 121.315 73.3556C121.627 73.2649 121.829 73.0734 121.849 72.8719C121.869 72.6804 121.728 72.499 121.476 72.3579C121.345 72.2974 119.844 71.5012 120.186 68.9916C120.176 68.9614 120.176 68.9312 120.186 68.9009L121.134 63.4082L115.52 61.9669Z" fill="#000139"/>
<path d="M120.569 49.4494C118.16 49.782 117.828 52.5133 114.945 52.8358C113.625 52.987 112.96 52.4931 111.791 53.0575C111.015 53.4304 109.886 54.3274 109.775 55.5267C109.624 57.0486 111.287 57.3711 112.98 60.2939C114.169 62.3499 114.24 63.7206 115.187 63.8717C116.145 64.0229 116.568 62.6926 117.626 62.7833C118.997 62.8941 119.168 65.182 120.609 65.8673C121.517 66.3007 123.421 66.21 126.112 64.1842C126.546 63.8516 126.687 63.267 126.445 62.7732C126.133 62.1483 125.739 61.3521 125.296 60.6366C123.19 57.1897 121.698 56.6051 121.99 55.5469C122.444 53.9243 125.397 54.2266 125.629 52.9265C125.87 51.5659 123.049 49.1168 120.569 49.4494Z" fill="#000139"/>
<path d="M116.659 56.4943L117.304 56.1617C117.304 56.1617 119.38 60.5257 120.196 61.6444C121.013 62.7631 124.651 60.4954 124.651 60.4954L124.742 59.6892L125.175 59.407C125.306 59.3163 125.397 59.1752 125.417 59.0139C125.437 58.8526 125.377 58.6914 125.266 58.5805C124.389 57.7037 122.524 55.7182 121.617 53.7932C121.607 53.7731 118.543 53.5917 116.659 56.4943Z" fill="white"/>
<path d="M116.83 56.333C116.911 56.2524 116.971 56.1617 117.022 56.0911C117.072 56.0206 117.122 55.9803 117.193 55.94C117.304 55.8795 117.445 55.9198 117.505 56.0407V56.0508C117.908 56.8773 118.322 57.7037 118.735 58.52C119.148 59.3364 119.571 60.1628 120.035 60.9389C120.146 61.1304 120.277 61.332 120.398 61.4932C120.478 61.6142 120.64 61.6746 120.841 61.6948C121.234 61.725 121.678 61.6041 122.091 61.463C122.938 61.1707 123.754 60.7373 124.53 60.2737L124.419 60.445C124.449 60.1729 124.48 59.9109 124.51 59.6388V59.6186C124.52 59.5581 124.56 59.4977 124.611 59.4674C124.742 59.3868 124.883 59.3162 125.024 59.2356C125.064 59.2155 125.084 59.2054 125.105 59.1852C125.125 59.1751 125.145 59.155 125.165 59.1348C125.205 59.0945 125.225 59.0441 125.236 58.9937C125.266 58.8829 125.225 58.772 125.165 58.6813C125.155 58.6611 125.125 58.641 125.094 58.6108L125.014 58.5301L124.842 58.3588C124.399 57.9053 123.976 57.4416 123.563 56.968C123.149 56.4943 122.756 56.0004 122.383 55.4763C122.02 54.9623 121.678 54.4181 121.396 53.8335L121.587 53.9646C121.144 53.9545 120.65 54.025 120.206 54.146C119.753 54.2669 119.309 54.4383 118.896 54.6701C118.483 54.8918 118.1 55.174 117.757 55.4965C117.586 55.6578 117.425 55.8291 117.274 56.0105C117.193 56.1012 117.122 56.1919 117.052 56.2927L117.022 56.3229C117.011 56.333 117.011 56.333 117.011 56.333C117.001 56.333 117.001 56.333 116.981 56.3229C116.961 56.333 116.891 56.3129 116.83 56.333ZM116.487 56.6454C116.497 56.5648 116.487 56.4439 116.528 56.3229C116.548 56.2625 116.578 56.202 116.608 56.1516C116.618 56.1314 116.639 56.1012 116.649 56.081L116.679 56.0407C116.76 55.94 116.83 55.8392 116.911 55.7384C117.072 55.5368 117.243 55.3554 117.425 55.174C117.798 54.8212 118.211 54.5189 118.664 54.277C119.108 54.0351 119.592 53.8436 120.085 53.7227C120.579 53.6017 121.073 53.5211 121.617 53.5413C121.698 53.5413 121.779 53.5917 121.809 53.6622V53.6723C122.323 54.7809 123.059 55.7989 123.835 56.7563C124.228 57.2401 124.641 57.7037 125.074 58.1471L125.236 58.3185L125.316 58.3991C125.336 58.4193 125.377 58.4596 125.407 58.4999C125.538 58.6611 125.578 58.8728 125.538 59.0744C125.518 59.1752 125.477 59.2659 125.417 59.3566C125.387 59.3969 125.356 59.4372 125.316 59.4775C125.276 59.5178 125.236 59.5481 125.205 59.5682C125.084 59.669 124.963 59.7698 124.832 59.8605L124.933 59.6992C124.913 59.9714 124.873 60.2334 124.853 60.5055C124.842 60.5761 124.802 60.6365 124.742 60.6769C123.935 61.1606 123.109 61.594 122.212 61.9165C121.758 62.0677 121.295 62.2088 120.761 62.1785C120.63 62.1685 120.489 62.1382 120.347 62.0778C120.206 62.0173 120.075 61.9266 119.985 61.7956C119.833 61.5839 119.713 61.3924 119.592 61.1909C119.118 60.3846 118.695 59.5682 118.271 58.7418C117.848 57.9153 117.455 57.0889 117.052 56.2524L117.374 56.3632C117.233 56.4338 117.072 56.5043 116.901 56.5547C116.77 56.5951 116.618 56.6152 116.487 56.6454Z" fill="#000139"/>
<path d="M118.029 59.6791C118.029 59.6791 116.356 57.6231 115.59 58.5805C114.814 59.5481 116.709 61.7653 118.029 59.6791Z" fill="white"/>
<path d="M148.134 128.979L102.72 129.08L102.71 132.768L148.134 132.658V128.979Z" fill="white"/>
<path d="M102.71 133C102.65 133 102.589 132.98 102.549 132.93C102.508 132.889 102.478 132.829 102.478 132.768V129.08C102.478 128.959 102.579 128.848 102.71 128.848L148.124 128.737C148.184 128.737 148.245 128.757 148.285 128.808C148.325 128.848 148.356 128.908 148.356 128.969V132.658C148.356 132.789 148.255 132.889 148.124 132.889L102.71 133ZM102.942 129.311V132.547L147.902 132.436V129.201L102.942 129.311Z" fill="#000139"/>
<path d="M179.438 170.714L145.433 170.825L145.443 174.514L179.438 174.403V170.714Z" fill="white"/>
<path d="M145.443 174.735C145.382 174.735 145.322 174.715 145.282 174.665C145.241 174.624 145.211 174.564 145.211 174.504V170.815C145.211 170.694 145.312 170.583 145.443 170.583L179.448 170.472C179.508 170.472 179.569 170.492 179.609 170.543C179.649 170.583 179.68 170.643 179.68 170.704V174.393C179.68 174.514 179.579 174.624 179.448 174.624L145.443 174.735ZM145.665 171.047V174.282L179.206 174.171V170.936L145.665 171.047Z" fill="#000139"/>
<path d="M149.091 174.504L145.423 174.514L145.403 123.597C145.403 121.38 143.609 119.596 141.412 119.596L102.448 119.707L102.438 116.018L141.815 115.907C145.816 115.897 149.061 119.152 149.061 123.174L149.091 174.504Z" fill="white"/>
<path d="M145.423 174.735C145.362 174.735 145.302 174.715 145.262 174.665C145.221 174.624 145.191 174.564 145.191 174.504L145.171 123.587C145.171 122.579 144.778 121.632 144.062 120.916C143.357 120.211 142.409 119.818 141.412 119.818C141.412 119.818 141.412 119.818 141.401 119.818L102.438 119.928C102.377 119.928 102.317 119.908 102.277 119.858C102.236 119.818 102.206 119.757 102.206 119.697L102.196 116.008C102.196 115.877 102.297 115.776 102.428 115.776L141.805 115.665H141.815C143.8 115.665 145.675 116.441 147.086 117.852C148.497 119.263 149.283 121.148 149.283 123.154L149.303 174.483C149.303 174.604 149.202 174.715 149.071 174.715L145.423 174.735ZM141.422 119.364C142.54 119.364 143.599 119.807 144.395 120.604C145.191 121.4 145.634 122.468 145.634 123.597L145.655 174.282L148.86 174.272L148.839 123.164C148.839 121.279 148.104 119.515 146.773 118.185C145.453 116.854 143.699 116.129 141.825 116.129H141.815L102.67 116.24L102.68 119.475L141.422 119.364C141.412 119.364 141.412 119.364 141.422 119.364Z" fill="#000139"/>
<path d="M83.2082 80.6827V84.3714H95.4031C97.6003 84.3714 99.3842 86.1654 99.3842 88.3827V148.682H103.053V87.9594C103.053 83.9381 99.8175 80.6827 95.8164 80.6827H83.2082Z" fill="white"/>
<path d="M103.053 148.904H99.3842C99.2531 148.904 99.1523 148.803 99.1523 148.672V88.3827C99.1523 86.2964 97.4692 84.6032 95.3931 84.6032H83.1981C83.0671 84.6032 82.9663 84.5025 82.9663 84.3714V80.6827C82.9663 80.5517 83.0671 80.4509 83.1981 80.4509H95.8063C99.9183 80.4509 103.274 83.8171 103.274 87.9594V148.672C103.285 148.803 103.174 148.904 103.053 148.904ZM99.616 148.451H102.821V87.9594C102.821 84.0691 99.6764 80.9044 95.8164 80.9044H83.44V84.1396H95.4031C97.7313 84.1396 99.616 86.0445 99.616 88.3726V148.451Z" fill="#000139"/>
<path d="M89.5979 79.6245L76.8688 79.7655C75.3368 79.7857 74.0972 81.0354 74.1073 82.5775C74.1073 84.1396 75.3772 85.4095 76.9292 85.3894L89.5979 85.2483V79.6245Z" fill="white"/>
<path d="M76.899 85.6212C76.1028 85.6212 75.3469 85.3087 74.7825 84.7443C74.198 84.1699 73.8755 83.3938 73.8755 82.5775C73.8755 80.9145 75.2159 79.5539 76.8688 79.5337L89.5979 79.3926C89.6584 79.3926 89.7189 79.4128 89.7592 79.4632C89.7995 79.5035 89.8297 79.564 89.8297 79.6244V85.2483C89.8297 85.3692 89.7289 85.4801 89.608 85.4801L76.9393 85.6212C76.9192 85.6212 76.9091 85.6212 76.899 85.6212ZM89.3661 79.8563L76.8688 79.9873C75.4679 80.0074 74.329 81.1665 74.329 82.5674C74.329 83.2628 74.6011 83.9179 75.095 84.4117C75.5787 84.8854 76.2137 85.1475 76.8889 85.1475C76.899 85.1475 76.9091 85.1475 76.9192 85.1475L89.3661 85.0165V79.8563Z" fill="#000139"/>
<path d="M101.289 184.874C93.8007 184.874 86.8163 181.004 81.6258 173.989C76.5967 167.197 73.8351 158.186 73.8351 148.642C73.8351 139.098 76.6067 130.088 81.6258 123.295C86.8163 116.27 93.8007 112.41 101.289 112.41C108.777 112.41 115.762 116.28 120.952 123.295C125.981 130.088 128.743 139.098 128.743 148.642C128.743 158.186 125.971 167.197 120.952 173.989C115.762 181.014 108.777 184.874 101.289 184.874ZM101.289 116.028C95.1814 116.028 89.3863 119.324 84.9618 125.3C80.3761 131.509 77.8464 139.793 77.8464 148.642C77.8464 157.481 80.3761 165.776 84.9618 171.984C89.3863 177.971 95.1814 181.256 101.289 181.256C107.397 181.256 113.192 177.96 117.616 171.984C122.202 165.776 124.732 157.491 124.732 148.642C124.732 139.803 122.202 131.509 117.616 125.3C113.192 119.314 107.397 116.028 101.289 116.028Z" fill="white"/>
<path d="M101.289 185.106C93.72 185.106 86.6752 181.206 81.4343 174.121C76.385 167.287 73.5933 158.237 73.5933 148.632C73.5933 139.037 76.3749 129.987 81.4343 123.143C86.6651 116.058 93.72 112.158 101.289 112.158C108.858 112.158 115.903 116.058 121.144 123.143C126.193 129.977 128.985 139.027 128.985 148.632C128.985 158.227 126.203 167.277 121.144 174.121C115.903 181.206 108.858 185.106 101.289 185.106ZM101.289 112.632C93.8712 112.632 86.9473 116.461 81.8072 123.426C76.8083 130.178 74.0569 139.138 74.0569 148.642C74.0569 158.146 76.8083 167.096 81.8072 173.858C86.9574 180.823 93.8712 184.653 101.289 184.653C108.707 184.653 115.621 180.823 120.771 173.858C125.77 167.106 128.521 158.146 128.521 148.642C128.521 139.138 125.77 130.188 120.771 123.426C115.621 116.461 108.707 112.632 101.289 112.632ZM101.289 181.488C95.1109 181.488 89.2452 178.162 84.7804 172.115C80.1644 165.866 77.6146 157.531 77.6146 148.642C77.6146 139.753 80.1544 131.418 84.7804 125.169C89.2452 119.122 95.1109 115.796 101.289 115.796C107.467 115.796 113.333 119.122 117.798 125.169C122.414 131.418 124.963 139.753 124.963 148.642C124.963 157.531 122.424 165.866 117.798 172.115C113.333 178.162 107.467 181.488 101.289 181.488ZM101.289 116.25C95.2621 116.25 89.5274 119.515 85.1432 125.431C80.5777 131.599 78.0681 139.844 78.0681 148.632C78.0681 157.42 80.5777 165.665 85.1432 171.833C89.5173 177.759 95.252 181.014 101.289 181.014C107.326 181.014 113.051 177.749 117.435 171.833C122 165.665 124.51 157.42 124.51 148.632C124.51 139.844 122 131.599 117.435 125.431C113.051 119.515 107.316 116.25 101.289 116.25Z" fill="#000139"/>
<path d="M101.289 156.151C97.701 156.151 94.8891 152.855 94.8891 148.642C94.8891 144.429 97.701 141.134 101.289 141.134C104.877 141.134 107.689 144.429 107.689 148.642C107.689 152.855 104.877 156.151 101.289 156.151Z" fill="white"/>
<path d="M101.289 156.382C97.57 156.382 94.6573 152.986 94.6573 148.642C94.6573 144.298 97.57 140.902 101.289 140.902C105.008 140.902 107.921 144.298 107.921 148.642C107.921 152.986 105.008 156.382 101.289 156.382ZM101.289 141.355C97.8321 141.355 95.1209 144.55 95.1209 148.632C95.1209 152.714 97.8321 155.909 101.289 155.909C104.746 155.909 107.457 152.714 107.457 148.632C107.457 144.56 104.746 141.355 101.289 141.355Z" fill="#000139"/>
<path d="M147.247 184.874C141.895 184.874 137.713 179.603 137.713 172.881C137.713 166.158 141.905 160.887 147.247 160.887C152.599 160.887 156.781 166.158 156.781 172.881C156.781 179.613 152.589 184.874 147.247 184.874ZM147.247 164.506C144.254 164.506 141.724 168.335 141.724 172.881C141.724 177.416 144.254 181.256 147.247 181.256C150.24 181.256 152.77 177.426 152.77 172.881C152.76 168.346 150.24 164.506 147.247 164.506Z" fill="white"/>
<path d="M147.247 185.106C141.774 185.106 137.481 179.734 137.481 172.881C137.481 166.027 141.774 160.656 147.247 160.656C152.72 160.656 157.013 166.027 157.013 172.881C157.013 179.734 152.72 185.106 147.247 185.106ZM147.247 161.119C142.026 161.119 137.934 166.29 137.934 172.881C137.934 179.472 142.026 184.642 147.247 184.642C152.468 184.642 156.56 179.472 156.56 172.881C156.56 166.29 152.458 161.119 147.247 161.119ZM147.247 181.488C144.133 181.488 141.492 177.547 141.492 172.881C141.492 168.215 144.123 164.274 147.247 164.274C150.361 164.274 153.002 168.215 153.002 172.881C153.002 177.547 150.361 181.488 147.247 181.488ZM147.247 164.737C144.375 164.737 141.956 168.466 141.956 172.881C141.956 177.295 144.385 181.024 147.247 181.024C150.119 181.024 152.538 177.295 152.538 172.881C152.538 168.466 150.109 164.737 147.247 164.737Z" fill="#000139"/>
<path d="M51.2593 164.566C51.2593 164.566 49.3343 170.291 50.7654 173.123L51.1484 174.282L41.7553 171.359L42.4809 170.432C43.771 168.789 44.6176 166.894 44.9501 164.899L51.2593 164.566Z" fill="white"/>
<path d="M51.1484 174.514C51.1283 174.514 51.098 174.514 51.0779 174.504L41.6847 171.581C41.6142 171.561 41.5537 171.5 41.5335 171.43C41.5134 171.359 41.5235 171.278 41.5738 171.218L42.2995 170.291C43.5593 168.678 44.3958 166.804 44.7284 164.868C44.7486 164.768 44.8393 164.687 44.9401 164.677L51.2391 164.344C51.3198 164.334 51.3903 164.375 51.4306 164.435C51.481 164.496 51.4911 164.576 51.4609 164.647C51.4407 164.707 49.5762 170.311 50.9569 173.032C50.967 173.042 50.967 173.052 50.967 173.062L51.35 174.221C51.3802 174.302 51.3601 174.393 51.2996 174.453C51.2694 174.483 51.2089 174.514 51.1484 174.514ZM42.1382 171.238L50.7856 173.939L50.5538 173.213C49.2839 170.674 50.5538 166.078 50.9368 164.808L45.1416 165.12C44.7788 167.076 43.9221 168.95 42.6522 170.573L42.1382 171.238Z" fill="#000139"/>
<path d="M51.5516 169.908L52.2974 171.208C53.7789 173.788 55.8652 175.965 58.3747 177.557L60.2997 178.777C60.4811 178.898 60.6021 179.089 60.6021 179.311V179.422C60.6424 180.651 58.7375 183.03 54.2828 183.05C51.5213 183.06 45.2827 182.133 38.4293 177.729C37.996 177.446 37.7944 176.922 37.9355 176.429C38.4394 174.624 39.8101 170.351 41.9165 168.527C42.1483 168.325 42.5111 168.366 42.6825 168.618L44.3857 171.057C45.1517 172.155 46.6635 172.417 47.752 171.651L50.5437 169.686C50.8965 169.454 51.35 169.555 51.5516 169.908Z" fill="white"/>
<path d="M54.2627 183.282C52.9021 183.282 46.2301 183 38.3286 177.92C37.8045 177.588 37.5727 176.963 37.7339 176.368C38.2379 174.584 39.6287 170.22 41.7956 168.356C41.9568 168.215 42.1786 168.154 42.3902 168.174C42.6019 168.204 42.7833 168.315 42.9042 168.487L44.6075 170.926C44.9401 171.409 45.444 171.722 46.0185 171.823C46.5929 171.923 47.1775 171.792 47.6512 171.46L50.4429 169.495C50.6546 169.343 50.9166 169.293 51.1686 169.353C51.4205 169.414 51.6322 169.565 51.7632 169.787L52.509 171.087C53.9704 173.617 56.0365 175.783 58.5057 177.356L60.4307 178.575C60.6827 178.736 60.8339 178.999 60.8439 179.291V179.402C60.8641 179.976 60.5214 180.682 59.9369 181.296C59.2314 182.032 57.5584 183.262 54.303 183.272C54.2828 183.282 54.2728 183.282 54.2627 183.282ZM42.2793 168.628C42.2088 168.628 42.1382 168.658 42.0778 168.698C40.0117 170.482 38.6511 174.735 38.1673 176.479C38.0564 176.882 38.2177 177.295 38.5704 177.527C46.3611 182.536 52.9122 182.818 54.2526 182.818C54.2627 182.818 54.2828 182.818 54.2929 182.818C57.387 182.808 58.9492 181.659 59.6043 180.984C60.1082 180.46 60.4005 179.875 60.3904 179.422V179.311C60.3904 179.17 60.3098 179.039 60.1888 178.958L58.2638 177.739C55.7341 176.136 53.6076 173.909 52.116 171.319L51.3702 170.019C51.3097 169.908 51.1988 169.827 51.0678 169.797C50.9368 169.767 50.8158 169.797 50.705 169.867L47.9132 171.833C47.3387 172.236 46.6333 172.397 45.9378 172.276C45.2424 172.155 44.6377 171.762 44.2245 171.188L42.5212 168.749C42.4708 168.678 42.4104 168.638 42.3297 168.628C42.3096 168.628 42.2995 168.628 42.2793 168.628Z" fill="#000139"/>
<path d="M57.1955 178.868C55.0992 178.868 53.0129 178.212 51.2895 176.983L50.5437 176.449C50.4329 176.368 50.2918 176.368 50.1809 176.439C50.0599 176.509 49.9995 176.63 50.0196 176.771L50.1406 177.658C50.1809 177.94 50.0801 178.222 49.8685 178.414C49.6568 178.616 49.3746 178.696 49.0924 178.636C45.9177 178.011 42.9647 176.761 40.314 174.917L38.8224 173.879C38.7216 173.808 38.6914 173.667 38.7619 173.556C38.8325 173.455 38.9736 173.425 39.0845 173.496L40.5761 174.534C43.1763 176.348 46.0689 177.567 49.1831 178.182C49.3141 178.212 49.4552 178.172 49.556 178.071C49.6568 177.981 49.7072 177.839 49.687 177.708L49.5661 176.822C49.5258 176.509 49.6669 176.207 49.939 176.046C50.2111 175.884 50.5437 175.894 50.8058 176.076L51.5516 176.61C53.6983 178.142 56.4195 178.726 59.0097 178.233L59.5136 178.132C59.6345 178.102 59.7555 178.192 59.7857 178.313C59.8059 178.434 59.7252 178.555 59.6043 178.585L59.1004 178.686C58.4654 178.807 57.8305 178.868 57.1955 178.868Z" fill="#000139"/>
<path d="M18.1514 148.249C18.1514 148.249 13.8983 152.542 13.7269 155.717L13.485 156.927L6.8937 149.065L8.00234 148.783C9.82655 147.866 11.6709 147.433 12.8803 145.79L18.1514 148.249Z" fill="white"/>
<path d="M13.4951 157.158C13.4246 157.158 13.3641 157.128 13.3238 157.078L6.73245 149.217C6.68205 149.156 6.6619 149.075 6.69213 148.995C6.71229 148.924 6.77276 148.864 6.85339 148.844L7.94187 148.561C8.3954 148.34 8.83885 148.138 9.28231 147.947C10.6026 147.372 11.8422 146.828 12.7191 145.649C12.7796 145.558 12.9005 145.528 13.0013 145.578L18.2723 148.037C18.3429 148.068 18.3832 148.128 18.4034 148.209C18.4134 148.279 18.3933 148.36 18.3429 148.41C18.3026 148.451 14.1502 152.673 13.989 155.737C13.989 155.747 13.989 155.757 13.989 155.768L13.7471 156.977C13.7269 157.068 13.6665 157.128 13.5758 157.158C13.5354 157.158 13.5153 157.158 13.4951 157.158ZM7.30692 149.196L13.3641 156.413L13.5052 155.687C13.6665 152.855 16.8714 149.267 17.7684 148.32L12.961 146.072C12.0237 147.251 10.7739 147.795 9.45364 148.37C9.02027 148.561 8.56674 148.753 8.1132 148.985C8.10312 148.995 8.08297 148.995 8.06281 149.005L7.30692 149.196Z" fill="#000139"/>
<path d="M15.2387 154.326L14.9263 155.798C14.3014 158.7 14.382 161.714 15.1782 164.576L15.793 166.773C15.8535 166.985 15.8031 167.207 15.662 167.378L15.5915 167.459C14.7953 168.396 11.7919 168.89 8.46595 165.917C6.40993 164.082 2.39869 159.204 0.272124 151.343C0.141104 150.849 0.342674 150.325 0.77605 150.043C2.35838 149.045 6.24868 146.788 9.03035 146.858C9.34278 146.868 9.57459 147.13 9.54435 147.443L9.17145 150.396C9.00011 151.726 9.94749 152.936 11.2678 153.097L14.6542 153.51C15.0573 153.55 15.3294 153.933 15.2387 154.326Z" fill="white"/>
<path d="M13.485 168.406C12.3865 168.406 10.4917 168.043 8.3047 166.078C7.35732 165.231 2.52971 160.545 0.0503978 151.383C-0.110858 150.789 0.131026 150.164 0.655108 149.831C2.22736 148.844 6.17813 146.546 9.03035 146.606C9.242 146.616 9.45364 146.707 9.58467 146.868C9.71569 147.03 9.78624 147.231 9.756 147.443L9.38309 150.396C9.31255 150.98 9.46372 151.555 9.82655 152.008C10.1894 152.472 10.7034 152.764 11.2879 152.835L14.6743 153.248C14.9263 153.278 15.1581 153.419 15.3093 153.621C15.4604 153.832 15.5108 154.095 15.4604 154.347L15.148 155.808C14.5332 158.66 14.6138 161.664 15.4 164.475L16.0148 166.673C16.0954 166.955 16.0248 167.257 15.8333 167.479L15.7628 167.559C15.3899 167.993 14.6642 168.295 13.8176 168.356C13.7169 168.406 13.606 168.406 13.485 168.406ZM8.89933 147.08C6.17813 147.08 2.39869 149.277 0.886914 150.234C0.534166 150.456 0.37291 150.88 0.483774 151.283C2.93285 160.323 7.67983 164.919 8.60705 165.755C10.905 167.821 12.8299 168.013 13.7773 167.952C14.503 167.902 15.1077 167.67 15.4 167.318L15.4705 167.237C15.5612 167.126 15.5915 166.985 15.5612 166.844L14.9464 164.647C14.1402 161.764 14.0595 158.68 14.6945 155.758L15.0069 154.296C15.0371 154.165 15.0069 154.044 14.9364 153.933C14.8658 153.822 14.7449 153.762 14.6138 153.742L11.2275 153.329C10.522 153.238 9.8971 152.885 9.46372 152.331C9.03035 151.776 8.83886 151.081 8.92956 150.376L9.30247 147.423C9.31255 147.342 9.29239 147.261 9.23192 147.201C9.18153 147.14 9.09082 147.1 9.01019 147.1C8.97995 147.08 8.93964 147.08 8.89933 147.08Z" fill="#000139"/>
<path d="M15.5108 166.199C15.4705 166.199 15.4302 166.189 15.3899 166.169L14.9464 165.907C12.578 164.475 10.8848 162.107 10.2902 159.406L10.0886 158.519C10.0584 158.388 9.95757 158.287 9.82655 158.267C9.69553 158.237 9.56451 158.287 9.48388 158.408L8.96988 159.144C8.80862 159.376 8.54658 159.517 8.26438 159.527C7.98218 159.537 7.71006 159.406 7.53873 159.174C5.60366 156.584 4.25314 153.681 3.5174 150.527L3.10419 148.753C3.07395 148.632 3.15458 148.511 3.27552 148.481C3.39646 148.451 3.5174 148.531 3.54764 148.652L3.96086 150.426C4.67643 153.51 6.0068 156.362 7.90155 158.902C7.98218 159.013 8.1132 159.073 8.2543 159.073C8.3954 159.073 8.51634 159.003 8.59697 158.892L9.11098 158.156C9.29239 157.894 9.60482 157.763 9.91726 157.834C10.2297 157.894 10.4716 158.126 10.5421 158.438L10.7437 159.325C11.3081 161.905 12.9307 164.163 15.1883 165.534L15.6318 165.796C15.7426 165.856 15.7729 165.997 15.7124 166.108C15.662 166.159 15.5915 166.199 15.5108 166.199Z" fill="#000139"/>
<path d="M35.8593 75.7845L61.2975 76.238C61.2975 76.238 73.684 110.535 63.4744 138.503C57.5483 154.75 53.4362 162.903 51.8237 165.856C51.3802 166.662 50.4933 167.116 49.5863 167.005L45.3432 166.491C44.0834 166.34 43.2066 165.181 43.3981 163.921C44.8897 154.246 50.4732 116.925 48.8102 112.581C48.8102 112.581 45.5246 140.489 17.335 151.283C16.6094 151.555 15.793 151.323 15.3395 150.698L12.6586 147.019C12.2252 146.425 12.2152 145.629 12.6385 145.024C17.1738 138.564 41.6948 102.069 35.8593 75.7845Z" fill="white"/>
<path d="M49.8685 167.247C49.7677 167.247 49.6669 167.237 49.5661 167.227L45.323 166.713C44.6478 166.632 44.0632 166.29 43.65 165.755C43.2469 165.221 43.0755 164.556 43.1763 163.891C46.3611 143.169 49.3544 120.14 48.8304 113.912C48.3768 116.33 47.0767 121.813 43.8516 127.991C39.8706 135.621 32.0497 145.901 17.4257 151.504C16.6094 151.817 15.6721 151.545 15.1581 150.839L12.4772 147.161C11.9834 146.485 11.9733 145.578 12.457 144.903C17.3451 137.949 41.4327 101.918 35.6477 75.845C35.6275 75.7744 35.6477 75.7039 35.6981 75.6535C35.7384 75.6031 35.8089 75.5628 35.8795 75.5729L61.3176 76.0264C61.4083 76.0264 61.499 76.0869 61.5293 76.1776C61.5595 76.2683 64.6536 84.9156 66.4577 96.8688C68.1206 107.905 68.9975 124.111 63.7062 138.604C57.7095 155.022 53.5471 163.226 52.0353 165.987C51.5919 166.763 50.7654 167.247 49.8685 167.247ZM48.8203 112.339C48.911 112.339 49.0017 112.4 49.0319 112.49C50.6949 116.834 45.323 152.976 43.6299 163.951C43.5492 164.496 43.6803 165.03 44.0128 165.473C44.3454 165.907 44.8292 166.189 45.3734 166.259L49.6165 166.773C50.4429 166.874 51.229 166.471 51.6322 165.735C53.1339 162.984 57.2862 154.81 63.2729 138.412C68.5238 124.01 67.657 107.895 66.0041 96.9091C64.3412 85.853 61.5595 77.639 61.1463 76.4497L36.1516 76.0062C41.7452 102.241 17.718 138.181 12.8299 145.145C12.4671 145.669 12.4671 146.354 12.8501 146.868L15.531 150.547C15.924 151.091 16.6396 151.293 17.2645 151.061C31.7574 145.508 39.5077 135.328 43.4484 127.769C47.7217 119.576 48.5784 112.611 48.5885 112.541C48.5986 112.44 48.6792 112.349 48.7901 112.339C48.8001 112.339 48.8102 112.339 48.8203 112.339Z" fill="#000139"/>
<path d="M85.5464 79.3422L89.1041 79.574C89.8801 79.6547 90.1623 78.5763 89.4467 78.2538L88.4187 77.5684C88.4187 77.5684 88.7312 76.8932 88.963 76.6614C89.4871 76.1474 90.2228 75.9357 90.9585 76.0063C91.795 76.0869 93.1456 76.2179 93.5487 76.1877C94.1433 76.1474 94.9597 76.1675 95.514 75.7644L95.5342 75.7543C96.1086 75.331 95.9474 74.434 95.2721 74.2324L92.9138 73.5269C91.2004 73.0129 89.3661 73.0633 87.6931 73.668L84.8913 74.6759C83.9439 75.0186 82.8756 74.7868 82.16 74.0712L70.1666 62.0778C68.7153 60.6466 65.5305 59.6992 65.0064 61.6746C65.0064 61.6746 61.4688 65.7564 67.0422 69.2839L80.7994 77.5684C82.2507 78.4654 83.8633 79.0802 85.5464 79.3422Z" fill="white"/>
<path d="M89.1746 79.8059C89.1444 79.8059 89.1142 79.8059 89.0738 79.8059L85.5262 79.574C85.5161 79.574 85.5161 79.574 85.5061 79.574C83.7826 79.3019 82.16 78.6871 80.6784 77.7599L66.9213 69.4855C65.0165 68.276 63.9381 66.8751 63.7163 65.313C63.4341 63.3577 64.573 61.8359 64.7947 61.5638C64.9661 60.9691 65.3793 60.5761 65.984 60.4047C67.3446 60.0318 69.2998 60.8986 70.3278 61.9165L82.3112 73.9402C82.9663 74.5852 83.9439 74.7968 84.8006 74.4844L87.6024 73.4766C89.346 72.8517 91.2004 72.8013 92.9742 73.3254L95.3326 74.0309C95.7357 74.1518 96.028 74.4743 96.0986 74.8875C96.1691 75.3008 96.0079 75.7039 95.6753 75.9559C95.131 76.3489 94.4054 76.3892 93.8309 76.4195C93.7402 76.4195 93.6596 76.4296 93.5789 76.4296C93.1758 76.4598 91.9261 76.3489 90.9485 76.2481C90.253 76.1776 89.5979 76.3993 89.1444 76.8428C89.0235 76.9637 88.8521 77.2661 88.7312 77.508L89.5778 78.0723C89.991 78.2638 90.1926 78.6972 90.0817 79.1407C89.9507 79.5337 89.5878 79.8059 89.1746 79.8059ZM85.5665 79.1104L89.1142 79.3422C89.4064 79.3725 89.5677 79.181 89.608 78.9996C89.6584 78.8282 89.608 78.5763 89.346 78.4654C89.3359 78.4553 89.3258 78.4553 89.3157 78.4453L88.2877 77.77C88.197 77.7095 88.1567 77.5886 88.2071 77.4878C88.2373 77.4172 88.5397 76.7722 88.8017 76.5102C89.356 75.9659 90.1522 75.7039 90.9787 75.7845C92.3191 75.9155 93.2463 75.9861 93.5285 75.9659C93.6092 75.9559 93.6999 75.9559 93.7906 75.9559C94.3046 75.9256 94.9597 75.8954 95.3729 75.593C95.5846 75.4318 95.6753 75.2101 95.635 74.9682C95.5946 74.7263 95.4233 74.5449 95.1915 74.4743L92.8331 73.7688C91.1601 73.275 89.3964 73.3153 87.7536 73.9099L84.9517 74.9178C83.9237 75.2907 82.7546 75.0286 81.9786 74.2627L70.0053 62.239C69.0781 61.3319 67.2539 60.5357 66.1049 60.8482C65.6413 60.9792 65.349 61.2715 65.2281 61.7351C65.218 61.7653 65.1979 61.7956 65.1777 61.8258C65.1676 61.8359 63.8877 63.3476 64.1699 65.2525C64.3815 66.6736 65.3894 67.9636 67.1632 69.0924L80.9203 77.3669C82.3515 78.2638 83.9137 78.8484 85.5665 79.1104Z" fill="#000139"/>
<path d="M30.8906 44.6722C30.8906 44.6722 46.0185 37.6374 60.0981 47.0104L71.7993 60.304C72.273 61.1606 67.2841 65.0308 64.9358 66.7945C64.3714 67.2178 63.7365 67.5202 63.0915 67.8024C62.4867 68.0644 62.0735 68.6792 62.1038 69.3746C62.265 73.6277 69.1083 89.4308 64.8552 89.3905L33.8638 88.7153C35.819 86.5484 21.7797 49.8425 30.8906 44.6722Z" fill="white"/>
<path d="M64.8854 89.6223C64.8753 89.6223 64.8753 89.6223 64.8653 89.6223L33.8739 88.9471C33.7832 88.9471 33.7025 88.8866 33.6723 88.806C33.632 88.7253 33.6521 88.6246 33.7126 88.5641C34.2669 87.9392 33.0676 83.0411 31.7977 77.8406C28.8951 65.9681 24.5109 48.0384 30.7798 44.4807C30.7898 44.4807 30.7898 44.4706 30.7999 44.4706C30.8402 44.4505 34.6801 42.6867 40.1931 42.1022C45.2827 41.5579 52.9021 41.9409 60.2292 46.8189C60.2493 46.829 60.2594 46.8391 60.2695 46.8592L71.9706 60.1528C71.9807 60.1629 71.9908 60.183 72.0009 60.1931C72.152 60.4753 72.6257 61.3219 65.0769 66.9759C64.4722 67.4295 63.8171 67.7419 63.1922 68.014C62.648 68.2458 62.3154 68.78 62.3456 69.3645C62.396 70.7654 63.2225 73.5471 64.0993 76.49C65.6816 81.8316 67.3244 87.3547 66.0243 89.0781C65.7522 89.4409 65.3692 89.6223 64.8854 89.6223ZM34.2266 88.4935L64.8754 89.1688C65.2079 89.1688 65.47 89.0579 65.6615 88.806C66.8205 87.274 65.0668 81.368 63.6558 76.6211C62.7387 73.5169 61.9425 70.836 61.882 69.3847C61.8518 68.6086 62.2953 67.9031 63.0108 67.5907C63.6055 67.3287 64.2404 67.0263 64.8048 66.603C70.4286 62.4003 71.7086 60.7373 71.6078 60.4249L59.947 47.1817C52.7408 42.3944 45.2525 42.0215 40.2435 42.5557C34.922 43.1201 31.193 44.7931 31.0015 44.8738C25.0451 48.2702 29.3788 65.9983 32.2411 77.7196C33.7126 83.7466 34.529 87.2438 34.2266 88.4935Z" fill="#000139"/>
<path d="M75.6997 80.1284C76.5765 80.4408 75.8508 80.9347 74.9135 81.0758C74.2181 81.1765 73.4118 81.1161 72.9684 81.0657C72.8575 81.0556 72.7971 81.1866 72.8777 81.2672C74.6112 82.8294 75.6392 83.8473 76.2439 84.5024C76.8184 85.1172 76.647 86.115 75.9012 86.5181C71.7287 88.7858 68.5742 83.7667 65.339 82.4061C62.1239 81.0556 57.6894 81.5797 54.2022 81.2672C51.612 81.0354 38.9131 79.6849 38.7821 77.2358C38.7619 76.8226 38.7821 76.4195 39.3465 75.5628C40.818 73.3455 43.3779 71.4205 45.4339 69.9692C46.472 71.5616 61.8115 78.3646 67.3043 78.7174C68.1106 78.7678 68.9068 78.9492 69.713 78.9089C70.6503 78.8484 72.5149 78.9895 75.6997 80.1284Z" fill="white"/>
<path d="M73.7545 87.3244C71.7187 87.3244 69.9146 85.9134 68.2718 84.6234C67.2236 83.807 66.246 83.031 65.2483 82.6178C63.0713 81.7006 60.3199 81.6603 57.6692 81.6301C56.4396 81.6099 55.2806 81.5998 54.1821 81.499C51.602 81.2672 38.7015 79.957 38.5503 77.2459C38.5301 76.7924 38.5503 76.3389 39.155 75.4318C40.5962 73.2548 43.0755 71.35 45.3029 69.7777C45.3533 69.7374 45.4138 69.7274 45.4742 69.7374C45.5347 69.7475 45.5851 69.7878 45.6254 69.8382C46.5224 71.2089 61.7812 78.1227 67.3244 78.4755C67.6268 78.4957 67.9291 78.536 68.2214 78.5662C68.7354 78.6267 69.2091 78.6871 69.703 78.667C70.731 78.6166 72.6257 78.7879 75.7803 79.9167C76.2641 80.0881 76.3447 80.3299 76.3245 80.5114C76.2842 80.9548 75.5586 81.2168 74.9539 81.3076C74.3895 81.3983 73.7545 81.368 73.2909 81.3378C74.6414 82.5573 75.6896 83.5752 76.4152 84.3513C76.7378 84.6939 76.8789 85.1575 76.7982 85.6212C76.7176 86.0949 76.4354 86.4879 76.0121 86.7197C75.226 87.143 74.4701 87.3244 73.7545 87.3244ZM45.3936 70.2615C43.2368 71.7934 40.8885 73.6177 39.5279 75.6737C39.0038 76.4699 38.9736 76.8226 38.9937 77.2056C39.0945 78.9996 48.145 80.471 54.2123 81.0254C55.2907 81.1261 56.4396 81.1362 57.6591 81.1564C60.3602 81.1967 63.1519 81.237 65.4095 82.1844C66.4577 82.6278 67.4655 83.414 68.5338 84.2505C70.7511 85.984 73.049 87.788 75.7702 86.3065C76.0625 86.1452 76.2641 85.863 76.3245 85.5305C76.3749 85.2079 76.2741 84.8854 76.0524 84.6435C75.2864 83.8272 74.1577 82.7387 72.6963 81.4285C72.5854 81.3277 72.5552 81.1665 72.6156 81.0354C72.6761 80.8943 72.8172 80.8137 72.9684 80.8339C73.3816 80.8843 74.1879 80.9447 74.8531 80.8439C75.4578 80.7532 75.7803 80.5517 75.8307 80.461C75.8105 80.4408 75.7501 80.3904 75.5888 80.3299C72.5048 79.2213 70.6806 79.05 69.6929 79.1104C69.1587 79.1407 68.6346 79.0701 68.1307 79.0097C67.8485 78.9693 67.5462 78.9391 67.2539 78.919C62.0231 78.5964 47.3488 72.2067 45.3936 70.2615Z" fill="#000139"/>
<path d="M46.1092 69.7777C46.0386 69.7777 45.9681 69.7475 45.9177 69.677C45.8471 69.5762 45.8774 69.4351 45.9781 69.3544L48.3668 67.7217L38.1774 53.9142C38.1068 53.8134 38.127 53.6723 38.2278 53.5917C38.3286 53.5211 38.4697 53.5413 38.5503 53.6421L48.8808 67.6512C48.9211 67.7016 48.9312 67.762 48.9211 67.8225C48.911 67.883 48.8808 67.9334 48.8203 67.9737L46.2402 69.7374C46.1999 69.7677 46.1596 69.7777 46.1092 69.7777Z" fill="#000139"/>
<path d="M61.6099 67.8729C61.499 67.8729 61.4083 67.8024 61.3882 67.6915C60.5416 63.4283 58.284 58.5705 54.4945 52.8257C54.4239 52.7249 54.4542 52.5737 54.555 52.5133C54.6557 52.4427 54.8069 52.473 54.8674 52.5737C58.6871 58.3689 60.975 63.2872 61.8316 67.6109C61.8518 67.7318 61.7712 67.8528 61.6502 67.883C61.6402 67.8729 61.62 67.8729 61.6099 67.8729Z" fill="#000139"/>
<path d="M37.0788 25.3114L35.9198 19.7581C35.6678 18.5588 36.2625 17.3493 37.351 16.795C38.9131 16.0089 41.3924 15.1321 44.4261 15.3336C45.6052 15.4143 46.5929 16.2609 46.855 17.4098L47.9838 22.2475L37.0788 25.3114Z" fill="white"/>
<path d="M37.0788 25.5432C37.0385 25.5432 36.9982 25.5331 36.9579 25.5129C36.9075 25.4827 36.8672 25.4222 36.8571 25.3618L35.6981 19.8085C35.426 18.5084 36.071 17.1881 37.2502 16.5935C38.8224 15.7973 41.3521 14.9003 44.4462 15.1119C45.7262 15.2026 46.7945 16.1097 47.0868 17.3695L48.2156 22.2072C48.2458 22.3281 48.1753 22.4491 48.0543 22.4793L37.1393 25.5331C37.1191 25.5432 37.099 25.5432 37.0788 25.5432ZM43.519 15.5352C40.9389 15.5352 38.8224 16.3113 37.4517 16.9966C36.454 17.5005 35.9097 18.6192 36.1415 19.7077L37.2502 25.0191L47.7117 22.0862L46.6333 17.4602C46.3813 16.402 45.4944 15.636 44.4059 15.5554C44.1136 15.5453 43.8113 15.5352 43.519 15.5352Z" fill="#000139"/>
<path d="M47.4597 17.6215C47.0062 17.5711 44.3757 17.3292 41.9871 18.8914C39.6589 20.4132 39.8807 22.1467 37.6432 23.1546C35.819 23.981 35.1236 23.0739 33.0978 23.6383C30.548 24.3539 27.7562 26.8836 27.5446 29.8064C27.4337 31.3686 28.0888 32.8703 29.0463 34.0797C29.5401 34.7045 29.8525 34.9565 30.5681 35.2891C31.2031 35.5915 31.8179 35.9644 32.1706 36.5892C32.5233 37.2342 32.5233 38.0204 32.8055 38.6956C33.9948 41.568 37.744 40.802 39.9613 39.9051C41.0094 39.4818 42.0475 39.0081 42.9848 38.3832C44.4563 37.4157 45.6556 36.1055 46.7441 34.7348C47.8931 33.2734 48.8102 32.1849 48.7901 30.2498C48.78 28.9699 48.2257 26.8232 49.5056 25.9564C49.9995 25.6238 50.5236 25.9463 51.1686 25.906C52.5493 25.8254 54.0006 24.112 54.1115 22.7111C54.3232 20.3124 50.6243 17.9641 47.4597 17.6215Z" fill="#000139"/>
<path d="M49.0017 27.962C49.0017 27.962 49.1529 26.7425 50.0096 27.0449C50.8662 27.3472 49.9289 30.3506 49.0017 30.5724C48.0745 30.784 49.0017 27.962 49.0017 27.962Z" fill="white"/>
<path d="M48.9009 30.8042C48.7195 30.8042 48.5986 30.7135 48.5381 30.653C48.0846 30.1591 48.5885 28.4559 48.7699 27.9116C48.7901 27.7705 48.9009 27.1557 49.3242 26.8836C49.4754 26.7929 49.7274 26.7022 50.07 26.8232C50.3119 26.9038 50.5941 27.1658 50.5538 27.9318C50.5034 28.9497 49.8382 30.5925 49.0319 30.784C49.0017 30.8042 48.9513 30.8042 48.9009 30.8042ZM49.7475 27.2263C49.677 27.2263 49.6266 27.2465 49.5762 27.2767C49.3444 27.4178 49.2436 27.8512 49.2234 27.9923C49.2234 28.0023 49.2234 28.0225 49.2133 28.0326C48.9009 28.98 48.6893 30.139 48.8808 30.3406C48.8908 30.3506 48.9211 30.3406 48.9412 30.3406C49.4149 30.2297 50.0599 28.8892 50.1103 27.9116C50.1305 27.5488 50.0599 27.3069 49.9289 27.2565C49.8685 27.2364 49.808 27.2263 49.7475 27.2263Z" fill="#000139"/>
<path d="M45.8169 40.2074L45.6657 36.2465C48.8203 36.2869 49.1831 30.8646 49.1831 30.8646L49.4653 25.4424C49.4653 25.4424 47.762 25.4625 46.4418 24.6865C45.1215 23.9105 40.6164 23.0739 40.0621 25.9967L39.9915 27.1658C39.9915 27.1658 39.0139 26.0975 38.0363 27.1658C37.0688 28.2341 39.3465 30.4917 39.9109 31.0964C39.9109 31.0964 39.9714 31.2577 40.0822 31.5298L39.7295 40.288C39.7093 40.8827 39.3465 41.4168 38.7922 41.6587L34.2065 43.6643L45.2223 47.4035L50.6747 43.0697L46.8247 41.6083C46.2402 41.3866 45.8371 40.8323 45.8169 40.2074Z" fill="white"/>
<path d="M45.2223 47.6252C45.2021 47.6252 45.1719 47.6252 45.1517 47.6151L34.1359 43.876C34.0452 43.8457 33.9847 43.7651 33.9847 43.6643C33.9847 43.5736 34.0351 43.4829 34.1258 43.4426L38.7115 41.437C39.1752 41.2354 39.4876 40.7819 39.5078 40.2679L39.8605 31.56C39.7899 31.3887 39.7396 31.2678 39.7194 31.2073L39.6186 31.1065C38.7821 30.2297 36.8269 28.1636 37.875 27.0146C38.2076 26.6518 38.5805 26.4704 38.9837 26.4603C39.3062 26.4603 39.5884 26.5813 39.7899 26.7123L39.8303 25.9866C39.8303 25.9765 39.8303 25.9665 39.8303 25.9564C40.0016 25.0796 40.4954 24.4547 41.3118 24.0818C43.0151 23.3057 45.5952 23.9205 46.5526 24.4849C47.8024 25.2207 49.4452 25.2106 49.4552 25.2106C49.5157 25.2106 49.5762 25.2307 49.6266 25.2811C49.6669 25.3315 49.6971 25.392 49.687 25.4525L49.4048 30.8747C49.3847 31.1065 49.0118 36.2465 45.8975 36.4582L46.0386 40.1872C46.0588 40.7214 46.3914 41.1951 46.8953 41.3866L50.7453 42.848C50.8259 42.8782 50.8763 42.9488 50.8864 43.0294C50.8965 43.11 50.8662 43.1906 50.8058 43.241L45.3533 47.5748C45.323 47.605 45.2727 47.6252 45.2223 47.6252ZM34.8313 43.6341L45.1719 47.1414L50.2111 43.1302L46.734 41.82C46.0588 41.568 45.6052 40.9331 45.575 40.2175L45.4238 36.2566C45.4238 36.1962 45.444 36.1357 45.4843 36.0853C45.5246 36.045 45.5851 36.0147 45.6556 36.0147C45.6657 36.0147 45.6758 36.0147 45.6859 36.0147C48.5582 36.0147 48.9412 30.9049 48.9412 30.8545L49.2134 25.6742C48.6792 25.654 47.3891 25.523 46.3107 24.8981C45.444 24.3942 43.0252 23.8197 41.4932 24.5152C40.828 24.8175 40.4148 25.3315 40.2737 26.0471L40.2032 27.1961C40.1931 27.2868 40.1427 27.3674 40.052 27.3976C39.9613 27.4279 39.8706 27.4077 39.8101 27.3371C39.8101 27.3371 39.4271 26.934 38.9635 26.934C38.6914 26.934 38.4394 27.0751 38.1975 27.3371C37.4316 28.1737 39.3163 30.1591 39.931 30.8142L40.0621 30.9553C40.0822 30.9755 40.1024 31.0057 40.1125 31.036C40.1125 31.036 40.1629 31.1972 40.2737 31.4492C40.2838 31.4794 40.2939 31.5197 40.2939 31.55L39.9411 40.3082C39.9109 40.9834 39.4876 41.5982 38.8728 41.8704L34.8313 43.6341Z" fill="#000139"/>
<path d="M46.21 36.2768C44.2446 36.2768 42.874 35.6822 42.8135 35.662C41.0296 34.8658 40.4652 33.0718 40.1326 32.0035C40.0419 31.7213 39.9714 31.4694 39.8907 31.3283C39.8303 31.2174 39.8807 31.0763 39.9915 31.0259C40.1024 30.9654 40.2435 31.0158 40.2939 31.1267C40.3846 31.3081 40.4652 31.5601 40.566 31.8725C40.8986 32.9307 41.4025 34.5332 42.9949 35.2488C43.005 35.2589 44.4765 35.8837 46.5022 35.8233C46.5022 35.8233 46.5022 35.8233 46.5123 35.8233C46.6333 35.8233 46.734 35.9241 46.7441 36.045C46.7441 36.176 46.6534 36.2768 46.5224 36.2768C46.4216 36.2768 46.3208 36.2768 46.21 36.2768Z" fill="#000139"/>
<path d="M76.0726 180.944C75.4779 180.944 74.8934 180.672 74.5205 180.158C74.2181 179.744 74.1073 179.24 74.1879 178.747C74.2685 178.243 74.5406 177.809 74.9538 177.507C75.8004 176.892 76.9998 177.084 77.6146 177.94C77.9169 178.354 78.0278 178.857 77.9472 179.351C77.8665 179.855 77.5944 180.289 77.1812 180.591C76.8385 180.823 76.4555 180.944 76.0726 180.944ZM76.0625 177.598C75.7702 177.598 75.4679 177.688 75.2159 177.87C74.9035 178.091 74.6918 178.424 74.6313 178.807C74.5709 179.19 74.6616 179.563 74.8833 179.875C75.3469 180.52 76.254 180.672 76.9091 180.198C77.2215 179.976 77.4332 179.644 77.4936 179.261C77.5541 178.878 77.4634 178.505 77.2417 178.192C76.9595 177.809 76.516 177.598 76.0625 177.598Z" fill="#000139"/>
<path d="M98.7895 35.5512C98.7391 35.5512 98.6887 35.531 98.6383 35.5008C98.5376 35.4201 98.5275 35.279 98.6081 35.1783L99.7571 33.8277C99.8377 33.7269 99.9788 33.7169 100.08 33.7975C100.18 33.8781 100.19 34.0192 100.11 34.12L98.9609 35.4705C98.9105 35.5209 98.85 35.5512 98.7895 35.5512Z" fill="#000139"/>
<path d="M96.1086 38.6957C96.0582 38.6957 96.0078 38.6755 95.9575 38.6453C95.8567 38.5646 95.8466 38.4235 95.9272 38.3228L97.0762 36.9722C97.1568 36.8714 97.2979 36.8614 97.3987 36.942C97.4995 37.0226 97.5095 37.1637 97.4289 37.2645L96.28 38.615C96.2397 38.6654 96.1691 38.6957 96.1086 38.6957Z" fill="#000139"/>
<path d="M97.1266 35.6822C97.0762 35.6822 97.0258 35.662 96.9754 35.6318L95.6249 34.4828C95.5241 34.4022 95.514 34.2611 95.5946 34.1603C95.6753 34.0595 95.8164 34.0494 95.9171 34.1301L97.2677 35.279C97.3684 35.3597 97.3785 35.5008 97.2979 35.6015C97.2576 35.662 97.187 35.6822 97.1266 35.6822Z" fill="#000139"/>
<path d="M100.271 38.363C100.221 38.363 100.17 38.3429 100.12 38.3127L98.7694 37.1637C98.6686 37.0831 98.6585 36.942 98.7391 36.8412C98.8198 36.7404 98.9609 36.7303 99.0616 36.811L100.412 37.9599C100.513 38.0405 100.523 38.1816 100.442 38.2824C100.392 38.3328 100.332 38.363 100.271 38.363Z" fill="#000139"/>
<path d="M15.8031 33.1827C15.6721 33.1827 15.5713 33.0819 15.5713 32.9509V31.1771C15.5713 31.046 15.6721 30.9453 15.8031 30.9453C15.9341 30.9453 16.0349 31.046 16.0349 31.1771V32.9509C16.0349 33.0819 15.9341 33.1827 15.8031 33.1827Z" fill="#000139"/>
<path d="M15.8031 37.3149C15.6721 37.3149 15.5713 37.2141 15.5713 37.0831V35.3093C15.5713 35.1782 15.6721 35.0775 15.8031 35.0775C15.9341 35.0775 16.0349 35.1782 16.0349 35.3093V37.0831C16.0349 37.204 15.9341 37.3149 15.8031 37.3149Z" fill="#000139"/>
<path d="M14.6239 34.3619H12.8501C12.7191 34.3619 12.6183 34.2611 12.6183 34.1301C12.6183 33.999 12.7191 33.8983 12.8501 33.8983H14.6239C14.7549 33.8983 14.8557 33.999 14.8557 34.1301C14.8557 34.2611 14.7549 34.3619 14.6239 34.3619Z" fill="#000139"/>
<path d="M18.7561 34.3619H16.9823C16.8513 34.3619 16.7505 34.2611 16.7505 34.1301C16.7505 33.999 16.8513 33.8983 16.9823 33.8983H18.7561C18.8871 33.8983 18.9879 33.999 18.9879 34.1301C18.9879 34.2611 18.8871 34.3619 18.7561 34.3619Z" fill="#000139"/>
<path d="M176.918 117.802C176.888 117.802 176.858 117.792 176.827 117.782C176.717 117.731 176.656 117.59 176.717 117.479C183.016 103.49 184.618 86.8709 181.363 69.4048C181.343 69.2839 181.423 69.163 181.544 69.1428C181.665 69.1226 181.786 69.2033 181.806 69.3242C185.082 86.8709 183.459 103.591 177.13 117.671C177.089 117.751 176.999 117.802 176.918 117.802Z" fill="#000139"/>
<path d="M180.869 117.449C180.839 117.449 180.808 117.439 180.788 117.429C180.667 117.379 180.617 117.248 180.657 117.127C184.679 107.098 186.462 95.9516 185.928 83.9884C185.918 83.8574 186.019 83.7566 186.15 83.7465C186.271 83.7365 186.382 83.8373 186.392 83.9683C186.916 96.002 185.132 107.209 181.081 117.298C181.05 117.399 180.96 117.449 180.869 117.449Z" fill="#000139"/>
<path d="M105.965 153.006C105.119 153.006 104.262 152.996 103.436 152.976C103.305 152.976 103.214 152.865 103.214 152.744C103.214 152.613 103.325 152.522 103.446 152.522C104.282 152.542 105.129 152.553 105.965 152.553H106.177C106.298 152.553 106.409 152.653 106.409 152.784C106.409 152.915 106.308 153.016 106.177 153.016L105.965 153.006ZM108.918 152.966C108.797 152.966 108.697 152.865 108.687 152.744C108.687 152.613 108.787 152.512 108.908 152.512C109.815 152.492 110.733 152.452 111.64 152.401C111.771 152.391 111.871 152.492 111.882 152.613C111.892 152.744 111.791 152.845 111.67 152.855C110.753 152.905 109.836 152.936 108.918 152.966C108.928 152.966 108.918 152.966 108.918 152.966ZM100.694 152.875H100.684C99.7772 152.825 98.85 152.774 97.9429 152.704C97.822 152.694 97.7212 152.583 97.7313 152.462C97.7414 152.341 97.8522 152.24 97.9732 152.25C98.8802 152.321 99.7974 152.381 100.704 152.422C100.835 152.432 100.926 152.532 100.926 152.663C100.916 152.774 100.815 152.875 100.694 152.875ZM114.391 152.673C114.27 152.673 114.169 152.583 114.159 152.462C114.149 152.341 114.24 152.23 114.371 152.22C115.278 152.149 116.195 152.069 117.092 151.968C117.223 151.958 117.334 152.049 117.344 152.17C117.354 152.29 117.263 152.411 117.142 152.422C116.235 152.512 115.318 152.603 114.401 152.673C114.401 152.673 114.401 152.673 114.391 152.673ZM95.2318 152.442C95.2217 152.442 95.2117 152.442 95.2117 152.442C94.3046 152.341 93.3874 152.23 92.4804 152.109C92.3594 152.089 92.2687 151.978 92.2889 151.847C92.309 151.726 92.4199 151.635 92.5509 151.656C93.4479 151.776 94.3651 151.887 95.262 151.988C95.383 151.998 95.4737 152.109 95.4636 152.24C95.4435 152.361 95.3427 152.442 95.2318 152.442ZM119.854 152.109C119.743 152.109 119.642 152.028 119.632 151.908C119.612 151.787 119.702 151.666 119.833 151.656C120.741 151.535 121.658 151.414 122.545 151.273C122.665 151.252 122.786 151.343 122.807 151.464C122.827 151.585 122.736 151.706 122.615 151.726C121.718 151.867 120.801 151.998 119.894 152.109C119.874 152.109 119.864 152.109 119.854 152.109ZM89.7995 151.706C89.7894 151.706 89.7793 151.706 89.7592 151.706C88.8521 151.555 87.945 151.394 87.0581 151.212C86.9372 151.192 86.8566 151.071 86.8767 150.94C86.8969 150.819 87.0178 150.738 87.1489 150.759C88.0358 150.93 88.9428 151.101 89.8398 151.252C89.9608 151.273 90.0515 151.394 90.0313 151.514C90.0011 151.625 89.9003 151.706 89.7995 151.706ZM125.276 151.273C125.165 151.273 125.074 151.192 125.054 151.081C125.034 150.96 125.115 150.839 125.236 150.819C126.133 150.658 127.04 150.486 127.926 150.295C128.047 150.275 128.168 150.345 128.199 150.476C128.229 150.597 128.148 150.718 128.017 150.748C127.13 150.93 126.213 151.111 125.316 151.273C125.306 151.273 125.286 151.273 125.276 151.273ZM84.4176 150.638C84.3974 150.638 84.3873 150.638 84.3672 150.628C83.4702 150.416 82.5732 150.194 81.6964 149.952C81.5754 149.922 81.5049 149.791 81.5351 149.67C81.5654 149.549 81.6964 149.479 81.8173 149.509C82.6841 149.741 83.5811 149.972 84.468 150.174C84.5889 150.204 84.6695 150.325 84.6393 150.446C84.6191 150.557 84.5184 150.638 84.4176 150.638ZM130.658 150.164C130.557 150.164 130.456 150.093 130.436 149.983C130.406 149.862 130.486 149.741 130.607 149.71C131.494 149.499 132.391 149.277 133.268 149.055C133.389 149.025 133.52 149.096 133.55 149.217C133.581 149.337 133.51 149.469 133.389 149.499C132.512 149.731 131.615 149.952 130.718 150.164C130.688 150.164 130.678 150.164 130.658 150.164ZM79.1264 149.196C79.1062 149.196 79.086 149.196 79.0558 149.186C78.1689 148.914 77.2921 148.622 76.4455 148.32C76.3245 148.279 76.2641 148.148 76.3044 148.027C76.3447 147.906 76.4757 147.846 76.5967 147.886C77.4432 148.189 78.3201 148.471 79.1969 148.743C79.3178 148.783 79.3884 148.904 79.3481 149.025C79.3078 149.136 79.2171 149.196 79.1264 149.196ZM135.979 148.763C135.878 148.763 135.788 148.703 135.757 148.602C135.727 148.481 135.788 148.35 135.909 148.32C136.785 148.068 137.662 147.795 138.529 147.513C138.65 147.473 138.781 147.544 138.821 147.664C138.862 147.785 138.791 147.916 138.67 147.957C137.803 148.239 136.917 148.511 136.04 148.763C136.02 148.763 135.999 148.763 135.979 148.763ZM73.9561 147.372C73.9258 147.372 73.8956 147.362 73.8755 147.352C73.0188 147.009 72.1621 146.647 71.3458 146.274C71.2349 146.223 71.1845 146.082 71.2349 145.971C71.2853 145.86 71.4264 145.81 71.5372 145.86C72.3536 146.233 73.2002 146.596 74.0468 146.929C74.1677 146.979 74.2181 147.11 74.1778 147.221C74.1274 147.312 74.0468 147.372 73.9561 147.372ZM141.2 147.09C141.109 147.09 141.018 147.03 140.988 146.939C140.948 146.818 141.008 146.687 141.129 146.647C141.986 146.344 142.853 146.022 143.699 145.699C143.82 145.659 143.951 145.709 143.992 145.83C144.042 145.951 143.982 146.082 143.861 146.122C143.014 146.455 142.147 146.767 141.281 147.08C141.25 147.08 141.22 147.09 141.2 147.09ZM146.31 145.105C146.219 145.105 146.138 145.054 146.098 144.963C146.048 144.842 146.108 144.711 146.219 144.661C147.055 144.308 147.902 143.935 148.718 143.552C148.829 143.502 148.97 143.552 149.021 143.663C149.071 143.774 149.021 143.915 148.91 143.966C148.083 144.349 147.237 144.722 146.39 145.074C146.37 145.094 146.34 145.105 146.31 145.105ZM68.9571 145.105C68.9269 145.105 68.8866 145.094 68.8564 145.084C68.0501 144.671 67.2236 144.248 66.4174 143.814C66.3065 143.754 66.2662 143.613 66.3267 143.502C66.3871 143.391 66.5282 143.351 66.6391 143.411C67.4454 143.845 68.2617 144.268 69.068 144.681C69.1789 144.742 69.2293 144.873 69.1688 144.984C69.1184 145.054 69.0378 145.105 68.9571 145.105ZM151.299 142.807C151.218 142.807 151.137 142.756 151.097 142.686C151.036 142.575 151.087 142.434 151.198 142.383C152.014 141.97 152.83 141.547 153.617 141.113C153.727 141.053 153.869 141.093 153.929 141.204C153.99 141.315 153.949 141.456 153.838 141.517C153.042 141.95 152.226 142.383 151.399 142.797C151.359 142.797 151.329 142.807 151.299 142.807ZM64.1195 142.504C64.0791 142.504 64.0388 142.494 64.0086 142.474C63.2124 142.02 62.4162 141.557 61.6301 141.093C61.5192 141.033 61.489 140.892 61.5494 140.781C61.6099 140.67 61.751 140.64 61.8619 140.7C62.6379 141.164 63.4341 141.627 64.2303 142.071C64.3412 142.131 64.3815 142.272 64.321 142.383C64.2807 142.464 64.2001 142.504 64.1195 142.504ZM156.106 140.166C156.025 140.166 155.955 140.126 155.904 140.055C155.844 139.944 155.874 139.803 155.985 139.743C156.771 139.269 157.557 138.785 158.303 138.291C158.404 138.221 158.555 138.251 158.616 138.362C158.686 138.463 158.656 138.614 158.545 138.674C157.789 139.168 157.003 139.662 156.207 140.126C156.187 140.156 156.146 140.166 156.106 140.166ZM59.4027 139.702C59.3624 139.702 59.3221 139.692 59.2818 139.672C58.5057 139.188 57.7297 138.685 56.9738 138.181C56.873 138.11 56.8428 137.969 56.9133 137.868C56.9839 137.767 57.125 137.737 57.2258 137.808C57.9816 138.302 58.7577 138.805 59.5237 139.289C59.6345 139.36 59.6648 139.501 59.5942 139.602C59.5539 139.662 59.4833 139.702 59.4027 139.702ZM160.702 137.173C160.631 137.173 160.561 137.142 160.51 137.072C160.44 136.971 160.46 136.83 160.561 136.749C161.306 136.215 162.042 135.671 162.748 135.117C162.849 135.036 162.99 135.056 163.07 135.157C163.151 135.258 163.131 135.399 163.03 135.48C162.314 136.034 161.569 136.588 160.823 137.122C160.792 137.163 160.742 137.173 160.702 137.173ZM54.8271 136.679C54.7868 136.679 54.7364 136.669 54.6961 136.639C53.9502 136.114 53.1944 135.58 52.4586 135.046C52.3578 134.976 52.3377 134.824 52.4082 134.724C52.4788 134.623 52.63 134.603 52.7307 134.673C53.4665 135.207 54.2123 135.742 54.9581 136.256C55.0589 136.326 55.0891 136.467 55.0186 136.578C54.9783 136.649 54.9077 136.679 54.8271 136.679ZM165.025 133.796C164.965 133.796 164.894 133.766 164.854 133.716C164.773 133.615 164.784 133.474 164.874 133.393C165.57 132.799 166.255 132.184 166.91 131.569C167.001 131.478 167.142 131.488 167.233 131.579C167.323 131.67 167.313 131.811 167.223 131.902C166.567 132.527 165.872 133.141 165.177 133.746C165.126 133.776 165.076 133.796 165.025 133.796ZM50.4026 133.444C50.3522 133.444 50.3018 133.424 50.2615 133.393C49.5359 132.839 48.8102 132.264 48.1047 131.69C48.0039 131.609 47.9938 131.468 48.0745 131.368C48.1551 131.267 48.2962 131.257 48.397 131.337C49.1025 131.912 49.8281 132.476 50.5437 133.03C50.6445 133.111 50.6646 133.252 50.584 133.353C50.5437 133.413 50.4732 133.444 50.4026 133.444ZM169.006 130.037C168.946 130.037 168.896 130.017 168.845 129.977C168.755 129.886 168.755 129.745 168.835 129.654C169.47 128.989 170.085 128.314 170.669 127.628C170.75 127.538 170.891 127.518 170.992 127.608C171.093 127.689 171.103 127.83 171.012 127.931C170.428 128.616 169.803 129.311 169.168 129.977C169.127 130.007 169.067 130.037 169.006 130.037ZM46.1495 129.997C46.0991 129.997 46.0487 129.977 45.9983 129.946C45.3029 129.352 44.6075 128.747 43.9322 128.142C43.8415 128.062 43.8314 127.911 43.9121 127.82C43.9927 127.729 44.1439 127.719 44.2346 127.8C44.9098 128.404 45.6052 129.009 46.2906 129.594C46.3914 129.674 46.4014 129.815 46.3208 129.916C46.2704 129.977 46.2099 129.997 46.1495 129.997ZM42.0677 126.338C42.0072 126.338 41.9568 126.318 41.9064 126.278C41.2412 125.653 40.5861 125.008 39.9411 124.363C39.8504 124.272 39.8504 124.131 39.9411 124.04C40.0318 123.95 40.1729 123.95 40.2636 124.04C40.8986 124.675 41.5638 125.32 42.2189 125.945C42.3096 126.036 42.3096 126.177 42.2289 126.268C42.1886 126.318 42.1282 126.338 42.0677 126.338ZM172.564 125.865C172.514 125.865 172.463 125.844 172.423 125.814C172.322 125.734 172.302 125.593 172.383 125.492C172.937 124.766 173.471 124.02 173.965 123.264C174.036 123.164 174.177 123.133 174.278 123.204C174.378 123.274 174.409 123.416 174.338 123.516C173.834 124.272 173.29 125.028 172.736 125.764C172.705 125.834 172.635 125.865 172.564 125.865ZM38.1975 122.468C38.1371 122.468 38.0766 122.448 38.0363 122.398C37.4114 121.732 36.7865 121.057 36.1818 120.382C36.1012 120.291 36.1012 120.14 36.202 120.059C36.2927 119.979 36.4439 119.979 36.5245 120.08C37.1292 120.755 37.744 121.43 38.3689 122.095C38.4596 122.186 38.4495 122.327 38.3588 122.418C38.3084 122.448 38.258 122.468 38.1975 122.468ZM34.5491 118.386C34.4886 118.386 34.4181 118.356 34.3778 118.306C33.7932 117.61 33.2087 116.895 32.6443 116.179C32.5637 116.078 32.5838 115.937 32.6846 115.857C32.7854 115.776 32.9265 115.796 33.0071 115.897C33.5614 116.603 34.146 117.318 34.7305 118.013C34.8112 118.114 34.8011 118.255 34.7003 118.336C34.66 118.366 34.6096 118.386 34.5491 118.386ZM31.1627 114.093C31.0922 114.093 31.0216 114.063 30.9813 114.002C30.4371 113.267 29.9029 112.511 29.3889 111.765C29.3184 111.664 29.3385 111.523 29.4494 111.442C29.5502 111.372 29.6913 111.392 29.7719 111.503C30.2859 112.249 30.8201 112.994 31.3542 113.72C31.4248 113.821 31.4046 113.962 31.3038 114.043C31.2534 114.073 31.2131 114.093 31.1627 114.093ZM28.0586 109.578C27.988 109.578 27.9074 109.537 27.8671 109.477C27.3732 108.711 26.8895 107.925 26.4258 107.139C26.3654 107.028 26.3956 106.887 26.5065 106.826C26.6173 106.766 26.7584 106.796 26.8189 106.907C27.2825 107.683 27.7663 108.459 28.2501 109.225C28.3206 109.336 28.2904 109.477 28.1795 109.537C28.1392 109.568 28.0989 109.578 28.0586 109.578ZM25.2668 104.871C25.1862 104.871 25.1056 104.831 25.0652 104.75C24.6319 103.944 24.1985 103.128 23.7954 102.311C23.7349 102.2 23.7853 102.059 23.8961 102.009C24.007 101.948 24.1481 101.999 24.1985 102.11C24.6016 102.916 25.0249 103.732 25.4583 104.528C25.5188 104.639 25.4785 104.78 25.3676 104.841C25.3374 104.861 25.297 104.871 25.2668 104.871ZM22.8177 99.973C22.727 99.973 22.6464 99.9226 22.6061 99.8419C22.2332 99.0054 21.8603 98.1588 21.5277 97.3122C21.4773 97.1913 21.5378 97.0603 21.6486 97.0099C21.7696 96.9595 21.9006 97.02 21.951 97.1308C22.2937 97.9673 22.6565 98.8139 23.0294 99.6404C23.0798 99.7512 23.0294 99.8923 22.9185 99.9427C22.8883 99.9629 22.848 99.973 22.8177 99.973ZM20.7617 94.8934C20.671 94.8934 20.5803 94.8329 20.5501 94.7422C20.2376 93.8755 19.9454 92.9986 19.6732 92.1319C19.6329 92.0109 19.7035 91.8799 19.8244 91.8497C19.9454 91.8094 20.0764 91.8799 20.1066 92.0009C20.3787 92.8575 20.671 93.7344 20.9834 94.591C21.0238 94.712 20.9633 94.843 20.8423 94.8833C20.8121 94.8934 20.7819 94.8934 20.7617 94.8934ZM19.1189 89.6626C19.0181 89.6626 18.9274 89.5921 18.8972 89.4913C18.6553 88.6044 18.4336 87.7074 18.2421 86.8205C18.2119 86.6996 18.2925 86.5786 18.4134 86.5484C18.5344 86.5182 18.6553 86.5988 18.6855 86.7197C18.8871 87.6066 19.0988 88.4935 19.3407 89.3804C19.3709 89.5014 19.3003 89.6324 19.1794 89.6626C19.1592 89.6626 19.1391 89.6626 19.1189 89.6626ZM17.9196 84.3009C17.8087 84.3009 17.718 84.2203 17.6979 84.1094C17.5366 83.2124 17.3955 82.2953 17.2746 81.3882C17.2544 81.2673 17.3451 81.1463 17.466 81.1362C17.587 81.1161 17.7079 81.2068 17.718 81.3277C17.839 82.2247 17.9801 83.1418 18.1413 84.0288C18.1615 84.1497 18.0808 84.2706 17.9599 84.2908C17.9498 84.3009 17.9297 84.3009 17.9196 84.3009ZM17.1939 78.8585C17.073 78.8585 16.9722 78.7678 16.9621 78.6468C16.8815 77.7398 16.821 76.8125 16.7807 75.9055C16.7706 75.7745 16.8714 75.6737 17.0024 75.6636C17.1234 75.6535 17.2342 75.7543 17.2443 75.8853C17.2846 76.7924 17.3451 77.7095 17.4257 78.6065C17.4358 78.7275 17.3451 78.8484 17.2141 78.8585C17.204 78.8585 17.204 78.8585 17.1939 78.8585ZM16.942 73.3859C16.8109 73.3859 16.7102 73.2851 16.7102 73.1541V73.0734C16.7102 72.1865 16.7303 71.2895 16.7706 70.4026C16.7807 70.2716 16.8916 70.1809 17.0125 70.1809C17.1435 70.191 17.2342 70.2918 17.2342 70.4228C17.1939 71.2996 17.1738 72.1966 17.1738 73.0734V73.1541C17.1738 73.2851 17.073 73.3859 16.942 73.3859ZM17.1738 67.9031C17.1637 67.9031 17.1637 67.9031 17.1536 67.9031C17.0327 67.8931 16.9319 67.7822 16.942 67.6512C17.0125 66.8147 17.1032 65.958 17.204 65.1215L17.2342 64.9098C17.2544 64.7889 17.3653 64.6982 17.4862 64.7083C17.6071 64.7284 17.6979 64.8393 17.6878 64.9602L17.6575 65.1618C17.5568 65.9983 17.466 66.8449 17.3955 67.6713C17.3955 67.8124 17.2947 67.9031 17.1738 67.9031ZM17.8793 62.4708C17.8692 62.4708 17.849 62.4708 17.839 62.4708C17.718 62.4507 17.6273 62.3297 17.6575 62.2088C17.8087 61.3219 17.9901 60.4148 18.1816 59.5078C18.2119 59.3868 18.3328 59.3062 18.4537 59.3364C18.5747 59.3667 18.6553 59.4876 18.6251 59.6085C18.4336 60.5055 18.2522 61.4126 18.101 62.2894C18.0909 62.3902 17.9901 62.4708 17.8793 62.4708ZM19.0383 57.099C19.0181 57.099 18.998 57.099 18.9778 57.0889C18.8569 57.0587 18.7863 56.9377 18.8166 56.8067C19.0383 55.9299 19.2903 55.0329 19.5422 54.1561C19.5825 54.0351 19.7035 53.9646 19.8244 54.0049C19.9454 54.0452 20.0159 54.1661 19.9756 54.2871C19.7136 55.1639 19.4717 56.0508 19.2499 56.9277C19.2298 57.0385 19.1391 57.099 19.0383 57.099ZM20.5904 51.838C20.5702 51.838 20.54 51.838 20.5198 51.8279C20.3989 51.7876 20.3384 51.6566 20.3787 51.5357C20.671 50.6689 20.9834 49.7921 21.2959 48.9455C21.3362 48.8245 21.4773 48.7641 21.5882 48.8145C21.7091 48.8548 21.7696 48.9858 21.7192 49.1067C21.3967 49.9533 21.0943 50.8201 20.802 51.6868C20.7718 51.7775 20.6811 51.838 20.5904 51.838ZM22.5255 46.708C22.4952 46.708 22.465 46.698 22.4348 46.6879C22.3138 46.6375 22.2634 46.5065 22.3138 46.3855C22.6766 45.5289 23.0495 44.6823 23.4325 43.8659C23.4829 43.755 23.624 43.7047 23.7349 43.755C23.8457 43.8054 23.8961 43.9465 23.8457 44.0574C23.4628 44.8637 23.0899 45.7103 22.727 46.5569C22.6968 46.6476 22.6162 46.708 22.5255 46.708ZM24.8637 41.7494C24.8234 41.7494 24.7931 41.7393 24.7528 41.7192C24.6419 41.6587 24.6016 41.5176 24.6621 41.4068C25.1056 40.5803 25.5591 39.774 26.0227 39.0081C26.0832 38.8972 26.2243 38.867 26.3351 38.9274C26.446 38.9879 26.4762 39.129 26.4158 39.2399C25.9622 39.9958 25.5087 40.792 25.0753 41.6184C25.0249 41.699 24.9544 41.7494 24.8637 41.7494ZM27.7058 37.0528C27.6655 37.0528 27.6151 37.0428 27.5748 37.0125C27.474 36.942 27.4438 36.8009 27.5143 36.69C28.0586 35.9039 28.6129 35.1682 29.1773 34.4828C29.2579 34.382 29.399 34.372 29.4998 34.4526C29.6006 34.5332 29.6106 34.6743 29.53 34.7751C28.9757 35.4504 28.4315 36.1861 27.8973 36.9521C27.8469 37.0226 27.7764 37.0528 27.7058 37.0528Z" fill="#000139"/>
<path d="M52.116 14.1646C52.0454 14.1646 51.9749 14.1343 51.9345 14.0738C51.864 13.9731 51.8841 13.832 51.9849 13.7513C52.7106 13.2172 53.4766 12.683 54.2425 12.1791C54.3433 12.1085 54.4945 12.1388 54.555 12.2396C54.6255 12.3403 54.5953 12.4915 54.4945 12.552C53.7285 13.0559 52.9827 13.58 52.2571 14.1142C52.2167 14.1444 52.1663 14.1646 52.116 14.1646ZM56.6916 11.1309C56.611 11.1309 56.5404 11.0906 56.49 11.0201C56.4296 10.9092 56.4598 10.7681 56.5707 10.7076C57.3467 10.244 58.153 9.79048 58.9693 9.35711C59.0802 9.29664 59.2213 9.33695 59.2818 9.44781C59.3422 9.55868 59.3019 9.69978 59.1911 9.76025C58.3848 10.1936 57.5886 10.6472 56.8125 11.1007C56.7722 11.1208 56.7319 11.1309 56.6916 11.1309ZM133.308 9.47805C133.278 9.47805 133.248 9.46797 133.218 9.45789C132.391 9.07491 131.545 8.71208 130.708 8.35933C130.587 8.30894 130.537 8.17792 130.587 8.05698C130.638 7.93604 130.769 7.88564 130.89 7.93604C131.726 8.28878 132.573 8.66169 133.409 9.04467C133.52 9.09507 133.57 9.23616 133.52 9.34703C133.48 9.42766 133.389 9.47805 133.308 9.47805ZM61.5293 8.54075C61.4487 8.54075 61.3579 8.49036 61.3277 8.40973C61.2773 8.29886 61.3176 8.15776 61.4386 8.10737C62.2549 7.71431 63.1015 7.33133 63.938 6.95842C64.0489 6.90803 64.19 6.95842 64.2404 7.07936C64.2908 7.19023 64.2404 7.33133 64.1195 7.38172C63.2829 7.74455 62.4464 8.12753 61.6301 8.52059C61.5898 8.53067 61.5595 8.54075 61.5293 8.54075ZM128.249 7.3414C128.219 7.3414 128.189 7.34141 128.168 7.32125C127.322 6.98866 126.465 6.67622 125.608 6.36379C125.487 6.32348 125.427 6.19246 125.467 6.07151C125.508 5.95057 125.639 5.8901 125.76 5.93041C126.616 6.23277 127.483 6.55528 128.34 6.88787C128.461 6.93826 128.511 7.06929 128.471 7.18015C128.43 7.29101 128.34 7.3414 128.249 7.3414ZM66.5585 6.36379C66.4678 6.36379 66.377 6.3134 66.3468 6.22269C66.2964 6.10175 66.3569 5.97073 66.4778 5.93041C67.3244 5.59782 68.1912 5.28539 69.0579 4.98303C69.1789 4.94272 69.3099 5.00319 69.3502 5.12413C69.3905 5.24508 69.33 5.3761 69.2091 5.41641C68.3424 5.70869 67.4857 6.0312 66.6391 6.35371C66.6088 6.35371 66.5887 6.36379 66.5585 6.36379ZM123.089 5.50712C123.069 5.50712 123.038 5.50712 123.018 5.49704C122.151 5.21484 121.275 4.9528 120.398 4.69076C120.277 4.66052 120.206 4.5295 120.247 4.40856C120.277 4.28762 120.408 4.21707 120.529 4.25738C121.406 4.50934 122.293 4.78146 123.159 5.06366C123.28 5.10398 123.341 5.235 123.311 5.35594C123.27 5.44665 123.18 5.50712 123.089 5.50712ZM71.7489 4.57989C71.6481 4.57989 71.5574 4.51942 71.5272 4.41864C71.4868 4.2977 71.5574 4.16668 71.6783 4.13644C72.5552 3.8744 73.4421 3.62244 74.329 3.39063C74.4499 3.36039 74.5809 3.43094 74.6112 3.55189C74.6414 3.67283 74.5709 3.80385 74.4499 3.83408C73.5731 4.06589 72.6862 4.31785 71.8194 4.57989C71.7892 4.56982 71.769 4.57989 71.7489 4.57989ZM117.818 3.97518C117.798 3.97518 117.777 3.97518 117.757 3.96511C116.88 3.7333 115.983 3.52165 115.097 3.32008C114.976 3.28985 114.895 3.1689 114.925 3.04796C114.955 2.92702 115.076 2.84639 115.197 2.87663C116.084 3.0782 116.991 3.29992 117.868 3.52165C117.989 3.55189 118.06 3.68291 118.029 3.80385C118.009 3.90463 117.919 3.97518 117.818 3.97518ZM77.0502 3.1689C76.9494 3.1689 76.8486 3.09835 76.8285 2.98749C76.7982 2.86655 76.8788 2.74561 76.9998 2.71537C77.8867 2.5138 78.7938 2.32231 79.6908 2.15097C79.8117 2.13082 79.9326 2.21145 79.9629 2.33239C79.983 2.45333 79.9024 2.57427 79.7815 2.60451C78.8845 2.77584 77.9875 2.96733 77.1006 3.1689C77.0804 3.1689 77.0603 3.1689 77.0502 3.1689ZM112.466 2.76576C112.456 2.76576 112.436 2.76576 112.426 2.76576C111.529 2.59443 110.622 2.43317 109.735 2.28199C109.614 2.26184 109.523 2.1409 109.543 2.01995C109.563 1.89901 109.684 1.8083 109.805 1.82846C110.702 1.96956 111.609 2.1409 112.516 2.31223C112.637 2.33239 112.718 2.45333 112.698 2.58435C112.668 2.69521 112.567 2.76576 112.466 2.76576ZM82.4321 2.1409C82.3212 2.1409 82.2205 2.06027 82.2104 1.9494C82.1902 1.82846 82.2809 1.70752 82.4019 1.68736C83.3089 1.54626 84.216 1.41524 85.1231 1.30438C85.244 1.28422 85.3649 1.37493 85.375 1.50595C85.3952 1.62689 85.3045 1.74783 85.1735 1.75791C84.2765 1.86878 83.3593 1.9998 82.4623 2.1409C82.4623 2.1409 82.4422 2.1409 82.4321 2.1409ZM107.044 1.88893C107.034 1.88893 107.024 1.88893 107.014 1.88893C106.107 1.76799 105.199 1.66721 104.292 1.5765C104.171 1.56642 104.071 1.45556 104.091 1.32454C104.101 1.20359 104.212 1.11289 104.343 1.12297C105.25 1.21367 106.167 1.32454 107.074 1.4354C107.195 1.45556 107.286 1.56642 107.276 1.68736C107.255 1.79823 107.155 1.88893 107.044 1.88893ZM87.8846 1.46564C87.7636 1.46564 87.6629 1.37493 87.6528 1.25399C87.6427 1.13304 87.7334 1.0121 87.8644 1.00202C88.7715 0.921396 89.6987 0.850847 90.6058 0.800454C90.7368 0.800454 90.8376 0.891161 90.8477 1.0121C90.8577 1.14312 90.7569 1.24391 90.636 1.25399C89.7289 1.30438 88.8118 1.37493 87.9047 1.45556C87.8947 1.46564 87.8846 1.46564 87.8846 1.46564ZM101.581 1.33462C101.571 1.33462 101.571 1.33462 101.561 1.33462C100.654 1.27414 99.7369 1.22375 98.8298 1.18344C98.6988 1.18344 98.6081 1.07257 98.6081 0.941553C98.6081 0.810533 98.719 0.709748 98.85 0.719826C99.7571 0.750062 100.684 0.800454 101.601 0.871004C101.722 0.881082 101.823 0.991946 101.813 1.11289C101.803 1.24391 101.702 1.33462 101.581 1.33462ZM93.3572 1.1532C93.2363 1.1532 93.1355 1.05242 93.1254 0.931475C93.1254 0.800454 93.2262 0.699669 93.3471 0.699669C94.103 0.679512 94.8589 0.669434 95.6148 0.669434C95.776 0.669434 95.9373 0.669434 96.0986 0.669434C96.2296 0.669434 96.3304 0.770219 96.3304 0.901239C96.3304 1.03226 96.2296 1.12297 96.0986 1.13304C95.9171 1.13304 95.7257 1.13304 95.5442 1.13304C94.8186 1.12297 94.0929 1.13304 93.3572 1.1532Z" fill="#000139"/>
</svg>
