<svg width="190" height="194" viewBox="0 0 190 194" fill="none" xmlns="http://www.w3.org/2000/svg">
<path d="M174.061 181.356C174.061 181.356 178.921 179.837 186.869 164.397C193.584 151.361 187.597 138.758 186.395 130.331C186.268 129.466 185.098 129.35 184.803 130.162C182.79 135.826 179.553 146.119 180.07 152.458C180.829 161.602 174.061 181.356 174.061 181.356Z" fill="#000139"/>
<path d="M179.321 172.919L181.05 159.229C181.799 153.291 180.829 147.259 178.257 141.859C174.504 134.001 174.209 124.91 177.445 116.81L180.228 109.87C180.576 108.995 179.459 108.278 178.826 108.974L174.926 113.266C166.071 123.012 163.088 136.807 167.093 149.389L174.283 171.938L179.321 172.919Z" fill="white"/>
<path d="M179.321 173.151C179.311 173.151 179.29 173.151 179.279 173.151L174.24 172.18C174.156 172.159 174.093 172.107 174.061 172.022L166.872 149.473C162.845 136.838 165.86 122.906 174.746 113.119L178.647 108.826C179.058 108.373 179.627 108.404 180.007 108.636C180.386 108.879 180.671 109.375 180.439 109.965L177.656 116.916C174.451 124.931 174.746 133.991 178.457 141.774C181.061 147.227 182.031 153.27 181.272 159.271L179.543 172.961C179.532 173.024 179.501 173.087 179.448 173.119C179.416 173.13 179.374 173.151 179.321 173.151ZM174.462 171.748L179.121 172.645L180.818 159.208C181.567 153.302 180.608 147.332 178.046 141.975C174.272 134.075 173.977 124.878 177.224 116.747L180.007 109.797C180.154 109.438 179.965 109.164 179.764 109.037C179.564 108.911 179.248 108.868 178.995 109.143L175.094 113.435C166.313 123.096 163.341 136.849 167.315 149.336L174.462 171.748Z" fill="#000139"/>
<path d="M177.097 173.362L171.089 158.027C169.381 153.66 165.786 150.328 161.338 148.988L157.248 147.744C156.257 147.438 155.593 148.756 156.404 149.399L158.924 151.361C161.643 153.481 163.277 156.74 163.351 160.21C163.393 162.256 163.973 164.239 165.038 165.979L169.107 172.655L177.097 173.362Z" fill="#000139"/>
<path d="M176.201 166.39C176.191 166.39 176.191 166.39 176.18 166.39C176.054 166.38 175.959 166.264 175.969 166.137C176.886 156.35 174.915 150.043 173.186 144.485C172.385 141.911 171.626 139.486 171.173 136.87C169.054 124.541 176.286 113.846 176.359 113.741C176.433 113.636 176.581 113.604 176.686 113.678C176.792 113.752 176.823 113.899 176.749 114.005C176.676 114.11 169.55 124.657 171.637 136.796C172.079 139.38 172.838 141.795 173.629 144.348C175.379 149.948 177.361 156.297 176.433 166.19C176.423 166.306 176.328 166.39 176.201 166.39Z" fill="#000139"/>
<path d="M184.202 159.841C184.192 159.841 184.181 159.841 184.16 159.841C184.034 159.82 183.949 159.704 183.97 159.577C185.604 149.906 185.035 135.014 185.035 134.866C185.035 134.74 185.13 134.634 185.256 134.624C185.383 134.613 185.488 134.718 185.499 134.845C185.509 134.993 186.068 149.927 184.434 159.651C184.402 159.767 184.308 159.841 184.202 159.841Z" fill="white"/>
<path d="M169.866 167.856C169.739 167.856 169.634 167.751 169.634 167.624C169.518 155.59 159.904 150.296 159.809 150.243C159.693 150.18 159.651 150.043 159.714 149.927C159.778 149.811 159.915 149.769 160.031 149.832C160.125 149.885 169.982 155.306 170.098 167.614C170.098 167.751 170.003 167.856 169.866 167.856Z" fill="white"/>
<path d="M171.173 145.318C171.099 145.318 171.036 145.286 170.994 145.234C168.39 141.89 167.23 137.355 167.22 137.313C167.188 137.186 167.262 137.06 167.388 137.028C167.515 136.997 167.641 137.07 167.673 137.197C167.684 137.239 168.822 141.679 171.363 144.949C171.436 145.054 171.426 145.191 171.32 145.276C171.268 145.297 171.226 145.318 171.173 145.318Z" fill="#000139"/>
<path d="M175.537 191.281C169.202 191.281 164.057 186.144 164.057 179.795V169.544H187.006V179.795C187.006 186.134 181.873 191.281 175.537 191.281Z" fill="white"/>
<path d="M175.537 191.513C169.086 191.513 163.826 186.26 163.826 179.795V169.544C163.826 169.417 163.931 169.312 164.057 169.312H187.006C187.133 169.312 187.238 169.417 187.238 169.544V179.795C187.249 186.26 181.989 191.513 175.537 191.513ZM164.289 169.776V179.795C164.289 185.997 169.339 191.049 175.537 191.049C181.736 191.049 186.785 185.997 186.785 179.795V169.776H164.289Z" fill="#000139"/>
<path d="M184.761 173.615H166.303C166.176 173.615 166.071 173.509 166.071 173.383C166.071 173.256 166.176 173.151 166.303 173.151H184.761C184.887 173.151 184.993 173.256 184.993 173.383C184.993 173.509 184.887 173.615 184.761 173.615Z" fill="#000139"/>
<path d="M187.365 114.226H187.354C187.228 114.216 187.133 114.11 187.133 113.984C188.166 96.6869 182.621 79.443 171.521 65.4053C171.436 65.2998 171.458 65.1627 171.563 65.0784C171.668 64.994 171.805 65.0151 171.89 65.1205C177.382 72.0603 181.525 79.7172 184.213 87.8909C186.996 96.3494 188.134 105.135 187.607 114.015C187.597 114.131 187.491 114.226 187.365 114.226Z" fill="#000139"/>
<path d="M184.012 104.122C183.897 104.122 183.791 104.038 183.781 103.911C182.726 93.3647 179.321 83.3031 173.671 74.022C173.608 73.9165 173.64 73.7689 173.745 73.7056C173.85 73.6423 173.998 73.6739 174.061 73.7794C179.754 83.1238 183.18 93.2381 184.244 103.859C184.255 103.985 184.16 104.101 184.034 104.112C184.023 104.122 184.023 104.122 184.012 104.122Z" fill="#000139"/>
<path d="M145.673 32.0038C144.64 31.2761 144.387 29.8417 145.125 28.8081C145.863 27.7745 147.286 27.5214 148.319 28.2597C149.352 28.9874 149.605 30.4218 148.867 31.4554C148.14 32.4889 146.706 32.7315 145.673 32.0038Z" fill="#000139"/>
<path d="M149.173 39.0174C148.14 38.2896 147.887 36.8553 148.625 35.8217C149.352 34.7881 150.786 34.535 151.819 35.2733C152.852 36.001 153.105 37.4354 152.367 38.4689C151.629 39.5025 150.216 39.7451 149.173 39.0174Z" fill="#000139"/>
<path d="M0.864421 106.485C0.748465 106.485 0.653591 106.4 0.632508 106.284C-0.54814 97.1615 -0.0632311 88.6925 2.08723 81.1305C2.11886 81.0039 2.24536 80.9301 2.37186 80.9723C2.49835 81.0039 2.5616 81.141 2.52998 81.2571C0.400595 88.7663 -0.0843139 97.1615 1.08579 106.221C1.10688 106.348 1.012 106.464 0.885504 106.485C0.874963 106.485 0.864421 106.485 0.864421 106.485Z" fill="#000139"/>
<path d="M2.83567 98.0475C2.69863 98.0475 2.60376 97.942 2.60376 97.8154C2.7408 90.2007 3.91091 83.1027 6.093 76.7325C6.13516 76.6059 6.26166 76.5427 6.38816 76.5848C6.51466 76.627 6.57791 76.7536 6.53574 76.8802C4.36419 83.2082 3.20463 90.2429 3.06759 97.8154C3.06759 97.942 2.96217 98.0475 2.83567 98.0475Z" fill="#000139"/>
<path d="M12.7553 60.6382C12.3547 60.6382 11.9541 60.5116 11.6168 60.248C11.2267 59.9421 10.9737 59.5097 10.9105 59.014C10.8472 58.5183 10.9843 58.0331 11.29 57.6429C11.5957 57.2527 12.0279 56.9996 12.5233 56.9363C13.0188 56.873 13.5037 57.0101 13.8937 57.316C14.2838 57.6218 14.5368 58.0542 14.6 58.5499C14.6633 59.0456 14.5262 59.5308 14.2205 59.921C13.8516 60.3851 13.314 60.6382 12.7553 60.6382ZM12.7553 57.3898C12.7025 57.3898 12.6393 57.3898 12.576 57.4003C12.2071 57.4425 11.8803 57.6324 11.6484 57.9277C11.4165 58.223 11.3216 58.5816 11.3638 58.9507C11.4059 59.3198 11.5957 59.6468 11.8909 59.8788C12.4917 60.3534 13.3772 60.2374 13.841 59.6362C14.0729 59.3409 14.1678 58.9823 14.1257 58.6132C14.0835 58.2441 13.8937 57.9171 13.5986 57.6851C13.3667 57.4847 13.0715 57.3898 12.7553 57.3898Z" fill="#000139"/>
<path d="M9.56114 65.0995C8.79161 65.0995 8.12749 64.5299 8.03262 63.7495C7.97991 63.3381 8.09587 62.9374 8.34886 62.6104C8.60186 62.2835 8.97081 62.0725 9.37139 62.0303C9.78251 61.9776 10.1831 62.0936 10.5099 62.3468C10.8367 62.5999 11.0369 62.969 11.0897 63.3698C11.1424 63.7811 11.0264 64.1819 10.7734 64.5088C10.5204 64.8358 10.1515 65.0467 9.75088 65.0889C9.68763 65.0889 9.62438 65.0995 9.56114 65.0995ZM9.56114 62.4733C9.51897 62.4733 9.46626 62.4733 9.4241 62.4839C9.13948 62.5155 8.88648 62.6632 8.70727 62.8952C8.52807 63.1272 8.45428 63.4014 8.4859 63.6862C8.55969 64.2768 9.09731 64.6987 9.68763 64.6249C9.97225 64.5932 10.2253 64.4456 10.4045 64.2135C10.5837 63.9815 10.6575 63.7073 10.6258 63.4225C10.5942 63.1378 10.4466 62.8846 10.2147 62.7053C10.0355 62.5577 9.80359 62.4733 9.56114 62.4733Z" fill="#000139"/>
<path d="M40.627 74.3911C40.5005 74.3911 40.3951 74.2857 40.3951 74.1591L40.4056 73.02C40.4056 72.8935 40.511 72.788 40.6375 72.788C40.764 72.788 40.8694 72.8935 40.8694 73.02L40.8589 74.1591C40.8589 74.2857 40.7535 74.3911 40.627 74.3911Z" fill="#000139"/>
<path d="M40.5954 78.3883C40.4689 78.3883 40.3635 78.2829 40.3635 78.1563L40.374 77.0173C40.374 76.8907 40.4794 76.7852 40.6059 76.7852C40.7324 76.7852 40.8378 76.8907 40.8378 77.0173L40.8273 78.1563C40.8273 78.2829 40.7219 78.3883 40.5954 78.3883Z" fill="#000139"/>
<path d="M39.1933 75.8149H38.0549C37.9284 75.8149 37.8229 75.7095 37.8229 75.5829C37.8229 75.4563 37.9284 75.3509 38.0549 75.3509H39.1933C39.3198 75.3509 39.4252 75.4563 39.4252 75.5829C39.4252 75.7095 39.3198 75.8149 39.1933 75.8149Z" fill="#000139"/>
<path d="M43.1886 75.8255H42.0501C41.9236 75.8255 41.8182 75.72 41.8182 75.5935C41.8182 75.4669 41.9236 75.3614 42.0501 75.3614H43.1886C43.3151 75.3614 43.4205 75.4669 43.4205 75.5935C43.4205 75.72 43.3151 75.8255 43.1886 75.8255Z" fill="#000139"/>
<path d="M136.913 36.2119C136.903 36.2119 136.903 36.2119 136.913 36.2119C136.787 36.2119 136.681 36.1065 136.681 35.9799L136.692 34.8409C136.692 34.7143 136.797 34.6088 136.924 34.6088C137.05 34.6088 137.156 34.7143 137.156 34.8409L137.145 35.9799C137.134 36.1065 137.04 36.2119 136.913 36.2119Z" fill="#000139"/>
<path d="M136.881 40.2091C136.755 40.2091 136.65 40.1037 136.65 39.9771L136.66 38.8381C136.66 38.7115 136.765 38.606 136.892 38.606C137.018 38.606 137.124 38.7115 137.124 38.8381L137.113 39.9771C137.113 40.1037 137.008 40.2091 136.881 40.2091Z" fill="#000139"/>
<path d="M135.469 37.6357H134.33C134.204 37.6357 134.098 37.5303 134.098 37.4037C134.098 37.2772 134.204 37.1717 134.33 37.1717H135.469C135.595 37.1717 135.701 37.2772 135.701 37.4037C135.701 37.5303 135.595 37.6357 135.469 37.6357Z" fill="#000139"/>
<path d="M139.464 37.6463H138.326C138.199 37.6463 138.094 37.5408 138.094 37.4143C138.094 37.2877 138.199 37.1822 138.326 37.1822H139.464C139.591 37.1822 139.696 37.2877 139.696 37.4143C139.696 37.5408 139.591 37.6463 139.464 37.6463Z" fill="#000139"/>
<path d="M69.6793 19.3899C80.5582 9.07518 91.5635 9.54978 102.695 20.1176L106.248 11.3216C95.9488 -3.28559 73.664 -1.8196 64.2715 13.6103L69.6793 19.3899Z" fill="#000139"/>
<path d="M157.595 145.708C157.985 145.444 157.754 144.833 157.279 144.907C112.531 151.54 70.491 60.2058 71.5768 15.0235C71.6611 11.6275 73.137 8.41074 75.6669 6.23811C78.4604 3.83345 81.3172 2.46238 84.2582 2.16707C84.2582 1.80848 84.2688 1.44989 84.2793 1.0913C79.7043 1.53427 75.319 3.28502 71.1024 6.13264C66.6434 8.50566 62.3003 12.5134 59.8125 17.8395C59.0535 19.4637 58.8216 21.2567 58.7794 23.0496C57.1877 91.7194 99.7859 151.72 148.783 166.939L145.262 153.977L157.595 145.708Z" fill="white"/>
<path d="M148.793 167.171C148.772 167.171 148.751 167.171 148.72 167.16C136.555 163.384 124.759 156.898 113.68 147.87C102.695 138.927 92.9128 127.926 84.6167 115.165C76.1097 102.066 69.5212 87.6906 65.0622 72.4294C60.3607 56.3246 58.168 39.7135 58.5581 23.0496C58.6108 20.8664 58.9481 19.179 59.6122 17.7446C61.9103 12.8087 65.9477 8.62167 70.9865 5.93226C75.3401 3.00026 79.7992 1.29169 84.2688 0.859275C84.332 0.848729 84.4058 0.880369 84.448 0.922556C84.5007 0.964743 84.5218 1.03857 84.5218 1.10185C84.5112 1.44989 84.5007 1.80848 84.5007 2.16707C84.5007 2.28308 84.4058 2.38855 84.2899 2.3991C81.4331 2.68386 78.5869 4.04439 75.825 6.41741C73.3583 8.54785 71.8931 11.6908 71.8087 15.0341C71.0287 47.4548 93.0604 105.43 122.65 131.586C134.362 141.943 146 146.352 157.248 144.685C157.564 144.632 157.859 144.812 157.975 145.107C158.091 145.402 157.985 145.729 157.722 145.909L157.595 145.719L157.722 145.909L145.547 154.082L149.025 166.886C149.046 166.97 149.025 167.055 148.962 167.118C148.92 167.15 148.857 167.171 148.793 167.171ZM84.0474 1.34443C79.7465 1.80848 75.4455 3.48541 71.2395 6.31194C71.2289 6.31194 71.2289 6.32248 71.2184 6.32248C66.2639 8.95917 62.2898 13.0829 60.0339 17.9239C59.3908 19.295 59.0746 20.9192 59.0219 23.0496C57.525 87.332 96.7815 150.275 148.467 166.58L145.062 154.03C145.041 153.935 145.072 153.829 145.156 153.776L157.469 145.518C157.595 145.434 157.564 145.307 157.543 145.276C157.532 145.234 157.469 145.118 157.311 145.139C145.926 146.826 134.151 142.386 122.334 131.934C108.556 119.742 95.4639 99.9037 85.4705 76.0786C76.2362 54.0676 70.9549 31.2339 71.3554 15.013C71.4398 11.5326 72.9578 8.26308 75.5299 6.05882C78.2918 3.67525 81.159 2.29363 84.0369 1.95614C84.0369 1.75575 84.0369 1.54481 84.0474 1.34443Z" fill="#000139"/>
<path d="M100.534 4.74047C98.7001 3.53815 89.3287 0.078816 84.2899 1.0913C83.8577 1.48153 83.6996 1.85067 84.2688 2.16707C88.5592 1.73465 93.0288 3.58033 97.6776 7.87285C99.4064 9.46541 100.25 11.8279 99.9757 14.2009C93.5243 68.9068 70.1643 114.943 13.1031 142.238L26.1114 147.723L26.5963 160.21C86.4931 126.418 112.415 66.7342 112.415 26.5933C112.415 23.8195 112.214 22.227 112.172 21.9738C110.707 14.5068 107.766 9.29666 101.019 4.98305L100.534 4.74047Z" fill="white"/>
<path d="M26.5857 160.442C26.5435 160.442 26.5119 160.431 26.4698 160.41C26.396 160.368 26.3538 160.294 26.3538 160.22L25.8794 147.881L13.0083 142.449C12.9239 142.418 12.8712 142.333 12.8712 142.238C12.8712 142.143 12.9239 142.059 13.0083 142.027C64.1029 117.58 92.4806 75.7622 99.7332 14.1693C100.007 11.8595 99.1745 9.57088 97.5089 8.0416C92.9761 3.8651 88.5276 1.96668 84.2793 2.3991C84.2372 2.3991 84.1845 2.3991 84.1423 2.36746C83.8471 2.20926 83.689 2.00887 83.6679 1.77684C83.6258 1.41825 83.9104 1.12294 84.1318 0.922556C84.1634 0.890915 84.2055 0.869822 84.2477 0.869822C89.5079 -0.184852 98.9004 3.40104 100.661 4.55063L101.125 4.80376C107.544 8.89589 110.802 13.8634 112.394 21.9528C112.446 22.2059 112.647 23.8195 112.647 26.6144C112.647 36.8553 110.918 48.309 107.65 59.7417C104.108 72.0708 98.9004 84.2418 92.1538 95.9065C76.6684 122.685 54.0358 144.991 26.6911 160.41C26.6595 160.442 26.6173 160.442 26.5857 160.442ZM13.6618 142.228L26.1851 147.512C26.2695 147.543 26.3222 147.628 26.3222 147.712L26.786 159.82C85.4389 126.566 112.162 67.4936 112.162 26.5933C112.162 23.8406 111.972 22.2692 111.919 22.0266C110.37 14.0849 107.165 9.20175 100.882 5.19398L100.418 4.94086C100.408 4.94086 100.408 4.93032 100.397 4.93032C98.7634 3.85455 89.4658 0.331938 84.3953 1.30224C84.1528 1.53427 84.1212 1.66083 84.1318 1.71356C84.1423 1.77684 84.2055 1.85067 84.311 1.91395C88.6751 1.50263 93.2185 3.44323 97.8252 7.68301C99.5961 9.31776 100.482 11.7541 100.197 14.2114C96.7183 43.7529 88.7068 68.0842 75.7091 88.6187C68.6568 99.756 60.0023 109.839 49.9878 118.582C39.5939 127.673 27.3658 135.625 13.6618 142.228Z" fill="#000139"/>
<path d="M94.357 94.6725C94.2727 94.6725 94.1884 94.6303 94.1462 94.5459C88.4643 83.5457 83.7628 72.672 80.1682 62.2518C80.126 62.1358 80.1892 61.9987 80.3157 61.9565C80.4422 61.9143 80.5687 61.9776 80.6109 62.1042C84.2056 72.5033 88.8965 83.3558 94.5678 94.335C94.6311 94.451 94.5784 94.5881 94.473 94.6514C94.4308 94.6619 94.3886 94.6725 94.357 94.6725Z" fill="#000139"/>
<path d="M89.6661 120.913C89.5923 120.913 89.5079 120.871 89.4658 120.807C81.1485 107.318 74.2649 94.0819 69.0258 81.468C68.9731 81.352 69.0364 81.2149 69.1523 81.1621C69.2683 81.1094 69.4053 81.1727 69.458 81.2887C74.6971 93.8815 81.5597 107.097 89.8664 120.565C89.9296 120.67 89.898 120.818 89.7926 120.881C89.7504 120.902 89.7082 120.913 89.6661 120.913Z" fill="#000139"/>
<path d="M88.4432 116.884H81.0853V136.29H88.4432V116.884Z" fill="#000139"/>
<path d="M73.5586 116.81H66.2007V136.216H73.5586V116.81Z" fill="white"/>
<path d="M73.5586 136.459H66.2007C66.0742 136.459 65.9688 136.353 65.9688 136.227V116.821C65.9688 116.694 66.0742 116.589 66.2007 116.589H73.5586C73.6851 116.589 73.7905 116.694 73.7905 116.821V136.227C73.7905 136.353 73.6851 136.459 73.5586 136.459ZM66.4326 135.995H73.3267V117.053H66.4326V135.995Z" fill="#000139"/>
<path d="M46.808 128.939V136.3H66.2043V128.939H46.808Z" fill="white"/>
<path d="M66.2112 136.532H46.8043C46.6778 136.532 46.5724 136.427 46.5724 136.3V128.939C46.5724 128.812 46.6778 128.707 46.8043 128.707H66.2007C66.3272 128.707 66.4326 128.812 66.4326 128.939V136.3C66.4431 136.427 66.3377 136.532 66.2112 136.532ZM47.0362 136.068H65.9687V129.171H47.0362V136.068Z" fill="#000139"/>
<path d="M75.0661 101.264H66.0425V110.292H75.0661V101.264Z" fill="#000139"/>
<path d="M55.9227 119.826H46.8992V128.854H55.9227V119.826Z" fill="#000139"/>
<path d="M88.9387 101.264H79.9152V110.292H88.9387V101.264Z" fill="#000139"/>
<path d="M84.1739 101.349H69.964L76.3732 89.5362L84.1739 101.349Z" fill="white"/>
<path d="M84.1739 101.581H69.964C69.8796 101.581 69.8058 101.538 69.7637 101.465C69.7215 101.391 69.7215 101.306 69.7637 101.233L76.1624 89.4202C76.2045 89.3464 76.2783 89.3042 76.3521 89.2937C76.4364 89.2937 76.5102 89.3253 76.5524 89.3991L84.3637 101.211C84.4058 101.285 84.4164 101.37 84.3742 101.454C84.3426 101.528 84.2582 101.581 84.1739 101.581ZM70.354 101.117H83.7417L76.3837 89.9897L70.354 101.117Z" fill="#000139"/>
<path d="M88.6963 110.208H65.9583V116.894H88.6963V110.208Z" fill="white"/>
<path d="M88.6857 117.126H65.9582C65.8317 117.126 65.7263 117.021 65.7263 116.894V110.208C65.7263 110.081 65.8317 109.976 65.9582 109.976H88.6962C88.8227 109.976 88.9282 110.081 88.9282 110.208V116.894C88.9176 117.032 88.8122 117.126 88.6857 117.126ZM66.1901 116.662H88.4643V110.44H66.1901V116.662Z" fill="#000139"/>
<path d="M47.3419 150.074V147.448C47.3314 147.459 35.1033 146.003 35.0927 147.301C35.0927 147.375 38.856 147.48 39.9734 147.881C40.8062 148.187 41.8287 148.535 42.8302 148.872C45.4972 149.779 47.2892 152.279 47.2892 155.095C47.2892 164.017 47.2998 174.385 47.3209 181.883C47.3314 184.573 45.1493 186.767 42.4507 186.767H28.5886C28.9576 185.786 29.1578 184.699 29.1578 183.539V153.27C29.1578 150.053 26.5541 147.448 23.3389 147.448C23.3284 147.459 14.073 145.782 14.0624 147.09C14.0624 147.227 16.4764 148.081 18.8377 148.883C21.5047 149.79 23.2968 152.289 23.2968 155.105C23.2968 164.028 23.3073 174.395 23.3284 181.883C23.3389 184.573 21.1568 186.767 18.4582 186.767H12.4285H12.0701C9.44524 186.767 7.31586 188.897 7.31586 191.523H45.1809C49.5873 191.523 53.1608 187.948 53.1608 183.539V153.27C53.1608 150.053 50.5571 150.074 47.3419 150.074Z" fill="white"/>
<path d="M45.1914 191.755H7.31584C7.18934 191.755 7.08392 191.65 7.08392 191.523C7.08392 188.77 9.31872 186.535 12.0701 186.535H18.4582C19.7021 186.535 20.8617 186.049 21.7366 185.174C22.6116 184.299 23.0965 183.128 23.0859 181.883C23.0648 173.826 23.0648 162.868 23.0543 155.105C23.0543 152.384 21.3255 149.98 18.7534 149.104C13.8199 147.427 13.8199 147.322 13.8199 147.09C13.8199 146.984 13.8516 146.837 14.0097 146.7C14.6738 146.141 17.7308 146.299 23.0754 147.185C23.2124 147.206 23.2967 147.227 23.3389 147.227C26.67 147.237 29.3792 149.948 29.3792 153.281V183.55C29.3792 184.605 29.2211 185.606 28.9048 186.545H42.4507C43.6945 186.545 44.8541 186.06 45.7291 185.185C46.604 184.309 47.0889 183.139 47.0784 181.894C47.0573 173.847 47.0573 162.889 47.0467 155.105C47.0467 152.384 45.3179 149.98 42.7458 149.104C41.5863 148.714 40.627 148.376 39.8785 148.113C39.1512 147.849 37.201 147.712 36.0309 147.638C34.8291 147.554 34.8291 147.554 34.8397 147.311C34.8397 147.216 34.8713 147.09 35.0084 146.963C35.7146 146.33 39.7415 146.415 46.9835 147.195C47.1732 147.216 47.2892 147.227 47.3208 147.227C47.3525 147.227 47.3735 147.237 47.4052 147.248C47.4895 147.28 47.5527 147.364 47.5527 147.459V149.853C49.0707 149.853 50.4938 149.864 51.5374 150.264C52.7708 150.739 53.3716 151.72 53.3716 153.27V183.539C53.3927 188.064 49.7137 191.755 45.1914 191.755ZM7.55829 191.291H45.1914C49.4608 191.291 52.9394 187.811 52.9394 183.539V153.27C52.9394 151.899 52.4651 151.098 51.4109 150.697C50.4095 150.317 48.9548 150.307 47.4262 150.317H47.363C47.2365 150.317 47.1311 150.212 47.1311 150.085V147.67C47.0889 147.67 47.0362 147.659 46.973 147.649C39.246 146.816 36.6528 146.963 35.7779 147.143C35.8833 147.153 35.9993 147.153 36.1047 147.164C37.3696 147.248 39.2882 147.385 40.0683 147.67C40.8062 147.934 41.776 148.271 42.925 148.661C45.6869 149.6 47.5422 152.184 47.5422 155.105C47.5422 162.878 47.5527 173.847 47.5738 181.883C47.5738 183.244 47.0467 184.531 46.0875 185.501C45.1282 186.471 43.8421 186.999 42.4823 186.999H28.5886C28.5148 186.999 28.441 186.956 28.3988 186.893C28.3567 186.83 28.3461 186.745 28.3778 186.682C28.7467 185.712 28.9365 184.657 28.9365 183.539V153.27C28.9365 150.191 26.4276 147.68 23.3495 147.68C23.2862 147.68 23.1913 147.659 23.0227 147.638C16.2339 146.52 14.716 146.837 14.3892 147.016C14.7265 147.174 15.7807 147.585 18.922 148.661C21.6839 149.6 23.5392 152.184 23.5392 155.105C23.5392 162.878 23.5497 173.826 23.5708 181.883C23.5708 183.244 23.0438 184.531 22.0845 185.501C21.1252 186.471 19.8391 186.999 18.4687 186.999H12.0806C9.65605 186.999 7.67425 188.897 7.55829 191.291Z" fill="#000139"/>
<path d="M30.8655 124.119V130.415C30.8655 136.575 35.8517 141.563 42.0079 141.563C48.1642 141.563 53.1503 146.552 53.1503 152.711V153.703H14.3365C9.68767 153.703 5.61865 149.695 5.61865 145.044L5.62919 123.296C5.62919 119.626 8.89706 116.894 12.576 116.894H23.6657C27.6398 116.905 30.8655 120.132 30.8655 124.119Z" fill="white"/>
<path d="M44.0846 153.945H15.1165C9.67712 153.945 5.24969 149.516 5.24969 144.073V123.549C5.24969 119.753 8.33835 116.662 12.1333 116.662H14.853C14.9795 116.662 15.0849 116.768 15.0849 116.894C15.0849 117.021 14.9795 117.126 14.853 117.126H12.1333C8.59135 117.126 5.72406 120.006 5.72406 123.539V144.063C5.72406 149.252 9.94066 153.471 15.1271 153.471H44.0846C44.2111 153.471 44.3165 153.576 44.3165 153.703C44.3165 153.84 44.2111 153.945 44.0846 153.945Z" fill="#000139"/>
<path d="M86.9042 138.536V138.093H50.4517C50.2093 138.093 50.009 138.484 50.009 138.958V146.098C50.009 146.573 50.2093 146.963 50.4517 146.963H84.1318V191.903H89.7715V138.536H86.9042Z" fill="white"/>
<path d="M89.7715 192.135H84.1318C84.0053 192.135 83.8999 192.029 83.8999 191.903V147.195H50.4517C50.0617 147.195 49.777 146.721 49.777 146.098V138.958C49.777 138.336 50.0722 137.861 50.4517 137.861H86.9042C87.0307 137.861 87.1361 137.967 87.1361 138.093V138.304H89.7715C89.898 138.304 90.0034 138.41 90.0034 138.536V191.903C90.0034 192.029 89.898 192.135 89.7715 192.135ZM84.3637 191.671H89.5396V138.768H86.9042C86.7777 138.768 86.6723 138.663 86.6723 138.536V138.325H50.4517C50.4095 138.325 50.2409 138.526 50.2409 138.958V146.098C50.2409 146.531 50.4095 146.731 50.4517 146.731H84.1318C84.2583 146.731 84.3637 146.837 84.3637 146.963V191.671Z" fill="#000139"/>
<path d="M32.3414 136.206H93.0815C93.2291 136.206 93.3556 136.332 93.3556 136.48V138.505C93.3556 138.652 93.2291 138.779 93.0815 138.779H33.1004L32.3414 136.206Z" fill="white"/>
<path d="M79.1772 139H59.7914C59.6649 139 59.5595 138.895 59.5595 138.768C59.5595 138.642 59.6649 138.536 59.7914 138.536H79.1772C79.3037 138.536 79.4092 138.642 79.4092 138.768C79.4092 138.895 79.3037 139 79.1772 139Z" fill="#000139"/>
<path d="M92.8707 139H85.1227C84.9962 139 84.8907 138.895 84.8907 138.768C84.8907 138.642 84.9962 138.536 85.1227 138.536H92.8707C93.0077 138.536 93.1237 138.42 93.1237 138.283V136.691C93.1237 136.554 93.0077 136.438 92.8707 136.438H32.0251C31.8986 136.438 31.7932 136.332 31.7932 136.206C31.7932 136.079 31.8986 135.974 32.0251 135.974H92.8707C93.2712 135.974 93.5875 136.3 93.5875 136.691V138.283C93.5875 138.673 93.2607 139 92.8707 139Z" fill="#000139"/>
<path d="M61.9524 175.102L64.0291 177.296C64.8197 178.129 65.2624 179.236 65.2835 180.386L65.3046 182.042L71.4187 180.365C70.0904 178.941 68.7411 177.623 67.8345 175.903L65.9476 172.286L61.9524 175.102Z" fill="white"/>
<path d="M65.3046 182.263C65.2519 182.263 65.2097 182.242 65.1676 182.221C65.1149 182.179 65.0727 182.105 65.0727 182.042L65.0516 180.386C65.0411 179.289 64.6194 178.255 63.8604 177.454L61.7837 175.26C61.7416 175.207 61.7099 175.144 61.7205 175.081C61.731 175.018 61.7627 174.954 61.8154 174.912L65.8 172.075C65.8528 172.033 65.9265 172.022 65.9898 172.043C66.053 172.054 66.1058 172.107 66.1374 172.159L68.0243 175.777C68.8044 177.264 69.9112 178.435 71.0813 179.679C71.2395 179.848 71.4081 180.017 71.5663 180.196C71.619 180.259 71.64 180.344 71.619 180.417C71.5979 180.491 71.5346 180.555 71.4608 180.576L65.3468 182.253C65.3468 182.263 65.3257 182.263 65.3046 182.263ZM62.3108 175.134L64.2083 177.127C65.0411 178.002 65.5049 179.162 65.526 180.365L65.5365 181.715L70.9865 180.217C70.9127 180.143 70.8389 180.059 70.7651 179.985C69.5739 178.719 68.4354 177.528 67.6343 175.977L65.8633 172.592L62.3108 175.134Z" fill="#000139"/>
<path d="M64.1872 179.964C64.0607 180.85 64.0607 182.464 64.0396 183.94C64.0291 184.868 64.7248 185.649 65.6419 185.775C68.2457 186.113 74.7498 186.44 79.7781 185.986C80.1259 185.954 80.7268 185.701 80.906 184.847C81.4752 181.957 76.4575 181.251 70.9443 179.152C70.7335 179.067 70.4805 179.12 70.3223 179.278L69.732 179.858C69.1417 180.439 68.2562 180.597 67.4972 180.27L64.8935 179.574C64.5772 179.437 64.2399 179.637 64.1872 179.964Z" fill="white"/>
<path d="M74.1489 186.429C70.744 186.429 67.4445 186.229 65.6209 185.997C64.5773 185.86 63.7972 184.974 63.8077 183.93V183.455C63.8183 182.115 63.8393 180.734 63.9448 179.922C63.9764 179.69 64.1134 179.489 64.3137 179.384C64.514 179.268 64.7459 179.257 64.9462 179.342L67.5289 180.038C67.5394 180.038 67.55 180.048 67.5605 180.048C68.2352 180.333 69.0152 180.196 69.5423 179.679L70.1326 179.099C70.3645 178.878 70.7019 178.804 71.0076 178.92C72.2936 179.405 73.527 179.816 74.7182 180.207C78.5553 181.462 81.5807 182.464 81.1063 184.879C80.9271 185.786 80.2735 186.165 79.7781 186.208C78.0598 186.366 76.0886 186.429 74.1489 186.429ZM64.4191 179.996C64.3137 180.776 64.2926 182.147 64.2821 183.465V183.94C64.2715 184.742 64.8724 185.438 65.6841 185.533C68.0454 185.838 74.6022 186.208 79.7676 185.744C79.8941 185.733 80.516 185.638 80.6847 184.784C81.0852 182.769 78.3655 181.883 74.6022 180.649C73.4005 180.259 72.1671 179.848 70.8705 179.352C70.744 179.3 70.5859 179.331 70.491 179.426L69.9007 180.006C69.2366 180.649 68.2773 180.829 67.4235 180.47L64.8408 179.774C64.8302 179.774 64.8197 179.764 64.8092 179.764C64.7248 179.732 64.6405 179.732 64.5667 179.774C64.4824 179.837 64.4297 179.911 64.4191 179.996Z" fill="#000139"/>
<path d="M64.1872 183.655C64.1872 183.655 64.1872 183.803 64.1872 183.877C64.1766 184.805 64.8724 185.585 65.7895 185.712C68.3932 186.049 74.7603 186.44 79.7886 185.976C80.1365 185.944 80.7373 185.691 80.9165 184.837C80.9693 184.573 80.9376 184.098 80.9376 184.098L80.5792 184.119C75.4982 184.372 70.4067 184.246 65.3362 183.75L64.1872 183.655Z" fill="white"/>
<path d="M74.6338 186.419C70.8705 186.419 67.3391 186.144 65.7579 185.944C64.7143 185.807 63.9342 184.921 63.9447 183.877V183.655C63.9447 183.592 63.9764 183.529 64.0185 183.487C64.0607 183.444 64.124 183.423 64.1977 183.423L65.3468 183.518C70.3856 184.014 75.5088 184.13 80.5582 183.887L80.9166 183.866C81.0431 183.856 81.1485 183.961 81.159 184.088C81.159 184.14 81.1906 184.605 81.1379 184.889C80.9587 185.796 80.3052 186.176 79.8097 186.218C78.1441 186.366 76.3626 186.419 74.6338 186.419ZM64.4086 183.908C64.4086 184.699 65.0094 185.374 65.8106 185.48C68.0981 185.775 74.5073 186.229 79.757 185.744C79.8835 185.733 80.5054 185.638 80.6741 184.784C80.6952 184.668 80.7057 184.489 80.6952 184.33L80.5687 184.341C75.4877 184.594 70.354 184.467 65.2941 183.972L64.4086 183.908Z" fill="#000139"/>
<path d="M72.2093 182.495C72.146 182.495 72.0933 182.474 72.0406 182.432C71.9458 182.337 71.9458 182.189 72.0406 182.105L73.9697 180.175C74.0646 180.08 74.2122 180.08 74.2965 180.175C74.3808 180.27 74.3914 180.417 74.2965 180.502L72.3674 182.432C72.3253 182.474 72.2725 182.495 72.2093 182.495Z" fill="#000139"/>
<path d="M74.1068 182.696C74.054 182.696 73.9908 182.674 73.9486 182.632C73.8538 182.548 73.8538 182.4 73.9381 182.305L75.4771 180.702C75.5615 180.607 75.7091 180.607 75.8039 180.692C75.8988 180.776 75.8988 180.924 75.8145 181.019L74.2754 182.622C74.2332 182.674 74.17 182.696 74.1068 182.696Z" fill="#000139"/>
<path d="M44.5168 175.988C46.235 173.562 47.8584 168.531 47.8584 168.531L51.6955 171.21L49.661 174.648C48.9864 175.534 48.9758 176.874 49.2605 177.96L49.9878 179.964L44.5168 175.988Z" fill="white"/>
<path d="M49.9983 180.185C49.9456 180.185 49.9035 180.175 49.8613 180.143L44.3797 176.167C44.2743 176.093 44.2532 175.946 44.327 175.84C46.0137 173.467 47.6265 168.5 47.637 168.447C47.6581 168.373 47.7108 168.32 47.7846 168.299C47.8584 168.278 47.9322 168.289 47.9955 168.331L51.8326 171.01C51.9274 171.084 51.9591 171.21 51.8958 171.316L49.8613 174.754C49.8613 174.764 49.8508 174.764 49.8508 174.775C49.3026 175.482 49.1656 176.652 49.4818 177.886L50.2092 179.869C50.2408 179.964 50.2092 180.069 50.1354 180.133C50.1038 180.175 50.051 180.185 49.9983 180.185ZM44.8435 175.925L49.524 179.321L49.0496 178.023C48.6912 176.631 48.8599 175.334 49.4818 174.511L51.4004 171.273L47.9955 168.9C47.616 169.987 46.2877 173.773 44.8435 175.925Z" fill="#000139"/>
<path d="M44.6011 174.627C44.0424 175.334 43.041 176.652 42.282 177.928C41.8076 178.73 42.0079 179.753 42.7458 180.323C43.7367 181.082 46.7937 183.033 48.7861 184.288C49.9562 185.026 51.3055 185.459 52.6864 185.533L54.6471 185.638C55.2796 185.67 55.9121 185.617 56.513 185.448C57.1139 185.28 57.7253 185.005 57.7569 184.562C57.8307 183.402 56.6817 182.653 55.6802 182.221C54.5523 181.736 53.5508 180.987 52.7391 180.059C51.8958 179.089 50.8522 177.897 50.1248 176.99C49.9773 176.81 49.7453 176.737 49.524 176.789L48.7228 176.99C47.9217 177.19 47.0783 176.884 46.5829 176.22L45.4128 174.648C45.2125 174.374 44.8119 174.364 44.6011 174.627Z" fill="white"/>
<path d="M55.0055 185.881C54.8896 185.881 54.7631 185.881 54.6366 185.87L52.6759 185.765C51.2528 185.691 49.8613 185.248 48.6596 184.489C46.4353 183.086 43.5786 181.251 42.6087 180.512C41.776 179.869 41.5546 178.709 42.0817 177.812C42.8512 176.526 43.8737 175.176 44.4219 174.49C44.5589 174.311 44.7698 174.205 45.0017 174.205H45.0122C45.2441 174.205 45.455 174.321 45.592 174.501L46.7621 176.072C47.2048 176.663 47.9427 176.926 48.6596 176.758L49.4607 176.557C49.7664 176.484 50.1038 176.589 50.304 176.842C51.0525 177.77 52.1383 179.015 52.9078 179.901C53.7089 180.818 54.6998 181.546 55.7645 182.01C57.2825 182.664 58.0415 183.55 57.9888 184.573C57.9572 185.047 57.4828 185.417 56.5762 185.67C56.0808 185.807 55.5537 185.881 55.0055 185.881ZM44.7908 174.775C44.2532 175.45 43.2412 176.779 42.4822 178.044C42.0711 178.741 42.2398 179.637 42.8934 180.133C43.8948 180.903 47.0994 182.938 48.9126 184.088C50.051 184.805 51.3582 185.227 52.7075 185.301L54.6682 185.406C55.3007 185.438 55.9016 185.374 56.4603 185.227C57.1244 185.037 57.5144 184.794 57.5355 184.552C57.5988 183.529 56.513 182.833 55.5959 182.442C54.4679 181.957 53.4243 181.187 52.5705 180.217C51.7904 179.331 50.7046 178.076 49.9562 177.137C49.8718 177.032 49.7243 176.979 49.5872 177.011L48.7861 177.211C47.89 177.433 46.9518 177.095 46.4037 176.357L45.2336 174.786C45.1809 174.712 45.1071 174.68 45.0122 174.67C44.9173 174.67 44.8435 174.712 44.7908 174.775Z" fill="#000139"/>
<path d="M42.3979 177.739C42.3979 177.739 42.3241 177.865 42.282 177.928C41.8076 178.73 42.0079 179.753 42.7458 180.323C44.2849 181.504 47.3524 183.655 50.7257 185.501C52.6443 186.545 56.0597 186.081 56.7765 185.976C57.2825 185.902 57.7042 185.554 57.7147 185.047L57.7463 184.235C57.7463 184.235 53.2978 184.879 51.6217 183.792C48.6596 181.873 45.8134 180.217 42.9461 178.15L42.3979 177.739Z" fill="white"/>
<path d="M54.2255 186.397C52.9816 186.397 51.6217 186.239 50.6308 185.701C47.4473 183.972 44.4114 181.883 42.6193 180.502C41.7865 179.858 41.5652 178.698 42.0922 177.802L42.2082 177.612C42.2398 177.559 42.2925 177.517 42.3558 177.507C42.419 177.496 42.4823 177.507 42.535 177.549L43.0937 177.95C45.0228 179.342 46.8992 180.523 48.8915 181.767C49.8297 182.358 50.789 182.959 51.7588 183.592C53.34 184.615 57.6726 184.003 57.7253 184.003C57.7991 183.993 57.8623 184.014 57.915 184.056C57.9677 184.098 57.9994 184.172 57.9888 184.235L57.9572 185.047C57.9361 185.638 57.4828 186.102 56.8187 186.197C56.2495 186.281 55.2797 186.397 54.2255 186.397ZM42.4717 178.076C42.0817 178.762 42.2609 179.648 42.8934 180.133C44.6644 181.504 47.6898 183.571 50.8417 185.29C52.6126 186.26 55.8173 185.881 56.7555 185.744C57.0928 185.691 57.4828 185.48 57.4934 185.037L57.5144 184.489C56.5025 184.615 53.0027 184.953 51.5058 183.972C50.536 183.349 49.5767 182.738 48.6385 182.158C46.6462 180.903 44.7592 179.721 42.8196 178.319L42.4717 178.076Z" fill="#000139"/>
<path d="M49.6505 180.555C49.5451 180.555 49.4502 180.481 49.4291 180.386C49.3975 180.259 49.4713 180.133 49.5978 180.101L52.2437 179.405C52.3702 179.373 52.4967 179.447 52.5283 179.574C52.5599 179.7 52.4862 179.827 52.3597 179.858L49.7137 180.555C49.6927 180.555 49.6716 180.555 49.6505 180.555Z" fill="#000139"/>
<path d="M51.1895 181.694C51.0841 181.694 50.9998 181.63 50.9681 181.525C50.9365 181.398 50.9998 181.272 51.1263 181.24L53.2662 180.628C53.3927 180.597 53.5192 180.66 53.5508 180.787C53.5824 180.913 53.5192 181.04 53.3927 181.071L51.2528 181.683C51.2317 181.683 51.2106 181.694 51.1895 181.694Z" fill="#000139"/>
<path d="M31.8143 135.436C31.8143 135.436 56.0281 134.624 64.6405 139.76C72.8207 144.632 50.6309 174.469 50.6309 174.469L46.0137 171.938L51.8537 151.931C52.2648 150.465 51.4109 148.946 49.9457 148.524L29.0419 142.586L31.8143 135.436Z" fill="#000139"/>
<path d="M19.3753 149.21C23.0754 150.38 26.8176 150.233 36.073 150.106C38.6979 150.075 42.419 152.405 43.6207 154.757C46.3615 160.136 53.8671 171.569 63.5336 177.844L68.1508 175.355L54.7947 147.079C53.7195 144.653 51.7061 142.776 49.2183 141.859L25.8689 133.295C25.8689 133.295 19.7653 131.386 16.2234 137.851C15.5909 139 15.1587 140.045 14.8741 140.983C13.9148 144.168 16.2023 148.197 19.3753 149.21Z" fill="#000139"/>
<path d="M61.225 160.22C61.1407 160.22 61.0564 160.168 61.0142 160.083L55.3007 147.491C54.3203 145.276 51.7799 143.05 49.1339 142.08L37.9494 137.977C37.8334 137.935 37.7702 137.798 37.8124 137.682C37.8545 137.566 37.9916 137.503 38.1075 137.545L49.2921 141.648C52.0434 142.66 54.6893 144.991 55.7224 147.311L61.4359 159.904C61.4886 160.02 61.4359 160.157 61.3199 160.21C61.2883 160.21 61.2567 160.22 61.225 160.22Z" fill="white"/>
<path d="M54.1411 170.345C54.0779 170.345 54.0146 170.324 53.9725 170.272C53.2135 169.449 52.2964 168.341 51.2633 166.97C51.1895 166.865 51.2106 166.717 51.3055 166.643C51.4109 166.57 51.5585 166.591 51.6323 166.686C52.6548 168.046 53.5508 169.143 54.3098 169.955C54.3941 170.05 54.3941 170.198 54.2993 170.282C54.2571 170.324 54.1938 170.345 54.1411 170.345Z" fill="white"/>
<path d="M46.5513 109.902L51.6639 108.436L51.9696 108.71L51.2633 114.775C51.2633 114.775 51.2633 115.629 50.167 115.871L45.7079 116.525L46.5513 109.902Z" fill="#000139"/>
<path d="M40.7324 119.405C40.7324 119.405 44.5168 116.103 45.2652 115.671C46.0137 115.239 47.4789 114.69 48.649 114.469C49.8191 114.247 50.7995 114.869 50.8311 115.302C50.8311 115.302 50.673 115.682 49.9773 115.692C49.4396 115.703 48.902 115.798 48.4066 116.03L47.2259 116.568C47.2259 116.568 48.5436 116.42 48.8915 116.536C49.2394 116.652 49.2604 117.327 49.1761 117.685C49.0918 118.086 48.7755 119.405 47.7003 120.269C47.4789 120.449 45.8028 121.662 44.8541 122.031C43.8948 122.389 42.0079 122.811 42.0079 122.811L40.7324 119.405Z" fill="white"/>
<path d="M41.9973 123.043C41.9025 123.043 41.8181 122.98 41.776 122.896L40.511 119.489C40.4794 119.394 40.5005 119.299 40.5742 119.236C40.7324 119.099 44.3903 115.914 45.1387 115.481C45.8555 115.07 47.3419 114.49 48.5963 114.247C49.4818 114.078 50.2303 114.353 50.6414 114.659C50.8944 114.848 51.042 115.07 51.0525 115.291C51.0525 115.323 51.0525 115.365 51.0314 115.397C51.0103 115.45 50.789 115.914 49.9667 115.935C49.4186 115.945 48.9126 116.051 48.4804 116.251L48.4382 116.272C48.649 116.272 48.8282 116.293 48.9337 116.325C49.4396 116.494 49.4713 117.285 49.3764 117.738C49.1339 118.877 48.5752 119.848 47.8268 120.449C47.6371 120.607 45.9293 121.862 44.9173 122.242C43.9581 122.611 42.1133 123.022 42.0395 123.033C42.029 123.043 42.0184 123.043 41.9973 123.043ZM41.0064 119.468L42.1449 122.526C42.6509 122.41 44.0108 122.083 44.7698 121.799C45.7185 121.44 47.3946 120.206 47.5527 120.08C48.2274 119.542 48.7228 118.666 48.9442 117.633C49.018 117.264 48.9547 116.8 48.8072 116.757C48.6069 116.694 47.7741 116.736 47.247 116.8C47.1311 116.81 47.0256 116.736 46.994 116.631C46.9624 116.525 47.0151 116.409 47.1205 116.357L48.3012 115.819C48.7966 115.597 49.3553 115.481 49.9667 115.46C50.3357 115.45 50.5043 115.323 50.5781 115.26C50.5465 115.207 50.4833 115.123 50.3673 115.028C50.0511 114.785 49.4291 114.553 48.6912 114.701C47.4895 114.933 46.0664 115.481 45.3812 115.882C44.8225 116.198 42.3452 118.308 41.0064 119.468Z" fill="#000139"/>
<path d="M46.235 112.939C46.0769 113.161 45.7501 112.676 45.7079 111.727C45.6658 110.777 44.9173 109.638 44.7592 109.491L43.199 110.545C43.199 110.545 41.3859 109.406 42.0816 107.708C42.0816 107.708 46.6145 105.641 48.3222 105.462C49.7875 105.314 51.3265 106.422 51.6217 106.727C52.7075 107.866 53.2662 109.744 53.0975 110.145C52.9394 110.545 52.328 110.704 51.8431 110.218C51.8431 110.218 51.4003 109.427 50.6308 108.71C50.0721 108.193 49.2604 108.067 48.5752 108.394L48.3644 108.489C47.6054 108.837 47.0889 109.564 47.0151 110.398C46.9307 111.21 46.741 112.243 46.235 112.939Z" fill="white"/>
<path d="M46.1507 113.224C46.1191 113.224 46.0874 113.224 46.0558 113.214C45.6763 113.098 45.5077 112.349 45.476 111.737C45.4444 111.009 44.949 110.145 44.7065 109.807L43.315 110.746C43.2412 110.798 43.1358 110.798 43.062 110.746C42.3768 110.313 41.2489 109.111 41.8498 107.624C41.8708 107.571 41.913 107.529 41.9657 107.497C42.1555 107.413 46.5513 105.42 48.2801 105.24C49.9246 105.072 51.5479 106.337 51.7693 106.58C52.8551 107.719 53.5087 109.702 53.2978 110.25C53.1924 110.503 52.9605 110.693 52.6864 110.756C52.3386 110.83 51.9696 110.704 51.6639 110.398C51.6534 110.387 51.6323 110.366 51.6217 110.345C51.6217 110.334 51.179 109.575 50.4516 108.889C49.9667 108.436 49.2604 108.331 48.649 108.605L48.4382 108.7C47.753 109.016 47.2892 109.67 47.2259 110.419C47.1521 111.21 46.9624 112.317 46.4142 113.077C46.351 113.171 46.2561 113.224 46.1507 113.224ZM44.7592 109.259C44.8119 109.259 44.8646 109.28 44.9173 109.311C45.1071 109.47 45.9082 110.672 45.9504 111.705C45.9715 112.201 46.0664 112.507 46.1507 112.665C46.5618 112.001 46.7305 111.062 46.7832 110.366C46.8675 109.459 47.4262 108.647 48.2695 108.267L48.4804 108.172C49.2604 107.814 50.1775 107.951 50.7995 108.531C51.5058 109.195 51.9485 109.913 52.0434 110.071C52.2226 110.239 52.4334 110.313 52.6232 110.282C52.7497 110.25 52.8551 110.176 52.8973 110.06C53.0132 109.775 52.5072 107.982 51.4636 106.886C51.1895 106.59 49.7032 105.557 48.3539 105.694C46.8254 105.852 42.9039 107.592 42.2714 107.877C41.8392 109.09 42.8512 109.986 43.2096 110.261L44.6433 109.29C44.6643 109.269 44.7065 109.259 44.7592 109.259Z" fill="#000139"/>
<path d="M42.4612 107.002C43.0831 108.278 44.3481 111.21 43.821 112.982C43.821 112.982 38.8665 117.285 34.4918 116.958C31.9935 116.768 29.1367 115.091 29.1367 115.091L27.4922 101.676L29.727 101.349C29.727 101.349 29.8641 102.372 32.3203 105.124C32.7314 105.578 33.1214 106 33.4904 106.358C34.6288 107.497 36.2944 107.951 37.8545 107.529L41.4808 106.559C41.8709 106.453 42.282 106.643 42.4612 107.002Z" fill="white"/>
<path d="M34.9767 117.211C34.8081 117.211 34.6394 117.2 34.4707 117.19C31.9513 117 29.1367 115.365 29.0102 115.291C28.947 115.26 28.9048 115.186 28.8943 115.123L27.2603 101.707C27.2498 101.581 27.3341 101.465 27.4606 101.454L29.6954 101.127C29.7587 101.117 29.8219 101.138 29.8641 101.169C29.9168 101.211 29.9484 101.264 29.959 101.327C29.959 101.338 30.1593 102.361 32.4995 104.977C32.8684 105.388 33.2585 105.799 33.659 106.2C34.7448 107.286 36.326 107.708 37.8018 107.318L41.4281 106.348C41.9236 106.211 42.4506 106.453 42.672 106.917C43.4205 108.436 44.58 111.263 44.0424 113.066C44.0319 113.108 44.0003 113.15 43.9686 113.171C43.7683 113.33 39.2566 117.211 34.9767 117.211ZM29.3476 114.943C29.8641 115.239 32.3519 116.568 34.5024 116.726C38.5081 117.021 43.0726 113.298 43.6102 112.845C44.074 111.125 42.8091 108.267 42.2398 107.097C42.1133 106.833 41.8182 106.696 41.5335 106.77L37.9073 107.74C36.2733 108.183 34.5129 107.708 33.3112 106.506C32.9106 106.105 32.51 105.683 32.1305 105.261C30.2436 103.152 29.6954 102.034 29.5373 101.591L27.7347 101.855L29.3476 114.943Z" fill="#000139"/>
<path d="M27.4606 144.073C27.1022 144.221 26.7017 144.263 26.3116 144.2C24.625 143.915 23.8554 142.681 21.3782 143.103C19.175 143.472 17.2038 146.204 15.222 144.822C14.5051 144.327 14.0097 141.036 14.2521 138.863C14.5684 136.058 15.4539 132.693 16.0126 126.872C16.8454 118.223 14.4313 110.187 20.6403 103.859C31.1818 93.101 33.4166 112.043 33.4271 112.254C33.7539 116.23 34.0491 122.105 34.6394 127.114C35.177 131.639 36.0414 132.63 37.2537 134.518C37.6121 135.088 37.5805 135.984 37.1588 136.511C35.5354 138.568 32.1832 142.164 27.4606 144.073Z" fill="white"/>
<path d="M16.4131 145.444C15.9809 145.444 15.5382 145.318 15.0955 145.012C14.2627 144.432 13.7883 141.036 14.0308 138.832C14.1467 137.745 14.3576 136.575 14.6 135.214C14.9795 133.073 15.4539 130.415 15.7912 126.84C16.0231 124.478 16.002 122.157 15.9915 119.911C15.9493 113.962 15.9177 108.352 20.4822 103.69C23.2651 100.853 25.7529 99.7982 27.8718 100.568C32.5627 102.266 33.659 112.138 33.659 112.233C33.7539 113.456 33.8593 114.869 33.9647 116.357C34.1967 119.763 34.4707 123.613 34.8819 127.083C35.3668 131.175 36.1258 132.335 37.1694 133.927C37.2642 134.075 37.3696 134.223 37.4645 134.381C37.8756 135.024 37.8335 136.037 37.3591 136.638C35.7568 138.663 32.3519 142.344 27.545 144.284C27.1338 144.453 26.6911 144.495 26.2694 144.432C25.637 144.327 25.1204 144.084 24.625 143.862C23.75 143.462 22.9278 143.082 21.4098 143.335C20.6192 143.472 19.8391 143.936 19.0907 144.39C18.2157 144.907 17.3197 145.444 16.4131 145.444ZM26.4803 100.79C24.8147 100.79 22.9173 101.865 20.8195 104.017C16.3815 108.541 16.4237 114.068 16.4553 119.911C16.4659 122.168 16.4869 124.509 16.255 126.893C15.9072 130.479 15.4328 133.158 15.0533 135.299C14.8108 136.649 14.6105 137.809 14.484 138.884C14.2311 141.141 14.7898 144.232 15.3485 144.632C16.4553 145.402 17.5622 144.748 18.8482 143.978C19.6388 143.504 20.4611 143.019 21.336 142.871C22.991 142.586 23.9187 143.019 24.8147 143.43C25.2996 143.652 25.7635 143.873 26.3432 143.968C26.6806 144.021 27.0284 143.989 27.3658 143.852C32.0673 141.964 35.4089 138.336 36.9902 136.353C37.3486 135.91 37.3802 135.119 37.0745 134.634C36.9691 134.476 36.8742 134.328 36.7793 134.181C35.7041 132.535 34.924 131.343 34.418 127.135C34.0069 123.665 33.7328 119.795 33.5009 116.388C33.3955 114.901 33.3006 113.488 33.1952 112.275C33.1847 112.18 32.0462 102.551 27.6926 101.001C27.3025 100.853 26.9019 100.79 26.4803 100.79Z" fill="#000139"/>
<path d="M19.6283 108.267C21.9369 107.023 24.7198 108.215 25.3418 109.754C25.9743 111.305 28.4621 122.263 28.7467 125.131C28.7467 125.131 32.5943 123.866 34.1966 122.948C35.799 122.031 40.1631 119.795 40.7324 119.394C40.7324 119.394 42.9672 121.915 42.7985 125.416C42.7985 125.416 33.5642 131.08 32.7946 131.649C31.6351 132.525 29.8325 133.801 28.5253 134.465C27.7558 134.856 26.8387 134.771 26.164 134.233C25.0255 133.326 23.2757 131.175 21.8209 126.123C19.4491 117.875 16.4342 109.986 19.6283 108.267Z" fill="white"/>
<path d="M27.5239 134.95C26.9863 134.95 26.4592 134.771 26.027 134.434C24.899 133.537 20.7562 128.011 19.9445 125.669C19.9024 125.543 19.9656 125.416 20.0921 125.374C20.2081 125.332 20.3451 125.395 20.3873 125.522C21.1463 127.747 25.2364 133.221 26.3116 134.075C26.9019 134.55 27.7347 134.624 28.4199 134.275C29.6216 133.674 31.2239 132.514 32.394 131.67L32.647 131.491C35.4932 129.445 38.1392 128 39.889 127.051C41.0064 126.439 41.8076 126.007 42.166 125.69C42.4296 125.458 42.5771 125.121 42.5666 124.773C42.4717 122.21 41.1013 120.269 40.6797 119.721C40.1526 120.037 38.8771 120.712 37.5383 121.43C36.3049 122.083 35.0189 122.769 34.3021 123.18C33.2795 123.76 31.7299 124.298 30.6125 124.636C29.9168 124.847 29.1894 124.499 28.9153 123.824C28.1247 121.894 27.3025 118.424 26.5646 115.365C26.3854 114.606 26.2062 113.878 26.0375 113.203C26.0059 113.077 26.0797 112.95 26.2062 112.918C26.3327 112.887 26.4592 112.961 26.4908 113.087C26.6595 113.762 26.8281 114.5 27.0179 115.26C27.7452 118.308 28.5675 121.757 29.3475 123.655C29.5268 124.098 30.0117 124.33 30.4755 124.193C31.3715 123.919 33.0371 123.37 34.0701 122.78C34.7975 122.368 36.073 121.683 37.3169 121.029C38.7822 120.248 40.2896 119.447 40.5953 119.236C40.6902 119.173 40.8272 119.183 40.901 119.267C40.9854 119.362 42.9145 121.567 43.0304 124.762C43.0515 125.258 42.8407 125.733 42.4717 126.049C42.0711 126.397 41.2489 126.84 40.1104 127.462C38.2657 128.464 35.7357 129.846 32.9211 131.871L32.6681 132.05C31.4875 132.904 29.8641 134.075 28.6307 134.697C28.2829 134.866 27.9034 134.95 27.5239 134.95Z" fill="#000139"/>
<path d="M41.1857 90.4011C41.1857 90.4011 40.8273 93.101 39.8258 94.7674C39.3936 95.4846 39.1828 96.3072 39.1723 97.1299L39.1617 97.9209C39.1617 98.2689 38.8455 98.5326 38.4976 98.4693L38.0443 98.3849C37.8019 98.3428 37.5594 98.4588 37.4435 98.6803C37.0956 99.3552 36.2944 100.758 35.5249 101.222C34.4918 101.834 32.236 100.231 32.236 100.231C31.614 101.623 31.3083 103.142 31.2872 104.671C31.2872 104.734 31.2872 104.787 31.2872 104.84C31.2767 105.103 31.1397 105.388 30.6969 105.588C28.8205 106.411 28.1037 104.882 26.8176 103.532C26.2062 102.899 25.2786 102.477 24.4458 102.329C23.9609 102.245 23.7501 101.654 24.0768 101.285C25.4367 99.7349 27.4185 96.9822 26.5436 94.9994L31.8248 90.6331L41.1857 90.4011Z" fill="white"/>
<path d="M29.706 106.074C28.6835 106.074 28.0088 105.283 27.3025 104.46C27.0917 104.217 26.8703 103.954 26.6384 103.711C26.1113 103.163 25.2469 102.72 24.3931 102.572C24.0768 102.519 23.8344 102.308 23.729 102.002C23.6236 101.707 23.6868 101.38 23.8976 101.138C25.1626 99.6927 27.155 96.9822 26.3327 95.0944C26.2906 94.9994 26.3222 94.8834 26.396 94.8201L31.6773 90.4538C31.7194 90.4222 31.7721 90.4011 31.8143 90.4011L41.1962 90.1479C41.27 90.1479 41.3333 90.169 41.3754 90.2218C41.4176 90.2745 41.4387 90.3378 41.4281 90.4116C41.4176 90.5276 41.0592 93.1749 40.0367 94.8729C39.6466 95.5268 39.4358 96.2967 39.4253 97.1193L39.4147 97.9103C39.4147 98.1424 39.3093 98.3639 39.1301 98.5115C38.9509 98.6592 38.7084 98.7224 38.4765 98.6803L38.0232 98.5959C37.8757 98.5748 37.7386 98.6381 37.6648 98.7646C37.2643 99.5451 36.4631 100.916 35.6514 101.401C34.6921 101.971 32.9949 100.979 32.3414 100.558C31.8143 101.823 31.5402 103.205 31.5191 104.65C31.5191 104.713 31.5191 104.776 31.5191 104.829C31.5086 105.124 31.3716 105.525 30.7812 105.778C30.3701 105.989 30.0222 106.074 29.706 106.074ZM26.8071 95.0838C27.5661 97.1826 25.5316 99.9564 24.235 101.454C24.1401 101.57 24.1085 101.718 24.1612 101.855C24.2139 101.992 24.3298 102.087 24.4669 102.118C25.4156 102.287 26.3749 102.772 26.9758 103.395C27.2182 103.648 27.4396 103.911 27.6609 104.165C28.5781 105.23 29.2316 106 30.602 105.399C30.8972 105.272 31.0448 105.093 31.0553 104.85C31.0553 104.797 31.0553 104.745 31.0553 104.681C31.0764 103.078 31.4032 101.549 32.0251 100.146C32.0568 100.083 32.1095 100.03 32.1727 100.02C32.236 99.9986 32.3098 100.009 32.373 100.051C32.9633 100.473 34.671 101.475 35.409 101.032C36.1469 100.6 36.9375 99.176 37.2432 98.5853C37.4013 98.2795 37.7492 98.1107 38.0865 98.1635L38.5398 98.2478C38.6347 98.2689 38.7401 98.2373 38.8139 98.174C38.8876 98.1107 38.9298 98.0158 38.9298 97.9209L38.9404 97.1299C38.9509 96.2229 39.1828 95.3686 39.6256 94.6514C40.4162 93.3436 40.7957 91.3608 40.9116 90.6436L31.8881 90.8862L26.8071 95.0838Z" fill="#000139"/>
<path d="M29.0525 95.0733C29.0525 95.0733 29.7482 92.985 31.5192 93.8077C32.5733 94.2928 32.7314 95.9697 32.7314 95.9697C33.2374 96.0752 33.7645 95.9276 34.1335 95.5795L35.4828 94.3244C35.4828 94.3244 36.8953 93.2803 38.5609 92.542C39.4464 92.1518 40.0578 91.9198 40.996 92.1096C43.041 92.5104 44.7909 89.9476 43.4521 88.7347C42.029 87.448 41.9131 88.2706 39.7521 86.8257C38.1498 85.7605 37.0429 83.9676 34.5551 83.7461C26.259 83.0183 26.259 88.703 26.1325 90.38C25.9849 92.3628 25.9005 94.8201 26.28 95.8748C26.7228 97.0982 28.3251 96.8662 29.0525 95.0733Z" fill="#000139"/>
<path d="M30.0434 96.3916C30.0434 96.3916 28.4727 94.9889 30.0117 93.4069L30.0434 96.3916Z" fill="white"/>
<path d="M30.0433 96.6236C29.9906 96.6236 29.9379 96.6025 29.8852 96.5604C29.8536 96.5287 29.1262 95.8748 29.0946 94.9256C29.0735 94.335 29.3265 93.7655 29.8325 93.2381C29.9274 93.1432 30.0644 93.1432 30.1593 93.2381C30.2542 93.3225 30.2542 93.4702 30.1593 93.5651C29.7376 93.9975 29.5373 94.4405 29.5479 94.9045C29.569 95.6533 30.1698 96.2123 30.1804 96.2123C30.2752 96.2967 30.2858 96.4443 30.2015 96.5393C30.1698 96.592 30.1066 96.6236 30.0433 96.6236Z" fill="#000139"/>
<path d="M148.435 175.197L147.771 181.567L143.47 182.073V174.522L148.435 175.197Z" fill="white"/>
<path d="M143.47 182.305C143.417 182.305 143.354 182.284 143.312 182.242C143.259 182.2 143.238 182.137 143.238 182.073V174.522C143.238 174.459 143.27 174.395 143.322 174.343C143.375 174.3 143.438 174.279 143.501 174.29L148.477 174.965C148.604 174.986 148.688 175.091 148.677 175.218L148.013 181.588C148.003 181.694 147.918 181.778 147.813 181.799L143.512 182.305C143.48 182.305 143.48 182.305 143.47 182.305ZM143.702 174.786V181.81L147.56 181.356L148.182 175.397L143.702 174.786Z" fill="#000139"/>
<path d="M142.785 193.168C144.577 193.422 147.518 193.643 150.975 193.168C152.103 193.01 152.862 191.913 152.588 190.806C151.829 187.716 150.522 181.852 148.266 179.131L147.708 180.607L146.938 179.215C146.833 179.025 146.643 178.899 146.432 178.867L144.745 178.656C144.397 178.614 144.06 178.846 143.986 179.194L143.712 180.47L143.122 178.793L141.161 191.017C141.024 192.051 141.752 193.021 142.785 193.168Z" fill="white"/>
<path d="M146.864 193.675C145.22 193.675 143.818 193.538 142.764 193.39C141.604 193.221 140.782 192.145 140.94 190.975L142.911 178.741C142.932 178.635 143.017 178.551 143.122 178.551C143.227 178.54 143.322 178.603 143.364 178.709L143.681 179.605L143.776 179.141C143.87 178.677 144.313 178.361 144.788 178.424L146.474 178.635C146.759 178.667 147.022 178.846 147.159 179.099L147.686 180.048L148.066 179.046C148.098 178.973 148.161 178.909 148.245 178.899C148.329 178.888 148.414 178.92 148.467 178.983C150.596 181.556 151.893 186.893 152.673 190.089L152.831 190.753C152.978 191.344 152.862 191.977 152.525 192.472C152.177 192.979 151.64 193.316 151.028 193.4C149.521 193.601 148.119 193.675 146.864 193.675ZM142.816 192.936C144.651 193.19 147.549 193.4 150.944 192.936C151.418 192.873 151.85 192.609 152.114 192.209C152.377 191.818 152.472 191.323 152.356 190.859L152.198 190.194C151.46 187.178 150.259 182.2 148.34 179.605L147.929 180.692C147.897 180.776 147.823 180.839 147.729 180.839C147.634 180.85 147.549 180.797 147.507 180.723L146.738 179.331C146.664 179.205 146.537 179.12 146.4 179.099L144.714 178.888C144.482 178.857 144.26 179.015 144.218 179.247L143.944 180.523C143.923 180.628 143.839 180.702 143.733 180.702C143.628 180.702 143.533 180.649 143.501 180.544L143.217 179.732L141.393 191.049C141.267 191.956 141.91 192.81 142.816 192.936Z" fill="#000139"/>
<path d="M147.813 191.618C144.872 191.618 142.521 190.954 142.479 190.943C142.352 190.911 142.289 190.774 142.321 190.658C142.352 190.532 142.479 190.469 142.605 190.5C142.648 190.511 147.064 191.745 151.292 190.785C151.418 190.753 151.545 190.838 151.566 190.964C151.597 191.091 151.513 191.217 151.386 191.238C150.185 191.523 148.951 191.618 147.813 191.618Z" fill="#000139"/>
<path d="M148.804 186.893C148.804 186.893 148.793 186.893 148.804 186.893L144.766 186.756C144.64 186.756 144.535 186.64 144.545 186.513C144.556 186.387 144.661 186.281 144.788 186.292L148.825 186.429C148.951 186.429 149.057 186.545 149.046 186.672C149.036 186.788 148.93 186.893 148.804 186.893Z" fill="#000139"/>
<path d="M128.28 171.811L127.637 181.103H122.45L122.208 171.811H128.28Z" fill="white"/>
<path d="M127.637 181.335H122.461C122.334 181.335 122.229 181.23 122.229 181.114L121.986 171.822C121.986 171.759 122.007 171.695 122.05 171.653C122.092 171.611 122.155 171.579 122.218 171.579H128.28C128.343 171.579 128.406 171.611 128.448 171.653C128.49 171.695 128.511 171.759 128.511 171.832L127.868 181.124C127.858 181.24 127.752 181.335 127.637 181.335ZM122.682 180.871H127.415L128.027 172.043H122.45L122.682 180.871Z" fill="#000139"/>
<path d="M128.986 186.355C128.996 187.231 128.395 188.011 127.542 188.201C124.569 188.897 117.854 190.437 115.946 190.722C113.458 191.091 110.412 190.331 109.094 188.876C107.787 187.42 112.035 183.951 114.049 182.696C117.042 180.818 119.92 177.116 121.132 176.948C122.345 176.779 124.59 180.28 124.59 180.28L128.269 178.73C128.28 178.73 128.923 181.894 128.986 186.355Z" fill="white"/>
<path d="M114.639 191.049C112.362 191.049 110.022 190.258 108.915 189.034C108.662 188.76 108.567 188.412 108.62 188.001C108.873 186.187 112.299 183.508 113.911 182.495C115.387 181.567 116.821 180.217 118.075 179.015C119.425 177.728 120.405 176.8 121.08 176.716C122.281 176.547 124.158 179.236 124.664 179.996L128.174 178.519C128.237 178.487 128.311 178.498 128.374 178.53C128.438 178.561 128.48 178.625 128.49 178.688C128.501 178.719 129.133 181.915 129.207 186.345C129.218 187.326 128.543 188.201 127.584 188.422C124.738 189.087 117.896 190.658 115.967 190.943C115.545 191.017 115.092 191.049 114.639 191.049ZM121.227 177.169C121.206 177.169 121.185 177.169 121.164 177.169C120.637 177.243 119.551 178.266 118.413 179.352C117.137 180.565 115.682 181.936 114.175 182.885C112.509 183.93 109.305 186.513 109.094 188.064C109.052 188.328 109.115 188.549 109.273 188.718C110.507 190.078 113.416 190.859 115.914 190.49C117.833 190.205 124.653 188.633 127.499 187.969C128.248 187.8 128.775 187.115 128.764 186.345C128.712 182.706 128.269 179.911 128.111 179.046L124.695 180.481C124.59 180.523 124.474 180.491 124.411 180.396C123.578 179.131 122.018 177.169 121.227 177.169Z" fill="#000139"/>
<path d="M114.702 189.351C112.826 189.351 111.171 188.992 110.117 188.043C110.022 187.958 110.011 187.811 110.095 187.716C110.18 187.621 110.327 187.61 110.422 187.695C114.291 191.186 127.415 185.881 127.542 185.828C127.658 185.775 127.795 185.838 127.847 185.955C127.9 186.071 127.837 186.208 127.721 186.26C127.31 186.419 120.078 189.351 114.702 189.351Z" fill="#000139"/>
<path d="M120.437 183.719C120.384 183.719 120.321 183.697 120.279 183.655L117.643 181.282C117.548 181.198 117.538 181.05 117.622 180.955C117.706 180.86 117.854 180.85 117.949 180.934L120.584 183.307C120.679 183.392 120.69 183.539 120.605 183.634C120.563 183.687 120.5 183.719 120.437 183.719Z" fill="#000139"/>
<path d="M149.911 111.22C149.911 111.22 151.513 140.277 152.356 150.307C153.2 160.336 150.396 176.462 150.396 176.462L142.405 176.041C142.405 176.041 141.857 156.434 141.267 150.992C141.267 150.992 137.893 143.609 136.892 137.028C135.891 130.447 132.486 120.048 132.486 120.048C132.486 120.048 129.713 171.938 129.45 176.019C129.45 176.019 123.177 176.294 120.932 174.88C120.932 174.88 116.947 155.96 117.517 145.666C118.086 135.372 117.464 109.797 117.464 109.797L149.911 111.22Z" fill="#000139"/>
<path d="M145.167 151.224H142.721C142.595 151.224 142.49 151.119 142.49 150.992C142.49 150.866 142.595 150.76 142.721 150.76H145.167C145.294 150.76 145.399 150.866 145.399 150.992C145.399 151.119 145.294 151.224 145.167 151.224Z" fill="white"/>
<path d="M125.317 166.316C125.191 166.316 125.085 166.211 125.085 166.084C125.001 161.423 119.636 152.658 119.583 152.564C119.52 152.458 119.551 152.31 119.657 152.247C119.762 152.184 119.91 152.215 119.973 152.321C120.194 152.68 125.454 161.286 125.549 166.074C125.549 166.2 125.444 166.306 125.317 166.316Z" fill="white"/>
<path d="M98.9426 80.2235C98.9426 80.2235 99.5118 78.5465 97.7409 77.8821C95.9593 77.2176 94.4203 76.1841 93.7245 75.3298C93.0183 74.4649 92.7864 76.4899 94.0092 77.4497C95.2214 78.42 95.0844 80.2235 95.0844 80.2235H98.9426Z" fill="white"/>
<path d="M98.9426 80.466H95.0738C95.0106 80.466 94.9473 80.4344 94.9052 80.3922C94.863 80.35 94.8419 80.2762 94.8419 80.2129C94.8419 80.1918 94.9579 78.5149 93.851 77.6395C93.0182 76.9751 92.818 75.9099 92.9339 75.372C93.0077 75.0239 93.1975 74.929 93.3134 74.9079C93.4505 74.8763 93.6613 74.8974 93.8932 75.1927C94.61 76.0786 96.1491 77.0595 97.8146 77.6817C99.7859 78.42 99.1639 80.2973 99.1534 80.3184C99.1323 80.4028 99.0374 80.466 98.9426 80.466ZM95.3058 79.9914H98.7634C98.8477 79.6012 98.911 78.5676 97.6565 78.1036C95.9277 77.4497 94.3043 76.4161 93.5348 75.4774C93.4821 75.4142 93.4505 75.3825 93.4188 75.372C93.3977 75.4247 93.3556 75.5407 93.3661 75.7517C93.3872 76.1841 93.598 76.8485 94.1356 77.2809C95.1687 78.093 95.3058 79.443 95.3058 79.9914Z" fill="#000139"/>
<path d="M100.271 71.6912H91.2156V80.7508H100.271V71.6912Z" fill="#000139"/>
<path d="M110.507 72.2501C110.507 76.4583 110.654 78.6415 109.811 79.2215C108.968 79.8016 100.924 79.8649 100.735 80.0653C100.144 79.5063 98.4787 78.1879 96.0858 78.3778C93.0815 78.6204 91.943 75.5302 90.4145 76.3634C90.4145 76.3634 88.1165 74.0431 87.1677 75.4985L88.6752 76.9223C88.6752 76.9223 87.4207 75.952 86.725 76.6376C86.725 76.6376 89.1917 80.0969 89.6133 80.9196C90.035 81.7317 93.1131 83.3664 93.967 83.4613C94.8314 83.5562 97.8568 82.7547 100.081 84.3683C100.081 84.3683 100.113 84.3472 100.165 84.3156C100.387 84.632 111.35 87.3636 121.291 86.8785C131.242 86.4039 110.507 63.4225 110.507 72.2501Z" fill="white"/>
<path d="M118.866 87.1738C110.401 87.1738 101.673 85.2332 100.186 84.5793C100.113 84.6215 100.018 84.6109 99.944 84.5582C98.3101 83.3664 96.1807 83.5457 94.9052 83.6512C94.494 83.6828 94.1567 83.7144 93.9353 83.6933C92.9971 83.5879 89.8663 81.911 89.4025 81.025C88.9914 80.234 86.5563 76.8063 86.5247 76.7747C86.4614 76.6798 86.472 76.5532 86.5563 76.4688C86.8409 76.1841 87.1993 76.1313 87.5367 76.1735L86.999 75.6673C86.9147 75.5934 86.9042 75.4669 86.9674 75.372C87.1993 75.0239 87.505 74.8341 87.8845 74.7919C88.8754 74.697 90.0772 75.7306 90.4566 76.0786C91.2473 75.7517 91.943 76.2895 92.6914 76.838C93.5664 77.5024 94.5678 78.2512 96.0753 78.1352C98.426 77.9454 100.102 79.1688 100.798 79.7911C101.082 79.7383 101.736 79.6961 103.454 79.6118C105.605 79.5063 109.21 79.3375 109.684 79.0106C110.306 78.5887 110.296 76.8063 110.285 73.8638C110.285 73.3575 110.275 72.8197 110.275 72.2396C110.275 70.4045 111.139 70.0037 111.866 69.9931C111.877 69.9931 111.888 69.9931 111.898 69.9931C113.911 69.9931 117.148 72.8724 119.319 75.3614C121.638 77.9981 124.137 81.7527 124.221 84.3367C124.263 85.539 123.789 86.9945 121.301 87.1105C120.51 87.1632 119.688 87.1738 118.866 87.1738ZM100.334 84.1469C100.903 84.4738 111.35 87.1316 121.291 86.6464C122.998 86.5621 123.81 85.8132 123.768 84.3472C123.705 82.2801 121.87 78.9473 118.982 75.6567C116.231 72.5244 113.363 70.415 111.877 70.4572C111.592 70.4572 110.738 70.4783 110.738 72.2396C110.738 72.8197 110.738 73.3575 110.749 73.8638C110.77 77.1755 110.77 78.8313 109.948 79.4008C109.41 79.77 106.817 79.9176 103.475 80.0758C102.284 80.1286 101.061 80.1918 100.851 80.2446C100.766 80.2973 100.65 80.2868 100.576 80.2129C99.9967 79.6645 98.3839 78.4094 96.1069 78.5887C94.4308 78.7258 93.3134 77.8821 92.4068 77.2071C91.574 76.5848 91.0786 76.2473 90.5199 76.5532C90.425 76.6059 90.3196 76.5848 90.2458 76.511C89.8663 76.1313 88.7173 75.161 87.9267 75.2349C87.7475 75.256 87.5999 75.3298 87.4734 75.4563L88.8333 76.7325C88.9281 76.8169 88.9281 76.954 88.8543 77.0489C88.77 77.1438 88.633 77.1544 88.5381 77.0805C88.5276 77.07 87.621 76.3845 87.0517 76.6587C87.5788 77.3969 89.4552 80.0547 89.8242 80.7719C90.2142 81.5102 93.208 83.1027 93.9986 83.1976C94.1778 83.2187 94.5046 83.1871 94.8735 83.1555C96.1807 83.05 98.3417 82.8707 100.102 84.0625C100.176 84.073 100.271 84.0941 100.334 84.1469Z" fill="#000139"/>
<path d="M93.5348 79.7911C93.4715 79.7911 93.4188 79.77 93.3661 79.7172L90.2458 76.5321C90.151 76.4372 90.1615 76.2895 90.2458 76.2052C90.3407 76.1102 90.4883 76.1208 90.5726 76.2052L93.6929 79.3903C93.7878 79.4852 93.7773 79.6328 93.6929 79.7172C93.6508 79.7594 93.5875 79.7911 93.5348 79.7911Z" fill="#000139"/>
<path d="M91.5319 80.5293C91.4687 80.5293 91.4054 80.4977 91.3527 80.445L88.4854 77.07C88.4011 76.9751 88.4116 76.8274 88.517 76.743C88.6119 76.6587 88.7595 76.6692 88.8438 76.7747L91.7111 80.1496C91.7954 80.2446 91.7849 80.3922 91.6795 80.4766C91.6373 80.5082 91.5846 80.5293 91.5319 80.5293Z" fill="#000139"/>
<path d="M119.562 56.4511C114.85 59.8366 112.478 60.5116 108.883 73.1782L113.88 72.8302C114.386 69.0123 116.99 61.6401 119.562 56.4511Z" fill="#000139"/>
<path d="M125.212 53.7723C125.212 53.7723 113.764 56.8835 112.657 67.1982C111.55 77.5235 114.829 108.647 115.271 111.315C115.725 113.984 123.062 116.462 133.382 117.232C143.702 118.012 145.958 112.686 145.958 112.686C145.958 112.686 148.857 117.612 150.638 117.685C152.42 117.759 150.301 77.1016 149.626 74.6442C148.951 72.1869 153.463 60.4378 141.53 55.3121C136.428 53.1394 126.804 53.2133 125.212 53.7723Z" fill="#000139"/>
<path d="M113.311 91.3503C113.195 91.3503 113.089 91.2554 113.079 91.1393C112.573 84.5476 112.288 79.0106 112.214 74.6653C112.214 74.5388 112.32 74.4333 112.446 74.4333C112.573 74.4333 112.678 74.5388 112.678 74.6653C112.741 79 113.037 84.5371 113.532 91.1182C113.543 91.2448 113.448 91.3608 113.321 91.3714C113.321 91.3503 113.311 91.3503 113.311 91.3503Z" fill="white"/>
<path d="M112.436 72.9357C112.309 72.9357 112.204 72.8302 112.204 72.7036C112.204 70.4361 112.278 68.5799 112.436 67.1772C112.446 67.0506 112.562 66.9557 112.689 66.9662C112.815 66.9768 112.91 67.0928 112.9 67.2193C112.752 68.601 112.678 70.4466 112.678 72.7036C112.668 72.8302 112.562 72.9357 112.436 72.9357Z" fill="white"/>
<path d="M146.263 75.8571L143.133 71.554L140.813 54.9429C146.938 56.5882 152.504 63.3909 157.88 71.7861L146.263 75.8571Z" fill="#000139"/>
<path d="M140.476 117.559C130.261 117.559 121.533 116.283 119.066 114.247C118.971 114.163 118.95 114.015 119.035 113.92C119.119 113.825 119.267 113.804 119.361 113.889C122.313 116.325 135.258 117.664 148.224 116.852C148.351 116.852 148.467 116.937 148.467 117.074C148.477 117.2 148.382 117.316 148.245 117.316C145.62 117.485 142.995 117.559 140.476 117.559Z" fill="white"/>
<path d="M127.795 42.6033C127.868 42.7404 130.04 46.5899 131.379 48.9735C132.064 50.1969 132.992 51.2727 134.088 52.1481L136.396 53.9726C135.195 54.848 132.285 55.2382 129.355 55.966C126.361 56.7042 123.831 56.5039 122.355 56.2718C122.492 55.8711 125.201 54.2047 124.875 53.1605C124.305 51.3465 123.019 49.8383 122.081 48.1825L127.795 42.6033Z" fill="white"/>
<path d="M125.085 56.7253C124.158 56.7253 123.241 56.6515 122.313 56.5144C122.25 56.5039 122.187 56.4617 122.155 56.4089C122.123 56.3457 122.113 56.2824 122.134 56.2191C122.197 56.0398 122.429 55.8394 122.935 55.407C123.641 54.8164 124.822 53.8144 124.653 53.2555C124.284 52.0742 123.578 50.9985 122.903 49.9543C122.556 49.427 122.197 48.8786 121.881 48.3196C121.828 48.2247 121.849 48.1087 121.923 48.0348L127.637 42.4451C127.689 42.3923 127.763 42.3712 127.837 42.3818C127.911 42.3923 127.974 42.4345 128.005 42.5083C128.037 42.5822 128.691 43.7423 131.59 48.8786C132.264 50.0809 133.16 51.125 134.246 51.9793L136.555 53.8039C136.607 53.8461 136.639 53.9199 136.639 53.9937C136.639 54.0676 136.607 54.1308 136.544 54.173C135.638 54.8375 133.877 55.2172 131.821 55.6601C131.041 55.8289 130.23 56.0082 129.418 56.2085C127.984 56.546 126.53 56.7253 125.085 56.7253ZM122.808 56.1136C124.98 56.3984 127.162 56.2718 129.292 55.7445C130.114 55.5441 130.925 55.3648 131.716 55.1961C133.519 54.8058 135.1 54.4683 135.996 53.9516L133.951 52.3379C132.823 51.4414 131.885 50.3551 131.178 49.1001C129.26 45.704 128.132 43.6896 127.742 42.9935L122.376 48.2458C122.661 48.7415 122.977 49.2266 123.293 49.7012C123.989 50.7664 124.706 51.8738 125.096 53.1078C125.37 53.9621 124.137 54.9957 123.241 55.755C123.093 55.8605 122.935 55.9976 122.808 56.1136Z" fill="#000139"/>
<path d="M113.796 37.2982C115.967 35.5686 118.465 37.4565 121.006 35.3366C122.165 34.3663 122.292 33.4381 123.673 32.9108C124.59 32.5628 126.213 32.3518 127.278 33.185C128.638 34.2608 127.594 35.8744 128.649 39.5658C129.386 42.1497 130.462 43.2888 129.829 44.1853C129.197 45.0923 127.774 44.3962 127.015 45.3349C126.024 46.5477 127.763 48.4883 127.183 50.218C126.783 51.3992 124.948 53.0762 120.395 53.5719C120.152 52.8336 119.572 51.3887 119.203 49.9649C118.044 45.5247 118.739 43.8478 117.643 43.2572C115.967 42.3501 113.88 45.0185 112.636 44.1853C111.35 43.3204 111.571 39.0701 113.796 37.2982Z" fill="#000139"/>
<path d="M122.64 39.608L122.187 40.8947C122.187 40.8947 123.789 45.0079 124.063 46.5583C124.337 48.1087 119.614 49.311 119.614 49.311L118.887 48.752L117.569 49.0579C117.569 49.0579 117.685 44.565 116.526 41.5486C116.515 41.5486 118.782 38.8908 122.64 39.608Z" fill="white"/>
<path d="M122.851 39.492C122.735 39.9666 122.587 40.4939 122.418 40.9791V40.8209C122.766 41.7173 123.093 42.6138 123.409 43.5314C123.715 44.4384 124.031 45.3454 124.253 46.3052L124.295 46.4845C124.305 46.5372 124.316 46.6321 124.316 46.7059C124.305 46.8641 124.274 47.0118 124.211 47.1489C124.084 47.4126 123.894 47.613 123.694 47.7817C123.304 48.1192 122.861 48.3512 122.418 48.5622C121.533 48.984 120.616 49.2899 119.678 49.543C119.604 49.5641 119.541 49.543 119.477 49.5008L118.75 48.9418L118.94 48.984L117.601 49.2266H117.59C117.506 49.2477 117.411 49.1844 117.401 49.0895C117.401 49.079 117.401 49.0684 117.401 49.0579C117.401 48.4356 117.38 47.7923 117.337 47.17C117.295 46.5372 117.243 45.9149 117.158 45.2821C117.074 44.6599 116.969 44.0376 116.831 43.4259C116.694 42.8142 116.515 42.213 116.294 41.633V41.6224C116.262 41.5486 116.283 41.4642 116.336 41.4009C116.747 40.958 117.19 40.6099 117.685 40.3041C118.17 39.9982 118.708 39.7556 119.256 39.5869C119.804 39.4181 120.384 39.3021 120.953 39.281C121.238 39.2494 121.533 39.281 121.818 39.281C121.944 39.281 122.144 39.3127 122.324 39.3549C122.513 39.3865 122.693 39.4392 122.851 39.492ZM122.44 39.724C122.324 39.7345 122.218 39.7556 122.123 39.7556C122.018 39.7662 121.944 39.7345 121.797 39.7345C121.522 39.724 121.259 39.7029 120.985 39.7345C120.447 39.7556 119.91 39.8611 119.404 40.0193C118.887 40.1775 118.392 40.4095 117.938 40.6943C117.485 40.9791 117.042 41.3271 116.694 41.6962L116.737 41.4642C116.958 42.0759 117.127 42.6982 117.253 43.331C117.38 43.9638 117.475 44.5966 117.548 45.2294C117.622 45.8622 117.664 46.5056 117.696 47.1384C117.727 47.7817 117.738 48.4145 117.717 49.0579L117.517 48.8997L118.824 48.52C118.887 48.4989 118.95 48.52 119.003 48.5516L119.014 48.5622L119.741 49.1211L119.541 49.079C120.447 48.8364 121.354 48.5305 122.197 48.1297C122.619 47.9294 123.03 47.6973 123.367 47.4126C123.536 47.2649 123.683 47.1067 123.757 46.938C123.799 46.8536 123.81 46.7692 123.82 46.6848C123.81 46.6427 123.82 46.611 123.81 46.5477L123.778 46.379C123.567 45.472 123.262 44.5544 122.946 43.6579C122.629 42.7615 122.303 41.8544 121.955 40.9685C121.934 40.9158 121.934 40.863 121.955 40.8103C122.102 40.4412 122.26 40.1037 122.44 39.724Z" fill="#000139"/>
<path d="M124.179 43.2361C124.179 43.2361 123.821 40.2408 125.212 40.3674C126.603 40.4939 126.92 43.795 124.179 43.2361Z" fill="white"/>
<path d="M124.769 43.5314C124.58 43.5314 124.369 43.5103 124.137 43.4681C124.042 43.447 123.968 43.3626 123.947 43.2677C123.926 43.0568 123.715 41.1689 124.421 40.4306C124.632 40.2092 124.906 40.1142 125.223 40.1353C125.686 40.1775 126.097 40.515 126.319 41.0423C126.593 41.6962 126.509 42.4767 126.108 42.9618C125.887 43.2466 125.476 43.5314 124.769 43.5314ZM124.39 43.0462C125.012 43.1411 125.486 43.0146 125.76 42.6665C126.045 42.308 126.108 41.7173 125.897 41.2216C125.739 40.8525 125.486 40.631 125.191 40.5994C125.012 40.5888 124.875 40.631 124.759 40.747C124.327 41.2005 124.337 42.424 124.39 43.0462Z" fill="#000139"/>
<path d="M119.614 78.7258L134.193 69.276C134.562 69.0334 135.058 69.1389 135.3 69.508L147.655 88.5765C147.897 88.9456 147.792 89.4413 147.423 89.6839L132.844 99.1338C132.475 99.3763 131.98 99.2709 131.737 98.9017L119.383 79.8332C119.14 79.4641 119.245 78.9684 119.614 78.7258Z" fill="white"/>
<path d="M132.401 99.5029C132.064 99.5029 131.727 99.3342 131.537 99.0283L119.182 79.9598C118.877 79.4852 119.014 78.8418 119.488 78.5254L134.067 69.0756C134.541 68.7697 135.184 68.9068 135.5 69.3814L147.855 88.4499C148.003 88.6819 148.055 88.9562 148.003 89.2304C147.95 89.5046 147.781 89.7366 147.549 89.8843L132.971 99.3342C132.791 99.4502 132.591 99.5029 132.401 99.5029ZM119.741 78.9157C119.477 79.0844 119.404 79.443 119.572 79.7067L131.927 98.7752C132.096 99.0388 132.454 99.1127 132.718 98.9439L147.296 89.4941C147.423 89.4097 147.507 89.2831 147.539 89.1355C147.57 88.9878 147.539 88.8296 147.465 88.703L135.11 69.6345C134.942 69.3709 134.583 69.297 134.32 69.4658L119.741 78.9157Z" fill="#000139"/>
<path d="M123.104 75.3087L129.671 71.0584C130.124 70.763 130.736 70.8896 131.02 71.3431L131.99 72.8407L123.789 78.1563L122.819 76.6587C122.513 76.2157 122.65 75.604 123.104 75.3087Z" fill="white"/>
<path d="M123.778 78.3989C123.757 78.3989 123.747 78.3989 123.726 78.3989C123.662 78.3883 123.61 78.3461 123.578 78.2934L122.608 76.7958C122.25 76.2368 122.408 75.488 122.967 75.1189L129.534 70.8685C130.093 70.5099 130.841 70.6681 131.21 71.2271L132.18 72.7247C132.254 72.8302 132.222 72.9779 132.117 73.0411L123.915 78.3567C123.873 78.3883 123.831 78.3989 123.778 78.3989ZM123.23 75.5091C122.882 75.7306 122.787 76.1946 123.009 76.5427L123.852 77.8505L131.663 72.788L130.82 71.4802C130.599 71.1322 130.135 71.0373 129.787 71.2587L123.23 75.5091Z" fill="#000139"/>
<path d="M124 73.3786L125.138 75.1399L128.67 72.8513L127.531 71.09C126.899 70.1197 125.602 69.8349 124.622 70.4677C123.652 71.1005 123.367 72.3978 124 73.3786ZM125.043 71.881C124.917 71.6912 124.97 71.4275 125.17 71.3115C125.36 71.1849 125.623 71.2376 125.739 71.438C125.866 71.6279 125.813 71.8915 125.613 72.0076C125.423 72.1236 125.159 72.0708 125.043 71.881Z" fill="white"/>
<path d="M125.149 75.372C125.075 75.372 125.001 75.3298 124.948 75.2665L123.81 73.5052C123.114 72.4294 123.42 70.974 124.495 70.2779C125.022 69.9404 125.644 69.8244 126.256 69.9509C126.867 70.0775 127.384 70.4361 127.731 70.9634L128.87 72.7247C128.944 72.8302 128.912 72.9779 128.807 73.0411L125.275 75.3298C125.233 75.3614 125.191 75.372 125.149 75.372ZM124.2 73.2521L125.212 74.8235L128.353 72.788L127.341 71.2166C127.067 70.7947 126.656 70.5099 126.161 70.4045C125.676 70.299 125.17 70.3939 124.759 70.6681C123.884 71.2271 123.631 72.3872 124.2 73.2521ZM125.391 72.3029C125.18 72.3029 124.97 72.1974 124.843 72.0076C124.748 71.8599 124.717 71.6912 124.748 71.5224C124.78 71.3537 124.885 71.206 125.033 71.1111C125.328 70.9212 125.739 71.0056 125.929 71.3009C126.024 71.4486 126.055 71.6173 126.024 71.7861C125.992 71.9548 125.887 72.1025 125.739 72.1974C125.634 72.2607 125.507 72.3029 125.391 72.3029ZM125.391 71.4697C125.36 71.4697 125.317 71.4802 125.296 71.5013C125.254 71.533 125.223 71.5646 125.212 71.6173C125.201 71.6701 125.212 71.7123 125.233 71.7544C125.286 71.8388 125.402 71.8599 125.486 71.8072C125.528 71.7755 125.56 71.7439 125.57 71.6912C125.581 71.6384 125.57 71.5962 125.549 71.554C125.518 71.5119 125.486 71.4802 125.433 71.4697C125.412 71.4697 125.402 71.4697 125.391 71.4697Z" fill="#000139"/>
<path d="M125.296 81.2887L134.204 75.5091C134.425 75.3614 134.488 75.0661 134.341 74.8446C134.193 74.6232 133.898 74.5599 133.677 74.7075L124.769 80.4871C124.548 80.6348 124.485 80.9301 124.632 81.1516C124.78 81.3625 125.075 81.4258 125.296 81.2887Z" fill="#000139"/>
<path d="M126.372 82.934L135.279 77.1544C135.5 77.0067 135.564 76.7114 135.416 76.4899C135.269 76.2684 134.973 76.2052 134.752 76.3528L125.844 82.1324C125.623 82.2801 125.56 82.5754 125.707 82.7969C125.855 83.0184 126.15 83.0816 126.372 82.934Z" fill="#000139"/>
<path d="M127.436 84.5898L136.344 78.8102C136.565 78.6626 136.628 78.3672 136.481 78.1458C136.333 77.9243 136.038 77.861 135.817 78.0087L126.909 83.7883C126.688 83.9359 126.625 84.2312 126.772 84.4527C126.92 84.6742 127.215 84.7375 127.436 84.5898Z" fill="#000139"/>
<path d="M156.583 71.881L146.759 76.2263C146.759 76.2263 149.489 81.236 140.16 84.7058C130.831 88.1757 128.891 86.5621 128.891 86.5621L125.686 81.3414C125.686 81.3414 124.569 81.5629 125.265 83.3559C125.96 85.1593 126.35 85.8976 124.506 85.7289C122.661 85.5601 120.879 83.1555 120.879 83.1555C120.879 83.1555 120.626 84.9695 121.554 86.3089C121.554 86.3089 120.711 86.8257 121.891 88.4605C121.891 88.4605 121.501 89.2093 123.156 90.612C123.156 90.612 122.06 91.5401 125.265 92.2151C127.036 92.5842 129.313 91.962 129.313 91.962C129.313 91.962 142.89 95.5162 150.975 90.612C159.071 85.6972 156.583 71.881 156.583 71.881Z" fill="white"/>
<path d="M139.633 93.4069C134.415 93.4069 129.892 92.3311 129.323 92.1835C128.944 92.2784 126.888 92.7741 125.233 92.426C123.715 92.1096 122.914 91.6878 122.777 91.1393C122.724 90.939 122.777 90.7597 122.851 90.6226C121.617 89.5257 121.586 88.7874 121.649 88.4816C121.164 87.7855 120.974 87.1843 121.069 86.6992C121.111 86.4988 121.196 86.3617 121.269 86.2562C120.426 84.8851 120.658 83.1871 120.669 83.1027C120.679 83.0078 120.753 82.934 120.837 82.9129C120.932 82.8918 121.027 82.9234 121.08 82.9973C121.101 83.0184 122.819 85.3281 124.537 85.4757C125.265 85.539 125.507 85.4441 125.57 85.3492C125.728 85.1383 125.465 84.4738 125.159 83.6933L125.054 83.4086C124.759 82.6492 124.738 82.0375 124.969 81.6051C125.212 81.1727 125.623 81.0883 125.644 81.0883C125.739 81.0672 125.834 81.1094 125.887 81.1938L129.06 86.3722C129.313 86.5199 131.611 87.6062 140.075 84.4633C143.66 83.1344 145.852 81.4363 146.611 79.4219C147.265 77.6923 146.548 76.3317 146.548 76.3212C146.516 76.2684 146.516 76.1946 146.537 76.1313C146.558 76.0681 146.601 76.0153 146.664 75.9942L156.489 71.649C156.552 71.6173 156.626 71.6279 156.689 71.6595C156.752 71.6912 156.794 71.7544 156.805 71.8283C156.826 71.9654 159.219 85.866 151.091 90.7808C147.781 92.8163 143.512 93.4069 139.633 93.4069ZM129.323 91.7194C129.344 91.7194 129.365 91.7194 129.386 91.73C129.523 91.7616 142.964 95.1998 150.87 90.4116C158.08 86.0453 156.699 74.2435 156.404 72.229L147.075 76.3528C147.275 76.8485 147.634 78.0825 147.064 79.6012C146.263 81.7527 143.965 83.5457 140.244 84.9273C130.904 88.4077 128.828 86.8152 128.743 86.7414C128.722 86.7203 128.712 86.7097 128.691 86.6886L125.591 81.6367C125.518 81.6789 125.433 81.7527 125.37 81.8793C125.212 82.1852 125.244 82.6703 125.486 83.282L125.591 83.5562C126.003 84.6109 126.245 85.2437 125.939 85.6656C125.718 85.9504 125.286 86.0453 124.495 85.9714C123.083 85.8449 121.733 84.516 121.09 83.7777C121.09 84.3894 121.206 85.3808 121.754 86.1824C121.786 86.2351 121.807 86.2984 121.786 86.3617C121.775 86.425 121.733 86.4777 121.681 86.5093C121.681 86.5093 121.554 86.6042 121.512 86.8257C121.47 87.0894 121.533 87.5534 122.081 88.3234C122.134 88.3972 122.144 88.4921 122.102 88.5659C122.102 88.5659 121.86 89.2093 123.314 90.4327C123.367 90.4749 123.399 90.5382 123.399 90.612C123.399 90.6753 123.367 90.7491 123.314 90.7913C123.314 90.7913 123.188 90.9073 123.22 91.0444C123.251 91.171 123.504 91.6034 125.317 91.9831C127.015 92.3417 129.228 91.7405 129.249 91.73C129.281 91.7194 129.302 91.7194 129.323 91.7194Z" fill="#000139"/>
<path d="M30.855 60.3007C42.9122 60.3007 52.6865 50.5216 52.6865 38.4584C52.6865 26.3952 42.9122 16.6161 30.855 16.6161C18.7978 16.6161 9.02356 26.3952 9.02356 38.4584C9.02356 50.5216 18.7978 60.3007 30.855 60.3007Z" fill="#000139"/>
<path d="M36.0836 45.4403C36.0309 44.2591 35.0822 43.2993 33.912 43.215C33.1741 43.1622 32.4995 43.4575 32.0357 43.9532C31.9197 44.0798 31.751 44.1536 31.5824 44.1536C31.2345 44.1536 30.9604 43.8794 30.9604 43.5314V43.4154V38.6799H26.2273H26.1113C25.7635 38.6799 25.4894 38.9646 25.4894 39.3021C25.4894 39.4709 25.5632 39.6396 25.6897 39.7556C26.1851 40.2197 26.4803 40.8947 26.4276 41.633C26.3433 42.8142 25.384 43.7529 24.2033 43.8056C22.8646 43.8689 21.7472 42.7931 21.7472 41.4642C21.7472 40.7892 22.0318 40.1775 22.4956 39.7451C22.6221 39.6291 22.6959 39.4603 22.6959 39.2916C22.6959 38.9435 22.4113 38.6693 22.0739 38.6693H21.958H17.2249V50.7453C17.2249 51.6735 17.9733 52.4223 18.901 52.4223H30.971V47.6868V47.5708C30.971 47.2227 31.245 46.9485 31.5929 46.9485C31.7616 46.9485 31.9302 47.0223 32.0462 47.1489C32.4784 47.613 33.0793 47.8977 33.7645 47.8977C35.0822 47.8977 36.1468 46.7903 36.0836 45.4403Z" fill="white"/>
<path d="M30.9499 52.6648H18.8799C17.8257 52.6648 16.9719 51.8106 16.9719 50.7559V38.6799C16.9719 38.5533 17.0773 38.4478 17.2038 38.4478H21.9369C21.9475 38.4478 21.958 38.4478 21.9791 38.4478H22.0529C22.5272 38.4478 22.9067 38.8275 22.9067 39.3021C22.9067 39.5447 22.8119 39.7662 22.6326 39.9244C22.2004 40.3252 21.958 40.8841 21.958 41.4748C21.958 42.0548 22.1899 42.6033 22.6116 43.004C23.0332 43.4048 23.5814 43.6157 24.1717 43.5841C25.2364 43.5314 26.1008 42.6876 26.1746 41.6224C26.2168 40.9791 25.9743 40.3674 25.5105 39.9244C25.3418 39.7662 25.2364 39.5342 25.2364 39.3021C25.2364 38.8275 25.6159 38.4478 26.0903 38.4478H26.1746C26.1851 38.4478 26.1957 38.4478 26.2062 38.4478H30.9394C31.0658 38.4478 31.1713 38.5533 31.1713 38.6799V43.3732C31.1713 43.3837 31.1713 43.4048 31.1713 43.4154V43.5314C31.1713 43.7423 31.3505 43.9216 31.5613 43.9216C31.6667 43.9216 31.7721 43.8794 31.8459 43.795C32.373 43.2255 33.132 42.9302 33.9121 42.9829C35.2192 43.0673 36.2417 44.122 36.305 45.4298C36.3366 46.1364 36.0836 46.8114 35.5987 47.3282C35.1032 47.845 34.4497 48.1298 33.7328 48.1298C33.016 48.1298 32.3308 47.8344 31.8459 47.3071C31.7721 47.2333 31.6667 47.1805 31.5613 47.1805C31.3505 47.1805 31.1713 47.3598 31.1713 47.5708V47.6868C31.1713 47.6973 31.1713 47.7184 31.1713 47.729V52.4223C31.1818 52.5594 31.0764 52.6648 30.9499 52.6648ZM17.4357 38.9119V50.7559C17.4357 51.5469 18.0787 52.2008 18.8799 52.2008H30.718V47.6973C30.718 47.6868 30.718 47.6657 30.718 47.6551V47.5813C30.718 47.1067 31.0975 46.727 31.5718 46.727C31.8038 46.727 32.0357 46.822 32.1938 47.0012C32.5944 47.4337 33.1531 47.6762 33.7434 47.6762C34.3232 47.6762 34.8713 47.4442 35.2719 47.0223C35.6725 46.6005 35.8833 46.052 35.8517 45.4614C35.799 44.3962 34.9557 43.5314 33.891 43.4575C33.2479 43.4154 32.6365 43.6579 32.1938 44.122C32.0357 44.2907 31.8038 44.3962 31.5718 44.3962C31.0975 44.3962 30.718 44.0165 30.718 43.5419V43.4681C30.718 43.4575 30.718 43.4365 30.718 43.4259V38.9224H26.2484C26.2378 38.9224 26.2273 38.9224 26.2168 38.9224H26.1008C25.89 38.9224 25.7108 39.1017 25.7108 39.3127C25.7108 39.4181 25.7529 39.5236 25.8373 39.5974C26.4065 40.1248 26.7017 40.8841 26.649 41.6646C26.5646 42.9724 25.5105 43.9954 24.2033 44.0587C23.4865 44.0903 22.8224 43.8372 22.3059 43.3521C21.7893 42.8564 21.5047 42.2025 21.5047 41.4853C21.5047 40.7681 21.7999 40.0826 22.3269 39.5974C22.4007 39.5236 22.4534 39.4181 22.4534 39.3127C22.4534 39.1017 22.2742 38.9224 22.0634 38.9224H21.9475C21.9369 38.9224 21.9264 38.9224 21.9053 38.9224H17.4357V38.9119Z" fill="#000139"/>
<path d="M39.6888 38.6799C39.4147 38.606 39.2144 38.3635 39.2144 38.0787C39.2144 37.91 39.2882 37.7412 39.4147 37.6252C39.9101 37.1611 40.2053 36.4862 40.1526 35.7479C40.0683 34.5666 39.109 33.628 37.9283 33.5753C36.5896 33.512 35.4722 34.5877 35.4722 35.9166C35.4722 36.5916 35.7568 37.2033 36.2206 37.6357C36.3471 37.7518 36.4209 37.9205 36.4209 38.0893C36.4209 38.3846 36.2206 38.6271 35.9465 38.6904H30.9393V43.4259V43.5419C30.9393 43.89 31.2134 44.1642 31.5613 44.1642C31.7299 44.1642 31.8986 44.0903 32.0145 43.9638C32.4784 43.4681 33.153 43.1728 33.8909 43.2255C35.0716 43.3099 36.0098 44.2696 36.0625 45.4509C36.1257 46.7903 35.0505 47.9083 33.7223 47.9083C33.0476 47.9083 32.4362 47.6235 32.004 47.1594C31.888 47.0329 31.7194 46.9591 31.5507 46.9591C31.2029 46.9591 30.9288 47.2438 30.9288 47.5813V47.6973V52.4328H42.9988C43.9264 52.4328 44.6749 51.684 44.6749 50.7559V38.6799H39.6888Z" fill="white"/>
<path d="M43.0199 52.6648H30.9499C30.8234 52.6648 30.718 52.5594 30.718 52.4328V47.6973C30.718 47.6868 30.718 47.6657 30.718 47.6551V47.5813C30.718 47.1067 31.0975 46.727 31.5718 46.727C31.8037 46.727 32.0356 46.822 32.1938 47.0012C32.5943 47.4337 33.153 47.6762 33.7434 47.6762C34.3232 47.6762 34.8713 47.4442 35.2719 47.0223C35.6725 46.6005 35.8833 46.052 35.8517 45.4614C35.799 44.3962 34.9556 43.5314 33.8909 43.4575C33.2479 43.4154 32.6365 43.6579 32.1938 44.122C32.0356 44.2907 31.8037 44.3962 31.5718 44.3962C31.0975 44.3962 30.718 44.0165 30.718 43.5419V43.4681C30.718 43.4575 30.718 43.4365 30.718 43.4259V38.6904C30.718 38.5639 30.8234 38.4584 30.9499 38.4584H35.9255C36.0836 38.4057 36.1995 38.258 36.1995 38.0893C36.1995 37.9838 36.1574 37.8783 36.073 37.8045C35.546 37.3193 35.2508 36.6338 35.2508 35.9166C35.2508 35.21 35.5354 34.5456 36.052 34.0499C36.5685 33.5542 37.2431 33.3116 37.9494 33.3432C39.2566 33.4065 40.3107 34.4295 40.3951 35.7373C40.4478 36.5178 40.1526 37.2666 39.5834 37.8045C39.5096 37.8783 39.4569 37.9838 39.4569 38.0893C39.4569 38.258 39.5623 38.4057 39.7309 38.4584H44.696C44.8225 38.4584 44.9279 38.5639 44.9279 38.6904V50.7664C44.9279 51.8106 44.074 52.6648 43.0199 52.6648ZM31.1818 52.2008H43.0199C43.8105 52.2008 44.4641 51.5574 44.4641 50.7559V38.9119H39.6888C39.6677 38.9119 39.6466 38.9119 39.6361 38.9014C39.2566 38.8064 38.993 38.4689 38.993 38.0682C38.993 37.8361 39.0879 37.6041 39.2671 37.4459C39.7309 37.0135 39.9839 36.3912 39.9312 35.7479C39.8574 34.6827 38.993 33.8389 37.9283 33.7862C37.3486 33.7651 36.7899 33.9655 36.3682 34.3663C35.9465 34.767 35.7146 35.3049 35.7146 35.8955C35.7146 36.4756 35.9571 37.0451 36.3893 37.4459C36.5579 37.6041 36.6634 37.8361 36.6634 38.0682C36.6634 38.4584 36.3998 38.7959 36.0203 38.9014C35.9992 38.9014 35.9782 38.9119 35.9676 38.9119H31.1923V43.3732C31.1923 43.3837 31.1923 43.4048 31.1923 43.4154V43.5314C31.1923 43.7423 31.3715 43.9216 31.5824 43.9216C31.6878 43.9216 31.7932 43.8794 31.867 43.795C32.3941 43.2255 33.153 42.9302 33.9331 42.9829C35.2403 43.0673 36.2628 44.122 36.326 45.4298C36.3577 46.1364 36.1047 46.8114 35.6198 47.3282C35.1243 47.845 34.4707 48.1298 33.7539 48.1298C33.0371 48.1298 32.3519 47.8344 31.867 47.3071C31.7932 47.2333 31.6878 47.1805 31.5824 47.1805C31.3715 47.1805 31.1923 47.3598 31.1923 47.5708V47.6868C31.1923 47.6973 31.1923 47.7184 31.1923 47.729V52.2008H31.1818Z" fill="#000139"/>
<path d="M43.02 24.9269H30.9499V29.8944C30.8972 30.1898 30.6442 30.4007 30.3385 30.4007C30.1699 30.4007 30.0012 30.3269 29.8852 30.2003C29.4214 29.7046 28.7468 29.4093 28.0089 29.462C26.8282 29.5464 25.89 30.5062 25.8373 31.6874C25.7741 33.0268 26.8493 34.1448 28.1775 34.1448C28.8522 34.1448 29.4636 33.86 29.8958 33.396C30.0117 33.2694 30.1804 33.1956 30.3491 33.1956C30.6548 33.1956 30.9078 33.4171 30.9605 33.7018V38.6693H35.9677C36.2418 38.5955 36.4421 38.3529 36.4421 38.0682C36.4421 37.8994 36.3683 37.7307 36.2418 37.6147C35.7779 37.1822 35.4933 36.5811 35.4933 35.8955C35.4933 34.5666 36.6002 33.4909 37.9495 33.5542C39.1301 33.6069 40.0894 34.5561 40.1737 35.7268C40.2265 36.4651 39.9313 37.1401 39.4358 37.6041C39.3093 37.7201 39.2356 37.8889 39.2356 38.0576C39.2356 38.3529 39.4358 38.5955 39.7099 38.6588H44.6961V26.6039C44.6961 25.6757 43.9476 24.9269 43.02 24.9269Z" fill="white"/>
<path d="M44.696 38.9119H39.6888C39.6677 38.9119 39.6466 38.9119 39.6361 38.9014C39.2566 38.8064 38.9931 38.4689 38.9931 38.0682C38.9931 37.8361 39.0879 37.6041 39.2672 37.4459C39.731 37.0135 39.984 36.3912 39.9313 35.7479C39.8575 34.6827 38.9931 33.8389 37.9284 33.7862C37.3486 33.7651 36.7899 33.9655 36.3682 34.3663C35.9466 34.767 35.7147 35.3049 35.7147 35.8955C35.7147 36.4756 35.9571 37.0451 36.3893 37.4459C36.558 37.6041 36.6634 37.8361 36.6634 38.0682C36.6634 38.4584 36.3999 38.7959 36.0204 38.9014C35.9993 38.9014 35.9782 38.9119 35.9677 38.9119H30.9605C30.834 38.9119 30.7285 38.8064 30.7285 38.6799V33.7335C30.6864 33.5542 30.5282 33.4276 30.349 33.4276C30.2436 33.4276 30.1382 33.4698 30.0644 33.5542C29.5795 34.0815 28.8943 34.3768 28.1775 34.3768C27.4712 34.3768 26.8071 34.092 26.3116 33.5753C25.8267 33.0585 25.5737 32.3835 25.6054 31.6768C25.6686 30.369 26.6911 29.3144 27.9983 29.23C28.7784 29.1773 29.5268 29.4726 30.0644 30.0421C30.1382 30.1159 30.2436 30.1687 30.349 30.1687C30.5282 30.1687 30.6864 30.0421 30.7285 29.8628V24.9269C30.7285 24.8004 30.834 24.6949 30.9605 24.6949H43.0305C44.0846 24.6949 44.9385 25.5492 44.9385 26.6039V38.6799C44.9279 38.8064 44.8225 38.9119 44.696 38.9119ZM39.7204 38.4478H44.4641V26.6039C44.4641 25.8129 43.8211 25.159 43.0199 25.159H31.1818V29.8944C31.1818 29.905 31.1818 29.9261 31.1818 29.9366C31.108 30.3374 30.7496 30.6327 30.3385 30.6327C30.1066 30.6327 29.8747 30.5378 29.7166 30.3585C29.2844 29.8944 28.6624 29.6413 28.0194 29.6941C26.9547 29.7679 26.1114 30.6327 26.0587 31.6979C26.027 32.278 26.2379 32.837 26.6384 33.2589C27.039 33.6807 27.5766 33.9127 28.167 33.9127C28.7467 33.9127 29.316 33.6702 29.7166 33.2378C29.8747 33.069 30.1066 32.9635 30.3385 32.9635C30.7496 32.9635 31.108 33.2588 31.1818 33.6596C31.1818 33.6702 31.1818 33.6913 31.1818 33.7018V38.4373H35.9255C36.0836 38.3846 36.1996 38.2369 36.1996 38.0682C36.1996 37.9627 36.1574 37.8572 36.0731 37.7834C35.546 37.2982 35.2508 36.6127 35.2508 35.8955C35.2508 35.1889 35.5355 34.5245 36.052 34.0288C36.5685 33.5331 37.2432 33.2905 37.9495 33.3221C39.2566 33.3854 40.3108 34.4084 40.3951 35.7162C40.4478 36.4967 40.1526 37.2455 39.5834 37.7834C39.5096 37.8572 39.4569 37.9627 39.4569 38.0682C39.4569 38.2475 39.5623 38.3951 39.7204 38.4478Z" fill="#000139"/>
<path d="M28.0088 29.462C28.7467 29.4093 29.4214 29.7046 29.8852 30.2003C30.0012 30.3269 30.1698 30.4007 30.3385 30.4007C30.6442 30.4007 30.8972 30.1792 30.9499 29.8944V24.9269H18.8799C17.9522 24.9269 17.2038 25.6757 17.2038 26.6039V38.6799H21.9369H22.0529C22.4008 38.6799 22.6748 38.9646 22.6748 39.3021C22.6748 39.4709 22.601 39.6396 22.4745 39.7556C22.0107 40.1881 21.7261 40.7892 21.7261 41.4748C21.7261 42.8036 22.833 43.8794 24.1823 43.8161C25.3629 43.7634 26.3222 42.8142 26.4065 41.6435C26.4592 40.9052 26.1641 40.2302 25.6686 39.7662C25.5421 39.6502 25.4683 39.4814 25.4683 39.3127C25.4683 38.9646 25.7424 38.6904 26.0903 38.6904H26.2062H30.9394V33.7229C30.8867 33.4276 30.6337 33.2167 30.328 33.2167C30.1593 33.2167 29.9906 33.2905 29.8747 33.4171C29.4425 33.8811 28.8416 34.1659 28.1564 34.1659C26.8282 34.1659 25.753 33.0585 25.8162 31.7085C25.89 30.5062 26.8282 29.5464 28.0088 29.462Z" fill="white"/>
<path d="M24.0768 44.0482C23.4127 44.0482 22.7802 43.795 22.3059 43.331C21.7893 42.8353 21.5047 42.1814 21.5047 41.4642C21.5047 40.747 21.7999 40.0615 22.3269 39.5763C22.4007 39.5025 22.4534 39.3971 22.4534 39.2916C22.4534 39.0807 22.2742 38.9014 22.0634 38.9014H21.9475C21.9369 38.9014 21.9264 38.9014 21.9053 38.9014H17.2038C17.0773 38.9014 16.9719 38.7959 16.9719 38.6693V26.6039C16.9719 25.5492 17.8257 24.6949 18.8799 24.6949H30.9499C31.0764 24.6949 31.1818 24.8004 31.1818 24.9269V29.8944C31.1818 29.905 31.1818 29.9261 31.1818 29.9366C31.108 30.3374 30.7496 30.6327 30.3385 30.6327C30.1066 30.6327 29.8747 30.5378 29.7165 30.3585C29.2843 29.8944 28.6624 29.6413 28.0194 29.6941C26.9547 29.7679 26.1113 30.6327 26.0586 31.6979C26.027 32.278 26.2378 32.837 26.6384 33.2589C27.039 33.6807 27.5766 33.9128 28.1669 33.9128C28.7467 33.9128 29.316 33.6702 29.7165 33.2378C29.8747 33.069 30.1066 32.9635 30.3385 32.9635C30.7496 32.9635 31.108 33.2589 31.1818 33.6596C31.1818 33.6702 31.1818 33.6913 31.1818 33.7018V38.6693C31.1818 38.7959 31.0764 38.9014 30.9499 38.9014H26.2484C26.2378 38.9014 26.2273 38.9014 26.2168 38.9014H26.1008C25.89 38.9014 25.7108 39.0807 25.7108 39.2916C25.7108 39.3971 25.7529 39.5025 25.8373 39.5763C26.4065 40.1037 26.7017 40.863 26.649 41.6435C26.5646 42.9513 25.5105 43.9743 24.2033 44.0376C24.1612 44.0482 24.119 44.0482 24.0768 44.0482ZM21.9791 38.4478H22.0529C22.5272 38.4478 22.9067 38.8275 22.9067 39.3021C22.9067 39.5447 22.8119 39.7662 22.6326 39.9244C22.2004 40.3252 21.958 40.8841 21.958 41.4748C21.958 42.0548 22.1899 42.6033 22.6116 43.004C23.0332 43.4048 23.5814 43.6157 24.1717 43.5841C25.2364 43.5314 26.1008 42.6876 26.1746 41.6224C26.2168 40.9791 25.9743 40.3674 25.5105 39.9244C25.3418 39.7662 25.2364 39.5342 25.2364 39.3021C25.2364 38.8275 25.6159 38.4478 26.0903 38.4478H26.1746C26.1851 38.4478 26.1957 38.4478 26.2062 38.4478H30.7074V33.7335C30.6653 33.5542 30.5072 33.4276 30.3279 33.4276C30.2225 33.4276 30.1171 33.4698 30.0433 33.5542C29.5584 34.0815 28.8732 34.3768 28.1564 34.3768C27.4501 34.3768 26.786 34.092 26.2905 33.5753C25.8056 33.0585 25.5526 32.3835 25.5843 31.6768C25.6475 30.369 26.67 29.3144 27.9772 29.23C28.7573 29.1773 29.5057 29.4726 30.0433 30.0421C30.1171 30.1159 30.2225 30.1687 30.3279 30.1687C30.5072 30.1687 30.6653 30.0421 30.7074 29.8628V25.1484H18.8799C18.0893 25.1484 17.4357 25.7918 17.4357 26.5933V38.4373H21.9369C21.958 38.4478 21.9685 38.4478 21.9791 38.4478Z" fill="#000139"/>
</svg>
