<svg width="190" height="192" viewBox="0 0 190 192" fill="none" xmlns="http://www.w3.org/2000/svg">
<path d="M64.9317 117.836C67.5273 116.21 57.7703 107.756 61.0122 99.7922C63.9727 92.5161 74.2717 94.3195 76.5754 87.4917C79.0459 80.1844 68.4863 74.5033 71.3008 67.1752C73.469 61.5253 80.3906 63.214 83.2572 57.3869C86.6972 50.3819 77.7429 45.8266 78.41 35.0689C79.0251 25.0305 87.1871 23.2376 85.1753 14.325C84.9147 13.1679 83.1843 6.17335 77.7533 3.98429C68.9137 0.429673 51.9433 10.27 48.8786 23.2689C46.2934 34.2142 55.5083 39.1969 51.8182 50.4549C48.6909 59.993 41.2481 58.9297 40.6748 67.0397C39.9972 76.6402 50.192 81.3519 48.618 91.8594C47.7945 97.3633 44.7298 97.8116 45.4178 102.19C46.8563 111.446 62.0651 119.629 64.9317 117.836Z" fill="white"/>
<path d="M63.8163 118.326C62.6697 118.326 61.0331 117.868 59.0838 116.971C54.0594 114.667 46.1996 108.84 45.178 102.221C44.8028 99.7817 45.5533 98.4996 46.4289 97.0089C47.169 95.7476 48.0134 94.3091 48.3887 91.8177C49.2017 86.3868 46.7833 82.4673 44.4483 78.6729C42.3218 75.233 40.1223 71.6575 40.4455 67.0188C40.7478 62.7658 42.8639 60.9937 45.3135 58.9506C47.5547 57.0846 50.0982 54.9581 51.5993 50.3715C53.4965 44.5862 51.9641 40.5625 50.3588 36.3094C48.9099 32.4734 47.3984 28.5122 48.6597 23.1959C50.5881 15.0338 57.5619 8.86277 63.4515 5.80851C68.872 2.99401 74.1257 2.24347 77.8471 3.74454C83.2781 5.9336 85.1023 12.8865 85.415 14.252C86.5096 19.1097 84.6124 21.9554 82.611 24.9576C80.8076 27.6574 78.9417 30.4511 78.6602 35.069C78.3475 40.208 80.2447 43.9086 81.9334 47.1818C83.7472 50.7051 85.3108 53.7489 83.4866 57.4703C82.0272 60.4516 79.5567 61.5045 77.1696 62.526C74.8137 63.5372 72.5934 64.4857 71.5406 67.2377C70.1542 70.8444 72.0722 73.9925 74.1049 77.3282C76.0542 80.5284 78.0765 83.8433 76.8152 87.5543C75.6372 91.0463 72.5204 92.3077 69.2264 93.6524C66.0262 94.9554 62.7114 96.3001 61.252 99.8756C59.3548 104.525 62.0025 109.361 63.931 112.895C65.3174 115.428 66.3181 117.263 65.0776 118.034C64.7545 118.232 64.3375 118.326 63.8163 118.326ZM73.6358 3.49436C70.6441 3.49436 67.152 4.43253 63.66 6.24632C57.8642 9.24846 50.9947 15.3153 49.1079 23.321C47.8883 28.4913 49.3685 32.39 50.7966 36.1531C52.3707 40.3018 53.9968 44.5862 52.0475 50.5279C50.5047 55.25 47.9091 57.4182 45.6158 59.3258C43.2496 61.296 41.2065 63.0055 40.9146 67.0605C40.6019 71.5429 42.6658 74.889 44.8445 78.4332C47.2316 82.3005 49.6917 86.293 48.8473 91.8907C48.4616 94.4759 47.5964 95.9561 46.825 97.2591C45.9598 98.7289 45.2823 99.886 45.6367 102.158C46.6374 108.59 54.3408 114.292 59.2714 116.544C61.8566 117.732 63.9727 118.149 64.7962 117.638C65.6614 117.096 64.7024 115.345 63.4827 113.125C61.5126 109.507 58.8023 104.556 60.7829 99.7088C62.3152 95.9457 65.7239 94.5697 69.0179 93.225C72.2181 91.9324 75.2307 90.7024 76.3461 87.4188C77.524 83.9163 75.6581 80.8516 73.6775 77.5888C71.6761 74.3053 69.6121 70.907 71.0715 67.0918C72.1973 64.1626 74.6157 63.1202 76.9611 62.1195C79.2648 61.1292 81.6519 60.1076 83.0383 57.2827C84.7583 53.7698 83.2468 50.8302 81.4852 47.4111C79.7756 44.0858 77.8367 40.3227 78.1599 35.0585C78.4517 30.3156 80.4427 27.3447 82.194 24.7178C84.2267 21.674 85.9884 19.0367 84.9355 14.3771C84.6332 13.0428 82.8716 6.29845 77.6595 4.2032C76.492 3.72369 75.1265 3.49436 73.6358 3.49436Z" fill="black"/>
<path d="M61.9087 115.178C61.8566 115.178 61.8045 115.157 61.7628 115.126C55.7168 110.352 52.5374 105.682 52.3081 101.241C52.1413 97.8741 53.7571 95.831 55.477 93.6732C57.197 91.505 58.9795 89.2638 59.1463 85.4173C59.334 81.3519 57.7912 78.9023 56.3005 76.5256C54.8516 74.2219 53.486 72.0432 53.8196 68.6345C54.2887 63.8186 57.7391 61.5983 61.0852 59.4509C64.3167 57.3765 67.6524 55.2292 68.4342 50.7051C69.0596 47.0567 67.6107 44.2213 66.0784 41.2296C64.4209 37.9877 62.5342 34.3184 63.0345 29.0126C63.4098 25.0722 64.9734 21.3091 67.7045 17.8275C67.7879 17.7233 67.9338 17.7024 68.0381 17.7858C68.1423 17.8692 68.1632 18.0151 68.0798 18.1194C65.4112 21.5281 63.8789 25.2078 63.514 29.0647C63.0241 34.2246 64.7962 37.675 66.5162 41.0211C68.0902 44.0858 69.5704 46.9837 68.9241 50.7885C68.111 55.521 64.6815 57.7205 61.3667 59.8575C57.9684 62.0361 54.7682 64.1001 54.32 68.6867C54.0072 71.9286 55.3311 74.0447 56.7279 76.2754C58.2603 78.7042 59.8343 81.2269 59.6467 85.4382C59.4695 89.4306 57.6348 91.7343 55.8732 93.9651C54.2157 96.0499 52.6521 98.0305 52.8085 101.22C53.017 105.515 56.1442 110.06 62.0755 114.751C62.1797 114.834 62.1902 114.98 62.1172 115.084C62.0442 115.147 61.9713 115.178 61.9087 115.178Z" fill="black"/>
<path d="M66.0888 163.39C67.2875 162.066 59.4173 156.885 55.7793 143.553C53.5798 135.484 54.0281 128.458 54.5076 121.891C55.6855 105.63 59.7718 103.722 58.0622 95.4036C56.0087 85.4278 48.8369 86.6265 44.8236 75.7125C39.8617 62.255 49.0558 55.7921 43.5414 43.3248C40.5289 36.5179 33.6281 29.0543 25.4139 28.9813C20.4416 28.9396 14.354 31.5873 12.707 36.1322C11.1225 40.5208 14.8543 43.3978 16.3762 49.8816C19.0969 61.4628 10.1426 64.8923 10.6743 75.8793C11.3935 90.8066 28.3223 93.4543 29.9588 111.498C30.6156 118.764 27.9261 118.941 28.364 125.811C29.8338 149.025 63.7225 166.006 66.0888 163.39Z" fill="white"/>
<path d="M65.1714 163.89C64.2541 163.89 63.0137 163.536 61.9608 163.171C56.999 161.451 48.8786 156.833 41.8944 150.422C35.984 144.991 28.7913 136.318 28.1242 125.842C27.9053 122.475 28.4473 120.661 28.9581 118.92C29.521 117.023 30.0527 115.241 29.7191 111.53C28.8852 102.273 24.0171 97.1445 19.3263 92.1826C14.9377 87.5543 10.7994 83.1866 10.4449 75.9002C10.1948 70.8028 11.9669 67.3107 13.666 63.9333C15.6883 59.92 17.6063 56.1361 16.1573 49.9337C15.5632 47.4007 14.625 45.4305 13.8015 43.6897C12.5089 40.9586 11.4978 38.8112 12.4881 36.0592C14.1455 31.4622 20.2749 28.752 25.2889 28.752C25.3305 28.752 25.3722 28.752 25.4139 28.752C33.649 28.8249 40.6957 36.3094 43.7603 43.231C46.5853 49.6001 45.6158 54.3431 44.5943 59.3675C43.6248 64.1313 42.6241 69.0515 45.0529 75.6395C46.9918 80.8933 49.6083 83.2596 52.1309 85.5424C54.7473 87.9087 57.2283 90.1499 58.302 95.3515C59.2089 99.7818 58.5104 102.367 57.4576 106.286C56.4986 109.82 55.3102 114.219 54.7578 121.902C54.2991 128.177 53.7883 135.286 56.0191 143.48C58.3124 151.892 62.2527 156.979 64.6085 160.023C66.0471 161.878 66.8393 162.9 66.266 163.536C66.0366 163.786 65.651 163.89 65.1714 163.89ZM25.2889 29.221C20.4312 29.221 14.5208 31.8166 12.9259 36.2156C11.9981 38.7799 12.978 40.8543 14.2185 43.4916C15.0524 45.2533 16.001 47.2547 16.6056 49.8295C18.0962 56.1986 16.1469 60.0555 14.0829 64.1522C12.4047 67.4775 10.6638 70.907 10.9036 75.8793C11.2476 82.9885 15.3338 87.2937 19.6598 91.8594C24.4132 96.8734 29.3334 102.065 30.1882 111.488C30.5322 115.282 29.9588 117.2 29.4168 119.056C28.906 120.765 28.3848 122.527 28.5933 125.811C29.7399 143.834 51.3491 158.98 62.1172 162.722C64.5043 163.556 65.6405 163.525 65.9116 163.233C66.2139 162.9 65.3382 161.763 64.2229 160.325C61.8462 157.26 57.8642 152.121 55.55 143.615C53.2984 135.338 53.8092 128.187 54.2678 121.87C54.8307 114.136 56.0295 109.716 56.9885 106.161C58.0309 102.315 58.7189 99.7713 57.8329 95.4453C56.7905 90.3896 54.4867 88.3048 51.8078 85.8864C49.3581 83.6661 46.5749 81.1539 44.6047 75.7959C42.1342 69.0828 43.1453 64.0896 44.1252 59.2633C45.1363 54.3223 46.0849 49.6523 43.3225 43.4187C40.3204 36.6326 33.4301 29.2836 25.4035 29.221C25.3618 29.221 25.3201 29.221 25.2889 29.221Z" fill="black"/>
<path d="M60.1783 160.638C60.1262 160.638 60.0636 160.617 60.0219 160.575C48.9724 150.933 43.2704 141.165 43.1036 131.554C43.0202 127.041 44.1252 123.163 45.1989 119.421C46.7937 113.823 48.3052 108.528 45.6679 101.804C43.802 97.0611 41.0605 94.5176 38.3919 92.0575C35.4211 89.3055 32.617 86.7099 31.8456 81.4041C31.314 77.7139 32.127 75.16 33.0756 72.1996C34.0034 69.2913 35.0562 65.9868 35.223 60.6914C35.3898 55.4376 34.6184 50.1318 32.9297 44.9197C32.888 44.7946 32.961 44.6591 33.0861 44.6174C33.2112 44.5757 33.3467 44.6487 33.3884 44.7738C35.0875 50.038 35.8693 55.4064 35.7025 60.7122C35.5253 66.0806 34.462 69.4164 33.5239 72.356C32.5649 75.3789 31.8039 77.7556 32.3147 81.3415C33.0548 86.4806 35.6712 88.9094 38.7046 91.7239C41.2794 94.1006 44.1981 96.8005 46.0953 101.648C48.7952 108.528 47.2628 113.886 45.6471 119.567C44.5838 123.278 43.4893 127.124 43.5727 131.565C43.7395 141.04 49.3789 150.683 60.3346 160.231C60.4285 160.314 60.4389 160.471 60.3555 160.565C60.3138 160.617 60.2513 160.638 60.1783 160.638Z" fill="black"/>
<path d="M25.7692 173.161H107.39L107.39 80.3662L25.7692 80.3662L25.7692 173.161Z" fill="white"/>
<path d="M107.389 173.397H25.7683C25.6328 173.397 25.5286 173.292 25.5286 173.157V80.3721C25.5286 80.2366 25.6328 80.1323 25.7683 80.1323H107.389C107.525 80.1323 107.629 80.2366 107.629 80.3721V173.167C107.629 173.292 107.525 173.397 107.389 173.397ZM26.0081 172.928H107.16V80.6014H26.0081V172.928Z" fill="black"/>
<path d="M30.0943 66.0702H142.445L154.704 87.4813H17.8356L30.0943 66.0702Z" fill="white"/>
<path d="M154.704 87.7211H17.8356C17.7522 87.7211 17.6688 87.6794 17.6271 87.6064C17.5854 87.5334 17.5854 87.4396 17.6271 87.3666L29.8859 65.9555C29.9276 65.8826 30.011 65.8409 30.0943 65.8409H142.445C142.529 65.8409 142.612 65.8826 142.654 65.9555L154.902 87.3666C154.944 87.4396 154.944 87.5334 154.902 87.6064C154.86 87.6794 154.787 87.7211 154.704 87.7211ZM18.2421 87.252H154.287L142.299 66.31H30.2299L18.2421 87.252Z" fill="black"/>
<path d="M92.1748 173.165H179.779L179.779 52.3809L92.1748 52.3809L92.1748 173.165Z" fill="white"/>
<path d="M179.774 173.397H92.1594C92.0239 173.397 91.9196 173.292 91.9196 173.157V52.3834C91.9196 52.2479 92.0239 52.1436 92.1594 52.1436H179.764C179.899 52.1436 180.003 52.2479 180.003 52.3834V173.167C180.014 173.292 179.899 173.397 179.774 173.397ZM92.3992 172.928H179.534V52.6231H92.3992V172.928Z" fill="black"/>
<path d="M92.4617 57.7622H179.482L135.972 17.7128L92.4617 57.7622Z" fill="white"/>
<path d="M135.972 17.7128L93.6917 56.626H86.8223L135.972 11.3854L185.121 56.626H178.242L135.972 17.7128Z" fill="white"/>
<path d="M185.121 56.8657H178.252C178.189 56.8657 178.137 56.8449 178.096 56.8032L135.982 18.036L93.869 56.8032C93.8273 56.8449 93.7647 56.8657 93.7126 56.8657H86.8431C86.7493 56.8657 86.6555 56.8032 86.6242 56.7198C86.5929 56.626 86.6138 56.5217 86.6868 56.4592L135.836 11.2186C135.93 11.1352 136.066 11.1352 136.16 11.2186L185.309 56.4592C185.382 56.5217 185.403 56.626 185.372 56.7198C185.34 56.8136 185.215 56.8657 185.121 56.8657ZM178.335 56.3862H184.517L135.972 11.6981L87.4269 56.3862H93.6084L135.816 17.5356C135.909 17.4522 136.045 17.4522 136.139 17.5356L178.335 56.3862Z" fill="black"/>
<path d="M159.551 66.6852H112.382C112.247 66.6852 112.142 66.581 112.142 66.4455V62.1924C112.142 50.4966 121.66 40.9794 133.355 40.9794H138.567C150.263 40.9794 159.781 50.4966 159.781 62.1924V66.4455C159.791 66.581 159.687 66.6852 159.551 66.6852ZM112.622 66.2161H159.311V62.2029C159.311 50.7676 150.003 41.4589 138.567 41.4589H133.355C121.92 41.4589 112.611 50.7676 112.611 62.2029V66.2161H112.622Z" fill="black"/>
<path d="M135.972 63.6727C135.836 63.6727 135.732 63.5684 135.732 63.4329V45.6077C135.732 45.4722 135.836 45.368 135.972 45.368C136.107 45.368 136.212 45.4722 136.212 45.6077V63.4329C136.201 63.5684 136.097 63.6727 135.972 63.6727Z" fill="black"/>
<path d="M154.35 61.6712C154.287 61.6712 154.224 61.6504 154.183 61.5983L140.235 47.6508C140.142 47.557 140.142 47.4111 140.235 47.3172C140.329 47.2234 140.475 47.2234 140.569 47.3172L154.516 61.2647C154.61 61.3585 154.61 61.5044 154.516 61.5983C154.475 61.6504 154.412 61.6712 154.35 61.6712Z" fill="black"/>
<path d="M131.073 59.2528C131.01 59.2528 130.947 59.232 130.906 59.1799L121.691 49.965C121.597 49.8712 121.597 49.7252 121.691 49.6314C121.785 49.5376 121.931 49.5376 122.024 49.6314L131.239 58.8463C131.333 58.9401 131.333 59.0861 131.239 59.1799C131.198 59.2216 131.135 59.2528 131.073 59.2528Z" fill="black"/>
<path d="M86.8168 176.456H185.116V162.748H86.8168V176.456Z" fill="white"/>
<path d="M185.122 176.691H86.8223C86.6868 176.691 86.5825 176.587 86.5825 176.451V162.743C86.5825 162.608 86.6868 162.504 86.8223 162.504H185.122C185.257 162.504 185.361 162.608 185.361 162.743V176.451C185.361 176.587 185.247 176.691 185.122 176.691ZM87.0516 176.222H184.882V162.983H87.0516V176.222Z" fill="black"/>
<path d="M167.067 162.739H174.749V115.039H167.067V162.739Z" fill="white"/>
<path d="M174.75 162.983H167.067C166.931 162.983 166.827 162.879 166.827 162.743V115.043C166.827 114.907 166.931 114.803 167.067 114.803H174.75C174.885 114.803 174.989 114.907 174.989 115.043V162.743C174.989 162.879 174.885 162.983 174.75 162.983ZM167.307 162.504H174.51V115.282H167.307V162.504Z" fill="black"/>
<path d="M97.1834 162.739H104.866V115.039H97.1834V162.739Z" fill="white"/>
<path d="M104.866 162.983H97.1838C97.0483 162.983 96.9441 162.879 96.9441 162.743V115.043C96.9441 114.907 97.0483 114.803 97.1838 114.803H104.866C105.002 114.803 105.106 114.907 105.106 115.043V162.743C105.096 162.879 104.991 162.983 104.866 162.983ZM97.4236 162.504H104.627V115.282H97.4236V162.504Z" fill="black"/>
<path d="M138.216 162.742H158.231V120.243H138.216V162.742Z" fill="white"/>
<path d="M158.238 162.983H138.223C138.088 162.983 137.984 162.879 137.984 162.743V120.244C137.984 120.109 138.088 120.004 138.223 120.004H158.238C158.373 120.004 158.477 120.109 158.477 120.244V162.743C158.467 162.879 158.363 162.983 158.238 162.983ZM138.453 162.504H157.998V120.474H138.453V162.504Z" fill="black"/>
<path d="M113.702 162.742H133.716V120.243H113.702V162.742Z" fill="white"/>
<path d="M133.72 162.983H113.706C113.57 162.983 113.466 162.879 113.466 162.743V120.244C113.466 120.109 113.57 120.004 113.706 120.004H133.72C133.856 120.004 133.96 120.109 133.96 120.244V162.743C133.96 162.879 133.845 162.983 133.72 162.983ZM113.935 162.504H133.481V120.474H113.935V162.504Z" fill="black"/>
<path d="M174.75 167.465H97.1838C97.0483 167.465 96.9441 167.361 96.9441 167.226C96.9441 167.09 97.0483 166.986 97.1838 166.986H174.75C174.885 166.986 174.989 167.09 174.989 167.226C174.989 167.361 174.885 167.465 174.75 167.465Z" fill="black"/>
<path d="M174.75 172.167H97.1838C97.0483 172.167 96.9441 172.062 96.9441 171.927C96.9441 171.791 97.0483 171.687 97.1838 171.687H174.75C174.885 171.687 174.989 171.791 174.989 171.927C174.989 172.062 174.885 172.167 174.75 172.167Z" fill="black"/>
<path d="M91.805 96.6649H180.128L189.771 115.053H82.1731L91.805 96.6649Z" fill="white"/>
<path d="M189.771 115.282H82.1731C82.0897 115.282 82.0168 115.241 81.9751 115.168C81.9334 115.095 81.9334 115.011 81.9646 114.938L91.6069 96.5503C91.6486 96.4773 91.732 96.4252 91.8154 96.4252H180.128C180.212 96.4252 180.295 96.4773 180.337 96.5503L189.979 114.938C190.021 115.011 190.01 115.095 189.969 115.168C189.927 115.241 189.854 115.282 189.771 115.282ZM82.5588 114.813H189.375L179.982 96.8943H91.9509L82.5588 114.813Z" fill="black"/>
<path d="M159.562 89.9622H112.424C112.288 89.9622 112.184 89.858 112.184 89.7225V70.3232C112.184 70.1877 112.288 70.0835 112.424 70.0835H159.562C159.697 70.0835 159.801 70.1877 159.801 70.3232V89.7225C159.801 89.858 159.697 89.9622 159.562 89.9622ZM112.664 89.4932H159.332V70.563H112.664V89.4932Z" fill="black"/>
<path d="M150.232 84.8232C150.169 84.8232 150.107 84.8023 150.065 84.7502L139.235 73.9196C139.141 73.8257 139.141 73.6798 139.235 73.586C139.328 73.4922 139.474 73.4922 139.568 73.586L150.399 84.4166C150.493 84.5104 150.493 84.6564 150.399 84.7502C150.357 84.8023 150.295 84.8232 150.232 84.8232Z" fill="black"/>
<path d="M130.916 86.4806C130.854 86.4806 130.791 86.4598 130.749 86.4076L126.298 81.9565C126.204 81.8627 126.204 81.7168 126.298 81.623C126.392 81.5292 126.538 81.5292 126.632 81.623L131.083 86.0741C131.177 86.1679 131.177 86.3138 131.083 86.4076C131.041 86.4598 130.979 86.4806 130.916 86.4806Z" fill="black"/>
<path d="M73.542 124.57H38.9861C38.8506 124.57 38.7463 124.466 38.7463 124.33V95.1639C38.7463 95.0283 38.8506 94.9241 38.9861 94.9241H73.542C73.6775 94.9241 73.7817 95.0283 73.7817 95.1639V124.341C73.7817 124.466 73.6671 124.57 73.542 124.57ZM39.2258 124.101H73.3022V95.3932H39.2258V124.101Z" fill="black"/>
<path d="M56.2692 121.057C56.1337 121.057 56.0295 120.953 56.0295 120.818V98.0617C56.0295 97.9262 56.1337 97.822 56.2692 97.822C56.4047 97.822 56.509 97.9262 56.509 98.0617V120.818C56.4986 120.943 56.3943 121.057 56.2692 121.057Z" fill="white"/>
<path d="M71.7073 121.297C71.6448 121.297 71.5822 121.276 71.5405 121.224L57.8224 107.506C57.7286 107.412 57.7286 107.266 57.8224 107.172C57.9163 107.079 58.0622 107.079 58.156 107.172L71.8741 120.891C71.9679 120.984 71.9679 121.13 71.8741 121.224C71.8324 121.266 71.7699 121.297 71.7073 121.297Z" fill="black"/>
<path d="M69.5391 108.09C69.4766 108.09 69.414 108.069 69.3723 108.017L59.9907 98.6351C59.8968 98.5413 59.8968 98.3953 59.9907 98.3015C60.0845 98.2077 60.2304 98.2077 60.3242 98.3015L69.7059 107.683C69.7997 107.777 69.7997 107.923 69.7059 108.017C69.6538 108.058 69.6017 108.09 69.5391 108.09Z" fill="black"/>
<path d="M53.0482 116.502C52.9856 116.502 52.9231 116.481 52.8814 116.429L43.8229 107.37C43.729 107.277 43.729 107.131 43.8229 107.037C43.9167 106.943 44.0626 106.943 44.1564 107.037L53.215 116.095C53.3088 116.189 53.3088 116.335 53.215 116.429C53.1629 116.481 53.1107 116.502 53.0482 116.502Z" fill="white"/>
<path d="M73.542 162.639H38.9861C38.8506 162.639 38.7463 162.535 38.7463 162.399V133.222C38.7463 133.087 38.8506 132.982 38.9861 132.982H73.542C73.6775 132.982 73.7817 133.087 73.7817 133.222V162.399C73.7817 162.535 73.6671 162.639 73.542 162.639ZM39.2258 162.17H73.3022V133.472H39.2258V162.17Z" fill="black"/>
<path d="M56.2692 159.126C56.1337 159.126 56.0295 159.022 56.0295 158.886V136.131C56.0295 135.995 56.1337 135.891 56.2692 135.891C56.4047 135.891 56.509 135.995 56.509 136.131V158.886C56.4986 159.022 56.3943 159.126 56.2692 159.126Z" fill="black"/>
<path d="M71.7073 159.366C71.6448 159.366 71.5822 159.345 71.5405 159.293L57.8224 145.575C57.7286 145.481 57.7286 145.335 57.8224 145.241C57.9163 145.147 58.0622 145.147 58.156 145.241L71.8741 158.959C71.9679 159.053 71.9679 159.199 71.8741 159.293C71.8324 159.345 71.7699 159.366 71.7073 159.366Z" fill="black"/>
<path d="M69.5391 146.159C69.4766 146.159 69.414 146.138 69.3723 146.086L59.9907 136.704C59.8968 136.61 59.8968 136.464 59.9907 136.37C60.0845 136.277 60.2304 136.277 60.3242 136.37L69.7059 145.752C69.7997 145.846 69.7997 145.992 69.7059 146.086C69.6538 146.138 69.6017 146.159 69.5391 146.159Z" fill="black"/>
<path d="M53.0482 154.581C52.9856 154.581 52.9231 154.56 52.8814 154.508L43.8229 145.45C43.729 145.356 43.729 145.21 43.8229 145.116C43.9167 145.022 44.0626 145.022 44.1564 145.116L53.215 154.175C53.3088 154.268 53.3088 154.414 53.215 154.508C53.1629 154.55 53.1107 154.581 53.0482 154.581Z" fill="white"/>
<path d="M44.292 68.3218C50.6478 68.3218 55.8002 62.7821 55.8002 55.9484C55.8002 49.1148 50.6478 43.575 44.292 43.575C37.9361 43.575 32.7838 49.1148 32.7838 55.9484C32.7838 62.7821 37.9361 68.3218 44.292 68.3218Z" fill="white"/>
<path d="M44.292 68.5616C37.8186 68.5616 32.544 62.9013 32.544 55.9485C32.544 48.9956 37.8082 43.3353 44.292 43.3353C50.7653 43.3353 56.0399 48.9956 56.0399 55.9485C56.0399 62.9013 50.7653 68.5616 44.292 68.5616ZM44.292 43.8148C38.0792 43.8148 33.0235 49.2562 33.0235 55.9589C33.0235 62.6512 38.0792 68.103 44.292 68.103C50.5047 68.103 55.5604 62.6616 55.5604 55.9589C55.5604 49.2562 50.5047 43.8148 44.292 43.8148Z" fill="black"/>
<path d="M62.2631 189.346C62.0546 188.804 61.6898 188.22 61.0852 187.657C59.3339 186.052 50.7132 180.61 50.7132 180.61C50.7132 180.61 45.2093 180.485 47.2837 183.383C47.2837 183.383 44.0105 183.185 42.9264 183.466C42.1342 183.675 42.1967 187.74 42.2905 189.888C42.3218 190.617 42.9264 191.191 43.6561 191.191H60.981C61.94 191.191 62.6175 190.242 62.2631 189.346Z" fill="white"/>
<path d="M60.9914 191.43H43.6665C42.8117 191.43 42.1029 190.763 42.0716 189.908C41.7902 183.539 42.5824 183.331 42.8743 183.247C43.7499 183.018 45.8973 183.091 46.8459 183.133C46.5436 182.57 46.5019 182.07 46.7208 181.653C47.4088 180.35 50.3796 180.381 50.7236 180.381C50.7653 180.381 50.807 180.391 50.8487 180.412C51.2031 180.631 59.5007 185.885 61.252 187.48C61.8149 187.99 62.2214 188.585 62.482 189.252C62.6696 189.742 62.6071 190.284 62.3152 190.722C62.0129 191.17 61.523 191.43 60.9914 191.43ZM44.98 183.56C44.1981 183.56 43.4163 183.591 42.989 183.706C42.7388 183.769 42.3218 185.145 42.5303 189.888C42.5616 190.492 43.0515 190.961 43.6561 190.961H60.9809C61.3562 190.961 61.7002 190.774 61.9191 190.471C62.1276 190.159 62.1693 189.794 62.0338 189.439C61.8044 188.845 61.4292 188.303 60.9184 187.845C59.2818 186.343 51.3803 181.329 50.6402 180.86C49.7646 180.85 47.5964 181.006 47.1377 181.882C46.9501 182.226 47.0648 182.695 47.4713 183.268C47.5234 183.341 47.5339 183.446 47.4817 183.519C47.44 183.602 47.3566 183.644 47.2628 183.644C47.2524 183.633 46.1162 183.56 44.98 183.56Z" fill="black"/>
<path d="M42.301 189.867C42.301 189.877 42.301 189.877 42.301 189.888C42.3322 190.617 42.9368 191.191 43.6665 191.191H60.9914C61.7628 191.191 62.3361 190.576 62.3569 189.867H42.301Z" fill="black"/>
<path d="M57.5514 188.095C57.5201 188.095 57.4889 188.084 57.4576 188.074L49.1183 184.363C49.0037 184.311 48.9411 184.175 49.0037 184.05C49.0558 183.935 49.1913 183.873 49.3164 183.935L57.6557 187.646C57.7703 187.699 57.8329 187.834 57.7703 187.959C57.7286 188.043 57.6348 188.095 57.5514 188.095Z" fill="black"/>
<path d="M7.24472 176.972L8.32882 174.45C12.3942 173.376 11.602 176.315 11.4144 177.869C11.2267 179.422 13.3011 185.728 14.6146 187.042C15.928 188.345 15.0107 190.18 15.0107 190.18C15.0107 190.18 10.0905 191.566 6.72351 188.772C3.36695 185.958 1.55316 175.169 1.55316 175.169C3.77349 171.948 7.87016 171.385 7.87016 171.385C7.87016 171.385 5.7228 173.762 7.24472 176.972Z" fill="black"/>
<path d="M12.1441 190.763C10.4554 190.763 8.32884 190.398 6.57759 188.939C3.18976 186.114 1.39681 175.659 1.31342 175.211C1.303 175.148 1.31342 175.085 1.35512 175.033C3.60672 171.76 7.6617 171.176 7.82848 171.156C7.9223 171.145 8.02654 171.187 8.06824 171.281C8.10993 171.364 8.09951 171.479 8.03696 171.552C7.95357 171.635 6.2336 173.605 7.24473 176.368L8.10993 174.356C8.1412 174.293 8.19333 174.241 8.26629 174.22C9.6944 173.845 10.6743 173.908 11.2476 174.429C12.0398 175.138 11.8418 176.482 11.6958 177.473C11.675 177.629 11.6541 177.764 11.6333 177.9C11.4561 179.38 13.5096 185.624 14.7709 186.875C16.1886 188.282 15.2192 190.263 15.2087 190.284C15.1775 190.346 15.1253 190.388 15.0628 190.409C14.9794 190.43 13.7598 190.763 12.1441 190.763ZM1.80335 175.231C1.99099 176.295 3.78393 185.999 6.87989 188.585C9.85076 191.055 14.1246 190.148 14.8439 189.981C15.0003 189.606 15.4798 188.241 14.4582 187.219C13.0614 185.833 10.987 179.484 11.185 177.858C11.2059 177.723 11.2267 177.577 11.2476 177.42C11.3831 176.493 11.5499 175.336 10.9453 174.804C10.5179 174.418 9.69439 174.377 8.50605 174.668L7.46364 177.076C7.42194 177.16 7.34897 177.222 7.25516 177.222C7.17176 177.222 7.07795 177.17 7.03625 177.087C5.87918 174.648 6.76522 172.657 7.32813 171.76C6.1502 172.021 3.45036 172.896 1.80335 175.231Z" fill="black"/>
<path d="M5.02439 183.195C3.4712 179.755 3.17932 175.815 3.15847 173.459C2.57472 173.918 2.02225 174.481 1.55316 175.169C1.55316 175.169 3.36695 185.958 6.73394 188.751C10.1009 191.556 15.0211 190.159 15.0211 190.159C15.0211 190.159 15.3651 189.471 15.3338 188.647C8.50603 189.585 7.31769 188.272 5.02439 183.195Z" fill="black"/>
<path d="M15.3234 188.658C15.3025 188.136 15.1358 187.542 14.625 187.042C13.3115 185.739 11.2372 179.422 11.4248 177.869C11.6124 176.315 12.4151 173.376 8.33925 174.45L7.25515 176.972C5.72281 173.762 7.87017 171.395 7.87017 171.395C7.87017 171.395 5.32669 171.739 3.15848 173.47C3.17933 175.815 3.4712 179.766 5.02439 183.206C7.31769 188.272 8.50604 189.585 15.3234 188.658Z" fill="white"/>
<path d="M11.9043 189.179C7.96399 189.179 6.72353 187.542 4.80549 183.3C3.28357 179.922 2.93958 176.086 2.91873 173.47C2.91873 173.397 2.95 173.324 3.01255 173.282C5.20161 171.541 7.72424 171.176 7.8389 171.156C7.93272 171.145 8.03696 171.187 8.07866 171.281C8.12036 171.364 8.10993 171.479 8.04739 171.552C7.96399 171.635 6.24402 173.605 7.25516 176.368L8.12036 174.356C8.15163 174.293 8.20375 174.241 8.27672 174.22C9.70482 173.845 10.6847 173.908 11.258 174.429C12.0502 175.138 11.8522 176.482 11.7062 177.473C11.6854 177.629 11.6645 177.764 11.6437 177.9C11.4665 179.38 13.52 185.624 14.7814 186.875C15.2713 187.355 15.5215 187.959 15.5527 188.647C15.5527 188.772 15.4693 188.877 15.3443 188.887C14.01 189.075 12.8737 189.179 11.9043 189.179ZM3.39824 173.584C3.41909 175.721 3.70054 179.693 5.2433 183.102C7.52618 188.157 8.72495 189.293 15.0732 188.449C15.0107 187.97 14.8022 187.553 14.4582 187.209C13.0614 185.822 10.987 179.474 11.185 177.848C11.2059 177.712 11.2267 177.566 11.2476 177.41C11.3831 176.482 11.5499 175.325 10.9453 174.794C10.5179 174.408 9.69439 174.366 8.50605 174.658L7.46364 177.066C7.42194 177.149 7.34897 177.212 7.25516 177.212C7.17176 177.212 7.07795 177.16 7.03625 177.076C5.87917 174.637 6.76522 172.646 7.32812 171.75C6.48377 171.948 4.84719 172.448 3.39824 173.584Z" fill="black"/>
<path d="M8.43308 184.478C8.32884 184.478 8.2246 184.405 8.20375 184.29C8.19333 184.259 7.43237 180.892 7.16134 177.566C7.15092 177.441 7.24474 177.327 7.38025 177.316C7.51576 177.306 7.62 177.4 7.63043 177.535C7.90145 180.819 8.65199 184.154 8.66241 184.186C8.69369 184.311 8.61029 184.436 8.4852 184.467C8.47478 184.467 8.45393 184.478 8.43308 184.478Z" fill="black"/>
<path d="M42.5616 124.372C42.5616 124.372 17.1685 165.089 15.9906 181.173C15.9906 181.173 12.3108 177.973 8.50605 177.129C4.70125 176.284 -0.010437 171.666 -0.010437 171.666C-0.010437 171.666 1.59487 152.945 6.81735 147.451C12.0398 141.958 19.6077 135.182 24.1109 127.593C28.6141 119.994 29.4793 113.927 33.8887 108.309C38.2981 102.69 43.531 97.4259 43.531 97.4259C43.531 97.4259 54.9975 95.9561 58.2915 100.626C58.1352 104.473 57.885 112.687 57.4576 119.608C56.7279 131.461 55.9774 139.018 55.6855 142.781C54.9767 151.788 54.7995 164.901 57.3117 182.351C57.3117 182.351 54.862 184.405 50.192 184.665C45.522 184.926 41.0709 184.978 41.0709 184.978C38.1001 175.888 37.9645 168.664 38.4024 163.723C39.2467 154.237 42.5407 149.244 43.1349 137.517C43.4372 131.94 42.989 127.353 42.5616 124.372Z" fill="black"/>
<path d="M43.0828 123.465C43.0515 123.465 43.0098 123.455 42.9785 123.434C42.8639 123.371 42.8117 123.236 42.8743 123.111L47.9925 113.177C48.0134 113.125 48.0551 113.093 48.1072 113.062L52.1205 111.373C52.2456 111.321 52.3811 111.384 52.4332 111.498C52.4853 111.624 52.4228 111.759 52.3081 111.811L48.3782 113.469L43.2913 123.33C43.2496 123.424 43.1662 123.465 43.0828 123.465Z" fill="white"/>
<path d="M89.9808 39.9058C89.3866 40.0308 88.9175 40.5937 88.5423 40.9586C88.167 41.3234 86.7702 43.2832 86.7702 43.2832C86.7702 43.2832 85.7903 43.2936 84.6019 43.5333C84.9772 42.3763 84.0703 40.771 84.0703 40.771L81.0473 45.2325C79.4524 47.1192 81.3809 49.2145 81.3809 49.2145L88.8758 45.1595L91.2629 40.0934C91.2629 40.083 90.5749 39.7702 89.9808 39.9058Z" fill="black"/>
<path d="M35.223 71.0217C49.5978 64.5379 49.3789 70.3962 61.9191 65.278C67.1312 63.1619 73.8756 58.5232 79.8382 47.2652C80.8701 47.6509 81.9021 48.047 82.9445 48.4327C84.2684 59.8679 81.4435 66.1328 78.6185 69.7499C74.0841 75.5562 68.4446 75.921 64.5877 82.311C61.2311 87.867 61.523 94.184 62.2319 98.5205C62.284 99.0312 61.3979 102.492 60.9393 103.055C59.3131 105.015 54.1011 102.409 48.1281 102.596C39.7784 102.857 35.1709 106.797 32.7212 104.785C32.2938 104.431 31.9603 103.67 33.7636 96.1438C35.1813 90.1916 37.214 86.6891 35.9944 85.261C33.6803 82.5507 33.1799 71.9494 35.223 71.0217Z" fill="white"/>
<path d="M34.4621 105.588C33.7324 105.588 33.0965 105.411 32.5544 104.963C31.9915 104.493 31.7205 103.587 33.5135 96.0812C34.0138 93.986 34.5976 92.1513 35.0771 90.6815C35.9423 88.0026 36.5052 86.2305 35.8068 85.407C33.993 83.2804 33.232 76.265 34.0138 72.7834C34.2536 71.6993 34.6288 71.0321 35.1292 70.8028C42.7805 67.3524 46.3768 67.3837 49.8376 67.4045C52.9857 67.4254 55.967 67.4462 61.8357 65.0591C68.872 62.1925 74.8554 56.1674 79.6297 47.1505C79.6818 47.0463 79.8069 46.9942 79.9215 47.0358L83.0279 48.2033C83.1113 48.2346 83.1739 48.3076 83.1739 48.4014C84.2371 57.585 82.7673 64.8194 78.8062 69.8855C76.6901 72.5957 74.3238 74.1385 72.0409 75.6291C69.3619 77.3804 66.8393 79.0274 64.7858 82.4152C62.2006 86.6995 61.4188 92.0992 62.4508 98.4683C62.5133 99.0521 61.6064 102.575 61.106 103.19C60.0845 104.421 57.8746 104.024 55.0809 103.534C52.9961 103.159 50.6403 102.742 48.1176 102.826C44.1669 102.951 41.0814 103.899 38.6108 104.66C36.9638 105.171 35.5983 105.588 34.4621 105.588ZM35.3168 71.2406C34.9728 71.397 34.6705 71.9807 34.4621 72.8876C33.7011 76.2754 34.4204 83.0615 36.1612 85.1047C37.0368 86.1262 36.4322 88.0026 35.5253 90.8379C35.0562 92.2973 34.4725 94.1215 33.9721 96.1959C32.3355 103.055 32.4606 104.285 32.8463 104.608C34.0347 105.578 35.7963 105.036 38.4649 104.222C40.9667 103.451 44.0835 102.492 48.0968 102.367C50.6715 102.284 53.0586 102.711 55.1539 103.086C57.7912 103.555 59.8864 103.931 60.7308 102.909C61.1582 102.398 62.0234 99.0208 61.9712 98.5517C60.9184 92.0784 61.7211 86.5744 64.3688 82.1963C66.4745 78.7147 69.0492 77.0364 71.7699 75.2539C74.0215 73.7841 76.3461 72.2622 78.4205 69.6144C82.2878 64.663 83.7263 57.6059 82.7152 48.6203L79.9528 47.5571C75.1369 56.5739 69.1013 62.6095 62.0129 65.4969C56.0608 67.9257 52.9023 67.9049 49.8376 67.8736C46.4185 67.8632 42.8847 67.8319 35.3168 71.2406Z" fill="black"/>
<path d="M51.6097 53.6447C52.1205 54.0096 52.4123 54.1034 52.8397 54.4474C53.6945 55.1562 54.5701 57.3974 55.9565 57.7622C56.1546 58.5023 55.5708 58.6274 55.3728 59.0652C55.5708 59.4197 55.9774 61.1084 56.3422 62.1404C56.4777 62.5052 56.311 62.9013 55.967 63.0681C55.3936 63.3495 54.7369 63.558 53.9968 63.6727C53.6528 64.0688 53.0899 64.8193 52.798 65.9243C52.3915 67.4671 53.7779 68.1863 53.9551 68.6867C58.229 72.7625 44.4796 70.4379 46.0536 68.8535C47.9091 66.9771 48.5554 64.5066 48.7743 62.4948C48.6597 62.4635 47.1169 62.0048 46.8667 60.7748C46.7729 60.3266 46.8146 59.5969 47.2211 59.4092C47.6068 59.232 48.3157 59.576 48.7952 60.4099C48.8681 60.2015 48.9307 59.9304 48.9932 59.6281C49.0766 59.2112 49.1287 58.7317 48.9828 58.5023C52.6312 57.1993 48.9932 53.8219 51.6097 53.6447Z" fill="black"/>
<path d="M53.1316 64.3815C51.8182 64.3815 50.7966 63.6831 50.7445 63.6518C50.6403 63.5789 50.609 63.4329 50.6819 63.3287C50.7549 63.2244 50.9009 63.1932 51.0155 63.2661C51.0259 63.2766 52.4228 64.2252 53.9551 63.8082C54.0802 63.7769 54.2157 63.8499 54.247 63.975C54.2783 64.1001 54.2053 64.2356 54.0802 64.2669C53.7466 64.3503 53.4339 64.3815 53.1316 64.3815Z" fill="white"/>
<path d="M72.5517 100.199L74.2613 97.3425L81.6207 96.3001C81.6207 96.3001 81.6311 96.8526 81.3601 97.2174C81.0995 97.5718 80.5782 97.7282 80.2238 97.8637C79.859 98.0097 78.1286 98.3641 78.1286 98.3641C78.1286 98.3641 77.6282 101.033 75.877 101.533C74.1466 102.033 72.5517 100.199 72.5517 100.199Z" fill="black"/>
<path d="M34.6184 71.178C37.3287 69.6874 38.9861 77.9641 45.2093 87.5334C45.9598 88.3048 46.898 88.8782 47.9404 89.1909L75.0326 96.9568L72.7498 100.918L44.9904 99.1146C41.9778 98.9061 39.1946 97.4363 37.3078 95.0701L31.4078 87.6481C27.7385 77.6097 31.3348 72.554 34.6184 71.178Z" fill="white"/>
<path d="M74.6365 97.2904C74.6157 97.2904 74.6052 97.2904 74.5844 97.28C52.0162 91.9741 41.0292 86.366 38.9653 79.1004C38.934 78.9753 39.007 78.8398 39.132 78.8085C39.2571 78.7772 39.3927 78.8502 39.4239 78.9753C40.3621 82.2693 43.2391 85.188 48.2114 87.9087C54.0281 91.0881 62.7009 94.0068 74.6991 96.8318C74.8242 96.863 74.9075 96.9881 74.8763 97.1132C74.845 97.2174 74.7408 97.2904 74.6365 97.2904Z" fill="black"/>
<path d="M72.7393 101.158C60.6995 100.678 51.0989 99.271 44.1982 96.9672C37.5684 94.7678 33.2007 91.6614 31.1993 87.7523C29.177 82.7279 28.8956 78.5687 30.3445 75.3581C31.3974 73.0439 33.3467 71.3344 36.0048 70.3962C36.1299 70.3545 36.2654 70.4171 36.3071 70.5422C36.3488 70.6672 36.2863 70.8028 36.1612 70.8445C33.6281 71.7305 31.7622 73.3567 30.7719 75.5562C29.3751 78.6417 29.6565 82.6758 31.6267 87.5543C33.5551 91.3278 37.8395 94.3508 44.3441 96.5086C51.1823 98.781 60.6787 100.178 72.5934 100.668L74.4802 97.2695C74.5427 97.1549 74.6886 97.1132 74.8033 97.1757C74.918 97.2383 74.9597 97.3842 74.8971 97.4989L72.9478 101.022C72.9061 101.106 72.8331 101.158 72.7393 101.158Z" fill="black"/>
<path d="M82.2774 114.386L90.3769 116.481C97.6946 118.378 105.742 116.012 113.195 114.719L118.282 113.833L117.698 105.015L87.6562 106.182L82.2774 114.386Z" fill="white"/>
<path d="M96.3707 117.43C94.3172 117.43 92.2949 117.221 90.3144 116.71L82.2148 114.615C82.1419 114.594 82.0793 114.542 82.0585 114.469C82.0272 114.396 82.0376 114.323 82.0793 114.25L87.4581 106.057C87.4998 105.994 87.5728 105.953 87.6458 105.953L117.688 104.785C117.813 104.764 117.928 104.879 117.928 105.004L118.512 113.823C118.522 113.948 118.439 114.052 118.313 114.073L113.227 114.959C111.819 115.199 110.37 115.491 108.963 115.772C104.793 116.585 100.53 117.43 96.3707 117.43ZM82.6631 114.24L90.4394 116.252C96.3291 117.774 102.709 116.512 108.88 115.293C110.287 115.011 111.746 114.73 113.154 114.48L118.032 113.635L117.48 105.254L87.7917 106.401L82.6631 114.24Z" fill="black"/>
<path d="M93.452 173.918L94.2755 179.755L98.2471 180.079L98.0073 173.136L93.452 173.918Z" fill="white"/>
<path d="M98.2471 180.318C98.2367 180.318 98.2367 180.318 98.2262 180.318L94.2442 179.995C94.1296 179.985 94.0462 179.901 94.0253 179.797L93.2018 173.96C93.181 173.835 93.2748 173.72 93.3999 173.699L97.9552 172.917C98.0178 172.907 98.0907 172.928 98.1428 172.969C98.195 173.011 98.2262 173.074 98.2262 173.147L98.466 180.089C98.466 180.152 98.4451 180.224 98.393 180.266C98.3722 180.297 98.3096 180.318 98.2471 180.318ZM94.484 179.537L98.0073 179.828L97.778 173.418L93.7126 174.116L94.484 179.537Z" fill="black"/>
<path d="M98.4243 190.503C96.7669 190.69 94.0566 190.815 90.8877 190.294C89.8453 190.117 89.1781 189.095 89.4596 188.074C90.2414 185.249 91.5965 179.88 93.7335 177.441L94.213 178.807L94.9635 177.546C95.0678 177.368 95.245 177.264 95.443 177.243L96.548 177.191C96.8711 177.16 97.1734 177.379 97.2256 177.702L97.4445 178.89L98.6953 177.264L99.0185 181.83C99.1227 183.279 99.2999 184.728 99.5605 186.166L99.9879 188.553C100.082 189.533 99.3833 190.398 98.4243 190.503Z" fill="white"/>
<path d="M95.443 190.909C94.0983 190.909 92.5347 190.815 90.846 190.534C90.2831 190.44 89.7827 190.107 89.47 189.627C89.1677 189.148 89.0739 188.564 89.2303 188.022L89.397 187.407C90.1893 184.488 91.5236 179.609 93.5563 177.295C93.6084 177.233 93.6918 177.201 93.7752 177.222C93.8586 177.243 93.9211 177.295 93.9524 177.379L94.2651 178.265L94.755 177.441C94.8905 177.202 95.1407 177.045 95.4117 177.024L96.5375 176.972C96.9754 176.93 97.3819 177.243 97.4653 177.681L97.58 178.338L98.5077 177.129C98.5702 177.056 98.6745 177.014 98.7683 177.045C98.8621 177.076 98.9247 177.16 98.9351 177.254L99.2582 181.819C99.3625 183.258 99.5397 184.707 99.7899 186.125L100.217 188.512C100.332 189.617 99.5397 190.607 98.4556 190.732C97.6425 190.836 96.6314 190.909 95.443 190.909ZM93.6501 177.921C91.8363 180.266 90.6062 184.78 89.8557 187.532L89.6889 188.147C89.5743 188.564 89.6368 189.002 89.8766 189.377C90.1163 189.742 90.4916 190.002 90.9294 190.075C94.0358 190.596 96.7043 190.471 98.393 190.284C99.227 190.19 99.8316 189.439 99.7377 188.605L99.3104 186.229C99.0498 184.79 98.8725 183.32 98.7683 181.871L98.4869 177.921L97.6217 179.057C97.5695 179.13 97.4653 179.161 97.3819 179.14C97.2881 179.12 97.2255 179.047 97.2047 178.953L96.9858 177.764C96.9545 177.566 96.7669 177.42 96.5584 177.441L95.4326 177.493C95.3179 177.504 95.2137 177.577 95.1407 177.681L94.3902 178.942C94.3485 179.026 94.2547 179.067 94.1609 179.057C94.067 179.047 93.9941 178.984 93.9628 178.901L93.6501 177.921Z" fill="black"/>
<path d="M94.3798 188.991C93.181 188.991 91.8571 188.876 90.5437 188.543C90.4186 188.512 90.3456 188.387 90.3769 188.251C90.4082 188.126 90.5333 188.053 90.6688 188.084C94.5257 189.075 98.6224 188.053 98.6641 188.043C98.7892 188.011 98.9142 188.084 98.9559 188.209C98.9872 188.334 98.9142 188.46 98.7892 188.501C98.6536 188.522 96.7877 188.991 94.3798 188.991Z" fill="black"/>
<path d="M93.0559 184.603C92.9308 184.603 92.8162 184.498 92.8162 184.363C92.8162 184.227 92.9204 184.123 93.0559 184.123L96.7773 184.102C96.9024 184.102 97.0171 184.206 97.0171 184.342C97.0171 184.478 96.9128 184.582 96.7773 184.582L93.0559 184.603Z" fill="black"/>
<path d="M111.903 170.144L112.789 178.682L117.563 178.515L117.48 169.957L111.903 170.144Z" fill="white"/>
<path d="M112.789 178.911C112.664 178.911 112.57 178.817 112.549 178.703L111.652 170.176C111.642 170.113 111.663 170.04 111.705 169.998C111.746 169.946 111.809 169.915 111.871 169.915L117.459 169.717C117.521 169.707 117.584 169.738 117.625 169.78C117.667 169.821 117.698 169.884 117.698 169.946L117.771 178.505C117.771 178.63 117.667 178.734 117.542 178.744L112.789 178.911C112.799 178.911 112.799 178.911 112.789 178.911ZM112.163 170.374L113.008 178.432L117.323 178.286L117.25 170.197L112.163 170.374Z" fill="black"/>
<path d="M111.715 183.55C111.736 184.363 112.309 185.051 113.101 185.207C115.864 185.749 122.087 186.948 123.859 187.157C126.152 187.417 129.488 186.489 130.103 185.238C130.895 183.623 127.237 180.808 125.339 179.703C122.525 178.077 119.752 174.762 118.637 174.648C117.521 174.533 115.562 177.827 115.562 177.827L112.122 176.524C112.122 176.514 111.632 179.443 111.715 183.55Z" fill="white"/>
<path d="M124.662 187.428C124.37 187.428 124.099 187.417 123.838 187.386C122.045 187.188 115.707 185.958 113.06 185.437C112.163 185.259 111.496 184.467 111.486 183.55C111.402 179.474 111.892 176.503 111.892 176.472C111.903 176.399 111.944 176.336 112.007 176.305C112.069 176.274 112.142 176.263 112.205 176.284L115.457 177.514C115.958 176.691 117.542 174.272 118.657 174.387C119.293 174.45 120.221 175.273 121.514 176.42C122.712 177.483 124.068 178.682 125.454 179.484C127.018 180.391 131.26 183.393 130.312 185.322C129.707 186.573 126.882 187.428 124.662 187.428ZM112.309 176.847C112.195 177.681 111.882 180.235 111.944 183.55C111.955 184.248 112.466 184.842 113.143 184.978C115.78 185.499 122.108 186.719 123.88 186.917C126.152 187.177 129.342 186.218 129.884 185.134C130.572 183.748 127.184 181.048 125.214 179.912C123.786 179.088 122.41 177.869 121.191 176.795C120.106 175.836 119.085 174.929 118.605 174.887C117.938 174.804 116.541 176.639 115.76 177.952C115.697 178.046 115.582 178.098 115.468 178.056L112.309 176.847Z" fill="black"/>
<path d="M124.766 185.311C120.138 185.311 113.289 183.55 112.893 183.446C112.768 183.414 112.695 183.279 112.726 183.154C112.757 183.029 112.883 182.956 113.018 182.987C116.75 183.956 126.778 186.02 128.341 183.956C128.425 183.852 128.571 183.831 128.675 183.915C128.779 183.998 128.8 184.144 128.717 184.248C128.123 185.03 126.621 185.311 124.766 185.311Z" fill="black"/>
<path d="M119.491 180.871C119.429 180.871 119.366 180.85 119.325 180.798C119.231 180.704 119.241 180.558 119.335 180.464L121.68 178.192C121.774 178.098 121.92 178.108 122.014 178.202C122.108 178.296 122.097 178.442 122.004 178.536L119.658 180.808C119.606 180.85 119.554 180.871 119.491 180.871Z" fill="black"/>
<path d="M90.5958 106.839C90.5958 106.839 89.4908 141.885 89.0426 151.141C88.6778 158.584 90.6166 169.581 91.388 173.595C91.5548 174.47 92.3575 175.075 93.2539 175.002L97.4444 174.637C98.3409 174.554 99.0393 173.803 99.0289 172.896C99.008 169.394 98.9872 160.919 99.1227 155.353C99.1748 153.049 99.5814 150.776 100.342 148.598C101.239 146.023 102.438 142.083 102.865 138.434C103.574 132.347 106.378 122.673 106.378 122.673C106.378 122.673 110.037 164.005 110.85 172.698C110.923 173.48 111.59 174.064 112.372 174.033C113.915 173.97 116.041 174.231 117.625 173.605C118.105 173.418 118.459 172.99 118.543 172.479C119.106 169.081 121.743 154.07 120.982 145.762C120.127 136.308 119.471 104.91 119.471 104.91L90.5958 106.839Z" fill="black"/>
<path d="M85.759 108.465C85.759 108.465 96.9336 111.738 107.003 112.166C112.945 112.416 116.937 110.654 116.937 110.654L111.267 64.663C111.267 64.663 110.954 61.0562 104.647 59.3779C101.26 58.4815 98.6849 62.3905 98.6849 62.3905L85.759 108.465Z" fill="white"/>
<path d="M108.16 112.416C107.785 112.416 107.399 112.405 107.003 112.395C97.017 111.968 85.8111 108.726 85.6965 108.684C85.5714 108.653 85.4984 108.517 85.5401 108.392L98.466 62.3175C98.4764 62.2967 98.4868 62.2758 98.4973 62.255C98.6015 62.0882 101.208 58.2104 104.72 59.1382C111.121 60.8373 111.507 64.4753 111.517 64.6317L117.188 110.623C117.198 110.727 117.146 110.821 117.052 110.863C117 110.883 113.456 112.416 108.16 112.416ZM86.0509 108.298C87.6875 108.757 97.8718 111.53 107.014 111.926C112.174 112.145 115.874 110.821 116.677 110.498L111.027 64.6838C111.027 64.6421 110.631 61.2126 104.575 59.5968C101.541 58.7942 99.1331 62.1299 98.8934 62.4843L86.0509 108.298Z" fill="black"/>
<path d="M91.3046 77.151C89.0635 75.7542 83.5595 77.6201 79.1918 76.5256C74.8241 75.4206 65.922 72.7625 66.0158 64.2877C66.0992 56.4279 74.4384 59.2528 76.4711 63.8186C77.1904 65.4239 85.8841 63.4329 88.1357 62.4009C91.9509 60.6393 95.5889 61.5461 95.5889 61.5461L91.3046 77.151Z" fill="white"/>
<path d="M91.3046 77.3804C91.2629 77.3804 91.2212 77.3699 91.1795 77.3491C90.0954 76.6715 88.1566 76.807 85.905 76.9738C83.7472 77.1302 81.3079 77.297 79.1397 76.7549C75.8144 75.9106 65.6926 73.3567 65.776 64.2877C65.8177 60.4308 67.7879 59.4509 68.9554 59.2112C71.6969 58.6378 75.3766 60.7956 76.6901 63.7352C76.7422 63.8499 76.8673 63.9437 77.0653 64.0167C79.0459 64.7672 86.103 63.0889 88.0419 62.1925C91.8884 60.4204 95.4951 61.2856 95.6515 61.3168C95.714 61.3272 95.7661 61.3689 95.7974 61.4315C95.8287 61.4836 95.8391 61.5566 95.8183 61.6087L91.534 77.224C91.5131 77.297 91.461 77.3595 91.388 77.3804C91.3568 77.3804 91.3255 77.3804 91.3046 77.3804ZM88.5318 76.3692C89.5638 76.3692 90.4603 76.4735 91.1483 76.7966L95.2866 61.7129C94.4319 61.5566 91.3776 61.1605 88.2295 62.599C86.1864 63.5372 79.0146 65.2259 76.8881 64.4336C76.565 64.3085 76.3461 64.1313 76.2522 63.902C75.043 61.2022 71.551 59.1382 69.0492 59.649C67.2458 60.0242 66.2764 61.6191 66.2451 64.2668C66.1617 72.971 76.0125 75.4623 79.244 76.2754C81.3392 76.807 83.7367 76.6298 85.8633 76.4839C86.8223 76.4318 87.7187 76.3692 88.5318 76.3692Z" fill="black"/>
<path d="M103.219 57.0846C108.504 57.6163 111.329 61.0458 114.154 65.1008C114.154 65.1008 130.061 69.1974 128.56 85.1046C128.102 89.9622 126.705 96.4043 122.838 94.8928C118.97 93.3813 117.824 92.0262 117.824 92.0262C117.824 92.0262 119.241 96.4877 119.523 100.167C119.637 101.7 119.679 103.024 119.679 104.035C119.679 105.713 119.898 107.381 120.325 108.997L120.867 111.061C121.243 112.51 120.826 114.073 119.731 115.095C118.084 116.637 115.76 117.899 112.08 117.722C112.08 117.722 112.382 110.279 111.548 106.088C111.152 104.097 110.016 95.5496 109.734 87.3458C109.547 81.8106 112.924 69.5623 109.974 65.4552C109.276 64.4857 99.6856 60.8894 99.154 61.9735C97.6946 64.9965 97.9969 67.2377 97.7884 68.7492C96.402 78.7668 96.0684 79.9238 92.5347 88.5029C88.6256 97.9992 89.4491 100.407 87.6145 118.597C87.6145 118.597 83.914 115.741 82.0272 114.417C82.0272 114.417 84.4769 89.6182 85.8841 85.2818C87.3018 80.9454 88.0523 75.0975 86.5408 72.9293L92.1698 65.3301C92.1803 65.3197 93.5145 56.1048 103.219 57.0846Z" fill="white"/>
<path d="M87.6041 118.816C87.552 118.816 87.4998 118.795 87.4581 118.764C87.4164 118.733 83.7367 115.897 81.8812 114.594C81.8083 114.542 81.777 114.459 81.777 114.375C81.8812 113.364 84.2475 89.4931 85.6443 85.188C87.062 80.8516 87.7813 75.1287 86.3323 73.0439C86.2698 72.9605 86.2802 72.8459 86.3323 72.7729L91.9301 65.2154C92.076 64.4023 93.8273 55.8963 103.23 56.8345C108.609 57.3765 111.527 60.9415 114.29 64.8714C114.894 65.0382 118.584 66.164 122.056 68.9264C125.558 71.7096 129.571 76.7757 128.779 85.1046C128.425 88.826 127.539 93.5585 125.298 94.9345C124.537 95.4036 123.682 95.4557 122.744 95.0909C120.357 94.1527 118.981 93.2771 118.272 92.735C118.689 94.1944 119.533 97.3842 119.742 100.126C119.846 101.45 119.898 102.753 119.898 104.014C119.898 105.661 120.117 107.308 120.534 108.913L121.076 110.977C121.482 112.541 121.024 114.177 119.867 115.251C117.771 117.211 115.207 118.086 112.038 117.941C111.913 117.93 111.809 117.826 111.809 117.69C111.809 117.617 112.101 110.227 111.277 106.109C110.871 104.087 109.745 95.5183 109.463 87.3249C109.401 85.4382 109.745 82.7696 110.11 79.9447C110.829 74.4408 111.642 68.2071 109.734 65.5594C109.213 64.8297 102.219 62.0569 99.8107 61.9735C99.3937 61.9631 99.3208 62.0465 99.3208 62.0465C98.2367 64.2981 98.1428 66.0806 98.0699 67.5087C98.049 67.957 98.0282 68.3739 97.9761 68.7492C96.5897 78.7355 96.2978 79.8509 92.7119 88.555C89.7723 95.6851 89.5221 98.708 88.7924 107.683C88.5527 110.55 88.2608 114.104 87.8126 118.576C87.8021 118.66 87.75 118.733 87.6666 118.774C87.6666 118.806 87.6354 118.816 87.6041 118.816ZM82.2669 114.292C83.8201 115.387 86.4783 117.419 87.406 118.139C87.8334 113.865 88.1149 110.446 88.3442 107.673C89.0843 98.6455 89.3345 95.6017 92.3053 88.3986C95.8704 79.7466 96.1623 78.6417 97.5382 68.7075C97.5904 68.3531 97.6112 67.957 97.6321 67.5087C97.705 66.1119 97.8093 64.2043 98.9351 61.8693C99.0706 61.5878 99.4459 61.5461 99.5605 61.5357C101.552 61.3585 109.463 64.3502 110.151 65.3092C112.163 68.1029 111.34 74.4408 110.61 80.0281C110.245 82.8321 109.901 85.4799 109.964 87.3354C110.245 95.4974 111.371 104.024 111.767 106.036C112.518 109.789 112.351 116.189 112.309 117.492C115.238 117.586 117.605 116.742 119.554 114.918C120.576 113.959 120.992 112.499 120.628 111.113L120.086 109.049C119.658 107.402 119.439 105.713 119.439 104.024C119.439 102.773 119.387 101.481 119.283 100.178C119.001 96.5711 117.605 92.1409 117.594 92.0992C117.563 91.9949 117.605 91.8803 117.709 91.8177C117.803 91.7656 117.928 91.7865 118.001 91.8698C118.011 91.8803 119.179 93.2041 122.921 94.6739C123.724 94.9866 124.422 94.945 125.058 94.5593C127.247 93.2146 128.039 88.0442 128.321 85.0838C128.936 78.5791 126.736 73.2837 121.785 69.3329C118.074 66.3829 114.133 65.3405 114.092 65.3301C114.04 65.3197 113.987 65.278 113.956 65.2363C111.152 61.2126 108.411 57.8456 103.188 57.3244C99.2582 56.9283 96.2457 58.1583 94.2442 60.9624C92.7432 63.0681 92.3992 65.3301 92.3887 65.3614C92.3783 65.4031 92.3679 65.4343 92.347 65.4656L86.8327 72.9293C88.2608 75.2538 87.5624 80.8828 86.1134 85.3444C84.7687 89.4306 82.465 112.291 82.2669 114.292Z" fill="black"/>
<path d="M79.2753 46.0664C79.2753 46.0664 77.6074 51.4244 76.7109 57.5954C75.95 62.8283 75.533 64.1835 74.0111 65.3197C72.4892 66.4559 70.0603 66.852 68.2361 63.7665C66.4015 60.6601 76.221 43.7314 76.7839 42.1573C77.5865 39.9162 79.3482 38.363 81.4852 37.9252C83.2885 37.5603 85.634 37.8418 86.8536 38.7278C87.3852 39.1135 90.2831 41.5319 89.6681 42.8245C89.1156 43.9816 87.6145 44.3464 83.8931 42.8766C83.8931 42.8766 86.8223 45.0969 86.3428 45.8162C85.832 46.5667 85.1023 45.91 83.8723 45.1282C82.5276 44.263 80.1405 43.7731 79.2753 46.0664Z" fill="white"/>
<path d="M71.6865 66.3934C71.4676 66.3934 71.2487 66.3725 71.0194 66.3308C69.8623 66.1015 68.8511 65.278 68.0381 63.8812C66.7142 61.64 70.6649 53.4466 75.1369 44.9093C75.877 43.502 76.4503 42.3971 76.565 42.0635C77.3781 39.7806 79.2023 38.1441 81.4434 37.6854C83.4032 37.2893 85.7903 37.6437 86.9995 38.5193C87.0412 38.5506 90.6583 41.2713 89.887 42.9079C89.2824 44.1796 87.75 44.3985 85.1127 43.5437C86.0196 44.3464 86.9265 45.3575 86.5408 45.9309C85.9779 46.7752 85.1649 46.2436 84.2267 45.6286C84.0703 45.5243 83.914 45.4201 83.7472 45.3158C83.0175 44.8467 81.8187 44.4298 80.8284 44.7529C80.2134 44.951 79.7652 45.4201 79.4941 46.1393C79.4212 46.3582 77.8054 51.6433 76.9402 57.6267C76.1793 62.8179 75.7727 64.2877 74.157 65.5073C73.6775 65.8617 72.781 66.3934 71.6865 66.3934ZM83.1426 37.9981C82.6005 37.9981 82.048 38.0502 81.5373 38.1545C79.4629 38.5819 77.7637 40.1038 77.0028 42.2303C76.8777 42.5847 76.3461 43.5959 75.5434 45.1282C73.0104 49.9754 67.0686 61.3168 68.4342 63.6414C69.1847 64.9131 70.0812 65.6637 71.1027 65.8617C72.3224 66.1015 73.3544 65.5073 73.8547 65.132C75.2724 64.0688 75.6789 62.87 76.4607 57.5641C77.3572 51.4452 79.0146 46.0559 79.0355 46.0038V45.9934C79.3586 45.1386 79.9111 44.5757 80.6616 44.3255C81.8083 43.9503 83.1217 44.3881 83.9765 44.9406C84.1537 45.0552 84.3101 45.1595 84.4664 45.2637C85.5505 45.9726 85.8528 46.1081 86.1239 45.7015C86.3115 45.4201 85.1753 44.1692 83.7263 43.0851C83.6325 43.0121 83.6012 42.887 83.6638 42.7828C83.7263 42.6785 83.841 42.6368 83.9557 42.6785C88.1149 44.3151 89.0739 43.502 89.4387 42.7411C89.9182 41.7195 87.5728 39.5617 86.6972 38.9363C85.9258 38.3317 84.5394 37.9981 83.1426 37.9981Z" fill="black"/>
<path d="M104.366 53.9157L102.427 58.8359C99.8107 60.3891 99.2478 61.8693 99.2478 61.8693C101.447 65.6845 105.283 66.9667 109.797 65.549L109.964 65.4552C109.964 65.4552 108.035 63.5893 108.286 61.2022L110.954 51.9143L104.366 53.9157Z" fill="white"/>
<path d="M106.378 66.3308C103.272 66.3308 100.686 64.8298 99.0393 61.9736C99.008 61.911 98.9976 61.8381 99.0185 61.7755C99.0393 61.713 99.6335 60.2327 102.229 58.6691L104.137 53.8219C104.168 53.7594 104.22 53.7073 104.283 53.6864L110.86 51.6746C110.944 51.6537 111.037 51.6746 111.1 51.7267C111.163 51.7892 111.183 51.8726 111.163 51.956L108.515 61.2335C108.296 63.4746 110.11 65.2572 110.12 65.278C110.172 65.3301 110.204 65.4031 110.193 65.4761C110.183 65.549 110.141 65.6116 110.078 65.6533L109.912 65.7471C109.901 65.7575 109.88 65.7575 109.87 65.7679C108.65 66.1432 107.483 66.3308 106.378 66.3308ZM99.5084 61.8485C101.604 65.3822 105.252 66.6644 109.557 65.3614C109.036 64.7568 107.837 63.1515 108.046 61.1605C108.046 61.1501 108.046 61.1292 108.056 61.1188L110.6 52.2479L104.543 54.1034L102.646 58.9193C102.625 58.9714 102.594 59.0131 102.542 59.034C100.426 60.2953 99.6856 61.5045 99.5084 61.8485Z" fill="black"/>
<path d="M102.928 40.5416C104.856 40.7501 102.875 42.6785 110.068 41.7091C113.018 41.313 111.048 44.3985 111.819 44.3047C114.655 43.9816 115.489 45.0448 116.041 45.6181C116.677 46.2749 117.177 47.6925 116.812 48.86C116.333 50.4028 114.154 50.5279 112.434 53.676C111.225 55.8859 111.194 57.3453 110.183 57.5225C109.172 57.7101 108.682 56.3133 107.556 56.4384C106.107 56.5947 105.982 59.0235 104.46 59.7949C103.501 60.2744 101.479 60.2327 98.5598 58.1688C98.0907 57.8352 97.9239 57.2097 98.1637 56.6781C98.4764 56.0005 98.8725 55.1562 99.3312 54.3744C101.479 50.6634 103.042 50.0067 102.698 48.8913C102.177 47.1922 99.0393 47.5883 98.7579 46.2123C98.4764 44.7946 100.28 40.2497 102.928 40.5416Z" fill="black"/>
<path d="M108.056 49.3291C107.723 49.7669 107.41 50.2256 107.139 50.7051C106.628 51.6016 105.732 53.1339 105.158 53.9574C104.46 54.979 101.385 53.3945 100.436 52.8733C100.28 52.7899 100.238 52.5918 100.332 52.4459L100.843 51.5494L100.082 51.2159C99.9983 51.1637 99.9149 51.0908 99.8628 50.997C99.7377 50.7676 99.7794 50.507 99.9462 50.3298C100.811 49.4229 102.323 47.9531 103.282 45.983C103.376 45.7849 103.584 45.6598 103.814 45.6598C104.585 45.6807 106.367 45.91 107.91 47.3798C108.442 47.901 108.515 48.7454 108.056 49.3291Z" fill="white"/>
<path d="M104.324 54.5307C103.167 54.5307 101.437 53.6968 100.321 53.0818C100.196 53.0088 100.092 52.8837 100.061 52.7482C100.03 52.6023 100.05 52.4459 100.134 52.3208L100.509 51.6641L99.9879 51.4348C99.9775 51.4348 99.9671 51.4244 99.9566 51.4244C99.8211 51.341 99.7273 51.2367 99.6543 51.1221C99.4875 50.8093 99.5397 50.4341 99.7794 50.1839L100.019 49.9337C100.895 49.0268 102.208 47.6613 103.063 45.8996C103.199 45.6181 103.49 45.4305 103.814 45.4513C104.554 45.4722 106.451 45.7015 108.067 47.2339C108.702 47.8385 108.775 48.8079 108.244 49.4959C107.91 49.9233 107.608 50.3715 107.337 50.8406C106.837 51.7058 105.919 53.2798 105.346 54.1138C105.137 54.4056 104.773 54.5307 104.324 54.5307ZM100.196 51.0074L100.936 51.3305C100.999 51.3618 101.041 51.4139 101.062 51.4765C101.082 51.539 101.072 51.612 101.041 51.6641L100.53 52.5606C100.509 52.5919 100.509 52.6127 100.52 52.6231C100.52 52.6335 100.53 52.6544 100.551 52.6648C102.802 53.9053 104.575 54.3744 104.96 53.8219C105.523 52.9984 106.44 51.4452 106.93 50.5904C107.212 50.1005 107.525 49.6314 107.869 49.1832C108.254 48.6932 108.192 47.9844 107.743 47.557C106.253 46.1289 104.491 45.9309 103.803 45.8996C103.668 45.8996 103.553 45.9726 103.501 46.0872C102.615 47.9219 101.26 49.3187 100.374 50.236L100.134 50.4862C100.03 50.5904 100.009 50.7468 100.082 50.8823C100.103 50.9344 100.144 50.9761 100.196 51.0074Z" fill="black"/>
<path d="M107.869 53.0401C109.693 54.1659 110.777 52.4668 110.579 51.2784C110.495 50.7781 109.87 50.5904 109.516 50.9553L107.827 52.6753C107.712 52.7691 107.743 52.9567 107.869 53.0401Z" fill="white"/>
<path d="M89.6681 87.5543L88.511 90.4834C88.24 91.3174 88.6673 92.2034 89.4596 92.4119L90.3665 92.6516C91.1066 92.8497 91.878 92.3702 92.1073 91.578L93.4729 87.8357L89.6681 87.5543Z" fill="black"/>
<path d="M88.3234 90.6398C88.3234 90.6398 87.062 91.4425 86.593 92.5474C86.1239 93.6524 85.2587 95.9978 86.0092 96.4043C86.5617 96.7066 92.8474 97.6135 95.9538 98.0513C96.9337 98.1869 97.6529 97.1236 97.1317 96.2792C96.7356 95.6434 95.8912 94.8928 94.8697 94.2153C93.3373 93.1937 92.6598 92.4119 92.3575 91.9115C92.149 91.5675 91.732 91.4216 91.3672 91.5675L89.3241 92.3702L88.3234 90.6398Z" fill="white"/>
<path d="M96.1206 98.3015C96.058 98.3015 95.9851 98.3015 95.9225 98.2911C89.7097 97.4155 86.3323 96.8526 85.8945 96.6232C85.2065 96.248 85.3733 94.8511 86.374 92.464C86.864 91.3069 88.1357 90.4834 88.1878 90.4522C88.2399 90.4209 88.3129 90.4105 88.365 90.4209C88.4276 90.4313 88.4797 90.473 88.511 90.5356L89.4179 92.0888L91.2734 91.3591C91.7529 91.1714 92.2949 91.3591 92.5555 91.8073C92.8266 92.266 93.4728 93.0165 94.9948 94.0381C96.0997 94.7782 96.9336 95.5391 97.3193 96.175C97.6008 96.6337 97.5904 97.207 97.2985 97.6656C97.0379 98.0618 96.6001 98.3015 96.1206 98.3015ZM88.2504 90.9838C87.8855 91.2548 87.135 91.8803 86.8118 92.6412C85.8841 94.8511 85.8007 96.0186 86.1239 96.1959C86.2594 96.2688 87.3747 96.6024 95.985 97.8116C96.3499 97.8637 96.7043 97.6969 96.9128 97.3842C97.1109 97.0715 97.1213 96.7066 96.9336 96.3939C96.5792 95.8206 95.787 95.0909 94.7446 94.4029C93.1497 93.3396 92.4617 92.5266 92.1594 92.0262C92.0135 91.776 91.7112 91.6718 91.4506 91.776L89.4074 92.5787C89.3032 92.6204 89.1781 92.5787 89.1156 92.4744L88.2504 90.9838Z" fill="black"/>
<path d="M91.3151 94.9971C91.2212 94.9971 91.1378 94.9449 91.0961 94.8615C91.044 94.7469 91.0961 94.6009 91.2108 94.5488L92.9204 93.767C93.035 93.7149 93.181 93.767 93.2331 93.8817C93.2852 93.9963 93.2331 94.1423 93.1184 94.1944L91.4089 94.9762C91.3776 94.9971 91.3463 94.9971 91.3151 94.9971Z" fill="black"/>
<path d="M80.4427 90.9525L79.0146 95.216C78.827 96.0812 79.3169 96.9047 80.0779 97.0298L80.9535 97.1757C81.6624 97.2904 82.3608 96.7379 82.5171 95.9248L84.0391 91.4529L80.4427 90.9525Z" fill="black"/>
<path d="M76.1063 98.2077C75.8353 98.6455 75.8978 99.2084 76.2627 99.5732C77.5448 100.824 80.4323 103.639 81.3079 104.358C82.4442 105.296 84.1954 105.849 85.3004 105.515C86.3949 105.181 85.3212 102.158 84.6958 100.908C83.768 99.0624 83.4449 96.3313 82.8924 95.8727C82.3399 95.4244 80.1404 96.4877 80.1404 96.4877L78.7645 94.5905C78.7749 94.6009 77.4927 95.9873 76.1063 98.2077Z" fill="white"/>
<path d="M84.5915 105.849C83.497 105.849 82.1314 105.348 81.162 104.546C80.276 103.805 77.3259 100.949 76.1063 99.7504C75.6581 99.3126 75.5747 98.6142 75.9083 98.093C77.2947 95.8831 78.5873 94.4759 78.5977 94.455C78.6498 94.4029 78.7123 94.3716 78.7853 94.382C78.8583 94.382 78.9208 94.4237 78.9625 94.4759L80.2238 96.2062C80.9118 95.8831 82.4754 95.2368 83.0488 95.7059C83.3719 95.9665 83.57 96.6441 83.8931 97.822C84.1641 98.8018 84.4664 99.9068 84.9147 100.814C85.3212 101.616 86.3741 104.16 85.8945 105.265C85.7903 105.515 85.6131 105.682 85.3733 105.744C85.1336 105.807 84.873 105.849 84.5915 105.849ZM76.3044 98.3328C76.0959 98.6768 76.148 99.125 76.4295 99.4064C77.6491 100.605 80.5887 103.451 81.4643 104.181C82.5588 105.088 84.2475 105.588 85.2378 105.296C85.3004 105.275 85.3942 105.234 85.4567 105.077C85.7799 104.327 85.1023 102.242 84.4873 101.022C84.0078 100.074 83.7055 98.9478 83.4345 97.9471C83.2051 97.1131 82.9654 96.2479 82.7465 96.0707C82.4859 95.8623 81.2454 96.2375 80.2551 96.717C80.1509 96.7692 80.0258 96.7379 79.9632 96.6441L78.7645 94.9866C78.3475 95.4557 77.3468 96.6545 76.3044 98.3328Z" fill="black"/>
<path d="M81.2558 99.6045C81.1516 99.6045 81.0473 99.5315 81.0265 99.4169C80.9952 99.2918 81.0786 99.1667 81.2037 99.1354L82.8299 98.7706C82.9549 98.7393 83.08 98.8227 83.1113 98.9478C83.1426 99.0729 83.0592 99.198 82.9341 99.2292L81.3079 99.5941C81.2871 99.6045 81.2767 99.6045 81.2558 99.6045Z" fill="black"/>
<path d="M90.085 56.8866C90.085 56.8866 100.29 63.6831 100.676 69.187C101.02 74.1697 93.5979 90.056 93.5979 90.056C93.5979 90.056 89.0426 90.056 88.1878 88.2839C88.1878 88.2839 92.3366 74.128 89.6055 70.1564C87.9168 67.7068 79.6192 58.3564 79.6192 58.3564L90.085 56.8866Z" fill="white"/>
<path d="M93.5979 90.2958C93.4103 90.2958 88.8758 90.2645 87.9689 88.3882C87.9481 88.3361 87.9376 88.2735 87.9585 88.2214C88.0002 88.0859 92.0447 74.128 89.4074 70.3024C87.75 67.8944 79.5254 58.617 79.442 58.5232C79.3795 58.4606 79.369 58.3668 79.4003 58.2834C79.4316 58.2 79.5046 58.1479 79.5879 58.127L90.0537 56.6468C90.1163 56.6364 90.1684 56.6468 90.2205 56.6885C90.6375 56.97 100.53 63.6205 100.916 69.1662C101.26 74.1489 94.1191 89.5036 93.8168 90.1499C93.7751 90.2437 93.6918 90.2958 93.5979 90.2958ZM88.438 88.2631C89.1468 89.4827 92.149 89.7955 93.452 89.8267C94.1713 88.2527 100.759 73.8257 100.436 69.2079C100.092 64.1313 90.9502 57.7622 90.0329 57.1368L80.0883 58.544C81.5998 60.2431 88.2816 67.8319 89.7931 70.0314C92.4721 73.9196 88.8237 86.9184 88.438 88.2631Z" fill="black"/>
<path d="M74.8554 57.3452C74.8554 57.3452 73.4377 63.3495 78.5247 65.7471C81.0682 66.9458 81.6832 66.8207 82.0064 68.0925C83.2364 72.9501 80.1717 86.3347 79.2857 89.9727C79.1293 90.619 79.3586 91.3174 79.8903 91.7135C80.6929 92.3285 82.0793 92.9748 83.9869 92.3806C84.4977 92.2243 84.9042 91.8282 85.0815 91.3174C86.3845 87.6794 92.0656 71.6471 92.3471 68.5511C92.7119 64.5379 87.7917 61.4628 85.3004 59.7532C82.7986 58.0645 74.8554 57.3452 74.8554 57.3452Z" fill="white"/>
<path d="M82.5067 92.8601C81.2975 92.8601 80.3698 92.3806 79.7443 91.9115C79.1397 91.4529 78.8791 90.6711 79.0563 89.9206C79.9945 86.0219 82.9758 72.9293 81.777 68.155C81.5685 67.3211 81.235 67.1752 80.0258 66.6748C79.5984 66.4976 79.0772 66.2787 78.4205 65.966C73.2188 63.5059 74.6052 57.3557 74.6261 57.2931C74.6574 57.1785 74.7616 57.1055 74.8763 57.1159C75.1994 57.1472 82.9132 57.856 85.4254 59.576C85.5714 59.6698 85.7173 59.7741 85.8841 59.8887C88.5214 61.6817 92.9308 64.6734 92.5764 68.5928C92.2949 71.6575 86.9369 86.835 85.3004 91.4112C85.0919 91.9845 84.6228 92.4432 84.0495 92.6204C83.497 92.7872 82.9758 92.8601 82.5067 92.8601ZM75.0431 57.6059C74.845 58.6691 74.23 63.4642 78.6185 65.5386C79.2648 65.8409 79.786 66.0598 80.203 66.237C81.4434 66.7582 81.9647 66.9771 82.2357 68.0404C83.4657 72.9084 80.474 86.1053 79.5254 90.0248C79.3899 90.5877 79.588 91.1819 80.0466 91.5259C80.8284 92.12 82.1314 92.7142 83.9244 92.1617C84.3622 92.0262 84.7166 91.6822 84.873 91.2444C86.03 87.9921 91.8363 71.6263 92.1177 68.5407C92.4513 64.8923 88.1774 62.0048 85.6339 60.2744C85.4776 60.1702 85.3212 60.0659 85.1753 59.9617C82.9654 58.471 76.3148 57.7309 75.0431 57.6059Z" fill="black"/>
<path d="M93.254 33.3698C96.0372 33.5366 98.8204 33.1718 101.468 32.2961C101.468 32.2961 103.563 31.5456 103.313 30.67L101.75 19.8915C101.583 18.6927 101.927 17.4626 102.719 16.5453C103.584 15.5342 104.814 14.3875 106.107 14.2208C108.494 13.908 105.263 18.2653 105.221 19.4849C105.179 20.7045 110.297 29.711 108.942 33.349C106.941 38.7382 92.5347 41.2504 92.5347 41.2504L93.254 33.3698Z" fill="black"/>
<path d="M75.8457 37.8835L72.4162 34.0787C68.0172 38.019 65.7552 38.5819 65.7552 38.5819C65.2027 38.8112 64.5668 38.6027 64.2645 38.0815C63.0345 35.9654 59.9907 30.7638 58.9378 29.6171C57.6035 28.1578 53.5173 26.6567 52.6104 27.9493C51.2553 29.8882 54.3929 30.3156 56.1025 31.9209C56.926 32.7027 60.5119 46.4416 66.7767 46.4521C70.6024 46.4625 75.8457 37.8835 75.8457 37.8835Z" fill="black"/>
<path d="M96.3499 32.932L94.3693 39.593C93.7751 41.4381 93.3895 43.3457 93.2122 45.2741L92.1281 57.2931C92.1281 57.2931 85.6548 61.5149 73.5107 57.7414L73.0312 46.3165C72.927 43.9398 72.51 41.584 71.7699 39.3115L70.2792 34.7249C70.2792 34.7249 73.4273 32.5046 76.6588 31.6707C81.1724 30.5032 92.6702 30.4198 96.3499 32.932Z" fill="white"/>
<path d="M83.0696 59.5447C80.401 59.5447 77.1904 59.1382 73.4482 57.9811C73.3543 57.9498 73.2814 57.8664 73.2814 57.7622L72.8019 46.327C72.7081 43.9711 72.2807 41.6361 71.551 39.3845L70.0603 34.7979C70.0291 34.7041 70.0603 34.5894 70.1437 34.5269C70.2688 34.4331 73.3648 32.2753 76.6067 31.4309C80.9639 30.3051 92.6181 30.0758 96.4958 32.7235C96.5792 32.7861 96.6209 32.8903 96.5897 32.9841L94.6091 39.6451C94.0149 41.4693 93.6292 43.3665 93.4624 45.2741L92.3575 57.3244C92.347 57.3974 92.3158 57.4599 92.2532 57.5016C92.2115 57.5224 89.0218 59.5447 83.0696 59.5447ZM73.74 57.5746C84.7583 60.952 91.0649 57.6475 91.8988 57.1576L92.9725 45.2533C93.1497 43.304 93.5458 41.3859 94.14 39.52L96.0789 33.0258C92.2845 30.6387 81.0056 30.7951 76.7213 31.9C73.9485 32.6193 71.207 34.3914 70.5607 34.8188L71.9992 39.2386C72.7393 41.5215 73.1771 43.8981 73.271 46.3061L73.74 57.5746Z" fill="black"/>
<path d="M79.2002 19.8865C81.0003 18.9813 81.7259 16.7883 80.8208 14.9881C79.9157 13.1879 77.7226 12.4623 75.9224 13.3674C74.1222 14.2726 73.3967 16.4657 74.3018 18.2658C75.2069 20.066 77.4 20.7916 79.2002 19.8865Z" fill="white"/>
<path d="M77.5553 20.5169C76.9924 20.5169 76.4295 20.3918 75.9083 20.152C74.9701 19.7142 74.2508 18.9324 73.9068 17.9526C73.5524 16.9727 73.6045 15.9199 74.0423 14.9817C74.4802 14.0435 75.262 13.3243 76.2418 12.9803C78.2537 12.2506 80.4844 13.293 81.2141 15.3048C81.5685 16.2847 81.5164 17.3375 81.0786 18.2757C80.6408 19.2139 79.859 19.9331 78.8791 20.2771C78.4517 20.4439 78.0035 20.5169 77.5553 20.5169ZM77.5553 13.22C77.1696 13.22 76.7735 13.2826 76.3982 13.4285C74.6261 14.0748 73.7088 16.0345 74.3551 17.7962C74.6678 18.651 75.2932 19.339 76.1167 19.7247C76.9402 20.1103 77.868 20.152 78.7228 19.8393C80.4949 19.193 81.4122 17.2333 80.7659 15.4716C80.2655 14.0852 78.9521 13.22 77.5553 13.22Z" fill="black"/>
<path d="M89.2381 15.7169C91.0014 15.4816 92.24 13.8614 92.0047 12.0981C91.7693 10.3348 90.1491 9.09616 88.3858 9.33152C86.6226 9.56687 85.3839 11.1871 85.6193 12.9504C85.8546 14.7136 87.4749 15.9523 89.2381 15.7169Z" fill="white"/>
<path d="M88.8133 15.9824C88.313 15.9824 87.8126 15.8678 87.354 15.6593C86.52 15.2632 85.8842 14.5752 85.5714 13.71C84.9251 11.917 85.8529 9.93644 87.6458 9.27972C89.4388 8.63343 91.4194 9.56117 92.0761 11.3541C92.3888 12.2193 92.3471 13.1575 91.9614 14.0018C91.5653 14.8358 90.8773 15.4716 90.0121 15.7844C89.6056 15.9094 89.2094 15.9824 88.8133 15.9824ZM88.8133 9.54033C88.4798 9.54033 88.1358 9.60287 87.8022 9.71754C87.0517 9.98856 86.4575 10.541 86.1135 11.2603C85.7799 11.9796 85.7382 12.7926 86.0092 13.5432C86.2803 14.2937 86.8328 14.8879 87.552 15.2319C88.2713 15.5655 89.0844 15.6072 89.8349 15.3361C90.5854 15.0651 91.1796 14.5126 91.5236 13.7934C91.8572 13.0741 91.8989 12.261 91.6278 11.5105C91.1796 10.3013 90.033 9.54033 88.8133 9.54033Z" fill="black"/>
<path d="M82.5797 28.1682C81.3809 27.7512 79.0876 25.9583 78.6081 22.9874C78.1286 20.0166 79.0251 16.4932 80.1092 15.357C81.1933 14.2208 87.5729 10.1971 91.7425 14.5022C95.9226 18.8074 90.7731 23.4252 90.7731 23.4252L82.5797 28.1682Z" fill="white"/>
<path d="M82.5797 28.4079C82.5484 28.4079 82.5276 28.4079 82.4963 28.3975C81.162 27.9284 78.8583 26.0625 78.3684 23.0291C77.8784 20.0061 78.7853 16.3994 79.932 15.2006C80.6304 14.4709 83.7264 12.3444 87.0621 12.334C87.0725 12.334 87.0933 12.334 87.1038 12.334C88.9905 12.334 90.6063 13.0116 91.9093 14.3458C93.0872 15.555 93.6605 16.9102 93.6084 18.3695C93.5042 21.257 91.0337 23.5086 90.9294 23.6024C90.919 23.6129 90.9086 23.6233 90.8877 23.6337L82.6944 28.3767C82.6631 28.3975 82.6214 28.4079 82.5797 28.4079ZM87.1038 12.8031C87.0933 12.8031 87.0829 12.8031 87.0621 12.8031C84.0495 12.8239 81.0265 14.7315 80.2656 15.5238C79.2232 16.6183 78.3684 20.1104 78.827 22.9561C79.2857 25.7915 81.4643 27.4802 82.5484 27.918L90.6167 23.248C90.8356 23.05 93.0351 20.9234 93.1289 18.3591C93.1706 17.0353 92.6494 15.7948 91.5653 14.6794C90.3665 13.4285 88.8654 12.8031 87.1038 12.8031Z" fill="black"/>
<path d="M82.6527 24.6866L82.121 28.7936C81.8604 30.8159 82.809 32.8278 84.5811 33.8389C84.8834 34.0161 85.2065 34.1725 85.5401 34.308C86.4157 34.652 87.3643 34.0057 87.3956 33.0675L87.5937 27.8346L82.6527 24.6866Z" fill="black"/>
<path d="M91.4819 17.6503C92.0656 17.5877 92.8891 27.0424 90.304 28.3871C87.7188 29.7318 83.2781 28.7311 82.2983 25.7185C82.2983 25.7185 80.3906 25.927 80.3177 23.3523C80.2551 21.1945 82.3608 22.2786 83.0071 22.6643C83.1322 22.7373 83.2781 22.7685 83.4241 22.7581C85.29 22.3203 82.9237 19.5371 87.6667 17.275C87.6771 17.275 89.2928 17.89 91.4819 17.6503Z" fill="black"/>
<path d="M87.2705 29.5546C85.6757 29.5546 84.0599 28.533 82.9133 26.7922C82.8403 26.688 82.8716 26.5316 82.9862 26.4691C83.0905 26.3961 83.2468 26.4274 83.3094 26.542C84.4039 28.2203 85.9571 29.1689 87.4373 29.0855C87.5728 29.0751 87.6771 29.1793 87.6875 29.3044C87.6979 29.4399 87.5937 29.5442 87.4686 29.5546C87.4061 29.5546 87.3331 29.5546 87.2705 29.5546Z" fill="white"/>
<path d="M107.139 80.9558C107.139 80.9558 106.107 76.192 103.866 74.5137C101.896 73.0439 102.302 75.5249 103.167 76.9008C103.334 77.1614 103.449 77.3908 103.522 77.6097C103.73 78.1726 103.063 78.6521 102.604 78.2768C100.728 76.7549 96.7356 73.6381 96.2144 74.0759C95.6932 74.5242 96.1623 75.8584 97.5487 77.2865C97.8718 77.6201 98.0386 78.0788 97.9865 78.5478C97.8823 79.4652 97.9031 81.0601 99.0602 82.0399C100.572 83.3221 104.439 84.6668 104.439 84.6668C104.439 84.6668 108.577 90.546 118.105 96.0291C123.265 98.9999 124.599 94.9762 125.464 90.9734C126.705 85.2401 118.668 86.9601 118.668 86.9601C118.668 86.9601 114.071 87.5126 107.139 80.9558Z" fill="white"/>
<path d="M121.201 97.3008C120.273 97.3008 119.2 96.9464 117.969 96.2376C109.036 91.0881 104.762 85.5216 104.283 84.8649C103.73 84.6668 100.332 83.4368 98.9038 82.2171C97.6529 81.1539 97.6425 79.4443 97.7468 78.5166C97.7884 78.1205 97.6529 77.7348 97.3819 77.4533C96.3395 76.3901 95.7453 75.306 95.7766 74.5554C95.787 74.2844 95.8913 74.0551 96.0685 73.8987C96.2874 73.7111 96.7982 73.2733 102.761 78.0892C102.917 78.2143 103.084 78.1726 103.188 78.0996C103.292 78.0267 103.386 77.8807 103.313 77.6931C103.23 77.4742 103.115 77.2553 102.98 77.0259C102.406 76.1191 101.906 74.5242 102.479 73.9925C102.802 73.6902 103.324 73.8049 104.022 74.3261C106.19 75.9418 107.222 80.2053 107.368 80.8412C114.092 87.1686 118.595 86.7412 118.637 86.7308C118.793 86.6995 123.119 85.7926 124.995 87.6689C125.767 88.4508 126.006 89.5766 125.694 91.0255C125.162 93.4856 124.432 96.175 122.525 97.0298C122.108 97.207 121.67 97.3008 121.201 97.3008ZM96.3499 74.274C96.2874 74.3365 96.2457 74.4408 96.2353 74.5763C96.2144 75.0349 96.5897 75.9731 97.7051 77.1302C98.0803 77.5159 98.268 78.0475 98.2054 78.5791C98.1116 79.4131 98.1116 80.9454 99.1957 81.8732C100.655 83.1136 104.46 84.4479 104.502 84.4583C104.543 84.4792 104.585 84.5 104.616 84.5417C104.658 84.6043 108.838 90.4418 118.209 95.831C119.919 96.8213 121.264 97.0715 122.316 96.6024C123.943 95.8831 124.672 93.4439 125.214 90.9317C125.496 89.6495 125.298 88.6592 124.641 88.0025C122.952 86.3138 118.741 87.1894 118.699 87.1999C118.491 87.2311 113.904 87.6898 106.972 81.133C106.941 81.1018 106.91 81.0601 106.899 81.008C106.889 80.9663 105.867 76.3067 103.72 74.7014C103.178 74.2948 102.875 74.2531 102.782 74.3365C102.521 74.5763 102.761 75.8272 103.355 76.7758C103.511 77.0259 103.647 77.2865 103.73 77.5263C103.866 77.8807 103.751 78.2664 103.438 78.4853C103.136 78.7042 102.729 78.6938 102.438 78.4541C98.5181 75.2851 96.7148 74.2219 96.3499 74.274Z" fill="black"/>
<path d="M65.0702 20.4578C68.6688 16.8592 68.6688 11.0247 65.0702 7.42607C61.4716 3.82746 55.6371 3.82746 52.0385 7.42607C48.4399 11.0247 48.4399 16.8592 52.0385 20.4578C55.6371 24.0564 61.4716 24.0564 65.0702 20.4578Z" fill="white"/>
<path d="M58.5521 23.394C53.3401 23.394 49.0975 19.1514 49.0975 13.9393C49.0975 8.72726 53.3401 4.48465 58.5521 4.48465C63.7642 4.48465 68.0068 8.72726 68.0068 13.9393C68.0172 19.1514 63.7746 23.394 58.5521 23.394ZM58.5521 4.95373C53.6007 4.95373 49.5666 8.98786 49.5666 13.9393C49.5666 18.8908 53.6007 22.9249 58.5521 22.9249C63.5036 22.9249 67.5377 18.8908 67.5377 13.9393C67.5377 8.98786 63.514 4.95373 58.5521 4.95373Z" fill="black"/>
<path d="M58.6043 18.578C58.5105 18.6301 58.3958 18.6406 58.302 18.5885C57.4889 18.1298 53.7154 15.8678 53.8717 12.8969C54.0281 9.75924 57.4368 10.3013 58.2811 11.8441C58.3124 11.9066 58.3749 11.9379 58.4375 11.9379C58.5 11.9379 58.5626 11.8962 58.5834 11.8336C59.0004 10.8433 60.3242 10.1241 61.5856 10.5932C63.0866 11.1456 64.6085 14.8566 58.6043 18.578Z" fill="black"/>
<path d="M164.888 15.7531C164.826 15.7531 164.763 15.7323 164.722 15.6801C158.571 9.21719 151.222 4.32829 142.904 1.1281C142.779 1.0864 142.716 0.940462 142.768 0.825797C142.81 0.700708 142.956 0.648588 143.071 0.690284C151.462 3.91133 158.863 8.84193 165.066 15.357C165.159 15.4508 165.149 15.5967 165.055 15.6906C165.003 15.7323 164.951 15.7531 164.888 15.7531Z" fill="black"/>
<path d="M177.397 36.4762C177.324 36.4762 177.241 36.4345 177.199 36.372C177.053 36.1531 162.553 14.4709 143.3 6.55904C143.175 6.50692 143.123 6.37141 143.175 6.24632C143.227 6.12123 143.363 6.06911 143.488 6.12123C162.877 14.0852 177.449 35.8925 177.595 36.1114C177.668 36.2156 177.637 36.3615 177.533 36.4345C177.481 36.4658 177.439 36.4762 177.397 36.4762Z" fill="black"/>
<path d="M173.144 19.7977C173.103 19.7977 173.061 19.7872 173.03 19.7664C172.915 19.7038 172.873 19.5579 172.946 19.4432L173.853 17.8588C173.916 17.7441 174.062 17.7024 174.176 17.7754C174.291 17.8379 174.333 17.9839 174.26 18.0985L173.353 19.683C173.311 19.756 173.228 19.7977 173.144 19.7977Z" fill="black"/>
<path d="M171.028 23.4878C170.986 23.4878 170.945 23.4774 170.913 23.4565C170.799 23.394 170.757 23.248 170.83 23.1334L171.737 21.5489C171.8 21.4342 171.945 21.3925 172.06 21.4655C172.175 21.528 172.216 21.674 172.143 21.7886L171.237 23.3731C171.184 23.4461 171.112 23.4878 171.028 23.4878Z" fill="black"/>
<path d="M171.487 20.2459C171.445 20.2459 171.403 20.2355 171.372 20.2146L169.788 19.3077C169.673 19.2452 169.631 19.0992 169.704 18.9846C169.767 18.8699 169.913 18.8282 170.027 18.9012L171.612 19.8081C171.727 19.8706 171.768 20.0165 171.695 20.1312C171.654 20.2042 171.57 20.2459 171.487 20.2459Z" fill="black"/>
<path d="M175.177 22.362C175.135 22.362 175.094 22.3515 175.062 22.3307L173.478 21.4238C173.363 21.3613 173.321 21.2153 173.394 21.1007C173.457 20.986 173.603 20.9443 173.718 21.0173L175.302 21.9242C175.417 21.9867 175.458 22.1326 175.385 22.2473C175.344 22.3203 175.26 22.362 175.177 22.362Z" fill="black"/>
</svg>
