<svg width="32" height="32" viewBox="0 0 32 32" fill="none" xmlns="http://www.w3.org/2000/svg">
<circle cx="16" cy="16" r="16" fill="white"/>
<path d="M23.8749 8.13738C23.6414 7.90332 23.3243 7.77178 22.9937 7.77178C22.663 7.77178 22.3459 7.90332 22.1124 8.13738L15.9999 14.2374L9.8874 8.12488C9.65386 7.89082 9.3368 7.75928 9.00615 7.75928C8.67551 7.75928 8.35844 7.89082 8.1249 8.12488C7.6374 8.61238 7.6374 9.39988 8.1249 9.88738L14.2374 15.9999L8.1249 22.1124C7.6374 22.5999 7.6374 23.3874 8.1249 23.8749C8.6124 24.3624 9.3999 24.3624 9.8874 23.8749L15.9999 17.7624L22.1124 23.8749C22.5999 24.3624 23.3874 24.3624 23.8749 23.8749C24.3624 23.3874 24.3624 22.5999 23.8749 22.1124L17.7624 15.9999L23.8749 9.88738C24.3499 9.41238 24.3499 8.61238 23.8749 8.13738Z" fill="#00A8FF"/>
</svg>
