<svg width="22" height="22" viewBox="0 0 22 22" fill="none" xmlns="http://www.w3.org/2000/svg">
<path d="M11.0001 7.35513C8.9931 7.35513 7.35521 8.99302 7.35521 11.0001C7.35521 13.0071 8.9931 14.645 11.0001 14.645C13.0072 14.645 14.6451 13.0071 14.6451 11.0001C14.6451 8.99302 13.0072 7.35513 11.0001 7.35513ZM21.9322 11.0001C21.9322 9.49068 21.9459 7.99498 21.8611 6.48834C21.7763 4.73834 21.3771 3.18521 20.0974 1.90552C18.815 0.623103 17.2646 0.226619 15.5146 0.141853C14.0052 0.0570877 12.5095 0.0707596 11.0029 0.0707596C9.49349 0.0707596 7.99779 0.0570877 6.49115 0.141853C4.74115 0.226619 3.18802 0.625837 1.90833 1.90552C0.625911 3.18795 0.229427 4.73834 0.144661 6.48834C0.0598953 7.99771 0.0735672 9.49341 0.0735672 11.0001C0.0735672 12.5067 0.0598953 14.0051 0.144661 15.5118C0.229427 17.2618 0.628646 18.8149 1.90833 20.0946C3.19076 21.377 4.74115 21.7735 6.49115 21.8583C8.00053 21.943 9.49623 21.9293 11.0029 21.9293C12.5122 21.9293 14.008 21.943 15.5146 21.8583C17.2646 21.7735 18.8177 21.3743 20.0974 20.0946C21.3798 18.8122 21.7763 17.2618 21.8611 15.5118C21.9486 14.0051 21.9322 12.5094 21.9322 11.0001ZM11.0001 16.6083C7.89662 16.6083 5.39193 14.1036 5.39193 11.0001C5.39193 7.89654 7.89662 5.39185 11.0001 5.39185C14.1037 5.39185 16.6083 7.89654 16.6083 11.0001C16.6083 14.1036 14.1037 16.6083 11.0001 16.6083ZM16.838 6.47193C16.1134 6.47193 15.5283 5.88677 15.5283 5.16216C15.5283 4.43755 16.1134 3.8524 16.838 3.8524C17.5626 3.8524 18.1478 4.43755 18.1478 5.16216C18.148 5.33423 18.1143 5.50464 18.0485 5.66364C17.9828 5.82265 17.8863 5.96712 17.7647 6.08879C17.643 6.21046 17.4985 6.30692 17.3395 6.37267C17.1805 6.43841 17.0101 6.47215 16.838 6.47193Z" fill="white"/>
</svg>
