<svg width="54" height="54" viewBox="0 0 54 54" fill="none" xmlns="http://www.w3.org/2000/svg">
<g filter="url(#filter0_d_280_17352)">
<path d="M15 27C15 20.3726 20.3726 15 27 15V15C33.6274 15 39 20.3726 39 27V27C39 33.6274 33.6274 39 27 39V39C20.3726 39 15 33.6274 15 27V27Z" fill="white" shape-rendering="crispEdges"/>
<circle cx="27" cy="27" r="4" fill="#3498DB"/>
<path d="M27 37C21.4772 37 17 32.5228 17 27H13C13 34.732 19.268 41 27 41V37ZM37 27C37 32.5228 32.5228 37 27 37V41C34.732 41 41 34.732 41 27H37ZM27 17C32.5228 17 37 21.4772 37 27H41C41 19.268 34.732 13 27 13V17ZM27 13C19.268 13 13 19.268 13 27H17C17 21.4772 21.4772 17 27 17V13Z" fill="#3498DB"/>
</g>
<defs>
<filter id="filter0_d_280_17352" x="0" y="0" width="54" height="54" filterUnits="userSpaceOnUse" color-interpolation-filters="sRGB">
<feFlood flood-opacity="0" result="BackgroundImageFix"/>
<feColorMatrix in="SourceAlpha" type="matrix" values="0 0 0 0 0 0 0 0 0 0 0 0 0 0 0 0 0 0 127 0" result="hardAlpha"/>
<feOffset/>
<feGaussianBlur stdDeviation="7.5"/>
<feComposite in2="hardAlpha" operator="out"/>
<feColorMatrix type="matrix" values="0 0 0 0 0 0 0 0 0 0 0 0 0 0 0 0 0 0 0.1 0"/>
<feBlend mode="normal" in2="BackgroundImageFix" result="effect1_dropShadow_280_17352"/>
<feBlend mode="normal" in="SourceGraphic" in2="effect1_dropShadow_280_17352" result="shape"/>
</filter>
</defs>
</svg>
