<svg width="16" height="17" viewBox="0 0 16 17" fill="none" xmlns="http://www.w3.org/2000/svg">
<path d="M15.7056 12.7186L12.0546 9.39907C11.8821 9.24221 11.6553 9.15855 11.4222 9.16576C11.1891 9.17297 10.9679 9.27047 10.8053 9.43769L8.65606 11.648C8.13873 11.5492 7.09868 11.225 6.0281 10.1571C4.95751 9.08562 4.63328 8.04287 4.53718 7.52914L6.74571 5.37898C6.91314 5.21654 7.01079 4.99532 7.01799 4.76215C7.0252 4.52898 6.9414 4.30215 6.78433 4.12967L3.4657 0.479617C3.30856 0.306596 3.09016 0.201646 2.85689 0.187056C2.62362 0.172466 2.39385 0.249386 2.21638 0.401479L0.267412 2.07292C0.112133 2.22876 0.0194518 2.43618 0.0069501 2.65582C-0.00652204 2.88035 -0.263391 8.19915 3.86088 12.3252C7.45884 15.9223 11.9657 16.1854 13.2069 16.1854C13.3884 16.1854 13.4997 16.18 13.5294 16.1782C13.749 16.166 13.9563 16.0729 14.1114 15.9169L15.7819 13.967C15.9346 13.7901 16.0121 13.5605 15.9978 13.3273C15.9836 13.094 15.8787 12.8756 15.7056 12.7186Z" fill="white"/>
</svg>
